<svg width="500" height="500" viewBox="0 0 500 500" fill="none" xmlns="http://www.w3.org/2000/svg">
<path d="M249.03 487.2C375.194 487.2 477.47 433.944 477.47 368.25C477.47 302.556 375.194 249.3 249.03 249.3C122.866 249.3 20.59 302.556 20.59 368.25C20.59 433.944 122.866 487.2 249.03 487.2Z" fill="#F5F5F5"/>
<path d="M395.38 383.79C429.031 383.79 456.31 368.039 456.31 348.61C456.31 329.181 429.031 313.43 395.38 313.43C361.729 313.43 334.45 329.181 334.45 348.61C334.45 368.039 361.729 383.79 395.38 383.79Z" fill="#E6E6E6"/>
<path d="M150 327.73C173.31 341.19 174.26 363.41 150.94 376.87C127.62 390.33 88.89 389.93 65.57 376.47C42.25 363.01 42.26 341.19 65.57 327.73C88.88 314.27 126.67 314.27 150 327.73Z" fill="#E6E6E6"/>
<path d="M340.14 400.26L263.62 356.08C262.278 355.399 260.795 355.044 259.29 355.044C257.785 355.044 256.302 355.399 254.96 356.08L178.44 400.26C176.05 401.64 176.05 403.88 178.44 405.26L213.29 425.38L180.74 444.17C174.13 447.98 163.37 447.98 156.74 444.17L105.54 414.61C102.72 412.98 101.16 410.93 101.16 408.85C101.16 406.77 102.72 404.71 105.54 403.08L150.91 376.88C151.149 376.755 151.36 376.583 151.531 376.374C151.702 376.165 151.829 375.924 151.904 375.665C151.979 375.406 152.001 375.134 151.968 374.867C151.936 374.599 151.849 374.34 151.714 374.107C151.579 373.873 151.399 373.67 151.183 373.508C150.967 373.346 150.721 373.229 150.459 373.165C150.197 373.101 149.925 373.091 149.658 373.134C149.392 373.178 149.138 373.275 148.91 373.42L103.56 399.6C99.45 401.98 97.18 405.26 97.18 408.84C97.18 412.42 99.45 415.69 103.56 418.07L154.76 447.63C159.089 449.861 163.889 451.025 168.76 451.025C173.631 451.025 178.431 449.861 182.76 447.63L217.31 427.69L255 449.44C256.342 450.121 257.825 450.476 259.33 450.476C260.835 450.476 262.318 450.121 263.66 449.44L340.18 405.26C342.53 403.88 342.53 401.64 340.14 400.26Z" fill="#E6E6E6"/>
<path d="M427.58 332.09C427.58 332.09 430.36 290.91 429.58 275.73C428.93 263.73 427.3 258.73 426.96 256.02C426.96 256.02 424.01 228.02 423.77 204.13C423.65 192.65 422.59 184.49 416.3 170.85L375.87 180.52C375.05 186.58 372.27 226.88 371.61 262.71C371.04 294.08 371.93 321.54 371.93 321.54V323.19C371.93 325.03 371.53 326.31 370.35 329.25C368.875 333.038 366.757 336.543 364.09 339.61C363.26 340.51 357.49 345.55 356.73 346.61C354.25 349.5 359.39 351.13 363.2 350.61C367.2 350.07 373.46 348.54 375.2 346.1C376.38 344.46 377.27 338.75 378.48 337.1C382.57 331.52 384.25 329.1 384.28 327.34C384.34 324.12 383.23 322.85 382.83 321.03C383.16 317.23 391.37 285.98 391.51 274.91C391.58 269.64 391.22 262.38 391.22 262.38L397.58 225.86C400.04 234.98 404.36 257.62 405.82 266.31C407.59 276.93 412.22 304.19 414.96 320.45C416.01 326.72 416.5 329.89 416.96 332.8L417.07 334.04C417.16 335.62 418.31 352.52 418.93 356.04C420.23 363.43 426.8 362.5 427.85 356.52C428.75 351.44 427.63 335.68 427.6 333.75L427.58 332.09Z" fill="#FFA8A7"/>
<path d="M427.58 332.09C429.44 332.09 428.22 339.3 428.7 343.91C429.21 348.86 430.83 352.48 431.3 356.53C431.931 360.07 431.386 363.719 429.75 366.92C428.46 369.92 421.96 373.92 419.49 369.71C417.02 365.5 416.49 360.63 416.78 356.01C417.07 351.39 416.78 348.29 416.87 344.66C416.96 341.46 414.61 333.29 417.02 332.83L417.13 334.07C418 335.8 426.78 336.14 427.66 333.8L427.58 332.09Z" fill="#37474F"/>
<path d="M384.7 331.27C385.27 333.58 384.7 339.92 384.7 339.92C384.7 339.92 383.7 342.11 380.13 343.56L378.53 334.74L384.7 331.27Z" fill="#263238"/>
<path d="M380.11 343.56L372.25 340.98L370.35 334L379.19 338.47L380.11 343.56Z" fill="black"/>
<path d="M371.93 323.19V321.54C370.86 322.06 368.51 330.67 365.33 336.54C362.43 341.93 356.68 344.93 354.81 347.28C352.31 350.41 357.17 354.46 364.96 352.79C368.83 351.96 374.69 349.49 376.28 346.88C377.87 344.27 378.4 339.47 379.7 337.55C381 335.63 384.09 333.42 384.7 331.24C385.208 329.272 385.208 327.208 384.7 325.24C384.09 323.24 383.55 320.85 382.87 321.07V322.58C382.35 323.64 380.46 324.88 376.53 325.1C374.61 325.19 372.79 324.9 371.93 323.19Z" fill="#37474F"/>
<path d="M375.05 180C375.05 180 372.38 209.67 371.52 235.94C370.66 262.21 371.43 296.11 371.43 296.11C371.43 296.11 374.14 298.05 380.11 298.32C386.08 298.59 388.11 296.6 388.11 296.6C388.11 296.6 391.76 284.69 392.33 276.31C392.692 271.774 392.692 267.216 392.33 262.68L397.66 227.62C397.66 227.62 404.42 262.14 405.19 266.31C405.96 270.48 412.43 307.37 412.43 307.37C412.43 307.37 414.97 309.71 421.49 309.59C427.26 309.48 428.93 307.41 428.93 307.41C428.93 307.41 430.32 284.79 430 275.13C429.73 266.61 427.78 259.83 427.39 254.3C427 248.77 426.78 217.3 426.39 205.3C426 193.3 425 183 414.73 168.56L375.05 180Z" fill="#455A64"/>
<path d="M397.7 227.65L393.26 205.65C393.26 205.65 385.53 203.65 381.92 198.91C381.92 198.91 382.92 204.15 390.92 207.5L395.64 229.38L394 252L397.7 227.65Z" fill="#37474F"/>
<path d="M318.56 174.53C321.408 174.965 324.317 174.749 327.07 173.9C325.861 173.296 324.729 172.547 323.7 171.67C323.228 171.291 322.922 170.742 322.847 170.141C322.773 169.54 322.935 168.933 323.3 168.45C323.67 168.05 324.59 168.98 326.67 169.57C329.33 170.32 331.26 170.48 333.82 171.96C334.786 172.522 335.921 172.721 337.02 172.52C343.26 171.35 357.81 164.52 364.48 160.96C365.84 155.41 368.2 147.25 371.11 137.07C373.8 127.69 378.11 123.59 384.99 123.74L384 144.11C384 144.11 380.72 158.18 376.66 169.67C375.95 171.67 373.1 174 367.88 175.94C361.12 178.45 352.96 180.82 342.99 183.55C338.95 184.701 334.823 185.52 330.65 186C320.11 186.9 316.07 184 314.65 181.92C310.61 176.18 313 173.42 318.56 174.53Z" fill="#FFA8A7"/>
<path d="M402.72 123.59L412.34 124.33C411.512 128.24 411.746 132.3 413.02 136.088C414.293 139.877 416.558 143.254 419.58 145.87L415.29 163.15C415.43 165.29 418.97 172.49 422.4 180.23C415.95 188.87 384.31 191.82 373.99 184.23C375.58 176.09 376.77 169.91 377.09 166.82L376.57 155.65C363.63 145.04 379.24 128.87 384.99 123.73L392.21 123.41L402.72 123.59Z" fill="#16A34A"/>
<path d="M443.23 209.68C442.532 209.135 441.979 208.427 441.62 207.618C441.26 206.808 441.106 205.923 441.17 205.04C441.34 203.43 441.71 201.41 442.38 200.63C443.05 199.85 447.25 194.14 449.11 197.46C451.11 201.08 450.7 202.55 450.7 202.55L443.23 209.68Z" fill="#F28F8F"/>
<path d="M430.27 286C425.756 285.85 421.36 284.519 417.52 282.14L367.59 253.3C359.88 248.85 353.59 237.98 353.59 229.07V187.18C353.585 185.778 353.212 184.402 352.508 183.19C351.804 181.978 350.793 180.972 349.578 180.273C348.363 179.574 346.985 179.207 345.583 179.208C344.181 179.209 342.804 179.579 341.59 180.28L324.11 190.4C323.882 190.545 323.628 190.642 323.362 190.686C323.095 190.729 322.823 190.719 322.561 190.655C322.299 190.591 322.053 190.474 321.837 190.312C321.621 190.15 321.441 189.947 321.306 189.713C321.171 189.479 321.084 189.221 321.052 188.953C321.019 188.686 321.041 188.414 321.116 188.155C321.191 187.896 321.318 187.655 321.489 187.446C321.66 187.237 321.871 187.065 322.11 186.94L339.64 176.81C341.463 175.758 343.53 175.203 345.634 175.202C347.739 175.201 349.807 175.754 351.63 176.804C353.454 177.855 354.969 179.367 356.024 181.188C357.079 183.009 357.636 185.075 357.64 187.18V229.07C357.64 236.57 363.14 246.07 369.64 249.84L419.57 278.66C425.96 282.35 431.89 282.99 436.25 280.48C440.61 277.97 443.02 272.48 443.02 265.13V211.65C443.02 202.59 448.81 192.15 456.2 187.88L468.39 180.88C468.618 180.735 468.872 180.638 469.138 180.594C469.405 180.551 469.677 180.561 469.939 180.625C470.201 180.689 470.447 180.806 470.663 180.968C470.879 181.13 471.059 181.333 471.194 181.567C471.329 181.8 471.416 182.059 471.448 182.327C471.481 182.594 471.459 182.866 471.384 183.125C471.309 183.384 471.182 183.625 471.011 183.834C470.84 184.043 470.629 184.215 470.39 184.34L458.2 191.34C452.14 194.84 447.02 204.13 447.02 211.64V265.12C447.02 273.98 443.9 280.66 438.25 283.93C435.822 285.319 433.067 286.034 430.27 286Z" fill="#37474F"/>
<path d="M344 193.29V196.56C344 201.79 340.33 208.16 335.79 210.77L305.51 228.26L274.72 210.48V183.82L304.58 170C309.33 167.81 316.85 168.15 321.39 170.76L335.77 179.07C340.3 181.69 344 188.06 344 193.29Z" fill="#37474F"/>
<path d="M304.58 170C309.33 167.81 316.85 168.15 321.39 170.76L335.77 179.07C340.3 181.68 340.12 185.58 335.37 187.78L305.48 201.58L274.68 183.81L304.58 170Z" fill="#455A64"/>
<path opacity="0.15" d="M308.39 195.18C309.583 195.958 310.576 197.007 311.288 198.24C312 199.474 312.412 200.858 312.49 202.28V224.21L305.49 228.21L274.7 210.43V183.82L282.5 180.22L308.39 195.18Z" fill="black"/>
<path d="M272.07 179.23C272.531 179.015 273.042 178.928 273.548 178.977C274.055 179.026 274.539 179.21 274.95 179.51L305.23 197C306.425 197.779 307.419 198.829 308.131 200.064C308.844 201.3 309.254 202.686 309.33 204.11V230.19C309.385 230.697 309.302 231.21 309.091 231.674C308.88 232.138 308.548 232.538 308.13 232.83C307.43 233.22 304.96 234.65 304.27 235.06C303.807 235.274 303.295 235.362 302.787 235.312C302.279 235.263 301.793 235.079 301.38 234.78L271.09 217.29C269.897 216.512 268.904 215.463 268.192 214.23C267.48 212.996 267.068 211.612 266.99 210.19V184.11C266.937 183.602 267.019 183.09 267.228 182.625C267.437 182.159 267.765 181.757 268.18 181.46L272.07 179.23Z" fill="#37474F"/>
<path d="M301.38 199.22L271.09 181.74C268.83 180.43 266.99 181.49 266.99 184.11V210.19C267.068 211.612 267.48 212.996 268.192 214.23C268.904 215.463 269.897 216.512 271.09 217.29L301.38 234.78C303.64 236.09 305.48 235.03 305.48 232.41V206.33C305.402 204.906 304.99 203.521 304.278 202.286C303.566 201.051 302.573 200.001 301.38 199.22Z" fill="#455A64"/>
<path d="M265.51 229.58V234.09C265.51 235.92 266.14 237.19 267.18 237.79L269.9 239.36C270.552 239.677 271.278 239.811 272 239.748C272.722 239.684 273.413 239.426 274 239L299 224.54V206.74L296.28 205.17L271.23 219.63C269.562 220.722 268.175 222.193 267.181 223.921C266.187 225.65 265.615 227.589 265.51 229.58ZM276.84 224C276.936 224.325 276.989 224.661 277 225C276.929 226.336 276.543 227.637 275.874 228.796C275.205 229.955 274.272 230.94 273.15 231.67C272.839 231.852 272.501 231.987 272.15 232.07C272.062 231.744 272.015 231.408 272.01 231.07C272.082 229.734 272.468 228.433 273.137 227.274C273.806 226.116 274.739 225.131 275.86 224.4C276.171 224.23 276.499 224.096 276.84 224Z" fill="#16A34A"/>
<path opacity="0.2" d="M269.76 239.26C269.812 239.306 269.869 239.346 269.93 239.38L269.83 239.32L267.2 237.79C266.15 237.21 265.53 235.94 265.53 234.1V229.59C265.596 227.586 266.178 225.633 267.22 223.92L269.94 225.49C268.908 227.207 268.33 229.158 268.26 231.16V235.67C268.187 236.838 268.562 237.99 269.31 238.89C269.445 239.031 269.596 239.155 269.76 239.26Z" fill="black"/>
<path opacity="0.5" d="M299 206.74L274 221.2C272.304 222.257 270.906 223.73 269.94 225.48L267.22 223.91C268.186 222.163 269.579 220.69 271.27 219.63L296.32 205.17L299 206.74Z" fill="white"/>
<path opacity="0.2" d="M277 225C276.999 224.639 276.952 224.279 276.86 223.93C278.51 223.48 279.72 224.51 279.72 226.57C279.648 227.905 279.263 229.205 278.596 230.363C277.929 231.522 276.999 232.507 275.88 233.24C274.1 234.24 272.58 233.73 272.16 232.07C272.513 231.993 272.851 231.858 273.16 231.67C274.278 230.937 275.208 229.951 275.875 228.793C276.542 227.634 276.927 226.335 277 225Z" fill="black"/>
<path d="M242.42 216.24V220.76C242.42 222.58 243.05 223.86 244.09 224.45L246.81 226.03C247.461 226.34 248.184 226.469 248.902 226.402C249.621 226.335 250.307 226.075 250.89 225.65L275.89 211.18V193.41L273.17 191.83L248.17 206.29C246.498 207.381 245.106 208.85 244.107 210.579C243.108 212.307 242.53 214.247 242.42 216.24ZM253.75 210.63C253.841 210.979 253.888 211.339 253.89 211.7C253.818 213.036 253.432 214.336 252.763 215.495C252.094 216.654 251.161 217.639 250.04 218.37C249.724 218.542 249.388 218.676 249.04 218.77C248.945 218.428 248.898 218.075 248.9 217.72C248.972 216.385 249.357 215.085 250.024 213.927C250.691 212.768 251.622 211.782 252.74 211.05C253.055 210.863 253.395 210.722 253.75 210.63Z" fill="#16A34A"/>
<path opacity="0.2" d="M246.93 226.1H246.88H246.81L244.09 224.51C243.04 223.92 242.42 222.65 242.42 220.81V216.3C242.431 215.336 242.582 214.38 242.87 213.46C243.171 212.476 243.584 211.53 244.1 210.64L246.82 212.2C246.562 212.646 246.332 213.106 246.13 213.58C245.509 214.924 245.169 216.38 245.13 217.86V222.37C245.045 223.531 245.402 224.681 246.13 225.59C246.366 225.804 246.636 225.977 246.93 226.1Z" fill="black"/>
<path opacity="0.5" d="M275.92 193.41L250.92 207.87C249.222 208.924 247.823 210.398 246.86 212.15L244.14 210.59C245.089 208.842 246.465 207.362 248.14 206.29L273.14 191.83L275.92 193.41Z" fill="white"/>
<path opacity="0.2" d="M253.88 211.69C253.882 211.333 253.838 210.976 253.75 210.63C255.39 210.17 256.61 211.21 256.61 213.27C256.538 214.605 256.153 215.905 255.486 217.063C254.819 218.222 253.889 219.207 252.77 219.94C250.98 220.94 249.47 220.43 249.05 218.76C249.404 218.686 249.742 218.55 250.05 218.36C251.168 217.627 252.097 216.642 252.763 215.483C253.428 214.324 253.811 213.025 253.88 211.69Z" fill="black"/>
<path d="M250 199.55C249.667 199.551 249.343 199.44 249.08 199.235C248.817 199.03 248.631 198.743 248.55 198.42L244.55 182.74C244.451 182.354 244.508 181.944 244.711 181.601C244.914 181.258 245.244 181.009 245.63 180.91C246.016 180.811 246.425 180.868 246.769 181.071C247.112 181.274 247.361 181.604 247.46 181.99L251.46 197.68C251.511 197.87 251.523 198.069 251.496 198.264C251.469 198.46 251.404 198.648 251.303 198.817C251.202 198.987 251.069 199.134 250.91 199.252C250.752 199.369 250.572 199.453 250.38 199.5C250.256 199.532 250.128 199.549 250 199.55Z" fill="#E0E0E0"/>
<path d="M238.74 206.09C238.403 206.091 238.075 205.978 237.81 205.77L222.92 194C222.756 193.881 222.617 193.731 222.513 193.557C222.408 193.384 222.34 193.191 222.312 192.99C222.284 192.789 222.297 192.585 222.35 192.39C222.403 192.194 222.496 192.011 222.621 191.853C222.747 191.694 222.904 191.562 223.082 191.465C223.26 191.369 223.456 191.309 223.657 191.29C223.859 191.271 224.063 191.293 224.256 191.355C224.448 191.417 224.627 191.517 224.78 191.65L239.67 203.41C239.981 203.658 240.182 204.018 240.229 204.414C240.276 204.809 240.165 205.206 239.92 205.52C239.78 205.699 239.601 205.844 239.397 205.943C239.192 206.042 238.967 206.092 238.74 206.09Z" fill="#E0E0E0"/>
<path d="M218.22 220.45C217.822 220.465 217.435 220.321 217.143 220.05C216.852 219.779 216.68 219.403 216.665 219.005C216.65 218.607 216.794 218.22 217.065 217.928C217.336 217.637 217.712 217.465 218.11 217.45L235.52 216.1C235.717 216.084 235.914 216.106 236.102 216.167C236.29 216.228 236.464 216.325 236.613 216.454C236.763 216.582 236.886 216.739 236.975 216.915C237.063 217.091 237.116 217.283 237.13 217.48C237.158 217.876 237.028 218.267 236.77 218.568C236.512 218.869 236.145 219.057 235.75 219.09L218.34 220.44L218.22 220.45Z" fill="#E0E0E0"/>
<path d="M456.84 193.36C456.501 189.665 455.953 185.993 455.2 182.36C452.925 173.837 449.893 165.534 446.14 157.55C444.47 154.36 440.7 149.71 438.03 145.78C434.25 140.23 431.59 137.12 428.72 133.35C422.4 125.08 419.72 124.6 412.34 124.35C411.34 126.98 409.06 137.76 416.45 146.47L432.29 163.17C433.19 164.62 442.87 181.17 444.48 187.28C444.759 188.366 444.623 189.518 444.1 190.51C442.835 193.311 441.905 196.251 441.33 199.27C440.86 201.39 439.6 203.07 440.03 203.4C440.561 203.755 441.197 203.92 441.834 203.87C442.471 203.819 443.072 203.555 443.54 203.12C444.671 201.906 445.593 200.514 446.27 199C446.567 198.981 446.865 199.023 447.145 199.125C447.425 199.227 447.681 199.386 447.896 199.592C448.112 199.797 448.282 200.046 448.396 200.321C448.51 200.596 448.566 200.892 448.56 201.19C448.65 202.42 448.09 204.13 447.66 206.26C447.58 206.68 447.48 207.16 447.29 208.32C447.126 209.103 447.032 209.9 447.01 210.7C449.01 211.07 451.1 209.85 454.46 206.7C457.49 203.76 457.69 199.9 456.84 193.36Z" fill="#FFA8A7"/>
<path d="M404.44 118.73C404.5 116.73 411 112.05 414.29 107.07C417.29 102.45 421.6 89.75 411.5 85.69C411.5 85.69 413.68 79.6 409.72 76.01C405.76 72.42 400.43 74.64 399.59 76.14C399.083 74.27 397.985 72.6137 396.461 71.4174C394.937 70.2211 393.067 69.5486 391.13 69.5C389.238 69.3575 387.358 69.9034 385.837 71.0372C384.315 72.1709 383.255 73.8162 382.85 75.67C381.252 74.9782 379.464 74.857 377.787 75.3268C376.111 75.7965 374.646 76.8286 373.64 78.25C369.93 83.36 374.85 88.04 374.85 88.04C374.212 88.4706 373.703 89.0665 373.377 89.764C373.051 90.4614 372.921 91.2343 373 92C373.29 94.16 375.36 94.69 375.6 95.77C375.646 95.996 375.618 96.2309 375.519 96.4392C375.419 96.6475 375.255 96.8177 375.05 96.924C374.845 97.0303 374.612 97.067 374.384 97.0283C374.157 96.9897 373.948 96.878 373.79 96.71C373.844 96.992 373.953 97.2605 374.111 97.5003C374.269 97.74 374.473 97.9461 374.711 98.1069C374.948 98.2676 375.216 98.3798 375.497 98.4369C375.778 98.4941 376.068 98.4952 376.35 98.44C378.68 98.31 380.76 95.14 380.76 95.14L404.44 118.73Z" fill="#263238"/>
<path d="M383.24 85.05C380.24 86.35 377.41 90.92 377.45 103.7C377.45 114.53 380.81 117.27 382.45 118.08C384.09 118.89 387.4 118.47 390.59 117.98V124.21C390.59 124.21 384.82 131.37 389.99 134.93C403.31 132.6 404.33 123.86 404.33 123.86L404.57 110.28C404.57 110.28 406.4 112.2 409.57 109.38C412.23 107.05 413.19 103.06 411.19 100.86C409.19 98.66 406.63 98.49 404.31 100.94C404.31 100.94 400.06 101.22 393.67 97.21C387.28 93.2 385 89.13 383.24 85.05Z" fill="#FFA8A7"/>
<path d="M390.91 110.48C390.924 110.687 390.896 110.894 390.829 111.089C390.761 111.285 390.656 111.466 390.518 111.62C390.38 111.775 390.213 111.9 390.026 111.989C389.839 112.079 389.637 112.13 389.43 112.14C389.109 112.166 388.789 112.095 388.509 111.937C388.229 111.778 388.003 111.54 387.859 111.252C387.716 110.964 387.663 110.64 387.705 110.321C387.748 110.002 387.885 109.704 388.099 109.464C388.313 109.224 388.594 109.053 388.906 108.974C389.218 108.895 389.546 108.912 389.848 109.021C390.151 109.13 390.414 109.328 390.603 109.588C390.792 109.848 390.899 110.159 390.91 110.48Z" fill="#B16668"/>
<path d="M382.68 100C382.678 100.282 382.593 100.557 382.436 100.791C382.279 101.025 382.057 101.208 381.797 101.317C381.537 101.426 381.251 101.456 380.974 101.404C380.697 101.352 380.442 101.22 380.239 101.024C380.037 100.828 379.896 100.577 379.835 100.302C379.773 100.027 379.794 99.7403 379.894 99.4769C379.994 99.2136 380.169 98.9853 380.398 98.8206C380.627 98.6558 380.898 98.5617 381.18 98.55C381.374 98.546 381.567 98.5804 381.747 98.6513C381.928 98.7221 382.092 98.828 382.232 98.9628C382.371 99.0975 382.483 99.2586 382.56 99.4366C382.636 99.6146 382.677 99.8061 382.68 100Z" fill="#263238"/>
<path d="M393.75 100.66C393.764 100.867 393.736 101.074 393.668 101.269C393.601 101.465 393.495 101.646 393.358 101.8C393.22 101.955 393.053 102.08 392.866 102.169C392.679 102.259 392.477 102.31 392.27 102.32C391.852 102.323 391.449 102.16 391.15 101.868C390.85 101.576 390.678 101.178 390.67 100.76C390.663 100.558 390.697 100.356 390.768 100.167C390.839 99.9775 390.947 99.8041 391.086 99.6564C391.224 99.5088 391.39 99.3898 391.574 99.3064C391.759 99.2229 391.958 99.1766 392.16 99.17C392.362 99.1634 392.564 99.1968 392.753 99.2681C392.942 99.3394 393.116 99.4473 393.264 99.5857C393.411 99.7241 393.53 99.8901 393.614 100.074C393.697 100.259 393.743 100.458 393.75 100.66Z" fill="#263238"/>
<path d="M381.68 94.27L378.63 96.06C378.739 96.2662 378.889 96.4478 379.071 96.5935C379.253 96.7392 379.464 96.8458 379.689 96.9068C379.914 96.9677 380.149 96.9817 380.38 96.9479C380.611 96.914 380.832 96.8331 381.03 96.71C381.431 96.4647 381.722 96.0744 381.843 95.6201C381.964 95.1658 381.906 94.6824 381.68 94.27Z" fill="#263238"/>
<path d="M404.37 99.1801V105.18C403.985 105.19 403.603 105.121 403.246 104.977C402.888 104.833 402.565 104.618 402.294 104.345C402.023 104.071 401.811 103.745 401.671 103.387C401.531 103.028 401.466 102.645 401.48 102.26C401.483 101.476 401.783 100.723 402.319 100.152C402.856 99.5803 403.588 99.2331 404.37 99.1801Z" fill="#263238"/>
<path d="M386.62 98.5701L386.01 107.21L381.45 106.14L386.62 98.5701Z" fill="#F28F8F"/>
<path d="M390.63 118C393.98 117.61 400.9 115.69 402.03 112.87C401.582 114.283 400.718 115.527 399.55 116.44C397.46 118.24 390.62 120.1 390.62 120.1L390.63 118Z" fill="#F28F8F"/>
<path d="M430.9 51.18C432.176 51.6671 433.372 52.3411 434.45 53.18C435.494 53.9431 436.392 54.8882 437.1 55.97C437.774 57.0107 438.217 58.1837 438.4 59.41C438.58 60.719 438.418 62.0523 437.93 63.28C437.581 64.263 437.04 65.167 436.34 65.94C435.714 66.599 434.997 67.1648 434.21 67.62C433.444 68.0574 432.641 68.4255 431.81 68.72L429.45 69.57C428.756 69.8209 428.086 70.1355 427.45 70.51C426.85 70.8115 426.348 71.2759 426 71.85C425.841 72.1181 425.613 72.3389 425.34 72.49C425.209 72.5619 425.064 72.6037 424.916 72.6124C424.767 72.621 424.618 72.5963 424.48 72.54L421.36 71.37C421.212 71.3152 421.076 71.2312 420.961 71.123C420.846 71.0148 420.754 70.8845 420.69 70.74C420.621 70.6017 420.586 70.4494 420.586 70.295C420.586 70.1406 420.621 69.9883 420.69 69.85C421.091 68.8878 421.683 68.017 422.43 67.29C423.107 66.653 423.864 66.1053 424.68 65.66C425.468 65.2368 426.291 64.8822 427.14 64.6C427.98 64.32 428.76 64.05 429.49 63.77C430.149 63.528 430.783 63.2197 431.38 62.85C431.894 62.5244 432.287 62.0398 432.5 61.47C432.697 60.9709 432.769 60.4312 432.71 59.8978C432.651 59.3644 432.462 58.8537 432.16 58.41C431.407 57.3173 430.314 56.505 429.05 56.1C427.949 55.6621 426.74 55.576 425.589 55.8536C424.437 56.1312 423.4 56.7588 422.62 57.65C422.421 57.8608 422.187 58.0365 421.93 58.17C421.652 58.257 421.352 58.2355 421.09 58.11L417.77 56.86C417.652 56.8189 417.543 56.7544 417.45 56.6702C417.357 56.586 417.282 56.4839 417.23 56.37C417.173 56.2533 417.143 56.125 417.143 55.995C417.143 55.865 417.173 55.7367 417.23 55.62C417.67 54.6004 418.357 53.7067 419.23 53.02C420.202 52.2119 421.309 51.5822 422.5 51.16C423.808 50.6977 425.183 50.4479 426.57 50.42C428.049 50.3921 429.519 50.6501 430.9 51.18ZM423.78 75.08C423.926 75.1318 424.059 75.2138 424.171 75.3206C424.283 75.4275 424.371 75.5568 424.43 75.7C424.492 75.842 424.523 75.9952 424.523 76.15C424.523 76.3048 424.492 76.458 424.43 76.6L423.07 80.21C423.018 80.3559 422.936 80.4892 422.829 80.6012C422.723 80.7132 422.593 80.8014 422.45 80.86C422.308 80.9217 422.155 80.9535 422 80.9535C421.845 80.9535 421.692 80.9217 421.55 80.86L418.02 79.53C417.874 79.4782 417.741 79.3962 417.629 79.2894C417.517 79.1826 417.429 79.0533 417.37 78.91C417.308 78.768 417.277 78.6148 417.277 78.46C417.277 78.3052 417.308 78.152 417.37 78.01L418.73 74.4C418.783 74.2538 418.866 74.1199 418.972 74.0064C419.079 73.893 419.207 73.8023 419.35 73.74C419.493 73.6806 419.646 73.65 419.8 73.65C419.954 73.65 420.107 73.6806 420.25 73.74L423.78 75.08Z" fill="#16A34A"/>
<path d="M432.63 94.28C432.734 94.3824 432.817 94.5045 432.874 94.6393C432.93 94.7741 432.959 94.9188 432.959 95.065C432.959 95.2112 432.93 95.3559 432.874 95.4907C432.817 95.6254 432.734 95.7476 432.63 95.85L430.13 98.49C430.03 98.5965 429.909 98.6816 429.775 98.74C429.641 98.7985 429.496 98.8291 429.35 98.83C429.203 98.8353 429.057 98.8115 428.92 98.7601C428.783 98.7086 428.657 98.6304 428.55 98.53L426 96.08C425.893 95.9798 425.808 95.859 425.75 95.7249C425.692 95.5908 425.661 95.4463 425.66 95.3C425.652 95.1532 425.675 95.0064 425.727 94.8688C425.778 94.7311 425.858 94.6056 425.96 94.5L428.47 91.87C428.679 91.6642 428.961 91.5489 429.255 91.5489C429.549 91.5489 429.831 91.6642 430.04 91.87L432.63 94.28ZM447.63 76.15C448.56 77.031 449.358 78.0414 450 79.15C450.619 80.2005 451.048 81.3512 451.27 82.55C451.457 83.6991 451.399 84.8749 451.1 86C450.781 87.0646 450.244 88.051 449.522 88.8963C448.801 89.7417 447.911 90.4275 446.91 90.91C446.128 91.2554 445.299 91.4845 444.45 91.59C443.623 91.683 442.79 91.7064 441.96 91.66L439.6 91.53C438.896 91.492 438.19 91.5154 437.49 91.6C436.863 91.6692 436.267 91.9116 435.77 92.3C435.535 92.4778 435.254 92.5853 434.96 92.61C434.82 92.6257 434.678 92.6096 434.544 92.5629C434.411 92.5162 434.29 92.44 434.19 92.34L431.92 90.18C431.701 89.9738 431.572 89.6902 431.56 89.39C431.546 89.2423 431.567 89.0933 431.623 88.9557C431.679 88.8181 431.767 88.6961 431.88 88.6C432.577 87.9072 433.407 87.363 434.32 87C435.141 86.695 435.998 86.4967 436.87 86.41C437.712 86.3401 438.558 86.3401 439.4 86.41C440.233 86.4833 441.013 86.5333 441.74 86.56C442.409 86.5937 443.079 86.5568 443.74 86.45C444.309 86.3615 444.833 86.0873 445.23 85.67C445.581 85.3071 445.838 84.8647 445.981 84.3806C446.124 83.8966 446.148 83.3852 446.05 82.89C445.801 81.6633 445.15 80.5547 444.2 79.74C443.401 78.9588 442.381 78.4435 441.278 78.2645C440.176 78.0855 439.045 78.2515 438.04 78.74C437.793 78.8486 437.529 78.9129 437.26 78.93C437.123 78.9218 436.99 78.8856 436.868 78.8237C436.746 78.7618 436.637 78.6754 436.55 78.57L434.13 76.26C433.956 76.1024 433.848 75.8842 433.83 75.65C433.824 75.5263 433.844 75.4027 433.888 75.2872C433.933 75.1718 434.002 75.0671 434.09 74.98C434.846 74.2607 435.766 73.7356 436.77 73.45C437.91 73.109 439.102 72.9702 440.29 73.04C441.598 73.1197 442.885 73.4101 444.1 73.9C445.4 74.4126 446.586 75.1772 447.59 76.15H447.63Z" fill="#16A34A"/>
<g opacity="0.6">
<path d="M432.63 94.28C432.734 94.3824 432.817 94.5045 432.874 94.6393C432.93 94.7741 432.959 94.9188 432.959 95.065C432.959 95.2112 432.93 95.3559 432.874 95.4907C432.817 95.6254 432.734 95.7476 432.63 95.85L430.13 98.49C430.03 98.5965 429.909 98.6816 429.775 98.74C429.641 98.7985 429.496 98.8291 429.35 98.83C429.203 98.8353 429.057 98.8115 428.92 98.7601C428.783 98.7086 428.657 98.6304 428.55 98.53L426 96.08C425.893 95.9798 425.808 95.859 425.75 95.7249C425.692 95.5908 425.661 95.4463 425.66 95.3C425.652 95.1532 425.675 95.0064 425.727 94.8688C425.778 94.7311 425.858 94.6056 425.96 94.5L428.47 91.87C428.679 91.6642 428.961 91.5489 429.255 91.5489C429.549 91.5489 429.831 91.6642 430.04 91.87L432.63 94.28ZM447.63 76.15C448.56 77.031 449.358 78.0414 450 79.15C450.619 80.2005 451.048 81.3512 451.27 82.55C451.457 83.6991 451.399 84.8749 451.1 86C450.781 87.0646 450.244 88.051 449.522 88.8963C448.801 89.7417 447.911 90.4275 446.91 90.91C446.128 91.2554 445.299 91.4845 444.45 91.59C443.623 91.683 442.79 91.7064 441.96 91.66L439.6 91.53C438.896 91.492 438.19 91.5154 437.49 91.6C436.863 91.6692 436.267 91.9116 435.77 92.3C435.535 92.4778 435.254 92.5853 434.96 92.61C434.82 92.6257 434.678 92.6096 434.544 92.5629C434.411 92.5162 434.29 92.44 434.19 92.34L431.92 90.18C431.701 89.9738 431.572 89.6902 431.56 89.39C431.546 89.2423 431.567 89.0933 431.623 88.9557C431.679 88.8181 431.767 88.6961 431.88 88.6C432.577 87.9072 433.407 87.363 434.32 87C435.141 86.695 435.998 86.4967 436.87 86.41C437.712 86.3401 438.558 86.3401 439.4 86.41C440.233 86.4833 441.013 86.5333 441.74 86.56C442.409 86.5937 443.079 86.5568 443.74 86.45C444.309 86.3615 444.833 86.0873 445.23 85.67C445.581 85.3071 445.838 84.8647 445.981 84.3806C446.124 83.8966 446.148 83.3852 446.05 82.89C445.801 81.6633 445.15 80.5547 444.2 79.74C443.401 78.9588 442.381 78.4435 441.278 78.2645C440.176 78.0855 439.045 78.2515 438.04 78.74C437.793 78.8486 437.529 78.9129 437.26 78.93C437.123 78.9218 436.99 78.8856 436.868 78.8237C436.746 78.7618 436.637 78.6754 436.55 78.57L434.13 76.26C433.956 76.1024 433.848 75.8842 433.83 75.65C433.824 75.5263 433.844 75.4027 433.888 75.2872C433.933 75.1718 434.002 75.0671 434.09 74.98C434.846 74.2607 435.766 73.7356 436.77 73.45C437.91 73.109 439.102 72.9702 440.29 73.04C441.598 73.1197 442.885 73.4101 444.1 73.9C445.4 74.4126 446.586 75.1772 447.59 76.15H447.63Z" fill="white"/>
</g>
<path d="M76.8101 345.71C79.9801 347.64 84.1901 347.71 88.1601 346.32L91.1601 325.32L77.1601 321.74L76.8101 345.71Z" fill="#FFA8A7"/>
<path d="M99.4 365.81C99.75 366.17 99.54 368.81 99.11 369.4C98.68 369.99 96.27 371.99 91.83 372.07C87.6 372.14 83.83 371.37 81.47 369.66C79.11 367.95 77.98 366.16 77.87 363.74C77.76 361.32 78.16 359.03 77.12 357.12C76.08 355.21 74.83 353.61 74.51 352.67C74.1344 350.967 74.1344 349.203 74.51 347.5L99.4 365.81Z" fill="#263238"/>
<path d="M89.13 345.44C89.1497 346.352 89.2773 347.258 89.51 348.14C90.0553 350.031 90.8241 351.851 91.8 353.56C92.2854 354.452 92.83 355.311 93.43 356.13C94.62 357.72 96.14 359.05 97.43 360.58C98.7994 362.03 99.623 363.91 99.76 365.9C99.76 369.22 96.11 370.15 93.32 370.49C90.2883 370.86 87.2121 370.542 84.32 369.56C82.8065 369.076 81.4646 368.166 80.4553 366.938C79.4461 365.711 78.8123 364.219 78.63 362.64C78.52 361.71 78.63 360.78 78.57 359.85C78.321 357.716 77.5443 355.678 76.31 353.92C75.5925 352.903 74.9888 351.809 74.51 350.66C73.75 348.57 74.57 346.3 75.23 344.29C75.8 342.56 76.23 340.47 76.87 340.67C76.87 341.02 76.87 341.8 76.87 341.8C77.05 342.19 77.49 342.47 77.6 342.93C77.7038 343.405 77.8476 343.87 78.03 344.32C78.3024 345.016 78.7847 345.61 79.41 346.02C79.52 344.77 79.63 343.52 79.73 342.28C79.7016 342.083 79.7185 341.882 79.7794 341.692C79.8403 341.503 79.9436 341.33 80.0815 341.186C80.2193 341.042 80.3881 340.932 80.575 340.863C80.7619 340.795 80.962 340.77 81.16 340.79C83.5058 340.361 85.903 340.29 88.27 340.58C88.4483 340.593 88.6222 340.642 88.7818 340.722C88.9414 340.803 89.0835 340.914 89.2 341.05C89.3221 341.316 89.3605 341.612 89.31 341.9C89.1862 343.076 89.1262 344.258 89.13 345.44Z" fill="#16A34A"/>
<path opacity="0.2" d="M89.13 345.44C89.1497 346.352 89.2773 347.258 89.51 348.14C90.0553 350.031 90.8241 351.851 91.8 353.56C92.2854 354.452 92.83 355.311 93.43 356.13C94.62 357.72 96.14 359.05 97.43 360.58C98.7994 362.03 99.623 363.91 99.76 365.9C99.76 369.22 96.11 370.15 93.32 370.49C90.2883 370.86 87.2121 370.542 84.32 369.56C82.8065 369.076 81.4646 368.166 80.4553 366.938C79.4461 365.711 78.8123 364.219 78.63 362.64C78.52 361.71 78.63 360.78 78.57 359.85C78.321 357.716 77.5443 355.678 76.31 353.92C75.5925 352.903 74.9888 351.809 74.51 350.66C73.75 348.57 74.57 346.3 75.23 344.29C75.8 342.56 76.23 340.47 76.87 340.67C76.87 341.02 76.87 341.8 76.87 341.8C77.05 342.19 77.49 342.47 77.6 342.93C77.7038 343.405 77.8476 343.87 78.03 344.32C78.3024 345.016 78.7847 345.61 79.41 346.02C79.52 344.77 79.63 343.52 79.73 342.28C79.7016 342.083 79.7185 341.882 79.7794 341.692C79.8403 341.503 79.9436 341.33 80.0815 341.186C80.2193 341.042 80.3881 340.932 80.575 340.863C80.7619 340.795 80.962 340.77 81.16 340.79C83.5058 340.361 85.903 340.29 88.27 340.58C88.4483 340.593 88.6222 340.642 88.7818 340.722C88.9414 340.803 89.0835 340.914 89.2 341.05C89.3221 341.316 89.3605 341.612 89.31 341.9C89.1862 343.076 89.1262 344.258 89.13 345.44Z" fill="black"/>
<path d="M92.21 354.28C91.03 353.28 88.27 353.13 86.75 353.21C85.2101 353.262 83.7077 353.698 82.38 354.48C82.1838 354.6 81.9525 354.648 81.7248 354.617C81.4972 354.586 81.2871 354.478 81.13 354.31C81.0377 354.212 80.9677 354.096 80.9252 353.969C80.8827 353.841 80.8685 353.706 80.8838 353.573C80.899 353.439 80.9433 353.311 81.0135 353.196C81.0836 353.082 81.178 352.984 81.29 352.91C82.7595 351.952 84.4666 351.423 86.22 351.38C90 351.32 91 352 91 352C91 352 92.64 353.2 92.21 354.28Z" fill="#455A64"/>
<path d="M94.8601 357.82C93.3601 356.82 90.3201 356.82 88.8001 356.87C87.2884 356.941 85.8224 357.411 84.5501 358.23C84.3529 358.352 84.1194 358.402 83.8896 358.371C83.6597 358.34 83.4478 358.23 83.2901 358.06C83.1965 357.963 83.1257 357.846 83.083 357.718C83.0402 357.59 83.0264 357.454 83.0427 357.32C83.059 357.186 83.1049 357.057 83.1771 356.943C83.2492 356.829 83.3459 356.732 83.4601 356.66C84.9381 355.649 86.6707 355.074 88.4601 355C92.1901 354.93 93.1201 355.75 93.1201 355.75C93.5489 355.939 93.9286 356.224 94.2302 356.583C94.5319 356.942 94.7473 357.365 94.8601 357.82Z" fill="#455A64"/>
<path d="M84.93 347.75C86.5093 347.561 88.1106 347.781 89.58 348.39C90.21 348.8 90.58 349.85 90.15 350.09C88.8531 349.488 87.4274 349.217 86 349.3C84.6025 349.362 83.2259 349.663 81.93 350.19C81.6 350.31 81.22 350.49 80.93 350.65C80.8232 350.705 80.7062 350.737 80.5864 350.744C80.4665 350.751 80.3465 350.734 80.2338 350.693C80.121 350.651 80.0181 350.587 79.9314 350.504C79.8447 350.421 79.7762 350.321 79.73 350.21C79.6673 350.025 79.6709 349.824 79.7403 349.642C79.8096 349.459 79.9404 349.307 80.11 349.21C81.5945 348.386 83.2378 347.888 84.93 347.75Z" fill="#455A64"/>
<path d="M116.27 337.82C118.71 343.93 122.53 342.05 128.35 338.53L129.23 317.67L114.42 316.3L116.27 337.82Z" fill="#FFA8A7"/>
<path d="M150.69 352.53C150.96 353.512 150.846 354.56 150.37 355.46C149.91 356.3 145.28 358.6 139.23 357.86C134.744 357.308 130.489 355.56 126.91 352.8C124.68 351.14 122.29 350.73 119.29 350.39C116.29 350.05 114.04 349.01 113.45 347.57C112.86 346.13 113.76 343.75 113.76 343.75L150.69 352.53Z" fill="#263238"/>
<path d="M127.13 333.3C127.677 333.185 128.215 333.031 128.74 332.84C129.034 332.731 129.356 332.731 129.65 332.84C130.03 333.01 130.15 333.47 130.24 333.84C130.325 334.745 130.5 335.639 130.76 336.51C131.169 337.233 131.712 337.871 132.36 338.39C133.801 339.68 135.373 340.816 137.05 341.78C138.98 342.96 140.88 343.89 142.87 344.92C144.86 345.95 147.65 346.69 149.23 347.92C151.52 349.66 151.61 353.71 148.81 355.15C146.4 356.4 140.16 357.56 133.81 355.38C130.34 354.19 126.64 350.22 122.04 349.61C119.11 349.23 115.21 348.77 113.44 346.44C112.8 345.44 113.36 342.54 113.88 339.15C114.35 336.15 114.78 331.35 115.75 331.67L115.82 332.59L117 334C117.259 334.275 117.532 334.536 117.82 334.78C118.136 335.149 118.47 335.503 118.82 335.84C119.295 336.247 119.886 336.495 120.51 336.55C120.806 336.569 121.1 336.503 121.36 336.36C121.86 336.08 121.93 335.42 122.36 335.01C122.825 334.532 123.383 334.154 124 333.9C124.857 333.595 125.752 333.413 126.66 333.36C126.818 333.35 126.975 333.33 127.13 333.3Z" fill="#16A34A"/>
<path opacity="0.2" d="M127.13 333.3C127.677 333.185 128.215 333.031 128.74 332.84C129.034 332.731 129.356 332.731 129.65 332.84C130.03 333.01 130.15 333.47 130.24 333.84C130.325 334.745 130.5 335.639 130.76 336.51C131.169 337.233 131.712 337.871 132.36 338.39C133.801 339.68 135.373 340.816 137.05 341.78C138.98 342.96 140.88 343.89 142.87 344.92C144.86 345.95 147.65 346.69 149.23 347.92C151.52 349.66 151.61 353.71 148.81 355.15C146.4 356.4 140.16 357.56 133.81 355.38C130.34 354.19 126.64 350.22 122.04 349.61C119.11 349.23 115.21 348.77 113.44 346.44C112.8 345.44 113.36 342.54 113.88 339.15C114.35 336.15 114.78 331.35 115.75 331.67L115.82 332.59L117 334C117.259 334.275 117.532 334.536 117.82 334.78C118.136 335.149 118.47 335.503 118.82 335.84C119.295 336.247 119.886 336.495 120.51 336.55C120.806 336.569 121.1 336.503 121.36 336.36C121.86 336.08 121.93 335.42 122.36 335.01C122.825 334.532 123.383 334.154 124 333.9C124.857 333.595 125.752 333.413 126.66 333.36C126.818 333.35 126.975 333.33 127.13 333.3Z" fill="black"/>
<path d="M134.4 340C134.208 339.585 133.915 339.224 133.548 338.95C133.182 338.676 132.753 338.497 132.3 338.43C130.98 338.11 128.57 338.97 127.04 340.1C126.895 340.206 126.778 340.345 126.699 340.507C126.62 340.668 126.582 340.846 126.588 341.026C126.593 341.205 126.643 341.381 126.733 341.537C126.822 341.693 126.948 341.824 127.1 341.92C127.293 342.036 127.516 342.092 127.741 342.079C127.966 342.067 128.181 341.987 128.36 341.85C130.052 340.463 132.222 339.799 134.4 340Z" fill="#455A64"/>
<path d="M138.41 342.57C138.14 342.144 137.773 341.79 137.338 341.536C136.903 341.282 136.413 341.136 135.91 341.11C133.847 341.089 131.83 341.723 130.15 342.92C130.008 343.018 129.891 343.15 129.811 343.303C129.731 343.456 129.689 343.627 129.689 343.8C129.689 343.973 129.731 344.144 129.811 344.297C129.891 344.45 130.008 344.582 130.15 344.68C130.337 344.793 130.554 344.846 130.773 344.831C130.991 344.817 131.199 344.736 131.37 344.6C132.315 343.753 133.439 343.131 134.658 342.779C135.877 342.428 137.159 342.356 138.41 342.57Z" fill="#455A64"/>
<path d="M142.87 344.91C142.558 344.513 142.165 344.187 141.716 343.956C141.268 343.725 140.774 343.593 140.27 343.57C138.279 343.586 136.344 344.23 134.74 345.41C134.601 345.513 134.489 345.649 134.414 345.805C134.339 345.961 134.302 346.133 134.308 346.306C134.314 346.479 134.362 346.648 134.448 346.798C134.533 346.949 134.654 347.076 134.8 347.17C134.982 347.292 135.198 347.352 135.417 347.339C135.635 347.326 135.844 347.242 136.01 347.1C136.903 346.224 137.988 345.57 139.18 345.189C140.371 344.809 141.635 344.713 142.87 344.91Z" fill="#455A64"/>
<path d="M76.42 289.41C76.87 279.34 79.01 274.1 79.31 271.31C79.31 271.31 80.13 215.91 81.48 199.1L131.08 196.99C131.81 214.99 132.47 263.35 132.08 269.75C131.71 275.88 129.22 329.05 129.22 329.05C122.22 331.24 114.75 328.05 114.75 328.05C114.75 328.05 110.59 297.8 109.91 291.13C109.427 285.131 109.582 279.097 110.37 273.13L107.2 230.06C107.2 230.06 103.37 263.46 101.48 276.06C99.32 290.47 90 335.14 90 335.14C83.3 336.81 76.78 333.92 76.78 333.92C76.78 333.92 75.76 304 76.42 289.41Z" fill="#455A64"/>
<path d="M107.21 230.1L108.15 224.16C111.04 223.73 118.36 219.16 122.69 215.16C119.606 219.827 115.432 223.675 110.53 226.37L110.38 273.15L107.21 230.1Z" fill="#37474F"/>
<path d="M127.55 167.81C124.18 160.12 118.38 147.17 118.38 147.17L116.91 126.17C119.056 126.238 121.196 126.429 123.32 126.74C126.44 127.23 131.39 130.21 133.65 135.83C135.34 140 144.12 165.44 144.12 165.44L159.42 157.38C163.34 154.89 164.73 150.76 167.23 148.38C169.73 146 172.23 145.64 175 143.73C177.77 141.82 178.86 140.29 179.56 142.2C180.26 144.11 177.16 147.04 176.56 147.77C175.96 148.5 172.95 150.06 176.79 150.26C180.63 150.46 188.4 146.72 190.26 146.08C192.12 145.44 191.96 147.65 190.99 149.02C190.02 150.39 189.92 154.41 188.3 156.66C186.58 159.06 185.65 160.09 181.96 161.52C178.53 162.84 171.42 163.18 167.76 165.29C164.1 167.4 155.24 175.41 149.33 179.52C141.4 185.04 136.94 185.4 133.83 181C130.72 176.6 128.74 170.52 127.55 167.81Z" fill="#FFA8A7"/>
<path d="M114.84 125.72C120.04 125.32 126.17 125.64 129.56 128.72C132.27 131.19 133.29 132.72 136.31 141.26C138.31 146.99 142.59 160.19 142.59 160.19C136.714 161.516 131.44 164.747 127.59 169.38L117.84 147.47L114.84 125.72Z" fill="#E0E0E0"/>
<path d="M144.12 165.39C141.485 166.323 139.217 168.075 137.65 170.39C137.65 170.39 138.02 166.39 143.65 164L144.12 165.39Z" fill="#F28F8F"/>
<path d="M102.39 124.78C99.927 124.678 97.4627 124.948 95.08 125.58C90.51 126.79 82.32 129.09 82.32 129.09C79.72 130.44 78.71 134.94 78.12 137.53C76.24 145.82 81.12 164.53 81.87 171.82C82.62 179.11 81 201.44 81 201.44C86.59 207.92 116.88 212.22 131.63 201.44C131.63 201.44 132.27 150.17 130.82 142.81C128.62 131.67 125.35 126.38 113.82 125.71L102.39 124.78Z" fill="#F5F5F5"/>
<path d="M108.86 97.2801L105.57 99.0901C105.342 98.6371 105.295 98.1146 105.438 97.6282C105.581 97.1418 105.904 96.7279 106.34 96.4701C106.557 96.352 106.797 96.2793 107.043 96.2562C107.289 96.2332 107.538 96.2604 107.773 96.3361C108.009 96.4118 108.227 96.5345 108.413 96.6967C108.6 96.859 108.752 97.0574 108.86 97.2801Z" fill="#263238"/>
<path d="M123.17 98.6L120.17 96.29C120.311 96.0871 120.492 95.915 120.701 95.7842C120.911 95.6535 121.145 95.5667 121.389 95.5293C121.633 95.4919 121.882 95.5046 122.122 95.5666C122.361 95.6286 122.585 95.7386 122.78 95.89C123.177 96.2074 123.439 96.6644 123.511 97.1678C123.584 97.6713 123.462 98.1834 123.17 98.6Z" fill="#263238"/>
<path d="M93.74 86.8101C93.74 86.8101 90.2 87.3001 88.9 90.0001C87.78 92.3201 88.18 97.9201 89.69 104C90.5433 107.945 91.8173 111.787 93.49 115.46C94.0809 116.501 95.0466 117.277 96.19 117.63L96 110.37L95.74 105.37C95.74 105.37 98.97 100.95 99.33 97.3701C99.79 92.7101 98.81 90.8001 98.81 90.8001L93.74 86.8101Z" fill="#263238"/>
<path d="M99.45 93.8101C99.4632 97.3933 100.897 100.825 103.438 103.352C105.978 105.879 109.417 107.295 113 107.29C120.46 107.29 126.06 101.14 126 93.6701C125.94 86.2001 120.34 80.2201 112.87 80.2501C109.295 80.2765 105.875 81.7181 103.36 84.2594C100.845 86.8007 99.4393 90.2347 99.45 93.8101Z" fill="#263238"/>
<path d="M96 104.52C94.78 105.58 93.79 102.85 92.77 101.78C91.75 100.71 88.4 99.27 86.77 102.78C85.14 106.29 88.23 111.38 90.77 112.36C91.5368 112.65 92.3789 112.674 93.1608 112.427C93.9427 112.181 94.6187 111.678 95.08 111V127C98.93 133.94 105.72 133.72 109.35 133.33C112.98 132.94 113.77 129.17 111.12 126.13V121.13C113.137 121.447 115.182 121.544 117.22 121.42C120.54 120.9 122.22 118.42 123.22 114.79C124.82 109 125.47 99.28 123.22 88.05C119.5 85.17 106.6 85.65 98.79 90.6C99.4 100.67 97.16 103.47 96 104.52Z" fill="#FFA8A7"/>
<path d="M123.88 82.4901C124.382 80.4054 124.608 78.2636 124.55 76.1201C124.55 75.2801 124.34 74.2601 123.55 73.9401C122.76 73.6201 121.98 74.2001 121.3 74.6601C118.42 76.6001 114.84 77.1501 111.37 77.3401C105.37 77.6701 96.2 77.2801 93.15 83.8501C92.3 85.6701 92.15 87.5901 93.83 88.8501C95.3279 89.8534 97.0406 90.4905 98.83 90.7101C101.83 91.2401 104.83 91.9001 107.91 92.3101C110.99 92.7201 114.65 93.1201 117.7 92.1801C120.27 91.3901 122.88 90.7101 124.79 88.6701C126.446 86.8912 127.38 84.5598 127.41 82.1301C127.41 81.7901 127.34 81.3601 127 81.2701C126.83 81.2487 126.658 81.2839 126.51 81.3701L123.88 82.4901Z" fill="#263238"/>
<path d="M111.09 121.24C111.09 121.24 103.67 119.77 101.09 118.4C99.5617 117.608 98.3073 116.375 97.49 114.86C97.87 116.373 98.5502 117.795 99.49 119.04C101.4 121.46 111.07 123.21 111.07 123.21L111.09 121.24Z" fill="#F28F8F"/>
<path d="M109.6 102.19C109.59 102.518 109.484 102.836 109.295 103.104C109.105 103.372 108.841 103.578 108.535 103.697C108.229 103.816 107.895 103.842 107.575 103.772C107.254 103.702 106.961 103.539 106.733 103.303C106.504 103.068 106.35 102.77 106.289 102.448C106.229 102.125 106.265 101.792 106.392 101.49C106.52 101.188 106.734 100.93 107.008 100.748C107.281 100.567 107.602 100.47 107.93 100.47C108.379 100.478 108.807 100.663 109.12 100.986C109.433 101.308 109.605 101.741 109.6 102.19Z" fill="#263238"/>
<path d="M112 113.74C112.008 114.163 111.849 114.571 111.556 114.877C111.264 115.182 110.863 115.36 110.44 115.37C110.015 115.362 109.61 115.186 109.314 114.881C109.018 114.576 108.855 114.165 108.86 113.74C108.856 113.531 108.893 113.324 108.97 113.129C109.046 112.935 109.16 112.757 109.304 112.607C109.449 112.457 109.622 112.336 109.814 112.253C110.005 112.169 110.211 112.124 110.42 112.12C110.844 112.128 111.247 112.302 111.543 112.606C111.838 112.909 112.003 113.317 112 113.74Z" fill="#B16668"/>
<path d="M107.5 96.94L104.06 99.11C103.776 98.6378 103.686 98.074 103.809 97.537C103.933 96.9999 104.259 96.5315 104.72 96.23C104.948 96.0902 105.202 95.9976 105.466 95.9576C105.731 95.9177 106.001 95.9312 106.26 95.9974C106.519 96.0636 106.763 96.1811 106.976 96.343C107.189 96.5049 107.367 96.7079 107.5 96.94Z" fill="#263238"/>
<path d="M119.64 94.8201L123.26 96.4401C123.162 96.6777 123.018 96.893 122.834 97.0731C122.651 97.2532 122.433 97.3942 122.194 97.4877C121.955 97.5812 121.699 97.6251 121.442 97.6169C121.185 97.6088 120.933 97.5486 120.7 97.4401C120.227 97.2154 119.856 96.8215 119.66 96.3364C119.464 95.8513 119.457 95.3102 119.64 94.8201Z" fill="#263238"/>
<path d="M121.55 101.69C121.538 102.005 121.434 102.31 121.251 102.567C121.067 102.823 120.812 103.02 120.518 103.133C120.224 103.246 119.902 103.27 119.594 103.202C119.286 103.134 119.005 102.977 118.786 102.751C118.566 102.525 118.418 102.239 118.359 101.929C118.301 101.619 118.334 101.299 118.456 101.008C118.578 100.717 118.783 100.468 119.045 100.293C119.307 100.117 119.615 100.022 119.93 100.02C120.366 100.028 120.781 100.208 121.084 100.521C121.388 100.834 121.555 101.254 121.55 101.69Z" fill="#263238"/>
<path d="M113.37 98.8701L113.97 109.99L119.24 108.59L113.37 98.8701Z" fill="#F28F8F"/>
<path d="M20 144.67C21.73 145.6 28.78 150.56 32.61 150.99C34.23 151.17 34.67 150.91 34.61 150.49C34.53 149.91 33.5 149.04 33.25 148.57C32.82 147.75 30.25 144.35 31.25 142.57C32.25 140.79 33.12 142.49 35.5 144.82C37.88 147.15 40.32 147.96 42.41 150.67C44.5 153.38 45.2 157.67 48.66 160.78L62.44 170.19C62.44 170.19 68.86 140.4 71.68 136.89C74.68 133.2 87.55 141.24 84.85 152.97C82.15 164.7 76 185.06 71.72 189.05C68.96 191.64 63.15 189.2 55.9 182.75C50.17 177.65 42.32 170 39 167.29C35.68 164.58 28.78 163.12 25.61 161.29C22.2 159.29 21.45 158.12 20.14 155.47C18.91 152.98 19.46 148.99 18.73 147.47C18 145.95 18.24 143.74 20 144.67Z" fill="#FFA8A7"/>
<path d="M82.32 129.09C86.74 131.85 86.96 135.87 87.18 140.47C87.2426 145.855 86.3905 151.211 84.66 156.31C82.79 162.1 79.82 172.67 79.82 172.67C79.82 172.67 68.28 172.94 62.34 167.81C62.34 167.81 65.05 156.41 66.96 147.81C68.87 139.21 71.19 130.06 82.32 129.09Z" fill="#E0E0E0"/>
<path d="M62.39 170.21C65.54 171.96 67.39 175.72 67.96 177.21C67.8236 175.475 67.2775 173.797 66.3666 172.314C65.4557 170.832 64.2059 169.586 62.72 168.68L62.39 170.21Z" fill="#F28F8F"/>
<path d="M182.11 386.34L259.29 430.9V447.32L182.11 402.76V386.34Z" fill="#16A34A"/>
<path opacity="0.35" d="M182.11 386.34L259.29 430.9V447.32L182.11 402.76V386.34Z" fill="black"/>
<path d="M336.47 386.34L259.29 430.9V447.32L336.47 402.76V386.34Z" fill="#16A34A"/>
<path opacity="0.2" d="M336.47 386.34L259.29 430.9V447.32L336.47 402.76V386.34Z" fill="black"/>
<path d="M336.47 386.34L259.29 341.79L182.11 386.34L259.29 430.9L336.47 386.34Z" fill="#16A34A"/>
<path opacity="0.15" d="M336.47 386.34L259.29 341.79L182.11 386.34L259.29 430.9L336.47 386.34Z" fill="black"/>
<path opacity="0.1" d="M259.29 430.9V426.21L190.23 386.34H182.11L259.29 430.9Z" fill="black"/>
<path opacity="0.1" d="M259.29 341.79V346.48L328.35 386.34H336.47L259.29 341.79Z" fill="black"/>
<path d="M336.47 386.34H328.35L259.29 426.21V430.9L336.47 386.34Z" fill="#16A34A"/>
<path d="M259.29 341.79V346.48L190.23 386.34H182.11L259.29 341.79Z" fill="#16A34A"/>
<path d="M259.57 367L292.73 386.14C295.21 387.58 295.21 389.9 292.73 391.33L268 405.65C266.607 406.362 265.065 406.733 263.5 406.733C261.935 406.733 260.393 406.362 259 405.65L225.84 386.51C223.36 385.07 223.36 382.75 225.84 381.32L250.58 367C251.972 366.29 253.512 365.92 255.075 365.92C256.638 365.92 258.178 366.29 259.57 367Z" fill="#37474F"/>
<path d="M268 405.65L291.91 391.84L259.57 373.17C258.174 372.467 256.633 372.1 255.07 372.1C253.507 372.1 251.966 372.467 250.57 373.17L226.66 387L259 405.65C260.393 406.362 261.935 406.733 263.5 406.733C265.065 406.733 266.607 406.362 268 405.65Z" fill="#455A64"/>
<path d="M239.54 386.37L254.05 378C254.32 377.864 254.618 377.794 254.92 377.794C255.222 377.794 255.52 377.864 255.79 378L257.57 379C258.05 379.27 258.05 379.72 257.57 380L243.06 388.37C242.792 388.505 242.495 388.576 242.195 388.576C241.895 388.576 241.598 388.505 241.33 388.37L239.55 387.37C239.446 387.335 239.356 387.268 239.291 387.179C239.227 387.09 239.192 386.983 239.191 386.874C239.19 386.764 239.223 386.656 239.285 386.566C239.348 386.476 239.437 386.407 239.54 386.37Z" fill="#263238"/>
<path d="M261.21 398.9L275.72 390.53C275.988 390.395 276.284 390.324 276.585 390.324C276.885 390.324 277.182 390.395 277.45 390.53L279.24 391.53C279.72 391.8 279.72 392.25 279.24 392.53L264.73 400.9C264.462 401.035 264.165 401.106 263.865 401.106C263.564 401.106 263.268 401.035 263 400.9L261.22 399.9C261.116 399.865 261.026 399.798 260.961 399.709C260.897 399.62 260.862 399.513 260.861 399.404C260.86 399.294 260.893 399.186 260.955 399.096C261.018 399.006 261.107 398.937 261.21 398.9Z" fill="#263238"/>
<path d="M225.76 418.77C225.678 417.252 225.239 415.775 224.478 414.46C223.717 413.144 222.655 412.027 221.38 411.2C220.939 410.878 220.42 410.68 219.876 410.628C219.332 410.575 218.785 410.669 218.29 410.9L216.4 412C215.955 412.314 215.602 412.741 215.377 413.236C215.152 413.732 215.063 414.279 215.12 414.82C215.203 416.338 215.642 417.815 216.401 419.131C217.16 420.448 218.218 421.568 219.49 422.4C219.933 422.722 220.454 422.92 220.999 422.972C221.544 423.025 222.093 422.931 222.59 422.7L224.47 421.57C224.912 421.258 225.264 420.835 225.491 420.343C225.717 419.852 225.81 419.309 225.76 418.77Z" fill="#16A34A"/>
<path opacity="0.1" d="M219.49 412.33C220.765 413.157 221.827 414.274 222.588 415.59C223.349 416.905 223.788 418.382 223.87 419.9C223.87 422.69 221.87 423.82 219.49 422.43C218.218 421.598 217.16 420.478 216.401 419.161C215.642 417.845 215.203 416.368 215.12 414.85C215.12 412.07 217.08 410.94 219.49 412.33Z" fill="black"/>
<path d="M168.76 444.27C163.88 444.355 159.06 443.188 154.76 440.88L103.56 411.32C99.45 408.94 97.18 405.66 97.18 402.08C97.18 398.5 99.45 395.23 103.56 392.85L162.88 358.6C169.38 354.85 174.88 345.34 174.88 337.83V150.1C174.88 149.57 175.091 149.061 175.466 148.686C175.841 148.311 176.35 148.1 176.88 148.1C177.41 148.1 177.919 148.311 178.294 148.686C178.669 149.061 178.88 149.57 178.88 150.1V337.83C178.88 346.89 172.74 357.54 164.88 362.07L105.56 396.32C102.74 397.95 101.18 399.99 101.18 402.08C101.18 404.17 102.74 406.22 105.56 407.85L156.76 437.41C163.37 441.23 174.13 441.23 180.76 437.41L218.51 415.63C218.738 415.485 218.992 415.388 219.258 415.344C219.525 415.301 219.797 415.311 220.059 415.375C220.321 415.44 220.567 415.556 220.783 415.718C220.999 415.88 221.179 416.084 221.314 416.317C221.449 416.551 221.536 416.809 221.568 417.077C221.601 417.345 221.579 417.616 221.504 417.875C221.429 418.134 221.302 418.375 221.131 418.584C220.96 418.793 220.749 418.965 220.51 419.09L182.76 440.88C178.461 443.19 173.64 444.358 168.76 444.27Z" fill="#37474F"/>
<path d="M78.92 78.31C78.8904 78.1745 78.8893 78.0342 78.9169 77.8982C78.9444 77.7622 79 77.6334 79.08 77.52C79.1554 77.4015 79.2549 77.3001 79.3721 77.2226C79.4892 77.145 79.6214 77.0931 79.76 77.07L84.62 76.13C84.7571 76.099 84.8992 76.0972 85.0371 76.1247C85.1749 76.1523 85.3054 76.2086 85.42 76.29C85.6523 76.4499 85.8136 76.6937 85.87 76.97L86.62 80.87C86.6482 81.0063 86.6476 81.1469 86.6184 81.283C86.5891 81.419 86.5318 81.5474 86.45 81.66C86.3768 81.7793 86.2793 81.8819 86.1639 81.9612C86.0484 82.0404 85.9177 82.0945 85.78 82.12L80.91 83.05C80.7744 83.0796 80.6342 83.0807 80.4982 83.0532C80.3622 83.0256 80.2334 82.9701 80.12 82.89C80.0015 82.8147 79.9001 82.7152 79.8226 82.598C79.745 82.4808 79.693 82.3486 79.67 82.21L78.92 78.31ZM74.86 57.25C74.8324 57.1128 74.8323 56.9714 74.8597 56.834C74.887 56.6967 74.9413 56.5661 75.0194 56.4499C75.0975 56.3337 75.1979 56.2341 75.3147 56.1569C75.4315 56.0797 75.5625 56.0264 75.7 56L80.57 55.06C80.7063 55.0319 80.8469 55.0324 80.983 55.0617C81.119 55.091 81.2474 55.1483 81.36 55.23C81.4775 55.3043 81.5781 55.4023 81.6556 55.5176C81.7331 55.633 81.7857 55.7632 81.81 55.9L85 72.57C85.0282 72.7063 85.0276 72.8469 84.9984 72.983C84.9691 73.119 84.9118 73.2474 84.83 73.36C84.7557 73.4775 84.6578 73.5782 84.5424 73.6556C84.4271 73.7331 84.2968 73.7857 84.16 73.81L79.29 74.75C79.1538 74.7782 79.0131 74.7777 78.8771 74.7484C78.741 74.7191 78.6126 74.6618 78.5 74.58C78.3826 74.5058 78.2819 74.4078 78.2044 74.2924C78.1269 74.1771 78.0744 74.0469 78.05 73.91L74.86 57.25Z" fill="#16A34A"/>
<path d="M70.8 94.6301C70.7065 94.5265 70.6344 94.4054 70.5878 94.2738C70.5412 94.1423 70.521 94.0028 70.5284 93.8635C70.5359 93.7241 70.5708 93.5876 70.6311 93.4617C70.6914 93.3358 70.776 93.2231 70.88 93.1301L74.57 89.8201C74.673 89.7252 74.7948 89.6531 74.9274 89.6083C75.06 89.5635 75.2006 89.5471 75.34 89.5601C75.4786 89.563 75.6151 89.5948 75.7407 89.6533C75.8664 89.7119 75.9785 89.7959 76.07 89.9001L78.72 92.9001C78.8135 93.0037 78.8856 93.1247 78.9322 93.2563C78.9788 93.3879 78.999 93.5273 78.9916 93.6667C78.9841 93.8061 78.9492 93.9426 78.8889 94.0684C78.8286 94.1943 78.744 94.307 78.64 94.4001L75 97.6701C74.897 97.7649 74.7752 97.837 74.6426 97.8818C74.51 97.9266 74.3694 97.943 74.23 97.9301C74.0914 97.9271 73.9549 97.8953 73.8293 97.8368C73.7036 97.7783 73.5915 97.6942 73.5 97.5901L70.8 94.6301ZM56.49 78.6301C56.3018 78.4191 56.2048 78.1423 56.22 77.8601C56.2242 77.7207 56.2576 77.5838 56.3178 77.4581C56.3781 77.3324 56.464 77.2206 56.57 77.1301L60.26 73.8201C60.3622 73.7235 60.4835 73.6495 60.6162 73.603C60.7489 73.5564 60.8899 73.5384 61.03 73.5501C61.1694 73.5543 61.3063 73.5876 61.432 73.6479C61.5577 73.7082 61.6694 73.7941 61.76 73.9001L73.08 86.5601C73.1748 86.6631 73.247 86.7848 73.2917 86.9175C73.3365 87.0501 73.353 87.1907 73.34 87.3301C73.337 87.4687 73.3053 87.6051 73.2467 87.7308C73.1882 87.8565 73.1042 87.9686 73 88.0601L69.3 91.3701C69.1982 91.4636 69.0781 91.535 68.9473 91.5797C68.8164 91.6245 68.6778 91.6416 68.54 91.6301C68.3997 91.6285 68.2613 91.5974 68.1338 91.5388C68.0063 91.4802 67.8926 91.3955 67.8 91.2901L56.49 78.6301Z" fill="#16A34A"/>
<g opacity="0.6">
<path d="M70.8 94.6301C70.7065 94.5265 70.6344 94.4054 70.5878 94.2738C70.5412 94.1423 70.521 94.0028 70.5284 93.8635C70.5359 93.7241 70.5708 93.5876 70.6311 93.4617C70.6914 93.3358 70.776 93.2231 70.88 93.1301L74.57 89.8201C74.673 89.7252 74.7948 89.6531 74.9274 89.6083C75.06 89.5635 75.2006 89.5471 75.34 89.5601C75.4786 89.563 75.6151 89.5948 75.7407 89.6533C75.8664 89.7119 75.9785 89.7959 76.07 89.9001L78.72 92.9001C78.8135 93.0037 78.8856 93.1247 78.9322 93.2563C78.9788 93.3879 78.999 93.5273 78.9916 93.6667C78.9841 93.8061 78.9492 93.9426 78.8889 94.0684C78.8286 94.1943 78.744 94.307 78.64 94.4001L75 97.6701C74.897 97.7649 74.7752 97.837 74.6426 97.8818C74.51 97.9266 74.3694 97.943 74.23 97.9301C74.0914 97.9271 73.9549 97.8953 73.8293 97.8368C73.7036 97.7783 73.5915 97.6942 73.5 97.5901L70.8 94.6301ZM56.49 78.6301C56.3018 78.4191 56.2048 78.1423 56.22 77.8601C56.2242 77.7207 56.2576 77.5838 56.3178 77.4581C56.3781 77.3324 56.464 77.2206 56.57 77.1301L60.26 73.8201C60.3622 73.7235 60.4835 73.6495 60.6162 73.603C60.7489 73.5564 60.8899 73.5384 61.03 73.5501C61.1694 73.5543 61.3063 73.5876 61.432 73.6479C61.5577 73.7082 61.6694 73.7941 61.76 73.9001L73.08 86.5601C73.1748 86.6631 73.247 86.7848 73.2917 86.9175C73.3365 87.0501 73.353 87.1907 73.34 87.3301C73.337 87.4687 73.3053 87.6051 73.2467 87.7308C73.1882 87.8565 73.1042 87.9686 73 88.0601L69.3 91.3701C69.1982 91.4636 69.0781 91.535 68.9473 91.5797C68.8164 91.6245 68.6778 91.6416 68.54 91.6301C68.3997 91.6285 68.2613 91.5974 68.1338 91.5388C68.0063 91.4802 67.8926 91.3955 67.8 91.2901L56.49 78.6301Z" fill="white"/>
</g>
<path d="M166 48C167.713 47.8927 169.407 48.4076 170.77 49.45C171.354 49.9815 171.81 50.638 172.104 51.3705C172.399 52.1029 172.524 52.8924 172.47 53.68C172.521 54.4718 172.395 55.265 172.101 56.0018C171.807 56.7387 171.352 57.4008 170.77 57.94C169.416 59.0044 167.72 59.5378 166 59.44H162V65.09C162.002 65.1811 161.986 65.2716 161.951 65.356C161.917 65.4403 161.865 65.5166 161.8 65.58C161.737 65.6437 161.663 65.6942 161.58 65.7285C161.498 65.7628 161.409 65.7804 161.32 65.78H159.27C159.179 65.7814 159.089 65.7645 159.004 65.7303C158.92 65.6961 158.843 65.6453 158.779 65.5809C158.715 65.5166 158.664 65.44 158.63 65.3557C158.596 65.2713 158.579 65.181 158.58 65.09V48.71C158.58 48.6199 158.598 48.5306 158.633 48.4475C158.668 48.3643 158.719 48.2889 158.783 48.2256C158.847 48.1623 158.923 48.1125 159.007 48.0789C159.09 48.0453 159.18 48.0287 159.27 48.03L166 48ZM162 56.27H165.93C166.739 56.3119 167.543 56.1136 168.24 55.7C168.545 55.4706 168.785 55.1653 168.936 54.8145C169.087 54.4636 169.144 54.0794 169.1 53.7C169.149 53.3202 169.095 52.9343 168.943 52.5825C168.792 52.2307 168.549 51.926 168.24 51.7C167.536 51.3065 166.735 51.1193 165.93 51.16H162V56.27Z" fill="#455A64"/>
<path d="M174.76 55.84C174.85 55.4357 175.009 55.05 175.23 54.7C175.492 54.263 175.831 53.8769 176.23 53.56C176.727 53.1765 177.285 52.879 177.88 52.68C178.612 52.4393 179.38 52.3243 180.15 52.34C180.94 52.3276 181.727 52.4424 182.48 52.68C183.138 52.8895 183.747 53.2297 184.27 53.68C184.777 54.1362 185.171 54.7047 185.42 55.34C185.703 56.0733 185.842 56.8542 185.83 57.64V65.09C185.83 65.1817 185.812 65.2725 185.776 65.3568C185.74 65.4411 185.687 65.5171 185.62 65.58C185.558 65.6441 185.483 65.6949 185.401 65.7293C185.318 65.7637 185.229 65.7809 185.14 65.78H183.22C183.129 65.7814 183.039 65.7645 182.954 65.7303C182.87 65.6961 182.793 65.6453 182.729 65.581C182.665 65.5166 182.614 65.44 182.58 65.3557C182.546 65.2714 182.529 65.181 182.53 65.09V64.26C182.129 64.7944 181.604 65.2233 181 65.51C180.204 65.8856 179.329 66.064 178.45 66.03C177.772 66.0443 177.096 65.9463 176.45 65.74C175.915 65.5715 175.42 65.2921 175 64.92C174.615 64.5674 174.309 64.1382 174.1 63.66C173.888 63.1606 173.783 62.6225 173.79 62.08C173.765 61.5578 173.864 61.037 174.08 60.5606C174.295 60.0842 174.621 59.6659 175.03 59.34C176.032 58.6072 177.207 58.1456 178.44 58L182.57 57.29C182.596 57.0069 182.546 56.722 182.427 56.464C182.308 56.2059 182.122 55.9839 181.89 55.82C181.374 55.5222 180.786 55.3733 180.19 55.39C179.847 55.3727 179.505 55.4342 179.19 55.57C178.941 55.6954 178.712 55.8572 178.51 56.05C178.386 56.165 178.244 56.2595 178.09 56.33C177.956 56.3825 177.814 56.4096 177.67 56.41H175.31C175.151 56.4158 174.997 56.3582 174.88 56.25C174.822 56.2008 174.78 56.1358 174.759 56.0629C174.738 55.9901 174.738 55.9126 174.76 55.84ZM179 63C179.52 63.0081 180.037 62.9269 180.53 62.76C180.944 62.6169 181.328 62.3964 181.66 62.11C181.949 61.8588 182.181 61.5485 182.34 61.2C182.487 60.887 182.566 60.546 182.57 60.2V59.9L179.12 60.5C178.592 60.5633 178.083 60.7407 177.63 61.02C177.482 61.1246 177.363 61.2644 177.282 61.4268C177.202 61.5892 177.163 61.769 177.17 61.95C177.168 62.1226 177.22 62.2913 177.319 62.4329C177.417 62.5745 177.558 62.6819 177.72 62.74C178.124 62.9155 178.56 63.0041 179 63Z" fill="#455A64"/>
<path d="M195 68.31C195.369 68.3087 195.736 68.2548 196.09 68.1501C196.454 68.0428 196.793 67.8663 197.09 67.63C197.397 67.3822 197.652 67.0764 197.84 66.7301C198.039 66.333 198.138 65.8939 198.13 65.45V64.5101C197.967 64.6877 197.79 64.8516 197.6 65C197.354 65.1972 197.085 65.365 196.8 65.5C196.451 65.6643 196.086 65.7917 195.71 65.88C195.247 65.9847 194.774 66.035 194.3 66.03C193.509 66.043 192.726 65.8754 192.01 65.54C191.342 65.2253 190.746 64.7759 190.26 64.22C189.768 63.6607 189.382 63.017 189.12 62.32C188.839 61.6016 188.68 60.8411 188.65 60.07C188.65 59.82 188.65 59.52 188.65 59.19C188.65 58.86 188.65 58.55 188.65 58.3C188.68 57.529 188.839 56.7685 189.12 56.05C189.385 55.3542 189.771 54.7109 190.26 54.1501C190.743 53.5953 191.336 53.146 192 52.8301C192.716 52.4947 193.499 52.3271 194.29 52.34C194.764 52.3351 195.237 52.3854 195.7 52.4901C196.076 52.5784 196.441 52.7058 196.79 52.87C197.075 53.0051 197.344 53.1729 197.59 53.37C197.78 53.5185 197.957 53.6824 198.12 53.86V53.28C198.123 53.0995 198.195 52.927 198.321 52.7984C198.448 52.6698 198.62 52.5952 198.8 52.59H200.73C200.911 52.5974 201.082 52.6725 201.21 52.8003C201.338 52.9282 201.413 53.0994 201.42 53.28V65.17C201.478 66.0197 201.355 66.8719 201.059 67.6702C200.762 68.4685 200.299 69.1946 199.7 69.8001C198.388 70.8976 196.708 71.4553 195 71.3601C194.187 71.366 193.378 71.248 192.6 71.0101C191.918 70.8129 191.273 70.5055 190.69 70.1C190.179 69.7567 189.737 69.3189 189.39 68.81C189.083 68.3697 188.9 67.8552 188.86 67.32C188.852 67.2307 188.865 67.1407 188.898 67.0573C188.931 66.9739 188.983 66.8995 189.05 66.84C189.181 66.7127 189.357 66.6411 189.54 66.64H191.27C191.383 66.6377 191.494 66.6577 191.599 66.6989C191.704 66.7401 191.799 66.8017 191.88 66.88C192.05 67.04 192.19 67.19 192.31 67.32C192.548 67.6262 192.857 67.8699 193.21 68.03C193.779 68.2522 194.39 68.3477 195 68.31ZM192 58.48C191.95 58.9521 191.95 59.428 192 59.9001C192.007 60.7912 192.366 61.6433 193 62.27C193.589 62.7569 194.336 63.0128 195.1 62.9901C195.865 63.0123 196.61 62.7485 197.19 62.25C197.488 61.9842 197.73 61.6615 197.902 61.3009C198.074 60.9403 198.172 60.549 198.19 60.1501C198.227 59.818 198.243 59.4841 198.24 59.1501C198.243 58.816 198.226 58.4821 198.19 58.1501C198.149 57.3702 197.805 56.6372 197.231 56.1069C196.658 55.5766 195.901 55.2907 195.12 55.3101C194.356 55.2873 193.609 55.5432 193.02 56.03C192.693 56.3481 192.434 56.7293 192.259 57.1504C192.083 57.5716 191.995 58.0239 192 58.48Z" fill="#455A64"/>
<path d="M204.27 59.19C204.266 58.2783 204.414 57.3724 204.71 56.51C204.988 55.7037 205.427 54.9622 206 54.33C206.554 53.7055 207.236 53.2076 208 52.87C208.814 52.5237 209.69 52.3452 210.575 52.3452C211.46 52.3452 212.336 52.5237 213.15 52.87C213.904 53.1932 214.584 53.6661 215.15 54.26C215.698 54.8597 216.126 55.559 216.41 56.32C216.703 57.1104 216.852 57.947 216.85 58.79V59.93C216.853 60.0197 216.837 60.1091 216.803 60.192C216.768 60.2748 216.716 60.3492 216.65 60.41C216.589 60.4769 216.515 60.5302 216.432 60.5664C216.35 60.6026 216.26 60.6208 216.17 60.62H207.7C207.696 60.968 207.779 61.3115 207.94 61.62C208.098 61.9154 208.32 62.1717 208.59 62.37C208.872 62.5802 209.191 62.7362 209.53 62.83C209.885 62.9309 210.251 62.9813 210.62 62.98C211.063 62.9919 211.505 62.9346 211.93 62.81C212.23 62.7181 212.513 62.5797 212.77 62.4C212.912 62.2893 213.066 62.1953 213.23 62.12C213.383 62.0624 213.546 62.0352 213.71 62.04H215.71C215.893 62.041 216.069 62.1127 216.2 62.24C216.27 62.2993 216.324 62.3752 216.357 62.4608C216.391 62.5464 216.402 62.6389 216.39 62.73C216.331 63.0591 216.198 63.3704 216 63.64C215.698 64.0635 215.326 64.4322 214.9 64.73C214.34 65.1181 213.727 65.4245 213.08 65.64C212.277 65.9056 211.435 66.034 210.59 66.02C209.706 66.0342 208.828 65.8674 208.01 65.53C207.245 65.218 206.561 64.7358 206.01 64.12C205.438 63.5085 204.995 62.7873 204.71 62C204.404 61.0952 204.255 60.1449 204.27 59.19ZM210.49 55.38C210.059 55.3675 209.631 55.4423 209.23 55.6C208.905 55.7255 208.609 55.9161 208.36 56.16C208.128 56.3743 207.941 56.6327 207.81 56.92C207.687 57.1719 207.606 57.4421 207.57 57.72H213.3C213.263 57.4478 213.199 57.1798 213.11 56.92C213.016 56.6354 212.858 56.3756 212.65 56.16C212.418 55.9144 212.135 55.7231 211.82 55.6C211.396 55.4384 210.944 55.3635 210.49 55.38Z" fill="#455A64"/>
<path d="M237.64 65.09C237.641 65.1801 237.625 65.2696 237.591 65.3533C237.558 65.437 237.508 65.5131 237.444 65.5773C237.381 65.6415 237.306 65.6925 237.223 65.7273C237.139 65.7621 237.05 65.78 236.96 65.78H235C234.911 65.7809 234.822 65.7636 234.739 65.7293C234.657 65.6949 234.582 65.6441 234.52 65.58C234.453 65.517 234.4 65.4411 234.364 65.3568C234.328 65.2725 234.31 65.1817 234.31 65.09V58.65C234.356 57.7828 234.106 56.9258 233.6 56.22C233.335 55.9057 232.999 55.6591 232.62 55.5008C232.241 55.3426 231.83 55.2771 231.42 55.31C231.022 55.2906 230.625 55.3626 230.259 55.5203C229.894 55.678 229.569 55.9174 229.31 56.22C228.764 56.9085 228.486 57.7722 228.53 58.65V65.09C228.532 65.1811 228.516 65.2716 228.481 65.3559C228.447 65.4403 228.395 65.5165 228.33 65.58C228.267 65.6436 228.193 65.6941 228.11 65.7285C228.028 65.7628 227.939 65.7803 227.85 65.78H226C225.911 65.7803 225.822 65.7628 225.74 65.7285C225.657 65.6941 225.583 65.6436 225.52 65.58C225.455 65.5165 225.403 65.4403 225.369 65.3559C225.334 65.2716 225.318 65.1811 225.32 65.09V53.28C225.317 53.1903 225.333 53.1009 225.367 53.018C225.402 52.9351 225.454 52.8608 225.52 52.8C225.581 52.7331 225.655 52.6798 225.738 52.6436C225.82 52.6074 225.91 52.5892 226 52.59H227.93C228.02 52.5892 228.11 52.6074 228.192 52.6436C228.275 52.6798 228.349 52.7331 228.41 52.8C228.476 52.8608 228.528 52.9351 228.563 53.018C228.597 53.1009 228.613 53.1903 228.61 53.28V53.86C229.063 53.4137 229.587 53.0454 230.16 52.77C230.818 52.4672 231.536 52.32 232.26 52.34C233.148 52.3107 234.032 52.4745 234.85 52.82C235.502 53.1095 236.075 53.552 236.52 54.11C236.953 54.6673 237.261 55.3122 237.42 56C237.603 56.7428 237.693 57.5051 237.69 58.27L237.64 65.09Z" fill="#455A64"/>
<path d="M246.82 52.34C247.679 52.3261 248.534 52.4719 249.34 52.77C250.061 53.0543 250.723 53.4715 251.29 54C251.838 54.5053 252.286 55.1091 252.61 55.78C252.943 56.4617 253.136 57.2028 253.18 57.96C253.192 58.1532 253.192 58.3469 253.18 58.54V59.95C253.192 60.1398 253.192 60.3302 253.18 60.52C253.117 61.2753 252.921 62.0134 252.6 62.7C252.285 63.368 251.839 63.9664 251.29 64.46C250.719 64.9712 250.058 65.3714 249.34 65.64C247.721 66.204 245.959 66.204 244.34 65.64C243.604 65.3784 242.925 64.9778 242.34 64.46C241.794 63.966 241.352 63.3676 241.04 62.7C240.716 62.014 240.516 61.2759 240.45 60.52C240.45 60.3667 240.45 60.1767 240.45 59.95C240.45 59.72 240.45 59.49 240.45 59.25C240.45 59.01 240.45 58.78 240.45 58.54C240.45 58.3 240.45 58.11 240.45 57.96C240.503 57.2043 240.697 56.4651 241.02 55.78C241.344 55.1091 241.792 54.5053 242.34 54C242.925 53.4793 243.603 53.0753 244.34 52.81C245.131 52.5031 245.972 52.3438 246.82 52.34ZM249.89 58.04C249.855 57.5862 249.73 57.144 249.52 56.74C249.343 56.4174 249.097 56.1375 248.8 55.92C248.521 55.7139 248.2 55.5707 247.86 55.5C247.532 55.4231 247.197 55.3829 246.86 55.38C246.523 55.3823 246.188 55.4226 245.86 55.5C245.52 55.5707 245.199 55.7139 244.92 55.92C244.618 56.1319 244.371 56.4131 244.2 56.74C243.986 57.1422 243.86 57.5853 243.83 58.04C243.83 58.18 243.83 58.35 243.83 58.55C243.83 58.75 243.83 58.97 243.83 59.19C243.83 59.41 243.83 59.62 243.83 59.83C243.821 59.9966 243.821 60.1635 243.83 60.33C243.858 60.7849 243.985 61.2283 244.2 61.63C244.374 61.9578 244.62 62.2417 244.92 62.46C245.204 62.6582 245.523 62.8007 245.86 62.88C246.189 62.9496 246.524 62.9864 246.86 62.99C247.196 62.986 247.531 62.9491 247.86 62.88C248.197 62.8007 248.516 62.6582 248.8 62.46C249.095 62.2363 249.34 61.9536 249.52 61.63C249.731 61.2265 249.857 60.7841 249.89 60.33C249.89 60.21 249.89 60.04 249.89 59.83V58.55C249.91 58.35 249.9 58.18 249.89 58V58.04Z" fill="#455A64"/>
<path d="M260.38 61C260.357 61.4578 260.507 61.9074 260.8 62.26C261.014 62.4403 261.263 62.575 261.532 62.6558C261.8 62.7366 262.082 62.7618 262.36 62.73H263.91C263.999 62.7285 264.088 62.7455 264.171 62.7799C264.253 62.8143 264.328 62.8654 264.39 62.93C264.454 62.9923 264.505 63.067 264.539 63.1495C264.574 63.232 264.591 63.3206 264.59 63.41V65.08C264.591 65.1701 264.575 65.2596 264.541 65.3433C264.508 65.427 264.458 65.5031 264.394 65.5673C264.331 65.6315 264.256 65.6825 264.173 65.7173C264.089 65.7521 264 65.77 263.91 65.77H262C260.678 65.8573 259.371 65.4431 258.34 64.61C257.883 64.1497 257.532 63.5955 257.311 62.9859C257.09 62.3764 257.005 61.726 257.06 61.08V55.64H255.38C255.2 55.6349 255.028 55.5602 254.901 55.4316C254.775 55.3031 254.703 55.1305 254.7 54.95V53.28C254.703 53.0995 254.775 52.9269 254.901 52.7984C255.028 52.6698 255.2 52.5951 255.38 52.59H257.06V48.46C257.06 48.2797 257.132 48.1067 257.259 47.9792C257.387 47.8516 257.56 47.78 257.74 47.78H259.67C259.759 47.7785 259.848 47.7955 259.931 47.8299C260.013 47.8643 260.088 47.9154 260.15 47.98C260.214 48.0423 260.265 48.117 260.299 48.1995C260.334 48.282 260.351 48.3706 260.35 48.46V52.59H263.62C263.801 52.5974 263.972 52.6724 264.1 52.8003C264.228 52.9281 264.303 53.0994 264.31 53.28V55C264.303 55.1806 264.228 55.3519 264.1 55.4797C263.972 55.6076 263.801 55.6826 263.62 55.69H260.35L260.38 61Z" fill="#455A64"/>
<path d="M277 52.59H280.52C280.612 52.5897 280.703 52.6081 280.787 52.6442C280.871 52.6803 280.947 52.7334 281.01 52.8C281.074 52.8623 281.125 52.937 281.159 53.0195C281.194 53.102 281.211 53.1907 281.21 53.28V55C281.211 55.0894 281.194 55.1781 281.159 55.2606C281.125 55.3431 281.074 55.4178 281.01 55.48C280.947 55.5467 280.871 55.5998 280.787 55.6359C280.703 55.672 280.612 55.6904 280.52 55.69H277V65.14C277.001 65.2302 276.985 65.3197 276.951 65.4033C276.918 65.487 276.868 65.5632 276.804 65.6274C276.741 65.6916 276.666 65.7425 276.583 65.7773C276.499 65.8121 276.41 65.8301 276.32 65.83H274.39C274.301 65.831 274.212 65.8137 274.13 65.7793C274.047 65.7449 273.972 65.6941 273.91 65.63C273.843 65.5671 273.79 65.4911 273.754 65.4068C273.718 65.3225 273.7 65.2317 273.7 65.14V55.64H272C271.91 55.6415 271.82 55.6235 271.737 55.5873C271.654 55.5511 271.58 55.4974 271.52 55.43C271.454 55.3693 271.402 55.2949 271.367 55.212C271.333 55.1291 271.317 55.0398 271.32 54.95V53.28C271.317 53.1903 271.333 53.1009 271.367 53.0181C271.402 52.9352 271.454 52.8608 271.52 52.8C271.58 52.7327 271.654 52.679 271.737 52.6428C271.82 52.6065 271.91 52.5886 272 52.59H273.67V51.45C273.65 50.7462 273.773 50.0455 274.03 49.39C274.24 48.8492 274.584 48.3708 275.03 48C275.5 47.6371 276.042 47.3781 276.62 47.24C277.295 47.0847 277.987 47.0109 278.68 47.02H280.74C280.829 47.0186 280.918 47.0355 281.001 47.07C281.083 47.1044 281.158 47.1555 281.22 47.22C281.284 47.2823 281.335 47.357 281.369 47.4395C281.404 47.522 281.421 47.6107 281.42 47.7V49.37C281.421 49.4602 281.405 49.5497 281.371 49.6333C281.338 49.717 281.288 49.7932 281.224 49.8574C281.161 49.9216 281.086 49.9725 281.003 50.0073C280.919 50.0421 280.83 50.0601 280.74 50.06H279C278.487 50.0244 277.975 50.1428 277.53 50.4C277.342 50.5584 277.197 50.7613 277.108 50.9901C277.019 51.219 276.989 51.4665 277.02 51.71L277 52.59Z" fill="#455A64"/>
<path d="M289 52.34C289.859 52.3261 290.714 52.4719 291.52 52.77C292.227 53.0587 292.875 53.4757 293.43 54C293.978 54.5053 294.426 55.1091 294.75 55.78C295.083 56.4617 295.276 57.2028 295.32 57.96C295.332 58.1532 295.332 58.3469 295.32 58.54V59.95C295.332 60.1398 295.332 60.3302 295.32 60.52C295.257 61.2753 295.061 62.0134 294.74 62.7C294.425 63.368 293.979 63.9664 293.43 64.46C292.859 64.9712 292.198 65.3714 291.48 65.64C290.682 65.9095 289.842 66.0315 289 66C288.137 66.0138 287.28 65.868 286.47 65.57C285.752 65.3014 285.091 64.9012 284.52 64.39C283.974 63.896 283.532 63.2976 283.22 62.63C282.891 61.9457 282.691 61.2067 282.63 60.45C282.63 60.3 282.63 60.11 282.63 59.88C282.63 59.65 282.63 59.42 282.63 59.18C282.63 58.94 282.63 58.71 282.63 58.47C282.63 58.23 282.63 58.04 282.63 57.89C282.674 57.1328 282.867 56.3917 283.2 55.71C283.52 55.0674 283.954 54.488 284.48 54C285.051 53.4858 285.712 53.0823 286.43 52.81C287.25 52.4935 288.121 52.334 289 52.34ZM292 58C291.969 57.5469 291.846 57.1048 291.64 56.7C291.462 56.3746 291.213 56.0941 290.91 55.88C290.634 55.6742 290.317 55.5308 289.98 55.46C289.652 55.3831 289.317 55.3429 288.98 55.34C288.643 55.3418 288.308 55.3821 287.98 55.46C287.64 55.5307 287.319 55.674 287.04 55.88C286.738 56.0919 286.491 56.3731 286.32 56.7C286.106 57.1022 285.98 57.5453 285.95 58C285.95 58.14 285.95 58.31 285.95 58.51C285.95 58.71 285.95 58.93 285.95 59.15C285.95 59.37 285.95 59.58 285.95 59.79C285.941 59.9566 285.941 60.1235 285.95 60.29C285.978 60.7449 286.105 61.1883 286.32 61.59C286.494 61.9178 286.74 62.2017 287.04 62.42C287.324 62.6182 287.643 62.7607 287.98 62.84C288.309 62.9102 288.644 62.9471 288.98 62.95C289.316 62.946 289.651 62.9091 289.98 62.84C290.314 62.7604 290.63 62.6179 290.91 62.42C291.211 62.1996 291.46 61.9164 291.64 61.59C291.847 61.1858 291.97 60.7434 292 60.29C292.013 60.1236 292.013 59.9564 292 59.79V58.55C292.014 58.3669 292.014 58.1831 292 58Z" fill="#455A64"/>
<path d="M298.11 53.2801C298.113 53.0996 298.185 52.927 298.311 52.7985C298.438 52.6699 298.61 52.5952 298.79 52.5901H300.72C300.901 52.5975 301.072 52.6725 301.2 52.8004C301.328 52.9282 301.403 53.0995 301.41 53.2801V59.7201C301.366 60.5768 301.59 61.426 302.05 62.1501C302.299 62.4681 302.623 62.7188 302.993 62.8795C303.363 63.0402 303.768 63.1057 304.17 63.0701C304.561 63.0922 304.95 63.0202 305.307 62.8601C305.664 62.7 305.977 62.4565 306.22 62.1501C306.726 61.4443 306.976 60.5873 306.93 59.7201V53.2801C306.937 53.0995 307.013 52.9282 307.14 52.8004C307.268 52.6725 307.439 52.5975 307.62 52.5901H309.54C309.632 52.5897 309.723 52.6081 309.807 52.6443C309.891 52.6804 309.967 52.7334 310.03 52.8001C310.094 52.8624 310.145 52.9371 310.179 53.0196C310.214 53.1021 310.231 53.1907 310.23 53.2801V65.0901C310.231 65.1811 310.215 65.2714 310.18 65.3557C310.146 65.4401 310.095 65.5167 310.031 65.581C309.967 65.6453 309.89 65.6961 309.806 65.7303C309.721 65.7645 309.631 65.7814 309.54 65.7801H307.62C307.531 65.781 307.442 65.7637 307.36 65.7294C307.277 65.695 307.202 65.6442 307.14 65.5801C307.073 65.5171 307.02 65.4412 306.984 65.3569C306.948 65.2726 306.93 65.1818 306.93 65.0901V64.5101C306.5 64.9097 306.015 65.2464 305.49 65.5101C304.848 65.8418 304.132 66.0036 303.41 65.9801C302.532 66.0095 301.658 65.8456 300.85 65.5001C300.211 65.2124 299.654 64.7689 299.23 64.2101C298.811 63.6481 298.514 63.0041 298.36 62.3201C298.189 61.5756 298.105 60.8139 298.11 60.0501V53.2801Z" fill="#455A64"/>
<path d="M326.1 65.09C326.101 65.1801 326.085 65.2696 326.051 65.3533C326.018 65.437 325.968 65.5131 325.904 65.5773C325.841 65.6415 325.766 65.6925 325.683 65.7273C325.599 65.7621 325.51 65.78 325.42 65.78H323.49C323.401 65.7809 323.312 65.7636 323.23 65.7293C323.147 65.6949 323.072 65.6441 323.01 65.58C322.943 65.517 322.89 65.4411 322.854 65.3568C322.818 65.2725 322.8 65.1817 322.8 65.09V58.65C322.846 57.7828 322.596 56.9258 322.09 56.22C321.825 55.9057 321.489 55.6591 321.11 55.5008C320.731 55.3426 320.32 55.2771 319.91 55.31C319.512 55.2906 319.115 55.3626 318.75 55.5203C318.384 55.678 318.059 55.9174 317.8 56.22C317.254 56.9085 316.976 57.7722 317.02 58.65V65.09C317.022 65.1811 317.006 65.2716 316.971 65.3559C316.937 65.4403 316.885 65.5165 316.82 65.58C316.757 65.6436 316.683 65.6941 316.6 65.7285C316.518 65.7628 316.429 65.7803 316.34 65.78H314.41C314.321 65.7803 314.232 65.7628 314.15 65.7285C314.067 65.6941 313.993 65.6436 313.93 65.58C313.865 65.5165 313.813 65.4403 313.779 65.3559C313.744 65.2716 313.728 65.1811 313.73 65.09V53.28C313.727 53.1903 313.743 53.1009 313.777 53.018C313.812 52.9351 313.864 52.8608 313.93 52.8C313.991 52.7331 314.065 52.6798 314.148 52.6436C314.23 52.6074 314.32 52.5892 314.41 52.59H316.34C316.43 52.5892 316.52 52.6074 316.603 52.6436C316.685 52.6798 316.759 52.7331 316.82 52.8C316.886 52.8608 316.938 52.9351 316.973 53.018C317.007 53.1009 317.023 53.1903 317.02 53.28V53.86C317.473 53.4137 317.997 53.0454 318.57 52.77C319.228 52.4672 319.946 52.32 320.67 52.34C321.558 52.3107 322.442 52.4745 323.26 52.82C323.912 53.1095 324.485 53.552 324.93 54.11C325.363 54.6673 325.671 55.3122 325.83 56C326.013 56.7428 326.103 57.5051 326.1 58.27V65.09Z" fill="#455A64"/>
<path d="M334.54 52.34C335.014 52.3341 335.488 52.3844 335.95 52.49C336.326 52.5784 336.691 52.7057 337.04 52.87C337.325 53.005 337.594 53.1728 337.84 53.37C338.032 53.5158 338.21 53.6799 338.37 53.86V48.46C338.37 48.3698 338.388 48.2806 338.423 48.1974C338.458 48.1143 338.509 48.0389 338.573 47.9756C338.637 47.9123 338.713 47.8624 338.797 47.8289C338.88 47.7953 338.97 47.7787 339.06 47.78H341C341.09 47.7766 341.179 47.7927 341.262 47.8272C341.345 47.8618 341.419 47.9139 341.48 47.98C341.547 48.0402 341.601 48.1143 341.637 48.1971C341.674 48.2799 341.692 48.3696 341.69 48.46V65.09C341.69 65.1817 341.672 65.2725 341.636 65.3568C341.6 65.4411 341.547 65.517 341.48 65.58C341.418 65.6441 341.343 65.6949 341.261 65.7293C341.178 65.7636 341.089 65.7809 341 65.78H339.08C338.989 65.7813 338.899 65.7644 338.814 65.7302C338.73 65.696 338.653 65.6452 338.589 65.5809C338.525 65.5166 338.474 65.4399 338.44 65.3556C338.406 65.2713 338.389 65.181 338.39 65.09V64.51C338.23 64.6901 338.052 64.8542 337.86 65C337.614 65.1972 337.345 65.365 337.06 65.5C336.711 65.6643 336.346 65.7916 335.97 65.88C335.508 65.9855 335.034 66.0359 334.56 66.03C333.769 66.0429 332.986 65.8753 332.27 65.54C331.602 65.2252 331.006 64.7758 330.52 64.22C330.032 63.6581 329.646 63.0151 329.38 62.32C329.099 61.6015 328.94 60.841 328.91 60.07C328.91 59.82 328.91 59.52 328.91 59.19C328.91 58.86 328.91 58.55 328.91 58.3C328.94 57.529 329.099 56.7684 329.38 56.05C329.648 55.356 330.034 54.7133 330.52 54.15C331.006 53.5941 331.602 53.1447 332.27 52.83C332.98 52.4976 333.756 52.3301 334.54 52.34ZM332.18 58.48C332.13 58.952 332.13 59.428 332.18 59.9C332.191 60.7902 332.55 61.6408 333.18 62.27C333.77 62.7553 334.516 63.011 335.28 62.99C336.047 63.0109 336.795 62.7474 337.38 62.25C337.678 61.9841 337.92 61.6615 338.092 61.3008C338.264 60.9402 338.362 60.549 338.38 60.15C338.417 59.818 338.433 59.484 338.43 59.15C338.433 58.816 338.416 58.4821 338.38 58.15C338.339 57.3701 337.995 56.6372 337.421 56.1069C336.848 55.5765 336.091 55.2907 335.31 55.31C334.546 55.289 333.8 55.5447 333.21 56.03C332.883 56.3486 332.623 56.7297 332.447 57.1505C332.27 57.5714 332.179 58.0235 332.18 58.48Z" fill="#455A64"/>
<path d="M196.44 90.7601C196.523 90.7592 196.604 90.7756 196.68 90.8084C196.756 90.8411 196.824 90.8894 196.88 90.9501C196.938 91.0073 196.985 91.0758 197.016 91.1515C197.046 91.2271 197.062 91.3083 197.06 91.3901V93.8501C197.062 93.9318 197.046 94.013 197.016 94.0887C196.985 94.1643 196.938 94.2329 196.88 94.2901C196.824 94.3508 196.756 94.399 196.68 94.4318C196.604 94.4645 196.523 94.4809 196.44 94.4801H185.44C185.357 94.4816 185.275 94.4654 185.2 94.4326C185.124 94.3999 185.056 94.3513 185 94.2901C184.94 94.2334 184.893 94.1651 184.86 94.0895C184.827 94.0139 184.81 93.9324 184.81 93.8501V78.8501C184.81 78.7677 184.827 78.6862 184.86 78.6106C184.893 78.535 184.94 78.4668 185 78.4101C185.056 78.3489 185.124 78.3003 185.2 78.2675C185.275 78.2347 185.357 78.2186 185.44 78.2201H196.27C196.436 78.2251 196.593 78.2931 196.71 78.4101C196.827 78.5272 196.895 78.6846 196.9 78.8501V81.3001C196.901 81.3841 196.885 81.4675 196.852 81.5449C196.819 81.6223 196.771 81.6922 196.71 81.7501C196.653 81.8085 196.584 81.8546 196.509 81.8855C196.433 81.9165 196.352 81.9316 196.27 81.9301H189.11V84.4401H195.76C195.843 84.4386 195.925 84.4547 196.001 84.4875C196.076 84.5203 196.144 84.5689 196.2 84.6301C196.26 84.6868 196.307 84.755 196.34 84.8306C196.373 84.9062 196.39 84.9877 196.39 85.0701V87.5301C196.39 87.6124 196.373 87.6939 196.34 87.7695C196.307 87.8451 196.26 87.9134 196.2 87.9701C196.144 88.0313 196.076 88.0799 196.001 88.1126C195.925 88.1454 195.843 88.1616 195.76 88.1601H189.11V90.7601H196.44Z" fill="#16A34A"/>
<path d="M206.66 78.21C207.584 78.1977 208.505 78.3087 209.4 78.54C210.144 78.738 210.844 79.0775 211.46 79.54C212.026 79.9797 212.473 80.5538 212.76 81.21C213.074 81.953 213.227 82.7538 213.21 83.56C213.249 84.5753 213 85.5809 212.49 86.46C212.01 87.227 211.314 87.8357 210.49 88.21L213.37 93.74C213.414 93.8197 213.438 93.909 213.44 94C213.44 94.1353 213.386 94.265 213.291 94.3607C213.195 94.4563 213.065 94.51 212.93 94.51H209.77C209.651 94.5221 209.532 94.5097 209.418 94.4735C209.305 94.4374 209.2 94.3784 209.11 94.3C208.985 94.1748 208.878 94.0336 208.79 93.88L206.21 88.88H204V93.88C204.002 93.9618 203.986 94.043 203.955 94.1186C203.924 94.1943 203.878 94.2628 203.82 94.32C203.764 94.3807 203.696 94.429 203.62 94.4617C203.544 94.4945 203.463 94.5109 203.38 94.51H200.38C200.297 94.5109 200.216 94.4945 200.14 94.4617C200.064 94.429 199.996 94.3807 199.94 94.32C199.882 94.2628 199.836 94.1943 199.805 94.1186C199.774 94.043 199.758 93.9618 199.76 93.88V78.88C199.758 78.7983 199.774 78.7171 199.805 78.6414C199.836 78.5658 199.882 78.4972 199.94 78.44C199.996 78.3793 200.064 78.3311 200.14 78.2983C200.216 78.2656 200.297 78.2492 200.38 78.25L206.66 78.21ZM204.03 85.21H206.66C207.223 85.2325 207.782 85.1048 208.28 84.84C208.499 84.6946 208.674 84.4917 208.785 84.2535C208.896 84.0154 208.939 83.7512 208.91 83.49C208.94 83.2302 208.896 82.9673 208.785 82.7307C208.674 82.494 208.499 82.293 208.28 82.15C207.782 81.8853 207.223 81.7576 206.66 81.78H204L204.03 85.21Z" fill="#16A34A"/>
<path d="M222.81 78.21C223.734 78.1977 224.655 78.3087 225.55 78.54C226.295 78.738 226.994 79.0775 227.61 79.54C228.179 79.9769 228.626 80.5518 228.91 81.21C229.224 81.953 229.377 82.7538 229.36 83.56C229.399 84.5753 229.15 85.5809 228.64 86.46C228.16 87.227 227.464 87.8357 226.64 88.21L229.52 93.74C229.564 93.8197 229.588 93.909 229.59 94C229.59 94.1353 229.536 94.265 229.441 94.3607C229.345 94.4563 229.215 94.51 229.08 94.51H225.92C225.802 94.5221 225.682 94.5097 225.568 94.4735C225.455 94.4374 225.35 94.3784 225.26 94.3C225.135 94.1748 225.028 94.0336 224.94 93.88L222.36 88.88H220.23V93.88C220.23 93.9624 220.213 94.0438 220.18 94.1195C220.147 94.1951 220.1 94.2633 220.04 94.32C219.984 94.3807 219.916 94.429 219.84 94.4617C219.764 94.4945 219.683 94.5109 219.6 94.51H216.55C216.467 94.5109 216.386 94.4945 216.31 94.4617C216.234 94.429 216.166 94.3807 216.11 94.32C216.052 94.2628 216.006 94.1943 215.975 94.1186C215.944 94.043 215.928 93.9618 215.93 93.88V78.88C215.928 78.7983 215.944 78.7171 215.975 78.6414C216.006 78.5658 216.052 78.4972 216.11 78.44C216.166 78.3793 216.234 78.3311 216.31 78.2983C216.386 78.2656 216.467 78.2492 216.55 78.25L222.81 78.21ZM220.19 85.21H222.81C223.373 85.2325 223.932 85.1048 224.43 84.84C224.649 84.6946 224.824 84.4917 224.935 84.2535C225.046 84.0154 225.089 83.7512 225.06 83.49C225.09 83.2302 225.046 82.9673 224.935 82.7307C224.824 82.494 224.649 82.293 224.43 82.15C223.932 81.8853 223.373 81.7576 222.81 81.78H220.19V85.21Z" fill="#16A34A"/>
<path d="M231.5 84.28C231.544 83.436 231.737 82.6065 232.07 81.83C232.395 81.0697 232.88 80.3878 233.49 79.83C234.137 79.2367 234.895 78.7778 235.72 78.48C237.682 77.8133 239.808 77.8133 241.77 78.48C242.594 78.7801 243.352 79.2388 244 79.83C244.608 80.3882 245.088 81.0702 245.41 81.83C245.753 82.6034 245.946 83.4347 245.98 84.28C245.98 84.94 246.03 85.64 246.03 86.37C246.03 87.1 246.03 87.78 245.98 88.37C245.945 89.2184 245.752 90.0527 245.41 90.83C245.08 91.5851 244.6 92.2654 244 92.83C243.348 93.4238 242.583 93.8796 241.75 94.17C239.786 94.8235 237.664 94.8235 235.7 94.17C234.873 93.8794 234.115 93.4235 233.47 92.83C232.867 92.2658 232.384 91.5855 232.05 90.83C231.718 90.0497 231.525 89.217 231.48 88.37C231.48 87.74 231.48 87.06 231.48 86.37C231.48 85.68 231.47 84.94 231.5 84.28ZM241.7 88.28C241.7 88 241.7 87.69 241.75 87.35C241.8 87.01 241.75 86.66 241.75 86.3C241.75 85.94 241.75 85.6 241.75 85.3C241.75 85 241.75 84.67 241.7 84.4C241.675 84.0365 241.594 83.679 241.46 83.34C241.334 83.0209 241.144 82.7314 240.9 82.49C240.645 82.2415 240.342 82.0476 240.01 81.92C239.607 81.7726 239.179 81.7014 238.75 81.71C238.324 81.7003 237.9 81.7716 237.5 81.92C237.163 82.0451 236.857 82.2392 236.6 82.49C236.36 82.734 236.169 83.0228 236.04 83.34C235.906 83.679 235.825 84.0365 235.8 84.4C235.8 84.6667 235.78 84.9667 235.74 85.3C235.74 85.63 235.74 85.98 235.74 86.3C235.74 86.62 235.74 87.01 235.74 87.35C235.74 87.69 235.74 88 235.8 88.28C235.838 88.996 236.12 89.6773 236.6 90.21C236.885 90.481 237.223 90.6887 237.594 90.8197C237.964 90.9507 238.358 91.0019 238.75 90.97C239.14 91.003 239.533 90.9523 239.902 90.8212C240.271 90.6902 240.608 90.4818 240.89 90.21C241.361 89.6785 241.645 89.0079 241.7 88.3V88.28Z" fill="#16A34A"/>
<path d="M255.65 78.2101C256.574 78.1984 257.495 78.3094 258.39 78.5401C259.132 78.7371 259.828 79.0768 260.44 79.5401C261.009 79.9791 261.459 80.5531 261.75 81.2101C262.064 81.953 262.217 82.7538 262.2 83.5601C262.239 84.5754 261.99 85.581 261.48 86.4601C260.988 87.2358 260.273 87.8456 259.43 88.2101L262.31 93.7401C262.357 93.8193 262.384 93.9083 262.39 94.0001C262.389 94.0678 262.375 94.1346 262.347 94.1965C262.319 94.2584 262.28 94.314 262.23 94.3601C262.184 94.4084 262.128 94.4466 262.066 94.4724C262.004 94.4982 261.937 94.511 261.87 94.5101H258.71C258.592 94.5221 258.472 94.5097 258.358 94.4736C258.245 94.4374 258.14 94.3784 258.05 94.3001C257.928 94.1751 257.823 94.0337 257.74 93.8801L255.16 88.8801H253V93.8801C252.995 94.0455 252.927 94.2029 252.81 94.32C252.693 94.437 252.536 94.505 252.37 94.5101H249.37C249.205 94.505 249.047 94.437 248.93 94.32C248.813 94.2029 248.745 94.0455 248.74 93.8801V78.8801C248.745 78.7146 248.813 78.5572 248.93 78.4401C249.047 78.3231 249.205 78.2551 249.37 78.2501L255.65 78.2101ZM253.02 85.2101H255.65C256.21 85.2326 256.766 85.1049 257.26 84.8401C257.482 84.6976 257.66 84.4955 257.774 84.2568C257.887 84.0181 257.931 83.7524 257.9 83.4901C257.93 83.2292 257.886 82.9652 257.772 82.7282C257.659 82.4913 257.482 82.2909 257.26 82.1501C256.766 81.8852 256.21 81.7575 255.65 81.7801H253L253.02 85.2101Z" fill="#16A34A"/>
<path d="M277.47 94.48C277.386 94.4811 277.303 94.4647 277.225 94.432C277.148 94.3993 277.078 94.351 277.02 94.29C276.962 94.2328 276.916 94.1643 276.885 94.0886C276.854 94.0129 276.838 93.9317 276.84 93.85V91.48H269.52C269.438 91.4816 269.357 91.4664 269.281 91.4354C269.206 91.4045 269.137 91.3584 269.08 91.3C269.019 91.2421 268.971 91.1723 268.938 91.0949C268.905 91.0174 268.889 90.9341 268.89 90.85V88.39C268.878 88.0328 268.983 87.6814 269.19 87.39L276.14 78.63C276.244 78.4941 276.373 78.3788 276.52 78.29C276.673 78.2324 276.836 78.2052 277 78.21H280.51C280.593 78.2085 280.675 78.2247 280.751 78.2574C280.826 78.2902 280.894 78.3388 280.95 78.4C281.01 78.4567 281.057 78.5249 281.09 78.6006C281.123 78.6762 281.14 78.7576 281.14 78.84V87.76H283.14C283.306 87.7629 283.464 87.8312 283.58 87.95C283.638 88.0072 283.684 88.0758 283.715 88.1514C283.746 88.2271 283.762 88.3083 283.76 88.39V90.85C283.761 91.0178 283.697 91.1794 283.58 91.3C283.522 91.3575 283.453 91.403 283.378 91.4339C283.302 91.4647 283.222 91.4804 283.14 91.48H281.14V93.85C281.14 93.9324 281.123 94.0138 281.09 94.0894C281.057 94.1651 281.01 94.2333 280.95 94.29C280.894 94.3512 280.826 94.3998 280.751 94.4326C280.675 94.4653 280.593 94.4815 280.51 94.48H277.47ZM277 87.76V83.49L273.61 87.76H277Z" fill="#16A34A"/>
<path d="M292.5 78C293.523 77.9765 294.542 78.1497 295.5 78.51C296.282 78.8162 296.99 79.2829 297.58 79.88C298.126 80.4527 298.545 81.1342 298.81 81.88C299.082 82.657 299.243 83.4682 299.29 84.29C299.29 84.95 299.29 85.65 299.29 86.38C299.29 87.11 299.29 87.79 299.29 88.38C299.243 89.2018 299.082 90.013 298.81 90.79C298.55 91.538 298.13 92.2205 297.58 92.79C296.99 93.3872 296.282 93.8539 295.5 94.16C293.558 94.8399 291.442 94.8399 289.5 94.16C288.719 93.8539 288.01 93.3872 287.42 92.79C286.87 92.2205 286.45 91.538 286.19 90.79C285.918 90.013 285.757 89.2018 285.71 88.38C285.71 87.75 285.71 87.07 285.71 86.38C285.71 85.69 285.71 84.95 285.71 84.29C285.757 83.4682 285.918 82.657 286.19 81.88C286.455 81.1342 286.874 80.4527 287.42 79.88C288.01 79.2829 288.719 78.8162 289.5 78.51C290.458 78.1497 291.477 77.9765 292.5 78ZM295 88.3C295.06 86.98 295.06 85.68 295 84.39C294.974 84.0317 294.914 83.6768 294.82 83.33C294.746 83.0223 294.61 82.733 294.42 82.48C294.219 82.233 293.962 82.0376 293.67 81.91C293.303 81.7585 292.907 81.6869 292.51 81.7C292.113 81.6878 291.718 81.7594 291.35 81.91C291.058 82.0376 290.801 82.233 290.6 82.48C290.41 82.7346 290.271 83.0232 290.19 83.33C290.09 83.675 290.033 84.031 290.02 84.39C289.95 85.6924 289.95 86.9976 290.02 88.3C290.036 88.6606 290.087 89.0189 290.17 89.37C290.253 89.6783 290.395 89.9672 290.59 90.22C290.795 90.4647 291.056 90.6567 291.35 90.78C291.718 90.9307 292.113 91.0022 292.51 90.99C292.907 91.0031 293.303 90.9316 293.67 90.78C293.964 90.6567 294.225 90.4647 294.43 90.22C294.625 89.9672 294.767 89.6783 294.85 89.37C294.934 89.0189 294.984 88.6606 295 88.3Z" fill="#16A34A"/>
<path d="M309.79 94.48C309.625 94.475 309.467 94.407 309.35 94.2899C309.233 94.1729 309.165 94.0155 309.16 93.85V91.48H301.84C301.758 91.4816 301.677 91.4664 301.601 91.4355C301.526 91.4045 301.457 91.3584 301.4 91.3C301.281 91.1804 301.212 91.019 301.21 90.85V88.39C301.196 88.031 301.305 87.6781 301.52 87.39L308.46 78.63C308.565 78.4911 308.698 78.3754 308.85 78.29C309 78.2314 309.16 78.2041 309.32 78.21H312.83C312.996 78.215 313.153 78.283 313.27 78.4001C313.387 78.5172 313.455 78.6745 313.46 78.84V87.76H315.46C315.626 87.765 315.783 87.833 315.9 87.9501C316.017 88.0672 316.085 88.2245 316.09 88.39V90.85C316.088 91.019 316.019 91.1804 315.9 91.3C315.843 91.3584 315.774 91.4045 315.699 91.4355C315.623 91.4664 315.542 91.4816 315.46 91.48H313.46V93.85C313.455 94.0155 313.387 94.1729 313.27 94.2899C313.153 94.407 312.996 94.475 312.83 94.48H309.79ZM309.28 87.76V83.49L305.89 87.76H309.28Z" fill="#16A34A"/>
</svg>
