<svg width="500" height="500" viewBox="0 0 500 500" fill="none" xmlns="http://www.w3.org/2000/svg">
<path d="M500 345.865H0V346.129H500V345.865Z" fill="#EBEBEB"/>
<path d="M449.9 362.863H416.78V363.127H449.9V362.863Z" fill="#EBEBEB"/>
<path d="M331.22 365.736H322.53V366H331.22V365.736Z" fill="#EBEBEB"/>
<path d="M415.78 353.059H396.59V353.323H415.78V353.059Z" fill="#EBEBEB"/>
<path d="M95.65 354.834H52.46V355.098H95.65V354.834Z" fill="#EBEBEB"/>
<path d="M110.89 354.834H104.56V355.098H110.89V354.834Z" fill="#EBEBEB"/>
<path d="M225.15 359.292H131.47V359.556H225.15V359.292Z" fill="#EBEBEB"/>
<path d="M237 298.75H43.91C42.3973 298.747 40.9475 298.11 39.8788 296.979C38.8102 295.848 38.21 294.316 38.21 292.718V5.9792C38.2231 4.3904 38.8292 2.8713 39.8964 1.7517C40.9637 0.632199 42.4059 0.0027 43.91 0H237C238.514 0 239.967 0.635501 241.038 1.7667C242.108 2.898 242.71 4.4322 242.71 6.032V292.718C242.71 294.317 242.108 295.852 241.038 296.983C239.967 298.114 238.514 298.75 237 298.75ZM43.91 0.2113C42.4636 0.2141 41.0774 0.823 40.0556 1.9044C39.0338 2.9858 38.46 4.4513 38.46 5.9792V292.718C38.46 294.246 39.0338 295.711 40.0556 296.792C41.0774 297.874 42.4636 298.483 43.91 298.486H237C238.447 298.483 239.834 297.874 240.858 296.793C241.881 295.712 242.457 294.247 242.46 292.718V5.9792C242.457 4.4503 241.881 2.9848 240.858 1.9038C239.834 0.822699 238.447 0.2141 237 0.2113H43.91Z" fill="#EBEBEB"/>
<path d="M453.31 298.75H260.21C258.696 298.747 257.246 298.11 256.175 296.98C255.105 295.849 254.503 294.317 254.5 292.718V5.9792C254.516 4.3895 255.124 2.8703 256.193 1.7511C257.262 0.631801 258.705 0.0027 260.21 0H453.31C454.812 0.0055 456.252 0.6362 457.317 1.7554C458.382 2.8747 458.987 4.3922 459 5.9792V292.718C459 294.314 458.401 295.845 457.335 296.975C456.268 298.106 454.821 298.744 453.31 298.75ZM260.21 0.2113C258.763 0.2141 257.375 0.822699 256.352 1.9038C255.329 2.9848 254.753 4.4503 254.75 5.9792V292.718C254.753 294.247 255.329 295.712 256.352 296.793C257.375 297.874 258.763 298.483 260.21 298.486H453.31C454.757 298.483 456.145 297.874 457.168 296.793C458.191 295.712 458.767 294.247 458.77 292.718V5.9792C458.767 4.4503 458.191 2.9848 457.168 1.9038C456.145 0.822699 454.757 0.2141 453.31 0.2113H260.21Z" fill="#EBEBEB"/>
<path d="M255 133.222V151.773L264 152.671C265.207 158.784 267.498 164.601 270.75 169.816L264.94 177.211L277.36 190.331L284.36 184.194C289.293 187.626 294.797 190.042 300.58 191.314L301.43 200.821H319.1L319.95 191.314C325.736 190.042 331.243 187.626 336.18 184.194L343.18 190.331L355.6 177.211L349.79 169.816C353.039 164.601 355.326 158.783 356.53 152.671L365.58 151.773V133.222L356.53 132.314C355.334 126.196 353.054 120.371 349.81 115.147L355.62 107.753L343.2 94.643L336.2 100.78C331.27 97.353 325.775 94.934 320 93.65L319.15 84.142H301.53L300.68 93.65C294.898 94.93 289.395 97.349 284.46 100.78L277.46 94.643L265 107.753L270.81 115.147C267.561 120.36 265.271 126.173 264.06 132.282L255 133.222ZM310.28 117.376C314.983 117.376 319.581 118.85 323.491 121.61C327.402 124.37 330.45 128.294 332.25 132.884C334.05 137.474 334.521 142.525 333.603 147.398C332.686 152.272 330.421 156.748 327.095 160.261C323.769 163.774 319.532 166.167 314.919 167.136C310.306 168.105 305.525 167.608 301.18 165.707C296.835 163.805 293.121 160.585 290.508 156.454C287.895 152.323 286.5 147.466 286.5 142.498C286.5 139.195 287.116 135.925 288.314 132.874C289.512 129.824 291.267 127.053 293.479 124.719C295.692 122.386 298.318 120.536 301.207 119.277C304.097 118.017 307.194 117.371 310.32 117.376H310.28Z" fill="#F0F0F0"/>
<path d="M210.36 216.255L215.36 220.671L224.29 211.237L220.11 205.955C222.467 202.2 224.127 198.006 225 193.596L231.5 192.951V179.588L225 178.943C224.134 174.551 222.489 170.371 220.15 166.626L224.33 161.344L215.4 151.91L210.4 156.326C206.853 153.86 202.897 152.121 198.74 151.202L198.13 144.336H185.47L184.86 151.202C180.702 152.128 176.746 153.873 173.2 156.347L168.2 151.931L159.27 161.365L163.45 166.647C161.111 170.392 159.466 174.572 158.6 178.964L152.1 179.609V192.941L158.6 193.585C159.466 197.978 161.111 202.157 163.45 205.903L159.27 211.185L168.2 220.618L173.2 216.203C176.748 218.669 180.703 220.407 184.86 221.326L185.47 228.193H198.09L198.7 221.326C202.853 220.423 206.809 218.703 210.36 216.255ZM174.7 186.285C174.7 182.714 175.703 179.223 177.581 176.254C179.459 173.285 182.129 170.971 185.252 169.605C188.376 168.239 191.812 167.882 195.128 168.579C198.443 169.277 201.488 170.997 203.878 173.523C206.268 176.049 207.895 179.267 208.553 182.77C209.211 186.272 208.871 189.903 207.576 193.202C206.281 196.5 204.089 199.319 201.278 201.302C198.466 203.284 195.161 204.341 191.78 204.339C189.536 204.339 187.314 203.872 185.242 202.965C183.169 202.057 181.285 200.727 179.699 199.051C178.113 197.374 176.855 195.384 175.997 193.193C175.14 191.003 174.699 188.656 174.7 186.285Z" fill="#F5F5F5"/>
<path d="M263.45 306.567C268.4 305.48 273.11 303.412 277.33 300.472L283.33 305.754L294 294.503L289 288.165C291.783 283.706 293.741 278.731 294.77 273.502L302.51 272.741V256.895L294.77 256.124C293.746 250.88 291.788 245.89 289 241.419L294 235.081L283.34 223.851L277.34 229.133C273.117 226.198 268.408 224.13 263.46 223.038L262.73 214.872H247.73L247 223.006C242.052 224.098 237.343 226.166 233.12 229.101L227.12 223.819L216.49 235.049L221.49 241.387C218.711 245.848 216.754 250.823 215.72 256.05L207.98 256.821V272.667L215.72 273.428C216.752 278.656 218.71 283.63 221.49 288.091L216.49 294.429L227.12 305.648L233.12 300.366C237.333 303.343 242.043 305.448 247 306.567L247.73 314.744H262.73L263.45 306.567ZM234.87 264.786C234.872 260.537 236.067 256.384 238.303 252.852C240.539 249.32 243.716 246.567 247.433 244.942C251.15 243.318 255.239 242.894 259.184 243.724C263.129 244.554 266.752 246.602 269.596 249.607C272.44 252.612 274.376 256.441 275.16 260.609C275.944 264.777 275.541 269.097 274.001 273.022C272.461 276.948 269.854 280.303 266.509 282.664C263.165 285.024 259.232 286.284 255.21 286.284C252.538 286.284 249.892 285.728 247.424 284.648C244.955 283.567 242.713 281.983 240.824 279.987C238.935 277.991 237.437 275.621 236.415 273.012C235.394 270.404 234.869 267.609 234.87 264.786Z" fill="#FAFAFA"/>
<path d="M141.463 82.4801L95.4605 75.8411L89.1753 124.438L135.178 131.077L141.463 82.4801Z" fill="#F5F5F5"/>
<path d="M102.227 89.166L101.821 92.306L131.773 96.629L132.179 93.489L102.227 89.166Z" fill="#E0E0E0"/>
<path d="M100.948 99.0229L100.542 102.163L130.493 106.486L130.9 103.346L100.948 99.0229Z" fill="#E0E0E0"/>
<path d="M99.6385 109.212L99.2324 112.352L116.869 114.897L117.275 111.757L99.6385 109.212Z" fill="#E0E0E0"/>
<path d="M424.02 35.496L377.59 35.6672L377.752 84.716L424.182 84.544L424.02 35.496Z" fill="#F0F0F0"/>
<path d="M416.302 47.6854L386.072 47.8025L386.083 50.972L416.313 50.855L416.302 47.6854Z" fill="#E0E0E0"/>
<path d="M416.346 57.636L386.116 57.753L386.127 60.923L416.357 60.806L416.346 57.636Z" fill="#E0E0E0"/>
<path d="M403.942 67.974L386.142 68.043L386.153 71.212L403.953 71.143L403.942 67.974Z" fill="#E0E0E0"/>
<path d="M426.883 180.115L380.821 186.28L386.657 234.939L432.718 228.775L426.883 180.115Z" fill="#F5F5F5"/>
<path d="M420.647 193.261L390.656 197.275L391.033 200.419L421.024 196.405L420.647 193.261Z" fill="#E0E0E0"/>
<path d="M421.831 203.126L391.841 207.139L392.218 210.283L422.208 206.27L421.831 203.126Z" fill="#E0E0E0"/>
<path d="M410.722 214.978L393.063 217.342L393.44 220.486L411.099 218.122L410.722 214.978Z" fill="#E0E0E0"/>
<path d="M179.907 259.092L133.478 259.264L133.64 308.312L180.069 308.141L179.907 259.092Z" fill="#F0F0F0"/>
<path d="M172.242 271.322L142.012 271.439L142.023 274.608L172.253 274.491L172.242 271.322Z" fill="#E0E0E0"/>
<path d="M172.277 281.273L142.047 281.39L142.058 284.559L172.288 284.442L172.277 281.273Z" fill="#E0E0E0"/>
<path d="M159.882 291.611L142.083 291.679L142.094 294.849L159.893 294.78L159.882 291.611Z" fill="#E0E0E0"/>
<path d="M384.975 283.108L338.546 283.28L338.708 332.328L385.137 332.157L384.975 283.108Z" fill="#F0F0F0"/>
<path d="M377.304 295.3L347.074 295.417L347.085 298.587L377.315 298.47L377.304 295.3Z" fill="#E0E0E0"/>
<path d="M377.348 305.251L347.119 305.368L347.13 308.538L377.359 308.421L377.348 305.251Z" fill="#E0E0E0"/>
<path d="M364.944 315.589L347.145 315.658L347.156 318.827L364.955 318.758L364.944 315.589Z" fill="#E0E0E0"/>
<path d="M189.325 27.2922L143.999 37.9249L154.064 85.8069L199.39 75.1749L189.325 27.2922Z" fill="#F0F0F0"/>
<path d="M184.249 41.0166L154.738 47.939L155.389 51.033L184.9 44.1104L184.249 41.0166Z" fill="#E0E0E0"/>
<path d="M186.295 50.735L156.784 57.657L157.435 60.751L186.946 53.828L186.295 50.735Z" fill="#E0E0E0"/>
<path d="M176.269 63.619L158.893 67.695L159.543 70.789L176.92 66.713L176.269 63.619Z" fill="#E0E0E0"/>
<path d="M99.24 81.14H98.41L97.26 75.542H100.38L99.24 81.14Z" fill="#E0E0E0"/>
<path d="M98.8201 79.756C101.151 79.756 103.04 78.181 103.04 76.239C103.04 74.296 101.151 72.7209 98.8201 72.7209C96.4895 72.7209 94.6001 74.296 94.6001 76.239C94.6001 78.181 96.4895 79.756 98.8201 79.756Z" fill="#E6E6E6"/>
<path d="M184.07 59.2607H183.24L182.1 53.6724H185.22L184.07 59.2607Z" fill="#E0E0E0"/>
<path d="M183.66 57.8877C185.996 57.8877 187.89 56.3127 187.89 54.3699C187.89 52.427 185.996 50.8521 183.66 50.8521C181.324 50.8521 179.43 52.427 179.43 54.3699C179.43 56.3127 181.324 57.8877 183.66 57.8877Z" fill="#E6E6E6"/>
<path d="M400.14 40.666H399.31L398.16 35.0776H401.28L400.14 40.666Z" fill="#E0E0E0"/>
<path d="M399.72 64.2925C402.051 64.2925 403.94 62.7175 403.94 60.7746C403.94 58.8318 402.051 57.2568 399.72 57.2568C397.389 57.2568 395.5 58.8318 395.5 60.7746C395.5 62.7175 397.389 64.2925 399.72 64.2925Z" fill="#E6E6E6"/>
<path d="M422.6 187.141H421.77L420.63 181.553H423.75L422.6 187.141Z" fill="#E0E0E0"/>
<path d="M422.19 185.768C424.521 185.768 426.41 184.193 426.41 182.25C426.41 180.307 424.521 178.732 422.19 178.732C419.859 178.732 417.97 180.307 417.97 182.25C417.97 184.193 419.859 185.768 422.19 185.768Z" fill="#E6E6E6"/>
<path d="M362.59 288.682H361.75L360.61 283.083H363.73L362.59 288.682Z" fill="#E0E0E0"/>
<path d="M362.17 287.298C364.501 287.298 366.39 285.723 366.39 283.781C366.39 281.838 364.501 280.263 362.17 280.263C359.839 280.263 357.95 281.838 357.95 283.781C357.95 285.723 359.839 287.298 362.17 287.298Z" fill="#E6E6E6"/>
<path d="M155.48 263.54H154.65L153.51 257.941H156.63L155.48 263.54Z" fill="#E0E0E0"/>
<path d="M155.07 262.156C157.401 262.156 159.29 260.581 159.29 258.638C159.29 256.696 157.401 255.121 155.07 255.121C152.739 255.121 150.85 256.696 150.85 258.638C150.85 260.581 152.739 262.156 155.07 262.156Z" fill="#E6E6E6"/>
<path d="M248.5 469C364.756 469 459 453.778 459 435C459 416.222 364.756 401 248.5 401C132.244 401 38 416.222 38 435C38 453.778 132.244 469 248.5 469Z" fill="#F5F5F5"/>
<path d="M143.67 248.84C143.67 242.25 148 236.84 153.33 236.84C158.66 236.84 162.99 242.2 162.99 248.84C162.99 255.48 158.66 260.78 153.33 260.78C148 260.78 143.67 255.43 143.67 248.84ZM145.67 248.84C145.67 254.32 149.11 258.78 153.33 258.78C157.55 258.78 160.99 254.32 160.99 248.84C160.99 243.36 157.56 238.84 153.33 238.84C149.1 238.84 145.67 243.36 145.67 248.84Z" fill="#263238"/>
<path d="M124.66 248.84C124.66 242.25 128.99 236.84 134.32 236.84C139.65 236.84 143.98 242.2 143.98 248.84C143.98 255.48 139.65 260.78 134.32 260.78C128.99 260.78 124.66 255.43 124.66 248.84ZM126.66 248.84C126.66 254.32 130.09 258.78 134.32 258.78C138.55 258.78 141.98 254.32 141.98 248.84C141.98 243.36 138.54 238.84 134.32 238.84C130.1 238.84 126.66 243.36 126.66 248.84Z" fill="#263238"/>
<path d="M105.64 248.84C105.64 242.25 109.98 236.84 115.31 236.84C120.64 236.84 124.97 242.2 124.97 248.84C124.97 255.48 120.63 260.78 115.31 260.78C109.99 260.78 105.64 255.43 105.64 248.84ZM107.64 248.84C107.64 254.32 111.08 258.78 115.31 258.78C119.54 258.78 122.97 254.32 122.97 248.84C122.97 243.36 119.53 238.84 115.31 238.84C111.09 238.84 107.64 243.36 107.64 248.84Z" fill="#263238"/>
<path d="M86.6301 248.84C86.6301 242.25 90.9701 236.84 96.3001 236.84C101.63 236.84 105.96 242.2 105.96 248.84C105.96 255.48 101.62 260.78 96.3001 260.78C90.9801 260.78 86.6301 255.43 86.6301 248.84ZM88.6301 248.84C88.6301 254.32 92.0701 258.78 96.3001 258.78C100.53 258.78 103.96 254.32 103.96 248.84C103.96 243.36 100.52 238.84 96.3001 238.84C92.0801 238.84 88.6301 243.36 88.6301 248.84Z" fill="#263238"/>
<path d="M162.68 248.84C162.68 242.25 167.01 236.84 172.34 236.84C177.67 236.84 182.01 242.2 182.01 248.84C182.01 255.48 177.67 260.78 172.34 260.78C167.01 260.78 162.68 255.43 162.68 248.84ZM164.68 248.84C164.68 254.32 168.12 258.78 172.34 258.78C176.56 258.78 180.01 254.32 180.01 248.84C180.01 243.36 176.57 238.84 172.34 238.84C168.11 238.84 164.68 243.36 164.68 248.84Z" fill="#263238"/>
<path d="M74.0601 413.79H193.14V249.07H74.0601V413.79Z" fill="#263238"/>
<path opacity="0.7" d="M74.0601 413.79H193.14V249.07H74.0601V413.79Z" fill="white"/>
<path opacity="0.6" d="M84.79 413.79H193.14V249.07H84.79V413.79Z" fill="white"/>
<path opacity="0.2" d="M77.6301 413.79L77.1301 259.85L76.6301 413.79H77.6301Z" fill="black"/>
<path opacity="0.2" d="M82.6101 413.79L82.1101 269.44L81.6101 413.79H82.6101Z" fill="black"/>
<path opacity="0.2" d="M79.1201 249.19L79.6201 364.92L80.1201 249.19H79.1201Z" fill="black"/>
<path d="M175.22 256.9C175.323 257.433 175.575 257.926 175.947 258.321C176.319 258.716 176.796 258.997 177.322 259.131C177.849 259.265 178.402 259.247 178.918 259.078C179.434 258.909 179.891 258.597 180.236 258.178C180.581 257.759 180.8 257.25 180.867 256.712C180.934 256.173 180.846 255.626 180.613 255.136C180.381 254.645 180.013 254.231 179.554 253.941C179.095 253.651 178.563 253.498 178.02 253.5C177.201 253.586 176.448 253.991 175.924 254.627C175.4 255.263 175.147 256.079 175.22 256.9Z" fill="#263238"/>
<path d="M178.2 257.91C178.343 257.909 178.484 257.877 178.613 257.816C178.742 257.756 178.857 257.669 178.95 257.56C180.965 255.104 182.049 252.016 182.01 248.84C182.01 242.25 177.67 236.84 172.34 236.84C168.42 236.84 164.91 239.74 163.41 244.21C163.368 244.335 163.351 244.467 163.36 244.598C163.369 244.729 163.404 244.858 163.462 244.976C163.521 245.094 163.602 245.199 163.701 245.285C163.8 245.372 163.915 245.438 164.04 245.48C164.165 245.522 164.297 245.539 164.428 245.53C164.559 245.521 164.688 245.487 164.806 245.428C164.924 245.37 165.029 245.288 165.115 245.189C165.202 245.09 165.268 244.975 165.31 244.85C166.53 241.2 169.31 238.85 172.31 238.85C176.54 238.85 179.98 243.32 179.98 248.85C180.022 251.546 179.112 254.17 177.41 256.26C177.283 256.405 177.2 256.584 177.172 256.775C177.144 256.966 177.172 257.161 177.252 257.336C177.332 257.512 177.462 257.66 177.625 257.764C177.788 257.868 177.977 257.922 178.17 257.92L178.2 257.91Z" fill="#263238"/>
<g opacity="0.4">
<path d="M178.2 257.91C178.343 257.909 178.484 257.877 178.613 257.816C178.742 257.756 178.857 257.669 178.95 257.56C180.965 255.104 182.049 252.016 182.01 248.84C182.01 242.25 177.67 236.84 172.34 236.84C168.42 236.84 164.91 239.74 163.41 244.21C163.368 244.335 163.351 244.467 163.36 244.598C163.369 244.729 163.404 244.858 163.462 244.976C163.521 245.094 163.602 245.199 163.701 245.285C163.8 245.372 163.915 245.438 164.04 245.48C164.165 245.522 164.297 245.539 164.428 245.53C164.559 245.521 164.688 245.487 164.806 245.428C164.924 245.37 165.029 245.288 165.115 245.189C165.202 245.09 165.268 244.975 165.31 244.85C166.53 241.2 169.31 238.85 172.31 238.85C176.54 238.85 179.98 243.32 179.98 248.85C180.022 251.546 179.112 254.17 177.41 256.26C177.283 256.405 177.2 256.584 177.172 256.775C177.144 256.966 177.172 257.161 177.252 257.336C177.332 257.512 177.462 257.66 177.625 257.764C177.788 257.868 177.977 257.922 178.17 257.92L178.2 257.91Z" fill="white"/>
</g>
<path d="M156.21 256.9C156.314 257.43 156.567 257.919 156.938 258.311C157.31 258.703 157.785 258.981 158.309 259.113C158.832 259.245 159.382 259.226 159.896 259.058C160.409 258.889 160.863 258.579 161.206 258.162C161.55 257.745 161.767 257.239 161.834 256.703C161.901 256.168 161.815 255.624 161.585 255.135C161.354 254.647 160.99 254.234 160.534 253.944C160.079 253.655 159.55 253.501 159.01 253.5C158.191 253.586 157.438 253.991 156.914 254.627C156.39 255.263 156.137 256.079 156.21 256.9Z" fill="#263238"/>
<path d="M159.18 257.91C159.325 257.91 159.467 257.879 159.598 257.818C159.73 257.758 159.846 257.67 159.94 257.56C161.952 255.103 163.032 252.015 162.99 248.84C162.99 242.25 158.66 236.84 153.33 236.84C149.4 236.84 145.9 239.74 144.4 244.21C144.315 244.462 144.334 244.737 144.452 244.976C144.57 245.214 144.778 245.395 145.03 245.48C145.282 245.565 145.557 245.546 145.796 245.428C146.034 245.31 146.215 245.102 146.3 244.85C147.52 241.2 150.3 238.85 153.3 238.85C157.53 238.85 160.96 243.32 160.96 248.85C161.006 251.545 160.1 254.169 158.4 256.26C158.273 256.404 158.191 256.582 158.162 256.772C158.134 256.962 158.161 257.157 158.24 257.332C158.319 257.507 158.447 257.656 158.609 257.76C158.77 257.864 158.958 257.92 159.15 257.92L159.18 257.91Z" fill="#263238"/>
<g opacity="0.4">
<path d="M159.18 257.91C159.325 257.91 159.467 257.879 159.598 257.818C159.73 257.758 159.846 257.67 159.94 257.56C161.952 255.103 163.032 252.015 162.99 248.84C162.99 242.25 158.66 236.84 153.33 236.84C149.4 236.84 145.9 239.74 144.4 244.21C144.315 244.462 144.334 244.737 144.452 244.976C144.57 245.214 144.778 245.395 145.03 245.48C145.282 245.565 145.557 245.546 145.796 245.428C146.034 245.31 146.215 245.102 146.3 244.85C147.52 241.2 150.3 238.85 153.3 238.85C157.53 238.85 160.96 243.32 160.96 248.85C161.006 251.545 160.1 254.169 158.4 256.26C158.273 256.404 158.191 256.582 158.162 256.772C158.134 256.962 158.161 257.157 158.24 257.332C158.319 257.507 158.447 257.656 158.609 257.76C158.77 257.864 158.958 257.92 159.15 257.92L159.18 257.91Z" fill="white"/>
</g>
<path d="M137.19 256.9C137.292 257.433 137.544 257.925 137.916 258.32C138.288 258.715 138.764 258.996 139.29 259.131C139.816 259.265 140.369 259.247 140.884 259.079C141.4 258.911 141.858 258.6 142.203 258.182C142.549 257.764 142.768 257.256 142.836 256.718C142.904 256.18 142.817 255.633 142.586 255.142C142.355 254.651 141.99 254.236 141.532 253.946C141.074 253.655 140.543 253.5 140 253.5C139.18 253.586 138.426 253.99 137.901 254.626C137.375 255.262 137.12 256.078 137.19 256.9Z" fill="#263238"/>
<path d="M140.17 257.91C140.314 257.91 140.457 257.879 140.588 257.818C140.72 257.758 140.836 257.67 140.93 257.56C142.924 255.096 143.986 252.009 143.93 248.84C143.93 242.25 139.6 236.84 134.27 236.84C130.34 236.84 126.84 239.74 125.34 244.21C125.298 244.335 125.28 244.467 125.289 244.598C125.298 244.73 125.332 244.858 125.391 244.976C125.45 245.094 125.531 245.199 125.63 245.286C125.73 245.372 125.845 245.438 125.97 245.48C126.095 245.522 126.227 245.54 126.358 245.531C126.489 245.522 126.618 245.488 126.736 245.429C126.854 245.37 126.959 245.289 127.046 245.19C127.132 245.09 127.198 244.975 127.24 244.85C128.46 241.2 131.24 238.85 134.24 238.85C138.46 238.85 141.9 243.32 141.9 248.85C141.948 251.546 141.037 254.172 139.33 256.26C139.203 256.405 139.12 256.584 139.092 256.775C139.064 256.966 139.092 257.161 139.172 257.336C139.252 257.512 139.382 257.66 139.545 257.764C139.708 257.868 139.897 257.922 140.09 257.92L140.17 257.91Z" fill="#263238"/>
<g opacity="0.4">
<path d="M140.17 257.91C140.314 257.91 140.457 257.879 140.588 257.818C140.72 257.758 140.836 257.67 140.93 257.56C142.924 255.096 143.986 252.009 143.93 248.84C143.93 242.25 139.6 236.84 134.27 236.84C130.34 236.84 126.84 239.74 125.34 244.21C125.298 244.335 125.28 244.467 125.289 244.598C125.298 244.73 125.332 244.858 125.391 244.976C125.45 245.094 125.531 245.199 125.63 245.286C125.73 245.372 125.845 245.438 125.97 245.48C126.095 245.522 126.227 245.54 126.358 245.531C126.489 245.522 126.618 245.488 126.736 245.429C126.854 245.37 126.959 245.289 127.046 245.19C127.132 245.09 127.198 244.975 127.24 244.85C128.46 241.2 131.24 238.85 134.24 238.85C138.46 238.85 141.9 243.32 141.9 248.85C141.948 251.546 141.037 254.172 139.33 256.26C139.203 256.405 139.12 256.584 139.092 256.775C139.064 256.966 139.092 257.161 139.172 257.336C139.252 257.512 139.382 257.66 139.545 257.764C139.708 257.868 139.897 257.922 140.09 257.92L140.17 257.91Z" fill="white"/>
</g>
<path d="M118.18 256.9C118.282 257.433 118.534 257.925 118.906 258.32C119.278 258.715 119.754 258.996 120.28 259.131C120.806 259.265 121.359 259.247 121.874 259.079C122.39 258.911 122.848 258.6 123.193 258.182C123.539 257.764 123.758 257.256 123.826 256.718C123.894 256.18 123.807 255.633 123.576 255.142C123.345 254.651 122.98 254.236 122.522 253.946C122.064 253.655 121.533 253.5 120.99 253.5C120.17 253.586 119.416 253.99 118.891 254.626C118.365 255.262 118.11 256.078 118.18 256.9Z" fill="#263238"/>
<path d="M121.16 257.91C121.305 257.91 121.447 257.879 121.578 257.818C121.71 257.758 121.826 257.67 121.92 257.56C123.914 255.096 124.976 252.009 124.92 248.84C124.92 242.25 120.58 236.84 115.26 236.84C111.33 236.84 107.83 239.74 106.33 244.21C106.277 244.337 106.251 244.473 106.254 244.61C106.256 244.747 106.286 244.882 106.342 245.007C106.399 245.131 106.48 245.243 106.582 245.335C106.684 245.427 106.803 245.497 106.933 245.541C107.062 245.585 107.2 245.602 107.336 245.591C107.473 245.579 107.606 245.54 107.726 245.475C107.847 245.41 107.953 245.321 108.038 245.214C108.123 245.106 108.185 244.983 108.22 244.85C109.44 241.2 112.22 238.85 115.22 238.85C119.44 238.85 122.88 243.32 122.88 248.85C122.922 251.546 122.012 254.17 120.31 256.26C120.183 256.405 120.1 256.584 120.072 256.775C120.044 256.966 120.072 257.161 120.152 257.336C120.232 257.512 120.362 257.66 120.525 257.764C120.688 257.868 120.877 257.922 121.07 257.92L121.16 257.91Z" fill="#263238"/>
<g opacity="0.4">
<path d="M121.16 257.91C121.305 257.91 121.447 257.879 121.578 257.818C121.71 257.758 121.826 257.67 121.92 257.56C123.914 255.096 124.976 252.009 124.92 248.84C124.92 242.25 120.58 236.84 115.26 236.84C111.33 236.84 107.83 239.74 106.33 244.21C106.277 244.337 106.251 244.473 106.254 244.61C106.256 244.747 106.286 244.882 106.342 245.007C106.399 245.131 106.48 245.243 106.582 245.335C106.684 245.427 106.803 245.497 106.933 245.541C107.062 245.585 107.2 245.602 107.336 245.591C107.473 245.579 107.606 245.54 107.726 245.475C107.847 245.41 107.953 245.321 108.038 245.214C108.123 245.106 108.185 244.983 108.22 244.85C109.44 241.2 112.22 238.85 115.22 238.85C119.44 238.85 122.88 243.32 122.88 248.85C122.922 251.546 122.012 254.17 120.31 256.26C120.183 256.405 120.1 256.584 120.072 256.775C120.044 256.966 120.072 257.161 120.152 257.336C120.232 257.512 120.362 257.66 120.525 257.764C120.688 257.868 120.877 257.922 121.07 257.92L121.16 257.91Z" fill="white"/>
</g>
<path d="M99.1702 256.9C99.1702 258.78 100.43 260.3 101.97 260.3C102.763 260.15 103.478 259.729 103.992 259.108C104.507 258.487 104.789 257.706 104.789 256.9C104.789 256.094 104.507 255.313 103.992 254.692C103.478 254.071 102.763 253.65 101.97 253.5C100.43 253.5 99.1702 255 99.1702 256.9Z" fill="#263238"/>
<path d="M102.15 257.91C102.295 257.91 102.437 257.879 102.568 257.818C102.7 257.758 102.816 257.67 102.91 257.56C104.9 255.094 105.962 252.008 105.91 248.84C105.91 242.25 101.57 236.84 96.2501 236.84C92.3201 236.84 88.8101 239.74 87.3201 244.21C87.2675 244.337 87.2414 244.473 87.2435 244.61C87.2456 244.747 87.2759 244.882 87.3324 245.007C87.3889 245.131 87.4704 245.243 87.572 245.335C87.6735 245.427 87.7929 245.497 87.9227 245.541C88.0525 245.585 88.1899 245.602 88.3264 245.591C88.463 245.579 88.5957 245.54 88.7165 245.475C88.8372 245.41 88.9433 245.321 89.0282 245.214C89.1131 245.106 89.175 244.983 89.2101 244.85C90.4301 241.2 93.2101 238.85 96.2101 238.85C100.43 238.85 103.87 243.32 103.87 248.85C103.912 251.546 103.002 254.17 101.3 256.26C101.213 256.36 101.146 256.475 101.103 256.601C101.061 256.726 101.044 256.859 101.053 256.991C101.063 257.123 101.098 257.252 101.158 257.37C101.217 257.489 101.3 257.594 101.4 257.68C101.503 257.767 101.623 257.832 101.752 257.872C101.88 257.911 102.016 257.924 102.15 257.91Z" fill="#263238"/>
<g opacity="0.4">
<path d="M102.15 257.91C102.295 257.91 102.437 257.879 102.568 257.818C102.7 257.758 102.816 257.67 102.91 257.56C104.9 255.094 105.962 252.008 105.91 248.84C105.91 242.25 101.57 236.84 96.2501 236.84C92.3201 236.84 88.8101 239.74 87.3201 244.21C87.2675 244.337 87.2414 244.473 87.2435 244.61C87.2456 244.747 87.2759 244.882 87.3324 245.007C87.3889 245.131 87.4704 245.243 87.572 245.335C87.6735 245.427 87.7929 245.497 87.9227 245.541C88.0525 245.585 88.1899 245.602 88.3264 245.591C88.463 245.579 88.5957 245.54 88.7165 245.475C88.8372 245.41 88.9433 245.321 89.0282 245.214C89.1131 245.106 89.175 244.983 89.2101 244.85C90.4301 241.2 93.2101 238.85 96.2101 238.85C100.43 238.85 103.87 243.32 103.87 248.85C103.912 251.546 103.002 254.17 101.3 256.26C101.213 256.36 101.146 256.475 101.103 256.601C101.061 256.726 101.044 256.859 101.053 256.991C101.063 257.123 101.098 257.252 101.158 257.37C101.217 257.489 101.3 257.594 101.4 257.68C101.503 257.767 101.623 257.832 101.752 257.872C101.88 257.911 102.016 257.924 102.15 257.91Z" fill="white"/>
</g>
<path d="M116.08 324.85H107.7V339.14H116.08V324.85Z" fill="#16A34A"/>
<path d="M129.65 314.45H121.27V339.14H129.65V314.45Z" fill="#16A34A"/>
<path d="M143.23 318.35H134.85V339.14H143.23V318.35Z" fill="#16A34A"/>
<path d="M156.81 307.95H148.43V339.14H156.81V307.95Z" fill="#16A34A"/>
<path d="M170.38 297.55H162V339.14H170.38V297.55Z" fill="#16A34A"/>
<path opacity="0.5" d="M116.08 324.85H107.7V339.14H116.08V324.85Z" fill="white"/>
<path opacity="0.5" d="M129.65 314.45H121.27V339.14H129.65V314.45Z" fill="white"/>
<path opacity="0.5" d="M143.23 318.35H134.85V339.14H143.23V318.35Z" fill="white"/>
<path opacity="0.5" d="M156.81 307.95H148.43V339.14H156.81V307.95Z" fill="white"/>
<path opacity="0.5" d="M170.38 297.55H162V339.14H170.38V297.55Z" fill="white"/>
<path d="M181.56 337.16H96.1899V341.12H181.56V337.16Z" fill="#263238"/>
<path d="M99.79 327.79L97.95 325.47L125.33 303.68L138.88 311.54L175.46 280.36L177.38 282.61L139.21 315.16L125.6 307.26L99.79 327.79Z" fill="#16A34A"/>
<path d="M178.6 279.65L173.04 280.51L176.96 284.69L178.6 279.65Z" fill="#16A34A"/>
<g opacity="0.3">
<path d="M144.6 354H96.29C96.0248 354 95.7705 353.895 95.5829 353.707C95.3954 353.52 95.29 353.265 95.29 353C95.29 352.735 95.3954 352.48 95.5829 352.293C95.7705 352.105 96.0248 352 96.29 352H144.6C144.865 352 145.12 352.105 145.307 352.293C145.495 352.48 145.6 352.735 145.6 353C145.6 353.265 145.495 353.52 145.307 353.707C145.12 353.895 144.865 354 144.6 354Z" fill="black"/>
</g>
<g opacity="0.3">
<path d="M181.92 362.91H103.19C102.925 362.91 102.67 362.805 102.483 362.617C102.295 362.43 102.19 362.175 102.19 361.91C102.19 361.645 102.295 361.391 102.483 361.203C102.67 361.015 102.925 360.91 103.19 360.91H181.92C182.185 360.91 182.44 361.015 182.627 361.203C182.815 361.391 182.92 361.645 182.92 361.91C182.92 362.175 182.815 362.43 182.627 362.617C182.44 362.805 182.185 362.91 181.92 362.91Z" fill="black"/>
<path d="M182 367.92H96.29C96.0248 367.92 95.7705 367.815 95.5829 367.627C95.3954 367.44 95.29 367.185 95.29 366.92C95.29 366.655 95.3954 366.401 95.5829 366.213C95.7705 366.026 96.0248 365.92 96.29 365.92H182C182.265 365.92 182.52 366.026 182.707 366.213C182.895 366.401 183 366.655 183 366.92C183 367.185 182.895 367.44 182.707 367.627C182.52 367.815 182.265 367.92 182 367.92Z" fill="black"/>
<path d="M182.14 372.93H96.4001C96.1349 372.93 95.8806 372.825 95.693 372.637C95.5055 372.45 95.4001 372.195 95.4001 371.93C95.4001 371.665 95.5055 371.411 95.693 371.223C95.8806 371.036 96.1349 370.93 96.4001 370.93H182.14C182.405 370.93 182.66 371.036 182.847 371.223C183.035 371.411 183.14 371.665 183.14 371.93C183.14 372.195 183.035 372.45 182.847 372.637C182.66 372.825 182.405 372.93 182.14 372.93Z" fill="black"/>
<path d="M168.24 377.94H96.51C96.2448 377.94 95.9904 377.835 95.8029 377.647C95.6154 377.46 95.51 377.205 95.51 376.94C95.51 376.675 95.6154 376.421 95.8029 376.233C95.9904 376.046 96.2448 375.94 96.51 375.94H168.24C168.505 375.94 168.76 376.046 168.947 376.233C169.135 376.421 169.24 376.675 169.24 376.94C169.24 377.205 169.135 377.46 168.947 377.647C168.76 377.835 168.505 377.94 168.24 377.94Z" fill="black"/>
</g>
<g opacity="0.3">
<path d="M181.92 386.93H103.19C102.925 386.93 102.67 386.825 102.483 386.637C102.295 386.45 102.19 386.195 102.19 385.93C102.19 385.665 102.295 385.411 102.483 385.223C102.67 385.036 102.925 384.93 103.19 384.93H181.92C182.185 384.93 182.44 385.036 182.627 385.223C182.815 385.411 182.92 385.665 182.92 385.93C182.92 386.195 182.815 386.45 182.627 386.637C182.44 386.825 182.185 386.93 181.92 386.93Z" fill="black"/>
<path d="M182 391.94H96.29C96.0248 391.94 95.7705 391.835 95.5829 391.647C95.3954 391.46 95.29 391.205 95.29 390.94C95.29 390.675 95.3954 390.421 95.5829 390.233C95.7705 390.046 96.0248 389.94 96.29 389.94H182C182.265 389.94 182.52 390.046 182.707 390.233C182.895 390.421 183 390.675 183 390.94C183 391.205 182.895 391.46 182.707 391.647C182.52 391.835 182.265 391.94 182 391.94Z" fill="black"/>
<path d="M182.14 397H96.4001C96.1349 397 95.8806 396.895 95.693 396.707C95.5055 396.52 95.4001 396.265 95.4001 396C95.4001 395.735 95.5055 395.481 95.693 395.293C95.8806 395.106 96.1349 395 96.4001 395H182.14C182.405 395 182.66 395.106 182.847 395.293C183.035 395.481 183.14 395.735 183.14 396C183.14 396.265 183.035 396.52 182.847 396.707C182.66 396.895 182.405 397 182.14 397Z" fill="black"/>
<path d="M168.24 402H96.51C96.2448 402 95.9904 401.895 95.8029 401.707C95.6154 401.52 95.51 401.265 95.51 401C95.51 400.735 95.6154 400.481 95.8029 400.293C95.9904 400.106 96.2448 400 96.51 400H168.24C168.505 400 168.76 400.106 168.947 400.293C169.135 400.481 169.24 400.735 169.24 401C169.24 401.265 169.135 401.52 168.947 401.707C168.76 401.895 168.505 402 168.24 402Z" fill="black"/>
</g>
<g opacity="0.3">
<path d="M144.6 270.92H96.29C96.0248 270.92 95.7705 270.815 95.5829 270.627C95.3954 270.44 95.29 270.185 95.29 269.92C95.29 269.655 95.3954 269.401 95.5829 269.213C95.7705 269.026 96.0248 268.92 96.29 268.92H144.6C144.865 268.92 145.12 269.026 145.307 269.213C145.495 269.401 145.6 269.655 145.6 269.92C145.6 270.185 145.495 270.44 145.307 270.627C145.12 270.815 144.865 270.92 144.6 270.92Z" fill="black"/>
</g>
<path d="M410.44 171.24H295.61C293.699 171.24 292.15 172.789 292.15 174.7V364.4C292.15 366.311 293.699 367.86 295.61 367.86H410.44C412.351 367.86 413.9 366.311 413.9 364.4V174.7C413.9 172.789 412.351 171.24 410.44 171.24Z" fill="#16A34A"/>
<path d="M320.84 170.3H385.22C385.39 170.3 385.552 170.367 385.672 170.487C385.793 170.607 385.86 170.77 385.86 170.94V177.38H320.19V170.94C320.19 170.855 320.207 170.771 320.24 170.693C320.272 170.614 320.32 170.543 320.381 170.484C320.441 170.424 320.513 170.377 320.592 170.346C320.671 170.314 320.755 170.299 320.84 170.3Z" fill="#263238"/>
<path opacity="0.9" d="M409.09 177.38H296.97V361.69H409.09V177.38Z" fill="white"/>
<path d="M375 185.86H355.29L355.06 185.17C354.921 184.743 354.65 184.37 354.286 184.106C353.922 183.843 353.484 183.7 353.035 183.7C352.586 183.7 352.148 183.843 351.784 184.106C351.42 184.37 351.149 184.743 351.01 185.17L350.78 185.86H331.05C330.285 185.86 329.552 185.557 329.01 185.017C328.468 184.477 328.163 183.745 328.16 182.98V175.72C328.165 174.956 328.472 174.225 329.013 173.686C329.554 173.146 330.286 172.842 331.05 172.84H375.05C375.813 172.842 376.544 173.147 377.083 173.686C377.623 174.226 377.927 174.957 377.93 175.72V183C377.927 183.381 377.849 183.757 377.7 184.107C377.551 184.458 377.334 184.775 377.062 185.041C376.789 185.307 376.467 185.516 376.113 185.657C375.759 185.798 375.381 185.866 375 185.86ZM356.66 183.86H375C375.116 183.861 375.231 183.839 375.338 183.796C375.446 183.752 375.543 183.687 375.625 183.605C375.707 183.523 375.772 183.426 375.816 183.318C375.859 183.211 375.881 183.096 375.88 182.98V175.72C375.88 175.486 375.787 175.263 375.622 175.098C375.457 174.933 375.233 174.84 375 174.84H331C330.884 174.839 330.768 174.86 330.66 174.904C330.552 174.948 330.454 175.012 330.371 175.094C330.288 175.176 330.223 175.273 330.178 175.381C330.133 175.488 330.11 175.603 330.11 175.72V183C330.11 183.116 330.133 183.232 330.178 183.339C330.223 183.446 330.288 183.544 330.371 183.626C330.454 183.708 330.552 183.772 330.66 183.816C330.768 183.859 330.884 183.881 331 183.88H349.4C349.754 183.224 350.278 182.676 350.918 182.294C351.558 181.912 352.29 181.71 353.035 181.71C353.78 181.71 354.512 181.912 355.151 182.294C355.791 182.676 356.316 183.224 356.67 183.88L356.66 183.86Z" fill="#263238"/>
<g opacity="0.5">
<path d="M375 185.86H355.29L355.06 185.17C354.921 184.743 354.65 184.37 354.286 184.106C353.922 183.843 353.484 183.7 353.035 183.7C352.586 183.7 352.148 183.843 351.784 184.106C351.42 184.37 351.149 184.743 351.01 185.17L350.78 185.86H331.05C330.285 185.86 329.552 185.557 329.01 185.017C328.468 184.477 328.163 183.745 328.16 182.98V175.72C328.165 174.956 328.472 174.225 329.013 173.686C329.554 173.146 330.286 172.842 331.05 172.84H375.05C375.813 172.842 376.544 173.147 377.083 173.686C377.623 174.226 377.927 174.957 377.93 175.72V183C377.927 183.381 377.849 183.757 377.7 184.107C377.551 184.458 377.334 184.775 377.062 185.041C376.789 185.307 376.467 185.516 376.113 185.657C375.759 185.798 375.381 185.866 375 185.86ZM356.66 183.86H375C375.116 183.861 375.231 183.839 375.338 183.796C375.446 183.752 375.543 183.687 375.625 183.605C375.707 183.523 375.772 183.426 375.816 183.318C375.859 183.211 375.881 183.096 375.88 182.98V175.72C375.88 175.486 375.787 175.263 375.622 175.098C375.457 174.933 375.233 174.84 375 174.84H331C330.884 174.839 330.768 174.86 330.66 174.904C330.552 174.948 330.454 175.012 330.371 175.094C330.288 175.176 330.223 175.273 330.178 175.381C330.133 175.488 330.11 175.603 330.11 175.72V183C330.11 183.116 330.133 183.232 330.178 183.339C330.223 183.446 330.288 183.544 330.371 183.626C330.454 183.708 330.552 183.772 330.66 183.816C330.768 183.859 330.884 183.881 331 183.88H349.4C349.754 183.224 350.278 182.676 350.918 182.294C351.558 181.912 352.29 181.71 353.035 181.71C353.78 181.71 354.512 181.912 355.151 182.294C355.791 182.676 356.316 183.224 356.67 183.88L356.66 183.86Z" fill="white"/>
</g>
<path d="M371.92 171.68H334.14C333.593 171.68 333.15 172.123 333.15 172.67V175.04C333.15 175.587 333.593 176.03 334.14 176.03H371.92C372.467 176.03 372.91 175.587 372.91 175.04V172.67C372.91 172.123 372.467 171.68 371.92 171.68Z" fill="#263238"/>
<path opacity="0.2" d="M371.92 171.68H334.14C333.593 171.68 333.15 172.123 333.15 172.67V175.04C333.15 175.587 333.593 176.03 334.14 176.03H371.92C372.467 176.03 372.91 175.587 372.91 175.04V172.67C372.91 172.123 372.467 171.68 371.92 171.68Z" fill="white"/>
<path d="M400.321 331.786C403.021 320.348 395.937 308.887 384.499 306.187C373.06 303.487 361.599 310.571 358.899 322.01C356.2 333.448 363.284 344.909 374.722 347.609C386.161 350.309 397.622 343.225 400.321 331.786Z" fill="#16A34A"/>
<path opacity="0.3" d="M379.62 326.92H400.9C400.9 331.129 399.652 335.243 397.314 338.742C394.975 342.242 391.652 344.969 387.763 346.58C383.875 348.191 379.596 348.612 375.468 347.791C371.34 346.97 367.549 344.943 364.573 341.967C361.597 338.991 359.57 335.199 358.749 331.071C357.928 326.943 358.349 322.665 359.96 318.776C361.57 314.888 364.298 311.564 367.797 309.226C371.297 306.888 375.411 305.64 379.62 305.64H379.7L379.62 326.92Z" fill="white"/>
<path opacity="0.3" d="M379.62 326.92L391.1 344.83C388.317 346.616 385.156 347.728 381.868 348.08C378.58 348.431 375.255 348.011 372.158 346.853C369.06 345.695 366.275 343.832 364.023 341.41C361.772 338.989 360.115 336.075 359.186 332.902C358.256 329.729 358.079 326.382 358.668 323.129C359.257 319.875 360.597 316.803 362.58 314.157C364.563 311.511 367.136 309.364 370.094 307.885C373.051 306.407 376.313 305.638 379.62 305.64H379.69L379.62 326.92Z" fill="white"/>
<path opacity="0.3" d="M379.62 326.92L361.68 338.36C359.629 335.143 358.481 331.435 358.355 327.623C358.229 323.81 359.13 320.034 360.964 316.689C362.798 313.344 365.497 310.554 368.779 308.61C372.061 306.666 375.805 305.64 379.62 305.64H379.69L379.62 326.92Z" fill="white"/>
<g opacity="0.5">
<path d="M305.05 210.39V260.61H401.05V210.39H305.05ZM400.26 218.23H383.65V211.14H400.26V218.23ZM347.21 218.23H330.11V211.14H347.21V218.23ZM347.96 211.14H365.05V218.23H348L347.96 211.14ZM347.21 218.98V259.86H330.11V219L347.21 218.98ZM347.96 218.98H365.05V259.86H348L347.96 218.98ZM365.8 218.98H382.9V259.86H365.8V218.98ZM365.8 218.23V211.14H382.9V218.23H365.8ZM329.36 211.14V218.23H305.8V211.14H329.36ZM305.8 219H329.36V259.88H305.8V219ZM383.65 259.88V219H400.26V259.88H383.65Z" fill="black"/>
<path d="M335.56 226H342.48C342.745 226 342.999 225.895 343.187 225.707C343.374 225.52 343.48 225.265 343.48 225C343.48 224.735 343.374 224.48 343.187 224.293C342.999 224.105 342.745 224 342.48 224H335.56C335.295 224 335.04 224.105 334.853 224.293C334.665 224.48 334.56 224.735 334.56 225C334.56 225.265 334.665 225.52 334.853 225.707C335.04 225.895 335.295 226 335.56 226Z" fill="black"/>
<path d="M353 235.07H360.51C360.775 235.07 361.029 234.964 361.217 234.777C361.404 234.589 361.51 234.335 361.51 234.07C361.51 233.805 361.404 233.55 361.217 233.363C361.029 233.175 360.775 233.07 360.51 233.07H353C352.735 233.07 352.48 233.175 352.293 233.363C352.105 233.55 352 233.805 352 234.07C352 234.335 352.105 234.589 352.293 234.777C352.48 234.964 352.735 235.07 353 235.07Z" fill="black"/>
<path d="M360.87 251.22H353C352.735 251.22 352.48 251.325 352.293 251.513C352.105 251.7 352 251.955 352 252.22C352 252.485 352.105 252.74 352.293 252.927C352.48 253.115 352.735 253.22 353 253.22H360.84C361.105 253.22 361.359 253.115 361.547 252.927C361.734 252.74 361.84 252.485 361.84 252.22C361.84 251.955 361.734 251.7 361.547 251.513C361.359 251.325 361.105 251.22 360.84 251.22H360.87Z" fill="black"/>
<path d="M378.27 242.14H370C369.735 242.14 369.48 242.245 369.293 242.433C369.105 242.62 369 242.875 369 243.14C369 243.405 369.105 243.659 369.293 243.847C369.48 244.035 369.735 244.14 370 244.14H378.29C378.555 244.14 378.809 244.035 378.997 243.847C379.184 243.659 379.29 243.405 379.29 243.14C379.29 242.875 379.184 242.62 378.997 242.433C378.809 242.245 378.555 242.14 378.29 242.14H378.27Z" fill="black"/>
<path d="M396.16 224H387.76C387.495 224 387.24 224.105 387.053 224.293C386.865 224.48 386.76 224.735 386.76 225C386.76 225.265 386.865 225.52 387.053 225.707C387.24 225.895 387.495 226 387.76 226H396.16C396.425 226 396.679 225.895 396.867 225.707C397.054 225.52 397.16 225.265 397.16 225C397.16 224.735 397.054 224.48 396.867 224.293C396.679 224.105 396.425 224 396.16 224Z" fill="black"/>
<path d="M395.08 251.22H387.76C387.495 251.22 387.24 251.325 387.053 251.513C386.865 251.7 386.76 251.955 386.76 252.22C386.76 252.485 386.865 252.74 387.053 252.927C387.24 253.115 387.495 253.22 387.76 253.22H395.08C395.345 253.22 395.599 253.115 395.787 252.927C395.974 252.74 396.08 252.485 396.08 252.22C396.08 251.955 395.974 251.7 395.787 251.513C395.599 251.325 395.345 251.22 395.08 251.22Z" fill="black"/>
<path d="M335.56 244.14H341.49C341.755 244.14 342.009 244.035 342.197 243.847C342.384 243.659 342.49 243.405 342.49 243.14C342.49 242.875 342.384 242.62 342.197 242.433C342.009 242.245 341.755 242.14 341.49 242.14H335.56C335.295 242.14 335.04 242.245 334.853 242.433C334.665 242.62 334.56 242.875 334.56 243.14C334.56 243.405 334.665 243.659 334.853 243.847C335.04 244.035 335.295 244.14 335.56 244.14Z" fill="black"/>
<path d="M342.48 251.22H335.56C335.295 251.22 335.04 251.325 334.853 251.513C334.665 251.7 334.56 251.955 334.56 252.22C334.56 252.485 334.665 252.74 334.853 252.927C335.04 253.115 335.295 253.22 335.56 253.22H342.48C342.745 253.22 342.999 253.115 343.187 252.927C343.374 252.74 343.48 252.485 343.48 252.22C343.48 251.955 343.374 251.7 343.187 251.513C342.999 251.325 342.745 251.22 342.48 251.22Z" fill="black"/>
<path d="M309.41 226H325.23C325.495 226 325.749 225.895 325.937 225.707C326.125 225.52 326.23 225.265 326.23 225C326.23 224.735 326.125 224.48 325.937 224.293C325.749 224.105 325.495 224 325.23 224H309.41C309.145 224 308.89 224.105 308.703 224.293C308.515 224.48 308.41 224.735 308.41 225C308.41 225.265 308.515 225.52 308.703 225.707C308.89 225.895 309.145 226 309.41 226Z" fill="black"/>
<path d="M309.41 235.07H319.94C320.205 235.07 320.459 234.964 320.647 234.777C320.835 234.589 320.94 234.335 320.94 234.07C320.94 233.805 320.835 233.55 320.647 233.363C320.459 233.175 320.205 233.07 319.94 233.07H309.41C309.145 233.07 308.89 233.175 308.703 233.363C308.515 233.55 308.41 233.805 308.41 234.07C308.41 234.335 308.515 234.589 308.703 234.777C308.89 234.964 309.145 235.07 309.41 235.07Z" fill="black"/>
<path d="M325.23 242.14H309.41C309.145 242.14 308.89 242.245 308.703 242.433C308.515 242.62 308.41 242.875 308.41 243.14C308.41 243.405 308.515 243.659 308.703 243.847C308.89 244.035 309.145 244.14 309.41 244.14H325.23C325.495 244.14 325.749 244.035 325.937 243.847C326.125 243.659 326.23 243.405 326.23 243.14C326.23 242.875 326.125 242.62 325.937 242.433C325.749 242.245 325.495 242.14 325.23 242.14Z" fill="black"/>
<path d="M317.32 251.22H309.41C309.145 251.22 308.89 251.325 308.703 251.513C308.515 251.7 308.41 251.955 308.41 252.22C308.41 252.485 308.515 252.74 308.703 252.927C308.89 253.115 309.145 253.22 309.41 253.22H317.32C317.585 253.22 317.839 253.115 318.027 252.927C318.215 252.74 318.32 252.485 318.32 252.22C318.32 251.955 318.215 251.7 318.027 251.513C317.839 251.325 317.585 251.22 317.32 251.22Z" fill="black"/>
</g>
<g opacity="0.5">
<path d="M343.49 199.86H306.05C305.785 199.86 305.53 199.755 305.343 199.567C305.155 199.379 305.05 199.125 305.05 198.86C305.05 198.595 305.155 198.34 305.343 198.153C305.53 197.965 305.785 197.86 306.05 197.86H343.49C343.755 197.86 344.009 197.965 344.197 198.153C344.384 198.34 344.49 198.595 344.49 198.86C344.49 199.125 344.384 199.379 344.197 199.567C344.009 199.755 343.755 199.86 343.49 199.86Z" fill="black"/>
</g>
<g opacity="0.5">
<path d="M330.36 205.47H306.05C305.785 205.47 305.53 205.365 305.343 205.177C305.155 204.99 305.05 204.735 305.05 204.47C305.05 204.205 305.155 203.95 305.343 203.763C305.53 203.575 305.785 203.47 306.05 203.47H330.36C330.625 203.47 330.879 203.575 331.067 203.763C331.254 203.95 331.36 204.205 331.36 204.47C331.36 204.735 331.254 204.99 331.067 205.177C330.879 205.365 330.625 205.47 330.36 205.47Z" fill="black"/>
</g>
<g opacity="0.5">
<path d="M354.36 269.28H306.05C305.785 269.28 305.53 269.174 305.343 268.987C305.155 268.799 305.05 268.545 305.05 268.28C305.05 268.015 305.155 267.76 305.343 267.573C305.53 267.385 305.785 267.28 306.05 267.28H354.36C354.625 267.28 354.879 267.385 355.067 267.573C355.254 267.76 355.36 268.015 355.36 268.28C355.36 268.545 355.254 268.799 355.067 268.987C354.879 269.174 354.625 269.28 354.36 269.28Z" fill="black"/>
</g>
<path d="M311.02 308.92H305.05V314.89H311.02V308.92Z" fill="#16A34A"/>
<g opacity="0.5">
<path d="M345 312.91H315.36C315.095 312.91 314.84 312.805 314.653 312.617C314.465 312.429 314.36 312.175 314.36 311.91C314.36 311.645 314.465 311.39 314.653 311.203C314.84 311.015 315.095 310.91 315.36 310.91H345C345.265 310.91 345.519 311.015 345.707 311.203C345.895 311.39 346 311.645 346 311.91C346 312.175 345.895 312.429 345.707 312.617C345.519 312.805 345.265 312.91 345 312.91Z" fill="black"/>
</g>
<path d="M311.02 318.93H305.05V324.9H311.02V318.93Z" fill="#16A34A"/>
<g opacity="0.5">
<path d="M345 322.91H315.36C315.095 322.91 314.84 322.805 314.653 322.617C314.465 322.429 314.36 322.175 314.36 321.91C314.36 321.645 314.465 321.39 314.653 321.203C314.84 321.015 315.095 320.91 315.36 320.91H345C345.265 320.91 345.519 321.015 345.707 321.203C345.895 321.39 346 321.645 346 321.91C346 322.175 345.895 322.429 345.707 322.617C345.519 322.805 345.265 322.91 345 322.91Z" fill="black"/>
</g>
<path d="M311.02 328.93H305.05V334.9H311.02V328.93Z" fill="#16A34A"/>
<g opacity="0.5">
<path d="M345 332.92H315.36C315.095 332.92 314.84 332.815 314.653 332.627C314.465 332.439 314.36 332.185 314.36 331.92C314.36 331.655 314.465 331.4 314.653 331.213C314.84 331.025 315.095 330.92 315.36 330.92H345C345.265 330.92 345.519 331.025 345.707 331.213C345.895 331.4 346 331.655 346 331.92C346 332.185 345.895 332.439 345.707 332.627C345.519 332.815 345.265 332.92 345 332.92Z" fill="black"/>
</g>
<path d="M311.02 338.94H305.05V344.91H311.02V338.94Z" fill="#16A34A"/>
<g opacity="0.5">
<path d="M345 342.93H315.36C315.095 342.93 314.84 342.825 314.653 342.637C314.465 342.45 314.36 342.195 314.36 341.93C314.36 341.665 314.465 341.41 314.653 341.223C314.84 341.035 315.095 340.93 315.36 340.93H345C345.265 340.93 345.519 341.035 345.707 341.223C345.895 341.41 346 341.665 346 341.93C346 342.195 345.895 342.45 345.707 342.637C345.519 342.825 345.265 342.93 345 342.93Z" fill="black"/>
</g>
<g opacity="0.5">
<path d="M399.68 278.22H312.94C312.675 278.22 312.42 278.115 312.233 277.927C312.045 277.74 311.94 277.485 311.94 277.22C311.94 276.955 312.045 276.7 312.233 276.513C312.42 276.325 312.675 276.22 312.94 276.22H399.68C399.945 276.22 400.2 276.325 400.387 276.513C400.575 276.7 400.68 276.955 400.68 277.22C400.68 277.485 400.575 277.74 400.387 277.927C400.2 278.115 399.945 278.22 399.68 278.22Z" fill="black"/>
<path d="M399.79 283.23H306.05C305.785 283.23 305.53 283.125 305.343 282.937C305.155 282.75 305.05 282.495 305.05 282.23C305.05 281.965 305.155 281.71 305.343 281.523C305.53 281.335 305.785 281.23 306.05 281.23H399.79C400.055 281.23 400.309 281.335 400.497 281.523C400.684 281.71 400.79 281.965 400.79 282.23C400.79 282.495 400.684 282.75 400.497 282.937C400.309 283.125 400.055 283.23 399.79 283.23Z" fill="black"/>
<path d="M399.9 288.24H306.16C305.895 288.24 305.64 288.135 305.453 287.947C305.265 287.76 305.16 287.505 305.16 287.24C305.16 286.975 305.265 286.72 305.453 286.533C305.64 286.345 305.895 286.24 306.16 286.24H399.9C400.165 286.24 400.419 286.345 400.607 286.533C400.795 286.72 400.9 286.975 400.9 287.24C400.9 287.505 400.795 287.76 400.607 287.947C400.419 288.135 400.165 288.24 399.9 288.24Z" fill="black"/>
<path d="M386 293.25H306.27C306.005 293.25 305.75 293.145 305.563 292.957C305.375 292.77 305.27 292.515 305.27 292.25C305.27 291.985 305.375 291.73 305.563 291.543C305.75 291.355 306.005 291.25 306.27 291.25H386C386.265 291.25 386.519 291.355 386.707 291.543C386.894 291.73 387 291.985 387 292.25C387 292.515 386.894 292.77 386.707 292.957C386.519 293.145 386.265 293.25 386 293.25Z" fill="black"/>
</g>
<path opacity="0.3" d="M311.02 318.93H305.05V324.9H311.02V318.93Z" fill="white"/>
<path opacity="0.5" d="M311.02 328.93H305.05V334.9H311.02V328.93Z" fill="white"/>
<path opacity="0.7" d="M311.02 338.94H305.05V344.91H311.02V338.94Z" fill="white"/>
<path d="M407.41 393.25C407.41 393.25 402.66 382.89 408.09 372.67C413.52 362.45 415.09 360.05 411.63 357.96C408.17 355.87 406.58 366.13 406.58 366.13C404.868 361.488 404.693 356.419 406.08 351.67C408.48 344.28 409.99 332.24 406.71 330.95C403.43 329.66 406.08 345.95 403.22 351.53C401.769 347.624 400.832 343.547 400.43 339.4C400.04 333.47 400.65 323.99 398.06 321.56C395.47 319.13 393.8 320.81 396.35 333.91C397.883 341.738 398.729 349.685 398.88 357.66C398.88 357.66 393.25 340.47 389.46 339.97C385.67 339.47 385.68 345.04 388.92 349.87C392.16 354.7 398.41 363.34 399.43 367.79C399.43 367.79 393.24 354.86 387.68 358.79C382.12 362.72 392.52 370.57 397.16 373.39C401.8 376.21 405 393.94 405 393.94L407.41 393.25Z" fill="#16A34A"/>
<path opacity="0.2" d="M407.41 393.25C407.41 393.25 402.66 382.89 408.09 372.67C413.52 362.45 415.09 360.05 411.63 357.96C408.17 355.87 406.58 366.13 406.58 366.13C404.868 361.488 404.693 356.419 406.08 351.67C408.48 344.28 409.99 332.24 406.71 330.95C403.43 329.66 406.08 345.95 403.22 351.53C401.769 347.624 400.832 343.547 400.43 339.4C400.04 333.47 400.65 323.99 398.06 321.56C395.47 319.13 393.8 320.81 396.35 333.91C397.883 341.738 398.729 349.685 398.88 357.66C398.88 357.66 393.25 340.47 389.46 339.97C385.67 339.47 385.68 345.04 388.92 349.87C392.16 354.7 398.41 363.34 399.43 367.79C399.43 367.79 393.24 354.86 387.68 358.79C382.12 362.72 392.52 370.57 397.16 373.39C401.8 376.21 405 393.94 405 393.94L407.41 393.25Z" fill="black"/>
<path d="M403.66 397.5C403.66 397.5 408.29 387.07 402.74 376.94C397.19 366.81 395.59 364.42 399.02 362.27C402.45 360.12 404.17 370.37 404.17 370.37C405.827 365.71 405.943 360.641 404.5 355.91C402.01 348.55 400.35 336.54 403.62 335.2C406.89 333.86 404.43 350.2 407.35 355.72C408.755 351.799 409.646 347.711 410 343.56C410.32 337.61 409.59 328.14 412.16 325.67C414.73 323.2 416.41 324.86 414.01 338C412.573 345.85 411.823 353.81 411.77 361.79C411.77 361.79 417.2 344.52 421 344C424.8 343.48 424.84 349 421.66 353.88C418.48 358.76 412.34 367.5 411.37 371.96C411.37 371.96 417.37 358.96 423.01 362.82C428.65 366.68 418.31 374.67 413.71 377.56C409.11 380.45 406.09 398.19 406.09 398.19L403.66 397.5Z" fill="#16A34A"/>
<path d="M425 390.07H386.79L389.88 417.41H421.9L425 390.07Z" fill="#263238"/>
<path d="M194.26 130.57H223C225.344 130.57 227.593 131.501 229.251 133.159C230.909 134.817 231.84 137.066 231.84 139.41V164.41C231.84 166.755 230.909 169.003 229.251 170.661C227.593 172.319 225.344 173.25 223 173.25H214.6L217.6 184.15L208.6 173.25H194.26C193.098 173.251 191.948 173.024 190.874 172.58C189.8 172.136 188.825 171.485 188.003 170.664C187.181 169.843 186.529 168.868 186.084 167.795C185.639 166.722 185.41 165.572 185.41 164.41V139.41C185.41 138.248 185.639 137.098 186.084 136.025C186.529 134.952 187.181 133.977 188.003 133.156C188.825 132.335 189.8 131.684 190.874 131.24C191.948 130.796 193.098 130.569 194.26 130.57Z" fill="#16A34A"/>
<path opacity="0.7" d="M194.26 130.57H223C225.344 130.57 227.593 131.501 229.251 133.159C230.909 134.817 231.84 137.066 231.84 139.41V164.41C231.84 166.755 230.909 169.003 229.251 170.661C227.593 172.319 225.344 173.25 223 173.25H214.6L217.6 184.15L208.6 173.25H194.26C193.098 173.251 191.948 173.024 190.874 172.58C189.8 172.136 188.825 171.485 188.003 170.664C187.181 169.843 186.529 168.868 186.084 167.795C185.639 166.722 185.41 165.572 185.41 164.41V139.41C185.41 138.248 185.639 137.098 186.084 136.025C186.529 134.952 187.181 133.977 188.003 133.156C188.825 132.335 189.8 131.684 190.874 131.24C191.948 130.796 193.098 130.569 194.26 130.57Z" fill="white"/>
<path opacity="0.7" d="M204.28 157.36C209.223 157.36 213.23 153.353 213.23 148.41C213.23 143.467 209.223 139.46 204.28 139.46C199.337 139.46 195.33 143.467 195.33 148.41C195.33 153.353 199.337 157.36 204.28 157.36Z" fill="white"/>
<path d="M204.28 158.65C201.911 158.648 199.616 157.825 197.787 156.321C195.957 154.817 194.705 152.725 194.244 150.402C193.783 148.079 194.142 145.667 195.26 143.579C196.377 141.49 198.184 139.854 200.373 138.948C202.562 138.043 204.997 137.924 207.263 138.612C209.53 139.3 211.488 140.753 212.803 142.722C214.119 144.692 214.711 147.057 214.479 149.414C214.247 151.771 213.205 153.975 211.53 155.65C210.579 156.603 209.448 157.359 208.204 157.874C206.96 158.388 205.626 158.652 204.28 158.65ZM204.28 140.76C202.51 140.76 200.795 141.374 199.427 142.497C198.059 143.62 197.123 145.183 196.778 146.919C196.433 148.655 196.7 150.457 197.535 152.017C198.37 153.578 199.719 154.801 201.355 155.478C202.99 156.155 204.809 156.244 206.503 155.73C208.196 155.216 209.659 154.131 210.642 152.659C211.626 151.188 212.068 149.421 211.894 147.659C211.721 145.898 210.942 144.251 209.69 143C208.981 142.287 208.138 141.722 207.21 141.337C206.281 140.953 205.285 140.757 204.28 140.76Z" fill="#16A34A"/>
<path d="M211.533 153.82L209.694 155.658L219.898 165.862L221.736 164.024L211.533 153.82Z" fill="#16A34A"/>
<path d="M221.91 168C221.394 167.995 220.899 167.791 220.53 167.43L212.74 159.64C212.545 159.463 212.389 159.248 212.279 159.008C212.17 158.768 212.111 158.509 212.104 158.246C212.098 157.983 212.145 157.721 212.243 157.476C212.34 157.232 212.487 157.009 212.672 156.823C212.858 156.636 213.08 156.489 213.324 156.391C213.569 156.292 213.83 156.244 214.093 156.249C214.357 156.255 214.616 156.313 214.856 156.422C215.096 156.53 215.312 156.686 215.49 156.88L223.29 164.68C223.56 164.953 223.743 165.3 223.816 165.677C223.89 166.054 223.85 166.444 223.703 166.799C223.556 167.153 223.307 167.456 222.988 167.67C222.669 167.884 222.294 167.999 221.91 168Z" fill="#16A34A"/>
<path d="M205.67 144.36C205.67 144.756 205.553 145.142 205.333 145.471C205.113 145.8 204.801 146.056 204.435 146.208C204.07 146.359 203.668 146.399 203.28 146.322C202.892 146.245 202.535 146.054 202.256 145.774C201.976 145.495 201.786 145.138 201.708 144.75C201.631 144.362 201.671 143.96 201.822 143.595C201.974 143.229 202.23 142.917 202.559 142.697C202.888 142.477 203.274 142.36 203.67 142.36C204.2 142.36 204.709 142.571 205.084 142.946C205.459 143.321 205.67 143.83 205.67 144.36Z" fill="white"/>
<path d="M208.64 145.82C208.64 146.018 208.581 146.211 208.471 146.376C208.361 146.54 208.205 146.668 208.023 146.744C207.84 146.82 207.639 146.839 207.445 146.801C207.251 146.762 207.073 146.667 206.933 146.527C206.793 146.387 206.698 146.209 206.659 146.015C206.621 145.821 206.64 145.62 206.716 145.437C206.792 145.255 206.92 145.098 207.084 144.989C207.249 144.879 207.442 144.82 207.64 144.82C207.905 144.82 208.159 144.925 208.347 145.113C208.535 145.3 208.64 145.555 208.64 145.82Z" fill="white"/>
<path d="M288.78 339.46H139.84V363.43H288.78V339.46Z" fill="#16A34A"/>
<path opacity="0.8" d="M288.78 339.46H139.84V363.43H288.78V339.46Z" fill="white"/>
<path opacity="0.2" d="M288.78 345.8V343.85L186.81 344.66L288.78 345.8Z" fill="black"/>
<path opacity="0.2" d="M288.78 354.2V352.69L243 354.33L288.78 354.2Z" fill="black"/>
<path opacity="0.2" d="M288.78 359.82V357.87L214.97 359L288.78 359.82Z" fill="black"/>
<path opacity="0.2" d="M173.14 339.46L171 357.33L173.55 354.61C174.407 357.872 176.009 360.891 178.23 363.43C179.823 361.343 181.091 359.027 181.99 356.56L251.55 355.76L182.65 354.25C182.864 353.264 182.975 352.259 182.98 351.25C182.976 350.414 182.896 349.581 182.74 348.76L284.8 348.5L182.5 347.7C182.14 346.354 181.637 345.049 181 343.81C182.471 342.512 184.368 341.801 186.33 341.81H288.78V339.46H173.14Z" fill="black"/>
<path d="M175.44 351.31C175.448 354.183 176.594 356.936 178.628 358.966C180.661 360.996 183.417 362.137 186.29 362.14H290.5C290.605 362.14 290.709 362.161 290.806 362.201C290.903 362.241 290.991 362.3 291.066 362.374C291.14 362.449 291.199 362.537 291.239 362.634C291.279 362.731 291.3 362.835 291.3 362.94V363.8C291.3 364.012 291.216 364.216 291.066 364.366C290.916 364.516 290.712 364.6 290.5 364.6H136.56C134.804 364.6 133.066 364.253 131.445 363.577C129.824 362.902 128.353 361.912 127.116 360.666C125.88 359.419 124.903 357.94 124.241 356.314C123.579 354.687 123.245 352.946 123.26 351.19C123.346 347.641 124.825 344.268 127.378 341.8C129.93 339.333 133.35 337.968 136.9 338H290.5C290.712 338 290.916 338.084 291.066 338.234C291.216 338.384 291.3 338.588 291.3 338.8V339.65C291.3 339.862 291.216 340.066 291.066 340.216C290.916 340.366 290.712 340.45 290.5 340.45H186.61C183.699 340.444 180.901 341.576 178.814 343.606C176.726 345.635 175.516 348.4 175.44 351.31Z" fill="#16A34A"/>
<path opacity="0.4" d="M175.44 351.31C175.448 354.183 176.594 356.936 178.628 358.966C180.661 360.996 183.417 362.137 186.29 362.14H290.5C290.605 362.14 290.709 362.161 290.806 362.201C290.903 362.241 290.991 362.3 291.066 362.374C291.14 362.449 291.199 362.537 291.239 362.634C291.279 362.731 291.3 362.835 291.3 362.94V363.8C291.3 364.012 291.216 364.216 291.066 364.366C290.916 364.516 290.712 364.6 290.5 364.6H136.56C134.804 364.6 133.066 364.253 131.445 363.577C129.824 362.902 128.353 361.912 127.116 360.666C125.88 359.419 124.903 357.94 124.241 356.314C123.579 354.687 123.245 352.946 123.26 351.19C123.346 347.641 124.825 344.268 127.378 341.8C129.93 339.333 133.35 337.968 136.9 338H290.5C290.712 338 290.916 338.084 291.066 338.234C291.216 338.384 291.3 338.588 291.3 338.8V339.65C291.3 339.862 291.216 340.066 291.066 340.216C290.916 340.366 290.712 340.45 290.5 340.45H186.61C183.699 340.444 180.901 341.576 178.814 343.606C176.726 345.635 175.516 348.4 175.44 351.31Z" fill="white"/>
<path d="M175.44 351.31C175.448 354.183 176.594 356.936 178.628 358.966C180.661 360.996 183.417 362.137 186.29 362.14H290.5C290.605 362.14 290.709 362.161 290.806 362.201C290.903 362.241 290.991 362.3 291.066 362.374C291.14 362.449 291.199 362.537 291.239 362.634C291.279 362.731 291.3 362.835 291.3 362.94V363.8C291.3 364.012 291.216 364.216 291.066 364.366C290.916 364.516 290.712 364.6 290.5 364.6H185.69C183.934 364.599 182.196 364.25 180.575 363.575C178.954 362.899 177.483 361.91 176.246 360.663C175.009 359.417 174.03 357.939 173.367 356.313C172.704 354.687 172.368 352.946 172.38 351.19C172.472 347.646 173.949 344.279 176.496 341.813C179.043 339.347 182.455 337.978 186 338H290.5C290.712 338 290.916 338.084 291.066 338.234C291.216 338.384 291.3 338.588 291.3 338.8V339.65C291.3 339.862 291.216 340.066 291.066 340.216C290.916 340.366 290.712 340.45 290.5 340.45H186.61C183.699 340.444 180.901 341.576 178.814 343.606C176.726 345.635 175.516 348.4 175.44 351.31Z" fill="#16A34A"/>
<path d="M195.06 344.85V354.46L198.54 350.98L201.91 354.35V344.85H195.06Z" fill="#263238"/>
<path opacity="0.6" d="M175.44 351.31C175.448 354.183 176.594 356.936 178.628 358.966C180.661 360.996 183.417 362.137 186.29 362.14H290.5C290.605 362.14 290.709 362.161 290.806 362.201C290.903 362.241 290.991 362.3 291.066 362.374C291.14 362.449 291.199 362.537 291.239 362.634C291.279 362.731 291.3 362.835 291.3 362.94V363.8C291.3 364.012 291.216 364.216 291.066 364.366C290.916 364.516 290.712 364.6 290.5 364.6H185.69C183.934 364.599 182.196 364.25 180.575 363.575C178.954 362.899 177.483 361.91 176.246 360.663C175.009 359.417 174.03 357.939 173.367 356.313C172.704 354.687 172.368 352.946 172.38 351.19C172.472 347.646 173.949 344.279 176.496 341.813C179.043 339.347 182.455 337.978 186 338H290.5C290.712 338 290.916 338.084 291.066 338.234C291.216 338.384 291.3 338.588 291.3 338.8V339.65C291.3 339.862 291.216 340.066 291.066 340.216C290.916 340.366 290.712 340.45 290.5 340.45H186.61C183.699 340.444 180.901 341.576 178.814 343.606C176.726 345.635 175.516 348.4 175.44 351.31Z" fill="white"/>
<path d="M295.97 392.28H147.03V416.25H295.97V392.28Z" fill="#16A34A"/>
<path opacity="0.7" d="M295.97 392.28H147.03V416.25H295.97V392.28Z" fill="white"/>
<path opacity="0.2" d="M295.97 398.61V396.66L194 397.48L295.97 398.61Z" fill="black"/>
<path opacity="0.2" d="M295.97 407.01V405.51L250.19 407.14L295.97 407.01Z" fill="black"/>
<path opacity="0.2" d="M295.97 412.63V410.69L222.16 411.81L295.97 412.63Z" fill="black"/>
<path opacity="0.2" d="M180.33 392.28L178.17 410.15L180.72 407.43C181.586 410.691 183.191 413.709 185.41 416.25C186.996 414.156 188.26 411.837 189.16 409.37L258.72 408.57L189.82 407.07C190.036 406.084 190.15 405.079 190.16 404.07C190.153 403.234 190.069 402.401 189.91 401.58L292 401.35L189.69 400.55C189.33 399.207 188.827 397.906 188.19 396.67C189.654 395.354 191.552 394.624 193.52 394.62H296V392.28H180.33Z" fill="black"/>
<path d="M182.63 404.12C182.625 405.548 182.902 406.963 183.445 408.283C183.988 409.604 184.786 410.804 185.794 411.815C186.802 412.826 188 413.627 189.319 414.174C190.638 414.721 192.052 415.001 193.48 415H297.69C297.902 415 298.106 415.084 298.256 415.234C298.406 415.385 298.49 415.588 298.49 415.8V416.66C298.49 416.872 298.406 417.076 298.256 417.226C298.106 417.376 297.902 417.46 297.69 417.46H135.56C133.806 417.458 132.069 417.108 130.45 416.433C128.831 415.757 127.362 414.769 126.126 413.524C124.89 412.278 123.912 410.801 123.249 409.177C122.586 407.553 122.249 405.814 122.26 404.06C122.344 400.507 123.823 397.129 126.377 394.657C128.931 392.185 132.356 390.818 135.91 390.85H297.69C297.902 390.85 298.106 390.934 298.256 391.084C298.406 391.235 298.49 391.438 298.49 391.65V392.51C298.49 392.722 298.406 392.926 298.256 393.076C298.106 393.226 297.902 393.31 297.69 393.31H193.8C190.897 393.304 188.107 394.429 186.021 396.448C183.935 398.466 182.719 401.219 182.63 404.12Z" fill="#263238"/>
<path opacity="0.2" d="M182.63 404.12C182.625 405.548 182.902 406.963 183.445 408.283C183.988 409.604 184.786 410.804 185.794 411.815C186.802 412.826 188 413.627 189.319 414.174C190.638 414.721 192.052 415.001 193.48 415H297.69C297.902 415 298.106 415.084 298.256 415.234C298.406 415.385 298.49 415.588 298.49 415.8V416.66C298.49 416.872 298.406 417.076 298.256 417.226C298.106 417.376 297.902 417.46 297.69 417.46H135.56C133.806 417.458 132.069 417.108 130.45 416.433C128.831 415.757 127.362 414.769 126.126 413.524C124.89 412.278 123.912 410.801 123.249 409.177C122.586 407.553 122.249 405.814 122.26 404.06C122.344 400.507 123.823 397.129 126.377 394.657C128.931 392.185 132.356 390.818 135.91 390.85H297.69C297.902 390.85 298.106 390.934 298.256 391.084C298.406 391.235 298.49 391.438 298.49 391.65V392.51C298.49 392.722 298.406 392.926 298.256 393.076C298.106 393.226 297.902 393.31 297.69 393.31H193.8C190.897 393.304 188.107 394.429 186.021 396.448C183.935 398.466 182.719 401.219 182.63 404.12Z" fill="white"/>
<path d="M182.63 404.12C182.625 405.548 182.902 406.963 183.445 408.283C183.988 409.604 184.786 410.804 185.794 411.815C186.802 412.826 188 413.627 189.319 414.174C190.638 414.721 192.052 415.001 193.48 415H297.69C297.902 415 298.106 415.084 298.256 415.234C298.406 415.385 298.49 415.588 298.49 415.8V416.66C298.49 416.872 298.406 417.076 298.256 417.226C298.106 417.376 297.902 417.46 297.69 417.46H192.88C191.125 417.46 189.387 417.113 187.767 416.438C186.147 415.764 184.676 414.775 183.44 413.529C182.204 412.284 181.226 410.806 180.564 409.181C179.901 407.555 179.567 405.815 179.58 404.06C179.661 400.508 181.138 397.13 183.691 394.658C186.243 392.186 189.667 390.818 193.22 390.85H297.69C297.902 390.85 298.106 390.934 298.256 391.084C298.406 391.235 298.49 391.438 298.49 391.65V392.51C298.49 392.722 298.406 392.926 298.256 393.076C298.106 393.226 297.902 393.31 297.69 393.31H193.8C190.897 393.304 188.107 394.429 186.021 396.448C183.935 398.466 182.718 401.219 182.63 404.12Z" fill="#263238"/>
<path d="M194 401.08V410.69L197.47 407.21L200.84 410.58V401.08H194Z" fill="#16A34A"/>
<path opacity="0.4" d="M182.63 404.12C182.625 405.548 182.902 406.963 183.445 408.283C183.988 409.604 184.786 410.804 185.794 411.815C186.802 412.826 188 413.627 189.319 414.174C190.638 414.721 192.052 415.001 193.48 415H297.69C297.902 415 298.106 415.084 298.256 415.234C298.406 415.385 298.49 415.588 298.49 415.8V416.66C298.49 416.872 298.406 417.076 298.256 417.226C298.106 417.376 297.902 417.46 297.69 417.46H192.88C191.125 417.46 189.387 417.113 187.767 416.438C186.147 415.764 184.676 414.775 183.44 413.529C182.204 412.284 181.226 410.806 180.564 409.181C179.901 407.555 179.567 405.815 179.58 404.06C179.661 400.508 181.138 397.13 183.691 394.658C186.243 392.186 189.667 390.818 193.22 390.85H297.69C297.902 390.85 298.106 390.934 298.256 391.084C298.406 391.235 298.49 391.438 298.49 391.65V392.51C298.49 392.722 298.406 392.926 298.256 393.076C298.106 393.226 297.902 393.31 297.69 393.31H193.8C190.897 393.304 188.107 394.429 186.021 396.448C183.935 398.466 182.718 401.219 182.63 404.12Z" fill="white"/>
<path d="M133.63 389.8H188.81V365.86H133.63V389.8Z" fill="#16A34A"/>
<path opacity="0.8" d="M133.63 389.8H188.81V365.86H133.63V389.8Z" fill="white"/>
<path opacity="0.2" d="M184.39 368.21H133.63V365.87H184.33L184.39 368.21Z" fill="black"/>
<path opacity="0.2" d="M184.39 370.25L138.6 371.23L184.39 372.2V370.25Z" fill="black"/>
<path opacity="0.2" d="M184.39 379.1L135.9 379.92L184.39 380.61V379.1Z" fill="black"/>
<path opacity="0.2" d="M184.39 384.28L136.33 385.25L184.39 386.22V384.28Z" fill="black"/>
<path opacity="0.2" d="M133.63 373.66L180.12 375.06L133.63 376.04V373.66Z" fill="black"/>
<path d="M256.79 377.71C256.785 380.585 255.64 383.341 253.606 385.373C251.572 387.405 248.815 388.548 245.94 388.55H131.08C130.868 388.55 130.664 388.634 130.514 388.785C130.364 388.935 130.28 389.138 130.28 389.35V390.2C130.28 390.412 130.364 390.616 130.514 390.766C130.664 390.916 130.868 391 131.08 391H246.54C248.296 391.003 250.035 390.657 251.656 389.984C253.277 389.31 254.749 388.322 255.986 387.075C257.223 385.829 258.2 384.35 258.862 382.724C259.523 381.097 259.856 379.356 259.84 377.6C259.759 374.048 258.282 370.67 255.729 368.198C253.177 365.726 249.753 364.358 246.2 364.39H131.08C130.868 364.39 130.664 364.474 130.514 364.625C130.364 364.775 130.28 364.978 130.28 365.19V366.05C130.28 366.262 130.364 366.466 130.514 366.616C130.664 366.766 130.868 366.85 131.08 366.85H245.62C248.531 366.844 251.329 367.977 253.416 370.006C255.504 372.035 256.714 374.8 256.79 377.71Z" fill="#263238"/>
<path opacity="0.4" d="M256.79 377.71C256.785 380.585 255.64 383.341 253.606 385.373C251.572 387.405 248.815 388.548 245.94 388.55H131.08C130.868 388.55 130.664 388.634 130.514 388.785C130.364 388.935 130.28 389.138 130.28 389.35V390.2C130.28 390.412 130.364 390.616 130.514 390.766C130.664 390.916 130.868 391 131.08 391H246.54C248.296 391.003 250.035 390.657 251.656 389.984C253.277 389.31 254.749 388.322 255.986 387.075C257.223 385.829 258.2 384.35 258.862 382.724C259.523 381.097 259.856 379.356 259.84 377.6C259.759 374.048 258.282 370.67 255.729 368.198C253.177 365.726 249.753 364.358 246.2 364.39H131.08C130.868 364.39 130.664 364.474 130.514 364.625C130.364 364.775 130.28 364.978 130.28 365.19V366.05C130.28 366.262 130.364 366.466 130.514 366.616C130.664 366.766 130.868 366.85 131.08 366.85H245.62C248.531 366.844 251.329 367.977 253.416 370.006C255.504 372.035 256.714 374.8 256.79 377.71Z" fill="white"/>
<path d="M298.68 377.85C298.68 381.033 297.416 384.085 295.165 386.335C292.915 388.586 289.862 389.85 286.68 389.85H184.39V365.85H286.69C289.871 365.853 292.92 367.118 295.169 369.368C297.417 371.618 298.68 374.669 298.68 377.85Z" fill="#16A34A"/>
<path opacity="0.7" d="M184.39 365.87V389.87H286.7C289.883 389.87 292.935 388.606 295.185 386.355C297.436 384.105 298.7 381.053 298.7 377.87C298.7 374.688 297.436 371.635 295.185 369.385C292.935 367.134 289.883 365.87 286.7 365.87H184.39Z" fill="white"/>
<path opacity="0.2" d="M184.39 372.2V370.25L286.36 371.07L184.39 372.2Z" fill="black"/>
<path opacity="0.2" d="M184.39 380.61V379.1L230.17 380.74L184.39 380.61Z" fill="black"/>
<path opacity="0.2" d="M184.39 386.22V384.28L258.2 385.4L184.39 386.22Z" fill="black"/>
<path opacity="0.2" d="M286.86 368.21C288.828 368.214 290.726 368.944 292.19 370.26C291.552 371.501 291.046 372.804 290.68 374.15L188.38 374.95L290.45 375.2C290.291 376.024 290.207 376.861 290.2 377.7C290.202 378.71 290.319 379.717 290.55 380.7L221.64 382.2L291.19 383.01C291.793 384.67 292.567 386.261 293.5 387.76C295.593 386.303 297.168 384.218 297.996 381.805C298.824 379.393 298.862 376.779 298.104 374.344C297.346 371.909 295.832 369.778 293.781 368.262C291.731 366.745 289.25 365.922 286.7 365.91H184.39V368.25L286.86 368.21Z" fill="black"/>
<path d="M297.73 377.71C297.725 380.585 296.58 383.341 294.546 385.373C292.512 387.405 289.755 388.548 286.88 388.55H182.67C182.458 388.55 182.254 388.634 182.104 388.785C181.954 388.935 181.87 389.138 181.87 389.35V390.2C181.87 390.412 181.954 390.616 182.104 390.766C182.254 390.916 182.458 391 182.67 391H287.48C289.236 391.003 290.975 390.657 292.596 389.984C294.218 389.31 295.689 388.322 296.926 387.075C298.163 385.829 299.14 384.35 299.802 382.724C300.464 381.097 300.796 379.356 300.78 377.6C300.699 374.048 299.222 370.67 296.669 368.198C294.117 365.726 290.694 364.358 287.14 364.39H182.67C182.458 364.39 182.254 364.474 182.104 364.625C181.954 364.775 181.87 364.978 181.87 365.19V366.05C181.87 366.262 181.954 366.466 182.104 366.616C182.254 366.766 182.458 366.85 182.67 366.85H286.56C289.471 366.844 292.269 367.977 294.356 370.006C296.444 372.035 297.654 374.8 297.73 377.71Z" fill="#263238"/>
<path d="M286.36 374.67V384.28L282.88 380.8L279.51 384.17V374.67H286.36Z" fill="#16A34A"/>
<path d="M313.39 239.59H310.89C310.425 239.6 309.97 239.72 309.561 239.941C309.152 240.161 308.802 240.477 308.54 240.86L306.06 244.48C305.568 245.195 305.254 246.018 305.147 246.88C305.039 247.741 305.139 248.616 305.44 249.43L305.82 250.43C309.97 250.63 314.61 247.79 314.61 247.79L316.03 247.13C316.323 247.002 316.588 246.817 316.81 246.586C317.031 246.355 317.205 246.082 317.32 245.784C317.435 245.485 317.49 245.167 317.482 244.847C317.473 244.527 317.401 244.212 317.27 243.92L316 241.17C315.763 240.683 315.391 240.275 314.928 239.995C314.465 239.715 313.931 239.574 313.39 239.59Z" fill="#EEC1BB"/>
<path d="M266 244C272.42 249.19 279.35 254.19 287 257.25L286.05 257.05C286.75 257.22 288.59 256.52 289.55 256.05C294.89 253.45 299.95 249.55 304.75 245.99C305.241 245.634 305.844 245.466 306.448 245.516C307.052 245.566 307.619 245.83 308.046 246.262C308.472 246.693 308.73 247.263 308.773 247.868C308.816 248.473 308.641 249.073 308.28 249.56C303.49 255.56 292.71 267.75 284.17 265.97C274.81 263.18 266.54 257.97 259.17 251.6C254.39 247 260.8 239.81 266 244Z" fill="#EBC0BB"/>
<path d="M252.53 236.93C250.19 243.45 253.96 249.93 263.03 257.56C267.54 256.89 273.63 247.64 273.63 247.64C273.63 247.64 260.87 234.88 252.53 236.93Z" fill="#16A34A"/>
<path d="M260.33 196.43C260.33 196.43 251.4 187.29 239.76 198.76C228.12 210.23 225.85 248.23 225.85 248.23L256.23 254.13C256.23 254.13 260.16 249.62 262.18 236.61C264.2 223.6 265.27 211.16 267.83 208.26C270.39 205.36 260.33 196.43 260.33 196.43Z" fill="#263238"/>
<path d="M286.42 388.87L279.84 386.25L282.41 376.66L284.78 367.86L293.1 369.7L289.57 379.85L286.42 388.87Z" fill="#EEC1BB"/>
<path opacity="0.2" d="M289.49 380.06L282.34 376.84L284.75 367.95L293.08 369.75L289.49 380.06Z" fill="black"/>
<path d="M236.63 302.46C236.63 302.46 291.63 295.04 306.91 304.8C322.19 314.56 292.6 374 292.6 374L283.34 372C283.34 372 290.28 324.88 289.76 322.91C289.24 320.94 263.34 333.79 227.89 335.01L236.63 302.46Z" fill="#263238"/>
<path opacity="0.2" d="M236.63 302.46C236.63 302.46 291.63 295.04 306.91 304.8C322.19 314.56 292.6 374 292.6 374L283.34 372C283.34 372 290.28 324.88 289.76 322.91C289.24 320.94 263.34 333.79 227.89 335.01L236.63 302.46Z" fill="black"/>
<path d="M282.83 369L294.48 372.78L292.39 378.09L281.69 374.45L282.83 369Z" fill="#263238"/>
<path d="M292.51 390.35C291.25 390.35 289.03 388.35 288.57 387.87C288.543 387.845 288.523 387.814 288.51 387.78V387.72C288.508 387.656 288.525 387.594 288.56 387.54C288.62 387.47 290.08 385.54 291.48 385.48C291.692 385.459 291.905 385.484 292.106 385.555C292.307 385.626 292.489 385.74 292.64 385.89C292.99 386.22 293.11 386.54 292.99 386.84C292.8 387.32 291.99 387.58 291.08 387.74C291.816 387.845 292.509 388.153 293.08 388.63C293.18 388.731 293.258 388.851 293.308 388.984C293.358 389.117 293.379 389.259 293.37 389.4C293.37 389.98 293.06 390.21 292.84 390.29C292.735 390.331 292.623 390.351 292.51 390.35ZM289.41 387.98C290.57 388.98 292.11 390.06 292.66 389.84C292.66 389.84 292.86 389.77 292.88 389.37C292.884 389.294 292.872 389.218 292.845 389.148C292.817 389.077 292.774 389.013 292.72 388.96C292.18 388.36 290.51 388.08 289.41 388V387.98ZM291.59 385.98H291.5C290.616 386.212 289.832 386.729 289.27 387.45C290.8 387.38 292.36 387.09 292.52 386.68C292.57 386.55 292.4 386.36 292.29 386.26C292.099 386.086 291.848 385.993 291.59 386V385.98Z" fill="#577AFA"/>
<path d="M278.61 382.16C278.87 381.42 287.8 384.97 287.8 384.97C287.8 384.97 291.56 392.5 296.6 395.56C301.64 398.62 297.52 400.9 291.43 398.91L276.35 394C272 392.6 275.92 389.8 278.61 382.16Z" fill="#2E353A"/>
<path opacity="0.4" d="M282.83 369L294.48 372.78L292.39 378.09L281.69 374.45L282.83 369Z" fill="white"/>
<path d="M315.12 407.9L308.3 409.82L304.5 400.64L301.04 392.22L308.76 388.62L312.13 398.83L315.12 407.9Z" fill="#EEC1BB"/>
<path d="M305.27 405C305.27 404.22 314.89 405.07 314.89 405.07C314.89 405.07 320.64 411.22 326.34 412.71C332.04 414.2 328.75 417.56 322.34 417.41L306.49 417.01C301.94 416.9 304.88 413.09 305.27 405Z" fill="#2E353A"/>
<path d="M319.94 407.64C318.538 407.45 317.183 407.006 315.94 406.33L315.87 406.28C315.867 406.254 315.867 406.227 315.87 406.2C315.866 406.177 315.866 406.153 315.87 406.13C315.859 406.098 315.859 406.063 315.87 406.03C315.87 405.92 316.76 403.72 318.07 403.21C318.267 403.129 318.48 403.094 318.693 403.106C318.906 403.118 319.113 403.177 319.3 403.28C319.73 403.49 319.93 403.76 319.91 404.09C319.86 404.6 319.14 405.09 318.34 405.49C319.083 405.379 319.842 405.48 320.53 405.78C320.653 405.848 320.76 405.941 320.844 406.053C320.929 406.165 320.989 406.293 321.02 406.43C321.084 406.602 321.095 406.79 321.05 406.969C321.006 407.147 320.908 407.308 320.77 407.43C320.527 407.596 320.233 407.671 319.94 407.64ZM316.77 406.2C318.18 406.83 319.95 407.42 320.42 407.05C320.42 407.05 320.59 406.92 320.5 406.54C320.484 406.465 320.451 406.395 320.404 406.335C320.357 406.274 320.298 406.225 320.23 406.19C319.53 405.77 317.85 406 316.77 406.2ZM318.57 403.59C318.443 403.59 318.318 403.614 318.2 403.66C317.429 404.127 316.826 404.827 316.48 405.66C317.93 405.16 319.34 404.43 319.38 404C319.38 403.86 319.17 403.72 319.04 403.66C318.891 403.601 318.73 403.578 318.57 403.59Z" fill="#577AFA"/>
<path opacity="0.2" d="M312.19 399.04L304.56 400.83L301.06 392.31L308.77 388.67L312.19 399.04Z" fill="black"/>
<path d="M252.23 309.57C252.23 309.57 251.44 298.69 251.07 296.47C250.764 294.269 250.313 292.091 249.72 289.95C247.31 282.7 214.98 291.23 214.98 291.23L214.06 296.23C214.06 296.23 199.47 323.74 209.22 333.65C212.22 336.65 217.99 338.01 223.92 337.97C223.92 337.97 242.05 338.84 275.77 337.27C275.77 337.27 273.27 356.91 301.06 395.39L310.36 392.39C310.36 392.39 292 322.53 290.44 321.29C277 310.43 252.23 309.57 252.23 309.57Z" fill="#263238"/>
<path d="M299.38 394.92L310.93 390.83L312.5 396.32L301.79 399.94L299.38 394.92Z" fill="#263238"/>
<path d="M263.1 242.14C263.1 242.14 261.94 244.98 260.32 249.94C259.93 251.1 259.53 252.38 259.11 253.76C258.56 255.57 257.97 257.56 257.38 259.76C256.95 261.32 256.52 262.95 256.1 264.67C255.68 266.39 255.23 268.25 254.8 270.14C254.8 270.36 254.7 270.59 254.66 270.81C252.832 278.548 251.496 286.394 250.66 294.3L215.14 291.2C215.135 283.404 215.539 275.614 216.35 267.86C216.99 261.143 218.232 254.496 220.06 248C221.47 243.32 223.29 239.3 225.63 236.67C225.63 236.71 244.89 230.39 263.1 242.14Z" fill="#16A34A"/>
<path d="M245 231.61C234.31 228.19 230.16 236.61 230.16 236.61L235.85 236.05L247.4 250.55L254.17 241.78L258.43 244.07C258.43 244.07 254.26 234.57 245 231.61Z" fill="#16A34A"/>
<path opacity="0.6" d="M245 231.61C234.31 228.19 230.16 236.61 230.16 236.61L235.85 236.05L247.4 250.55L254.17 241.78L258.43 244.07C258.43 244.07 254.26 234.57 245 231.61Z" fill="white"/>
<path d="M247.1 249.76L237.3 235.09C241.92 233 244.98 224.16 245.65 219.18L252.57 229.64C250.31 233 248.8 236.84 253.98 239.74C254 239.74 247.09 249.73 247.1 249.76Z" fill="#EEC1BB"/>
<path opacity="0.2" d="M248.47 223.45L252.57 229.64C252.032 230.408 251.566 231.225 251.18 232.08C249.13 231.16 246.95 228.08 247.46 225.95C247.634 225.06 247.977 224.211 248.47 223.45Z" fill="black"/>
<path d="M214.59 292.33L225.7 293.06L225.3 296.2L213.5 295.35L214.59 292.33Z" fill="black"/>
<path d="M251.55 298.07L226.64 296.29L227.04 293.15L251.15 294.74L251.55 298.07Z" fill="black"/>
<path d="M242.42 298.06H242.32L239.32 297.86C238.962 297.837 238.627 297.674 238.388 297.407C238.148 297.139 238.024 296.789 238.04 296.43L238.12 294.43C238.119 294.241 238.159 294.054 238.236 293.881C238.314 293.709 238.428 293.555 238.57 293.43C238.702 293.303 238.86 293.206 239.032 293.144C239.204 293.082 239.387 293.057 239.57 293.07L242.69 293.25C242.872 293.26 243.05 293.306 243.214 293.386C243.377 293.466 243.523 293.577 243.644 293.714C243.764 293.851 243.855 294.011 243.913 294.183C243.971 294.356 243.994 294.538 243.98 294.72L243.83 296.8C243.797 297.149 243.634 297.473 243.372 297.707C243.111 297.94 242.771 298.067 242.42 298.06ZM239.08 294.42L238.99 296.42C238.987 296.518 239.022 296.612 239.087 296.685C239.152 296.758 239.243 296.802 239.34 296.81L242.34 297.02C242.439 297.026 242.537 296.992 242.611 296.927C242.686 296.861 242.732 296.769 242.74 296.67L242.89 294.6C242.895 294.55 242.89 294.499 242.874 294.451C242.859 294.403 242.833 294.358 242.8 294.32C242.767 294.284 242.727 294.254 242.682 294.234C242.637 294.213 242.589 294.202 242.54 294.2L239.42 294.02C239.32 294.017 239.223 294.053 239.15 294.12C239.112 294.152 239.082 294.192 239.061 294.237C239.041 294.282 239.03 294.331 239.03 294.38L239.08 294.42Z" fill="white"/>
<path opacity="0.5" d="M299.38 394.92L310.93 390.83L312.5 396.32L301.79 399.94L299.38 394.92Z" fill="white"/>
<path d="M269.93 216.49C269.878 216.492 269.827 216.478 269.783 216.452C269.739 216.425 269.703 216.387 269.68 216.34C269.403 215.801 269.007 215.332 268.522 214.968C268.037 214.604 267.475 214.355 266.88 214.24C266.843 214.239 266.806 214.23 266.772 214.214C266.739 214.198 266.709 214.175 266.684 214.147C266.66 214.119 266.642 214.086 266.631 214.05C266.619 214.015 266.616 213.977 266.62 213.94C266.63 213.869 266.666 213.803 266.722 213.757C266.777 213.711 266.848 213.687 266.92 213.69C267.612 213.809 268.266 214.087 268.83 214.504C269.395 214.921 269.854 215.464 270.17 216.09C270.187 216.122 270.198 216.157 270.201 216.194C270.204 216.23 270.2 216.266 270.189 216.301C270.178 216.335 270.16 216.367 270.136 216.395C270.112 216.422 270.083 216.444 270.05 216.46L269.93 216.49Z" fill="#263238"/>
<path d="M266.59 220.82C266.699 222.208 266.974 223.578 267.41 224.9C267.056 225.117 266.65 225.231 266.235 225.231C265.82 225.231 265.414 225.117 265.06 224.9L266.59 220.82Z" fill="#D4827D"/>
<path d="M268.8 219.33C268.54 219.95 268 220.33 267.58 220.15C267.16 219.97 267.03 219.33 267.29 218.71C267.55 218.09 268.09 217.71 268.51 217.89C268.93 218.07 269.05 218.7 268.8 219.33Z" fill="#263238"/>
<path d="M268.32 217.85H269.89C269.89 217.85 268.75 218.74 268.32 217.85Z" fill="#263238"/>
<path d="M245.78 224.71C245.818 224.813 245.868 224.91 245.93 225C246.03 225.2 246.14 225.38 246.25 225.58C246.892 226.811 247.765 227.908 248.82 228.81C252.23 231.64 255.17 232.54 257.82 231.81C257.95 231.81 258.07 231.73 258.2 231.69C262.12 230.21 265.2 225.69 267.81 219.59C268.94 217.228 269.68 214.699 270 212.1C270 212.1 270 212.01 270 211.99C270 211.97 270 211.78 270 211.69C270.128 210.196 269.88 208.693 269.279 207.318C268.679 205.944 267.744 204.741 266.56 203.82C265.549 202.988 264.449 202.27 263.28 201.68C251.92 195.78 240.29 213.73 245.78 224.71Z" fill="#EEC1BB"/>
<path d="M270 212C270 212 266.58 220.36 257.22 220C257.22 220 249.74 226.71 244.87 224.4C238.22 221.25 237.14 208.99 244.21 200.62C253.4 189.76 272.6 198.18 270 212Z" fill="#263238"/>
<path d="M262.27 219.64C262.9 218.38 262.95 215.77 260.86 215.07C258.77 214.37 255.06 218.76 259.46 222.37C260.09 222.89 261 222.26 262.27 219.64Z" fill="#EEC1BB"/>
<path d="M260.33 196.43C260.33 196.43 268.98 198.35 271.66 203.57C274.8 209.67 274.8 214.34 266.02 217.17C266.02 217.17 255.25 206.51 250.52 205.24C247.762 204.482 244.946 203.957 242.1 203.67C245.49 194.71 256.92 192.53 260.33 196.43Z" fill="#263238"/>
<path d="M257.24 220C251.8 230.87 239.84 249.34 227.09 236.31C227.09 236.31 231.67 221.57 240.92 215.49C250.17 209.41 257.24 220 257.24 220Z" fill="#263238"/>
<path d="M255.27 238.13C259.92 241.57 253.97 252.89 259.84 255.41C259.288 254.647 258.942 253.756 258.833 252.821C258.725 251.886 258.858 250.939 259.22 250.07C260.45 246.99 265.44 238.85 263.45 227.83L255.27 238.13Z" fill="#263238"/>
<path opacity="0.2" d="M231.18 262C231.18 262 223.58 267.15 216.39 267.79C217.021 261.097 218.249 254.474 220.06 248C220.98 247.482 222.006 247.181 223.06 247.12C228.4 247.22 230.35 252.23 230.35 252.23C230.928 255.454 231.206 258.725 231.18 262Z" fill="black"/>
<path d="M258.92 297.67L257.32 295.75C257.019 295.4 256.639 295.126 256.211 294.952C255.783 294.778 255.32 294.709 254.86 294.75L250.48 295.07C249.614 295.133 248.776 295.403 248.037 295.857C247.297 296.311 246.678 296.937 246.23 297.68L245.67 298.61C248.11 301.98 253.22 303.83 253.22 303.83L254.62 304.52C254.901 304.672 255.21 304.767 255.528 304.799C255.846 304.831 256.168 304.799 256.473 304.706C256.779 304.613 257.064 304.46 257.31 304.257C257.557 304.053 257.761 303.803 257.91 303.52L259.31 300.76C259.561 300.265 259.658 299.706 259.588 299.155C259.519 298.605 259.286 298.087 258.92 297.67Z" fill="#EEC1BB"/>
<path d="M228.13 251.7C228.008 257.998 228.46 264.294 229.48 270.51C229.855 272.498 230.339 274.465 230.93 276.4L230.49 275.53C232.8 279.06 236.18 282.33 239.13 285.53L244.07 290.63L249.07 295.76C249.51 296.204 249.771 296.795 249.802 297.419C249.832 298.043 249.63 298.657 249.235 299.141C248.84 299.626 248.28 299.947 247.662 300.043C247.045 300.138 246.413 300.002 245.89 299.66C243.82 298.35 241.89 296.97 239.89 295.57C233.79 290.98 227.64 286.69 222.89 280.57C218.75 271.4 217.74 261.21 218.09 251.25C218.68 244.6 228.32 245.09 228.24 251.76L228.13 251.7Z" fill="#EBC0BB"/>
<path d="M225.29 236.77C218.74 239.02 216.03 246.02 215.74 257.86C219.09 260.97 230.11 259.94 230.11 259.94C230.11 259.94 232.1 242 225.29 236.77Z" fill="#16A34A"/>
<path d="M295.87 306.87V310C295.87 310.81 294.87 311.14 294.11 311.14H231C230.19 311.14 229.21 310.81 229.21 310V306.84L295.87 306.87Z" fill="#263238"/>
<path opacity="0.4" d="M295.87 306.87V310C295.87 310.81 294.87 311.14 294.11 311.14H231C230.19 311.14 229.21 310.81 229.21 310V306.84L295.87 306.87Z" fill="white"/>
<path opacity="0.2" d="M295.87 306.87V310C295.87 310.81 294.87 311.14 294.11 311.14H252.49C251.68 311.14 250.72 310.81 250.72 310V306.84L295.87 306.87Z" fill="black"/>
<path d="M306.43 274.09L298.91 308.16C298.777 308.709 298.464 309.197 298.023 309.548C297.581 309.9 297.034 310.094 296.47 310.1H255.47C255.215 310.093 254.965 310.026 254.74 309.907C254.515 309.787 254.32 309.617 254.171 309.41C254.023 309.203 253.923 308.965 253.881 308.713C253.84 308.462 253.856 308.204 253.93 307.96L261.44 274.14C261.592 273.625 261.916 273.178 262.359 272.874C262.801 272.57 263.335 272.427 263.87 272.47H304.92C306 272.47 306.67 273 306.43 274.09Z" fill="#263238"/>
<path opacity="0.4" d="M306.43 274.09L298.91 308.16C298.777 308.709 298.465 309.197 298.023 309.548C297.581 309.9 297.034 310.094 296.47 310.1H256.83C256.574 310.094 256.323 310.029 256.097 309.91C255.871 309.791 255.675 309.621 255.525 309.414C255.375 309.207 255.274 308.968 255.232 308.716C255.19 308.464 255.206 308.205 255.28 307.96L262.79 274.14C262.942 273.623 263.268 273.175 263.713 272.871C264.157 272.567 264.693 272.425 265.23 272.47H304.88C306 272.47 306.67 273 306.43 274.09Z" fill="white"/>
<path opacity="0.2" d="M286.19 291.41C286.19 294.32 283.06 296.69 280.77 296.69C278.48 296.69 277.12 294.32 277.77 291.41C278.42 288.5 280.71 286.21 282.95 286.13C282.3 289.04 283.7 291.41 285.95 291.41H286.19Z" fill="black"/>
</svg>
