<svg width="500" height="500" viewBox="0 0 500 500" fill="none" xmlns="http://www.w3.org/2000/svg">
<path d="M444.32 122.935L389.511 123.155L389.789 192.354L444.598 192.134L444.32 122.935Z" fill="white"/>
<path d="M389.8 192.33H390.8H393.74L404.86 192.23L444.59 191.95L444.38 192.17C444.29 172.41 444.17 148.6 444.05 122.98L444.31 123.24L389.5 123.44L389.73 123.21C389.73 143.72 389.8 160.99 389.82 173.15V187.33C389.82 188.96 389.82 190.22 389.82 191.09C389.82 191.51 389.82 191.83 389.82 192.09C389.82 192.35 389.82 192.42 389.82 192.42C389.82 192.42 389.82 192.32 389.82 192.11V191.11C389.82 190.25 389.82 189.01 389.82 187.39C389.82 184.11 389.75 179.33 389.7 173.27C389.62 161.08 389.51 143.76 389.38 123.18V122.94H389.62L444.43 122.69H444.69V122.95C444.78 148.57 444.86 172.38 444.93 192.14V192.36H444.72H404.84H393.67H390.78C390.13 192.35 389.8 192.33 389.8 192.33Z" fill="#E0E0E0"/>
<path d="M421.355 190.623L413.755 190.655L413.763 192.505L421.363 192.473L421.355 190.623Z" fill="#E0E0E0"/>
<path d="M425.678 147.23L409.048 147.297L409.144 171.306L425.774 171.24L425.678 147.23Z" fill="#E0E0E0"/>
<path d="M422.148 122.031L414.548 122.062L414.554 123.642L422.154 123.611L422.148 122.031Z" fill="#E0E0E0"/>
<path d="M136.41 78.91H86.88V143.5L136.41 144.74V78.91Z" fill="#E0E0E0"/>
<path d="M133.15 81.2101H89.8099V139.79L133.15 141.25V81.2101Z" fill="white"/>
<path d="M125.56 91.85L96.8 90.76V131.7H125.56V91.85Z" fill="#E0E0E0"/>
<path d="M96.8 131.7L125.56 110.67L96.8 90.76V131.7Z" fill="#F5F5F5"/>
<path d="M96.8 178.26H62.99V222.34L96.8 223.19V178.26Z" fill="#E0E0E0"/>
<path d="M94.57 179.83H64.99V219.81L94.57 220.81V179.83Z" fill="white"/>
<path d="M89.39 187.1L69.76 186.35V214.29H89.39V187.1Z" fill="#E0E0E0"/>
<path d="M69.76 214.29L89.39 199.94L69.76 186.35V214.29Z" fill="#F5F5F5"/>
<path d="M388.47 422.32C387.14 421.18 384.18 417.59 386.47 413.41C387.31 411.88 389.09 411.12 390.7 410.41C392.36 409.857 393.926 409.051 395.34 408.02C397.85 405.89 398.55 402.36 400.21 399.52C402.13 396.26 405.71 393.81 409.48 393.99C413.81 394.18 417.42 397.7 419.05 401.71C420.68 405.72 420.74 410.17 420.78 414.5C420.78 416.9 420.69 419.59 418.92 421.21C417.15 422.83 414.84 422.72 412.64 422.65L389 422" fill="#F5F5F5"/>
<path d="M429.88 366.18H373.35L383.54 426.61C383.75 427.872 384.315 429.047 385.168 430C386.022 430.953 387.129 431.643 388.36 431.99L388.56 432.05C388.73 432.05 388.89 432.15 389.06 432.18C389.44 432.248 389.824 432.292 390.21 432.31V432.37L390.49 432.32H415.68C416.146 432.322 416.612 432.279 417.07 432.19C418.537 431.964 419.889 431.264 420.921 430.197C421.952 429.13 422.605 427.754 422.78 426.28L427.69 384.64L427.91 382.98L429.85 366.49L429.88 366.18ZM419.21 404.73H413.41L414 387.19H420.72L419.21 404.73ZM421.28 387.19H426.84L424.77 404.73H419.77L421.28 387.19ZM404.71 424.19L404.36 408.96H412.71L412.2 424.19H404.71ZM395.71 408.96H403.83L404.18 424.19H396.9L395.71 408.96ZM396.34 424.19H389.5C388.86 420.08 388.01 414.73 387.1 408.96H395.1L396.34 424.19ZM395.34 404.75L394 387.19H403.31L403.72 404.73L395.34 404.75ZM404.25 404.75L403.85 387.21H413.43L412.84 404.75H404.25ZM403.75 383L403.37 366.76H414.11L413.58 383H403.75ZM403.19 383H393.64L392.38 366.76H402.81L403.19 383ZM393.08 383H383C382.64 380.76 382.3 378.64 382 376.73C380.95 370.16 380.55 367.73 380.33 366.73H391.83L393.08 383ZM393.41 387.21L394.78 404.75H386.43C386.15 402.97 385.86 401.17 385.58 399.37C384.93 395.23 384.27 391.09 383.65 387.21H393.41ZM385.86 404.75H380.41L377.41 387.21H383.05C384 392.61 384.91 398.64 385.87 404.73L385.86 404.75ZM386.53 408.96C387.36 414.23 388.18 419.43 388.92 424.19H383.68L381.12 408.96H386.53ZM412.76 424.19L413.26 408.96H418.84L417.54 424.19H412.76ZM414.14 383L414.68 366.76H422.48L421.08 383H414.14ZM379.79 366.76C380.01 367.94 381.05 374.33 382.43 383H376.75L374 366.74L379.79 366.76ZM422.48 424.19H418.11L419.42 408.96H424.27L422.48 424.19ZM427.33 383H421.64L423.04 366.76H429.25L427.33 383Z" fill="#E0E0E0"/>
<path d="M468.49 432.75C468.49 432.96 372.84 433.13 254.88 433.13C136.92 433.13 41.25 433 41.25 432.75C41.25 432.5 136.88 432.37 254.88 432.37C372.88 432.37 468.49 432.54 468.49 432.75Z" fill="#263238"/>
<path d="M241.864 107.947L180.025 107.71L179.693 193.999L241.533 194.237L241.864 107.947Z" fill="#F5F5F5"/>
<path d="M193.89 168.31H194.81H197.44H207.29L207.15 168.46C207.15 164.1 207.1 158.7 207.07 152.52V152.32H207.26L216.91 152.15H217.13V152.37C217.23 157.29 217.34 162.71 217.46 168.42L217.21 168.18L230.95 168.27L230.7 168.54C230.57 163.87 230.45 159.01 230.32 154.04C230.22 150.29 230.12 146.59 230.03 142.98L230.13 143.18L211 128.29H211.3L193.63 144.29L193.69 144.15C193.78 151.59 193.85 157.61 193.9 161.8C193.9 163.87 193.9 165.49 193.9 166.62V167.89C193.911 168.037 193.911 168.184 193.9 168.33C193.886 168.197 193.886 168.063 193.9 167.93C193.9 167.63 193.9 167.22 193.9 166.7C193.9 165.57 193.83 163.97 193.77 161.91C193.68 157.7 193.54 151.64 193.37 144.16V144.08L193.43 144.02L211 127.93L211.14 127.8L211.3 127.92L230.5 142.66L230.59 142.74V142.86C230.677 146.467 230.773 150.153 230.88 153.92C231 158.92 231.13 163.75 231.25 168.41V168.68H231L217.26 168.56H217V168.32C216.9 162.61 216.8 157.19 216.72 152.32L216.94 152.54L207.3 152.67L207.49 152.47C207.49 158.65 207.49 164.05 207.49 168.41V168.55H207.35L197.41 168.44H194.82H194.16L193.89 168.31Z" fill="#263238"/>
<path d="M183.74 110.43H187.57L198.57 110.51L238.5 110.87H238.7V111.08C238.7 133.02 238.7 160.47 238.7 190.19V190.45H238.03L183.88 190.78H183.64V132.7C183.64 125.7 183.64 120.09 183.64 116.26C183.64 114.37 183.64 112.91 183.64 111.91C183.64 111.43 183.64 111.06 183.64 110.8C183.64 110.54 183.64 110.43 183.64 110.43C183.64 110.43 183.64 110.57 183.64 110.83V111.96C183.64 112.96 183.64 114.45 183.64 116.36C183.64 120.2 183.7 125.79 183.74 132.85C183.8 146.97 183.88 166.97 183.97 190.54L183.74 190.3L237.89 189.93H238.3L238.04 190.19C238.04 160.47 238.04 133.02 238.04 111.08L238.25 111.29L198.46 110.71L187.46 110.52H184.56L183.74 110.43Z" fill="#263238"/>
<path d="M230.92 104.67L243.94 117.59L246.22 114.64L233.12 102.89L230.92 104.67Z" fill="#455A64"/>
<path d="M175.15 186.43L188.16 199.35L190.45 196.4L177.34 184.66L175.15 186.43Z" fill="#455A64"/>
<path d="M238.47 186.2C237.313 186.352 236.147 186.422 234.98 186.41C232.82 186.47 229.83 186.52 226.53 186.55C223.46 186.55 220.65 186.55 218.53 186.55L218.72 186.35C218.72 187.58 218.72 188.57 218.72 189.26C218.743 189.618 218.723 189.977 218.66 190.33C218.562 189.982 218.511 189.622 218.51 189.26C218.45 188.58 218.38 187.59 218.32 186.37V186.17H218.53C220.62 186.11 223.42 186.06 226.53 186.04C229.83 186.04 232.81 186.04 234.97 186.04C236.139 185.999 237.31 186.052 238.47 186.2Z" fill="#263238"/>
<path d="M319.736 123.294L277.391 132.194L289.809 191.273L332.154 182.373L319.736 123.294Z" fill="#EBEBEB"/>
<path d="M295.75 171.65L295.91 171.6L296.38 171.49L298.18 171.08L304.89 169.58L304.79 169.75C304.13 166.75 303.31 163.08 302.38 158.86V158.67H302.57L309.14 157.14L309.35 157.09L309.4 157.3C310.19 160.65 311.07 164.3 311.98 168.23L311.7 168.05L321.11 166.05L320.91 166.36C320.15 163.19 319.35 159.88 318.53 156.5C317.91 153.95 317.31 151.44 316.71 148.98L316.85 149.15L301.58 141.84L301.87 141.77L292.11 155.29V155.14L294.8 167.14C295.11 168.55 295.35 169.66 295.52 170.45L295.71 171.32C295.732 171.422 295.749 171.526 295.76 171.63C295.76 171.63 295.76 171.55 295.68 171.36C295.6 171.17 295.55 170.87 295.46 170.53L294.66 167.29C293.97 164.4 292.98 160.29 291.75 155.19V155.11V155.04L301.43 141.46L301.54 141.3L301.72 141.39L317.02 148.66H317.13V148.78C317.72 151.23 318.33 153.78 318.94 156.3C319.76 159.68 320.56 162.99 321.32 166.16L321.38 166.42L321.12 166.48L311.7 168.41H311.47V168.18C310.57 164.29 309.71 160.6 308.93 157.24L309.2 157.41L302.62 159L302.77 158.76C303.66 162.99 304.43 166.69 305.06 169.68V169.82H304.92L298.09 171.18L296.31 171.52L295.75 171.65Z" fill="#263238"/>
<path d="M280.33 133.54L280.98 133.38L282.93 132.96L290.45 131.39L317.83 125.76L318.03 125.71V125.92L329.71 180L329.76 180.25L329.51 180.31L329.23 180.37L292.23 188.52H291.99L291.94 188.29C288.49 172.11 285.57 158.39 283.5 148.68C282.5 143.88 281.69 140.07 281.13 137.44C280.87 136.15 280.66 135.16 280.52 134.44C280.46 134.12 280.41 133.88 280.37 133.69C280.33 133.5 280.37 133.43 280.37 133.44C280.404 133.527 280.427 133.618 280.44 133.71C280.49 133.9 280.55 134.16 280.63 134.49C280.79 135.19 281.01 136.2 281.31 137.49C281.89 140.13 282.74 143.95 283.81 148.77C285.93 158.42 288.92 172.08 292.45 188.17L292.16 187.99L329.16 179.79L329.44 179.73L329.24 180.04C324.91 159.71 320.91 140.93 317.7 125.91L317.95 126.07L290.66 131.46L283 133L281 133.38L280.33 133.54Z" fill="#263238"/>
<path d="M311.76 122.68L322.56 129.61L323.69 127.26L313.01 121.15L311.76 122.68Z" fill="#455A64"/>
<path d="M285.58 186.79L296.38 193.72L297.51 191.37L286.82 185.26L285.58 186.79Z" fill="#455A64"/>
<path d="M328.87 177.36C328.114 177.678 327.326 177.916 326.52 178.07C325.06 178.44 323.02 178.92 320.77 179.42C318.67 179.89 316.77 180.29 315.31 180.57L315.46 180.33C315.712 181.225 315.876 182.143 315.95 183.07C315.577 182.22 315.285 181.336 315.08 180.43L315.03 180.24L315.23 180.19C316.64 179.83 318.56 179.38 320.66 178.91C322.76 178.44 324.96 177.99 326.44 177.71C327.235 177.508 328.05 177.39 328.87 177.36Z" fill="#263238"/>
<path d="M288.568 59.18L282.468 95.8663L333.656 104.377L339.755 67.6907L288.568 59.18Z" fill="#EBEBEB"/>
<path d="M301.34 90.8599H301.79L303 90.9999L307.63 91.5799L307.47 91.6999C307.74 89.6299 308.07 87.0899 308.47 84.1799V83.9899H308.66L313.22 84.5299H313.44V84.7499C313.17 87.0699 312.87 89.6299 312.56 92.3299L312.35 92.0599L318.82 92.9899L318.53 93.2199C318.77 91.0099 319.03 88.7099 319.29 86.3699C319.49 84.5899 319.69 82.8399 319.88 81.1399L319.96 81.3499L311.9 73.1199H312.2L302.81 79.4799L302.89 79.3499C302.43 82.8099 302.06 85.6299 301.79 87.6399C301.65 88.5899 301.55 89.3499 301.47 89.9199C301.39 90.4899 301.34 90.7299 301.33 90.7399C301.322 90.4856 301.339 90.2311 301.38 89.9799L301.61 87.7299C301.83 85.7299 302.14 82.8199 302.53 79.2999V79.2199H302.6L311.92 72.7799L312.09 72.6699L312.23 72.8099L320.31 80.9999L320.4 81.0899V81.2099C320.21 82.9199 320.01 84.6699 319.81 86.4399C319.55 88.7899 319.29 91.0899 319.04 93.2999V93.5599H318.77L312.31 92.5599H312.07V92.3199C312.4 89.6299 312.72 87.0699 313 84.7399L313.19 84.9899L308.64 84.4099L308.86 84.2399C308.44 87.1399 308.08 89.6699 307.78 91.7399V91.8799H307.64L302.95 91.1299L301.74 90.9299C301.604 90.9236 301.47 90.9 301.34 90.8599Z" fill="#263238"/>
<path d="M284.43 93.92C284.43 93.92 284.43 93.73 284.51 93.35C284.59 92.97 284.66 92.35 284.78 91.66C285.03 90.14 285.4 87.95 285.86 85.15C286.86 79.47 288.21 71.34 289.86 61.46V61.25H290.06L337.06 68.83H337.31V69.09V69.33C335.52 80.8 333.81 91.71 332.31 101.51V101.75H332.08L297.72 96.12L287.97 94.5L285.41 94.06L284.75 93.94H284.54H284.79L285.47 94.04L288.09 94.43L297.91 95.94L332 101.31L331.73 101.51C333.25 91.7 334.94 80.79 336.73 69.32V69.08L336.94 69.37L290.06 61.7L290.3 61.53C288.54 71.34 287.09 79.41 286.08 85.06L284.89 91.59L284.56 93.32C284.49 93.71 284.43 93.92 284.43 93.92Z" fill="#263238"/>
<path d="M285.56 65.36L294.48 58.87L292.95 57.23L284.72 63.88L285.56 65.36Z" fill="#455A64"/>
<path d="M328.72 106.35L337.64 99.86L336.11 98.22L327.88 104.87L328.72 106.35Z" fill="#455A64"/>
<path d="M334.68 68.73C334.58 71.1272 334.303 73.5138 333.85 75.87C333.56 77.7 333.28 79.36 333.05 80.6L332.88 80.38C333.676 80.4471 334.462 80.6083 335.22 80.86C334.422 80.9211 333.62 80.8875 332.83 80.76H332.64V80.56C332.79 79.31 333.02 77.64 333.3 75.81C333.594 73.4206 334.055 71.0547 334.68 68.73Z" fill="#263238"/>
<path d="M192.6 277.19C192.42 278.19 192.6 432.75 192.6 432.75H185.74V277.19H192.6Z" fill="#455A64"/>
<path d="M311.36 290.78C311.18 291.78 311.36 432.47 311.36 432.47H304.5V290.78H311.36Z" fill="#455A64"/>
<path d="M345.86 265C345.69 266 345.86 432.5 345.86 432.5H339V265H345.86Z" fill="#455A64"/>
<path d="M343.38 219.13C343.94 218.2 343.38 269.44 343.38 269.44L337.06 270.44L338.56 219.77L343.38 219.13Z" fill="#455A64"/>
<path d="M307.7 293.84C307.23 295.26 358.7 199.65 358.7 199.65L357.75 195.33L232.58 188.1L185 278.67L307.7 293.84Z" fill="#263238"/>
<path d="M307.18 290.43C307.06 288 357.75 195 357.75 195L230 183.25L183.11 275L307.18 290.43Z" fill="#455A64"/>
<path d="M247.81 264.43L291.87 269.03L320.12 197.67L256.75 189.87L225 261.59L247.81 264.43Z" fill="#F5F5F5"/>
<path d="M288.26 208.08C288.617 208.143 288.969 208.237 289.31 208.36C290.296 208.691 291.227 209.17 292.07 209.78C293.42 210.735 294.56 211.957 295.42 213.37C296.579 215.253 297.14 217.442 297.03 219.65C296.887 222.332 295.868 224.893 294.13 226.94C293.176 228.095 291.977 229.024 290.62 229.66C289.24 230.3 287.75 230.77 286.26 231.3C285.51 231.57 284.76 231.84 284.01 232.15C283.64 232.3 283.28 232.47 282.91 232.64L282.37 232.92C282.221 233.025 282.083 233.146 281.96 233.28C281.396 233.875 280.921 234.549 280.55 235.28C280.17 236 279.95 236.84 279.55 237.64C279.172 238.49 278.548 239.207 277.76 239.7C276.905 240.096 275.951 240.229 275.02 240.08L269.62 239.45C268.71 239.33 267.8 239.2 266.9 239.02C265.958 238.88 265.069 238.497 264.32 237.91C264.122 237.737 263.969 237.518 263.874 237.272C263.78 237.026 263.748 236.761 263.78 236.5C263.882 236.041 264.05 235.6 264.28 235.19C264.67 234.39 265.09 233.63 265.51 232.87L266.75 230.62L267.04 230.06L267.18 229.78C267.211 229.714 267.228 229.643 267.23 229.57C267.234 229.178 267.18 228.787 267.07 228.41C266.66 226.82 266.07 225.28 265.78 223.7C265.238 220.646 265.886 217.501 267.59 214.91C269.005 212.645 270.992 210.793 273.35 209.54C275.273 208.516 277.362 207.839 279.52 207.54C281.154 207.343 282.806 207.343 284.44 207.54C285.78 207.69 286.81 207.87 287.5 207.99L288.29 208.14C288.383 208.147 288.475 208.171 288.56 208.21H288.29L287.49 208.11C286.79 208.03 285.75 207.88 284.42 207.76C282.802 207.6 281.172 207.627 279.56 207.84C277.455 208.186 275.425 208.893 273.56 209.93C271.275 211.166 269.356 212.984 268 215.2C266.372 217.699 265.76 220.725 266.29 223.66C266.6 225.2 267.16 226.72 267.59 228.35C267.714 228.779 267.775 229.224 267.77 229.67C267.762 229.805 267.728 229.937 267.67 230.06L267.53 230.35L267.23 230.91L266 233.1C265.58 233.86 265.16 234.62 264.78 235.4C264.579 235.765 264.428 236.155 264.33 236.56C264.301 236.746 264.322 236.937 264.391 237.112C264.459 237.288 264.573 237.442 264.72 237.56C265.4 238.084 266.201 238.428 267.05 238.56C267.92 238.74 268.82 238.87 269.73 238.99L275.11 239.62C275.94 239.751 276.791 239.64 277.56 239.3C278.254 238.855 278.8 238.215 279.13 237.46C279.52 236.72 279.74 235.88 280.13 235.1C280.524 234.33 281.026 233.619 281.62 232.99C281.781 232.826 281.959 232.679 282.15 232.55L282.71 232.26L283.85 231.75C284.61 231.44 285.37 231.17 286.12 230.91C287.62 230.39 289.12 229.91 290.45 229.3C291.754 228.705 292.906 227.823 293.82 226.72C295.506 224.757 296.513 222.302 296.69 219.72C296.815 217.579 296.292 215.45 295.19 213.61C294.37 212.211 293.274 210.994 291.97 210.03C291.149 209.414 290.247 208.912 289.29 208.54C288.62 208.2 288.26 208.1 288.26 208.08Z" fill="#16A34A"/>
<path d="M279.61 236.9C279.484 237.356 279.313 237.798 279.1 238.22C278.74 239.05 278.2 240.22 277.58 241.74C277.27 242.49 276.95 243.31 276.63 244.21C276.344 245.222 275.831 246.156 275.13 246.94C274.254 247.723 273.177 248.246 272.02 248.45C270.818 248.706 269.587 248.8 268.36 248.73C267.134 248.66 265.923 248.425 264.76 248.03C263.654 247.699 262.632 247.136 261.76 246.38C261.35 246.023 261.024 245.58 260.806 245.082C260.588 244.584 260.484 244.044 260.5 243.5C260.631 242.595 260.948 241.727 261.43 240.95C262.16 239.59 262.77 238.45 263.25 237.57C263.452 237.143 263.696 236.738 263.98 236.36C263.84 236.81 263.656 237.246 263.43 237.66C262.99 238.56 262.43 239.73 261.76 241.12C261.324 241.86 261.042 242.679 260.93 243.53C260.93 244.005 261.033 244.474 261.232 244.906C261.43 245.337 261.72 245.721 262.08 246.03C262.922 246.723 263.895 247.24 264.94 247.55C267.198 248.296 269.612 248.434 271.94 247.95C273.007 247.769 274.006 247.303 274.83 246.6C275.488 245.869 275.976 245.002 276.26 244.06C276.6 243.17 276.94 242.34 277.26 241.6C277.93 240.11 278.52 238.94 278.93 238.13C279.122 237.702 279.349 237.29 279.61 236.9Z" fill="#16A34A"/>
<path d="M277.74 241.42C276.958 241.526 276.166 241.546 275.38 241.48C273.93 241.48 271.93 241.38 269.72 241.27C267.51 241.16 265.52 241.02 264.07 240.9C263.28 240.89 262.495 240.786 261.73 240.59C262.509 240.484 263.297 240.464 264.08 240.53C265.53 240.53 267.54 240.63 269.75 240.75C271.96 240.87 273.96 240.99 275.4 241.11C276.19 241.118 276.975 241.223 277.74 241.42Z" fill="#16A34A"/>
<path d="M276.2 244.61C273.648 244.86 271.082 244.94 268.52 244.85C265.96 244.934 263.397 244.841 260.85 244.57C263.398 244.32 265.961 244.24 268.52 244.33C271.083 244.252 273.649 244.345 276.2 244.61Z" fill="#16A34A"/>
<path d="M270.09 248.43C270.14 248.43 270.01 248.94 269.4 249.43C268.573 250 267.566 250.245 266.57 250.12C266.023 250.107 265.484 249.991 264.98 249.78C264.754 249.691 264.548 249.556 264.376 249.384C264.204 249.212 264.07 249.006 263.98 248.78C263.918 248.633 263.886 248.475 263.886 248.315C263.886 248.155 263.918 247.997 263.98 247.85C264.08 247.64 264.19 247.58 264.22 247.6C264.137 247.933 264.165 248.284 264.3 248.6C264.55 249.21 265.48 249.54 266.55 249.6C267.438 249.711 268.338 249.547 269.13 249.13C269.78 248.77 270 248.38 270.09 248.43Z" fill="#16A34A"/>
<path d="M272.34 239.48C272.487 239.069 272.682 238.676 272.92 238.31L274.67 235.24C275.45 233.92 276.35 232.4 277.33 230.72C277.934 229.94 278.335 229.023 278.5 228.05C278.463 227.555 278.243 227.091 277.882 226.749C277.522 226.407 277.047 226.211 276.55 226.2C276.03 226.188 275.514 226.289 275.036 226.494C274.558 226.699 274.13 227.005 273.78 227.39C273.095 228.137 272.482 228.947 271.95 229.81C270.86 231.45 269.95 232.99 269.29 234.3C268.63 235.61 268.09 236.71 267.74 237.47C267.589 237.877 267.395 238.265 267.16 238.63C267.244 238.204 267.375 237.788 267.55 237.39C267.85 236.61 268.31 235.48 268.96 234.14C269.731 232.56 270.596 231.027 271.55 229.55C272.089 228.648 272.716 227.8 273.42 227.02C273.821 226.582 274.312 226.235 274.859 226.004C275.406 225.773 275.996 225.662 276.59 225.68C277.204 225.711 277.786 225.963 278.229 226.39C278.671 226.816 278.945 227.388 279 228C278.983 228.572 278.817 229.131 278.52 229.62C278.26 230.09 277.99 230.5 277.73 230.93L275 235.43L273.1 238.43C272.878 238.802 272.624 239.153 272.34 239.48Z" fill="#16A34A"/>
<path d="M274.75 219.9C275.099 220.9 275.285 221.95 275.3 223.01C275.472 224.053 275.472 225.117 275.3 226.16C274.951 225.16 274.765 224.109 274.75 223.05C274.572 222.007 274.572 220.942 274.75 219.9Z" fill="#16A34A"/>
<path d="M274.28 219.33C274.34 219.33 274.28 219.52 274.4 219.67C274.52 219.82 274.66 219.91 274.82 219.75C274.98 219.59 274.92 219.44 274.75 219.33C274.58 219.22 274.45 219.26 274.41 219.2C274.37 219.14 274.49 218.93 274.85 218.98C274.957 218.993 275.059 219.033 275.146 219.096C275.234 219.159 275.304 219.243 275.35 219.34C275.404 219.471 275.418 219.616 275.39 219.755C275.362 219.895 275.294 220.023 275.193 220.123C275.093 220.224 274.965 220.293 274.825 220.32C274.686 220.348 274.542 220.334 274.41 220.28C274.313 220.231 274.23 220.158 274.167 220.07C274.104 219.981 274.064 219.878 274.05 219.77C274 219.41 274.24 219.27 274.28 219.33Z" fill="#16A34A"/>
<path d="M285 222.44C284.143 223.448 283.13 224.312 282 225C280.944 225.814 279.766 226.455 278.51 226.9C279.497 226.019 280.569 225.238 281.71 224.57C282.731 223.749 283.833 223.036 285 222.44Z" fill="#16A34A"/>
<path d="M285.32 221.66C285.26 221.66 285.48 221.36 285.92 221.48C286.05 221.524 286.165 221.604 286.251 221.71C286.338 221.816 286.393 221.944 286.41 222.08C286.434 222.251 286.403 222.426 286.321 222.578C286.239 222.731 286.11 222.853 285.953 222.926C285.797 223 285.621 223.022 285.451 222.988C285.281 222.955 285.127 222.868 285.01 222.74C284.909 222.637 284.844 222.505 284.825 222.363C284.805 222.221 284.831 222.076 284.9 221.95C284.948 221.866 285.021 221.799 285.109 221.757C285.196 221.716 285.295 221.703 285.39 221.72C285.51 221.72 285.55 221.83 285.53 221.86C285.51 221.89 285.28 221.86 285.23 222.11C285.222 222.165 285.229 222.22 285.251 222.271C285.272 222.322 285.306 222.367 285.35 222.4C285.403 222.446 285.467 222.476 285.536 222.486C285.605 222.497 285.676 222.488 285.74 222.46C285.8 222.429 285.85 222.382 285.884 222.323C285.918 222.265 285.934 222.197 285.93 222.13C285.934 222.069 285.921 222.007 285.893 221.953C285.865 221.898 285.822 221.852 285.77 221.82C285.56 221.67 285.35 221.73 285.32 221.66Z" fill="#16A34A"/>
<path d="M285.23 221.77C281.795 221.391 278.405 220.674 275.11 219.63C278.548 219.993 281.939 220.71 285.23 221.77Z" fill="#16A34A"/>
<path d="M253.25 234C253.31 234.14 252.45 234.62 251.35 235.09C250.701 235.448 249.98 235.653 249.24 235.69C249.18 235.56 250.04 235.07 251.14 234.61C251.787 234.248 252.509 234.039 253.25 234Z" fill="#263238"/>
<path d="M265.08 203.08C265.22 203.14 260.73 213.63 255.08 226.5C249.43 239.37 244.7 249.77 244.57 249.72C244.44 249.67 248.93 239.17 254.57 226.29C260.21 213.41 265 203 265.08 203.08Z" fill="#263238"/>
<path d="M286 204.7C286.13 204.76 281.4 215.79 275.44 229.33C269.48 242.87 264.53 253.81 264.44 253.75C264.35 253.69 269.03 242.67 275 229.12C280.97 215.57 285.83 204.64 286 204.7Z" fill="#263238"/>
<path d="M279.35 251.56C279.35 251.7 271.2 250.8 261.19 249.56C251.18 248.32 243.08 247.17 243.1 247.03C243.12 246.89 251.24 247.78 261.26 249.03C271.28 250.28 279.37 251.41 279.35 251.56Z" fill="#263238"/>
<path d="M285 239.11C284.519 239.135 284.036 239.108 283.56 239.03L279.67 238.63C276.38 238.26 271.85 237.72 266.84 237.1C261.83 236.48 257.31 235.87 254.03 235.42L250.16 234.85C249.68 234.795 249.205 234.702 248.74 234.57C249.221 234.546 249.704 234.572 250.18 234.65L254.08 235.05C257.36 235.42 261.9 235.95 266.91 236.58C271.92 237.21 276.44 237.8 279.71 238.26L283.59 238.83C284.068 238.879 284.54 238.973 285 239.11Z" fill="#263238"/>
<path d="M298.88 209.24C298.399 209.266 297.916 209.242 297.44 209.17L293.55 208.76C290.26 208.4 285.72 207.86 280.72 207.23C275.72 206.6 271.18 206.01 267.91 205.55L264 205C263.521 204.957 263.049 204.863 262.59 204.72C263.071 204.708 263.553 204.735 264.03 204.8L267.92 205.2C271.21 205.57 275.75 206.11 280.75 206.73C285.75 207.35 290.29 207.96 293.56 208.42L297.44 208.98C297.926 209.027 298.408 209.114 298.88 209.24Z" fill="#263238"/>
<path d="M266.28 203.79C266.36 203.91 265.68 204.43 264.77 204.95C263.86 205.47 263.07 205.78 263 205.66C262.93 205.54 263.6 205.01 264.51 204.5C265.42 203.99 266.21 203.66 266.28 203.79Z" fill="#263238"/>
<path d="M248 246.29C247.351 246.854 246.592 247.277 245.77 247.53C245.014 247.94 244.185 248.198 243.33 248.29C243.982 247.73 244.74 247.308 245.56 247.05C246.315 246.639 247.145 246.381 248 246.29Z" fill="#263238"/>
<path d="M266.69 250.86C266.704 250.295 266.788 249.734 266.94 249.19L267.12 249.48C266.66 249.48 266.12 249.37 265.55 249.29L265.83 249.11C265.64 249.69 265.46 250.23 265.3 250.68L265.12 250.39C265.66 250.472 266.188 250.623 266.69 250.84C266.75 250.91 266.12 250.93 265.05 250.84H264.8L264.87 250.57C264.99 250.11 265.15 249.57 265.33 248.98L265.4 248.77H265.62L267.19 249.03L267.45 249.09L267.37 249.32C267 250.36 266.73 250.94 266.69 250.86Z" fill="#263238"/>
<path d="M307.7 293.84L358.7 263.5H324.25L307.7 293.84Z" fill="#263238"/>
<path d="M309.78 193.88L320.92 207.56L323.05 203.44L314.29 192.53L309.78 193.88Z" fill="#263238"/>
<path d="M358.7 263.5V258.12L327.52 257.46L313.48 283.37L358.7 263.5Z" fill="#263238"/>
<path d="M223.56 370.46H218.08V468.53H223.56V370.46Z" fill="#455A64"/>
<path d="M264 362.71C264 369.94 245.91 375.79 223.58 375.79C201.25 375.79 183.16 369.94 183.16 362.71C183.16 360.45 182.16 355.71 183.6 351.16C186.09 343.59 208.25 349.64 223.6 349.64C240.06 349.64 260.81 346.64 263.44 353.92C264.58 357.21 264 360.82 264 362.71Z" fill="#263238"/>
<path d="M223.56 366.18C245.883 366.18 263.98 360.324 263.98 353.1C263.98 345.876 245.883 340.02 223.56 340.02C201.237 340.02 183.14 345.876 183.14 353.1C183.14 360.324 201.237 366.18 223.56 366.18Z" fill="#455A64"/>
<path d="M223.46 419.21C223.46 419.21 254.09 417.11 255.46 459.82H250.46C250.46 459.82 252.96 424.77 223.38 423.77V420" fill="#455A64"/>
<path d="M219.8 419.21C219.8 419.21 189.17 417.11 187.8 459.82H192.8C192.8 459.82 190.3 424.77 219.88 423.77V420" fill="#455A64"/>
<path d="M291.693 200.448L243.787 206.739L244.514 212.273L292.42 205.982L291.693 200.448Z" fill="#16A34A"/>
<path d="M259 417.84L263.66 408.09L245.45 399.24L238.45 413.43L239.54 414.05C244.43 416.78 264.59 427.55 268.45 428.16C272.76 428.85 259 417.84 259 417.84Z" fill="#16A34A"/>
<g opacity="0.3">
<path d="M245.13 416.5C245.606 414.836 245.45 413.055 244.69 411.5C243.954 409.956 242.666 408.743 241.08 408.1L238.6 413.19L245.13 416.5Z" fill="white"/>
</g>
<path opacity="0.3" d="M265.58 423.49C265.58 423.49 270.24 427.69 269.13 428.25C268.02 428.81 247.23 418.7 238.46 413.43L238.68 413.04L262.83 425.04C262.83 425.04 264.5 423 265.58 423.49Z" fill="white"/>
<path d="M238.4 412.89L238.7 413.08L239.57 413.57L242.81 415.32C245.56 416.78 249.38 418.75 253.64 420.83C257.9 422.91 261.81 424.71 264.64 425.98L268.02 427.45L268.94 427.84L269.27 427.95L268.96 427.79L268.06 427.36L264.72 425.82C261.89 424.51 258 422.69 253.72 420.61C249.44 418.53 245.63 416.61 242.86 415.17L239.59 413.48L238.69 413.03C238.599 412.972 238.502 412.925 238.4 412.89Z" fill="#263238"/>
<path d="M262.68 425.33C263.096 424.855 263.562 424.426 264.07 424.05C264.622 423.743 265.21 423.505 265.82 423.34C265.151 423.266 264.48 423.448 263.94 423.85C263.353 424.173 262.905 424.699 262.68 425.33Z" fill="#263238"/>
<path d="M258.64 420C258.64 420.06 259.09 419.87 259.55 419.58C260.01 419.29 260.38 419.01 260.34 418.95C260.008 419.017 259.696 419.161 259.43 419.37C259 419.65 258.6 419.93 258.64 420Z" fill="#263238"/>
<path d="M257.55 418.49C257.55 418.56 257.95 418.49 258.4 418.38C258.85 418.27 259.2 418.09 259.18 418.03C259.16 417.97 258.78 418.03 258.33 418.14C257.88 418.25 257.53 418.43 257.55 418.49Z" fill="#263238"/>
<path d="M257.45 416.32C257.45 416.38 257.82 416.64 258.34 416.91C258.642 417.104 258.984 417.227 259.34 417.27C259.34 417.21 258.97 416.95 258.45 416.69C258.15 416.49 257.808 416.364 257.45 416.32Z" fill="#263238"/>
<path d="M257.72 415C257.67 415.05 258.04 415.48 258.63 415.83C258.972 416.075 259.379 416.211 259.8 416.22C259.471 415.986 259.119 415.785 258.75 415.62C258.426 415.382 258.082 415.175 257.72 415Z" fill="#263238"/>
<path d="M260 418.7C260.353 418.958 260.749 419.151 261.17 419.27C261.62 419.419 262.081 419.53 262.55 419.6C262.836 419.631 263.124 419.631 263.41 419.6C263.588 419.584 263.754 419.506 263.88 419.38C263.931 419.296 263.958 419.199 263.958 419.1C263.958 419.001 263.931 418.904 263.88 418.82C263.537 418.375 263.049 418.065 262.5 417.944C261.951 417.824 261.378 417.9 260.88 418.16C260.585 418.301 260.325 418.506 260.12 418.76C259.97 418.93 259.92 419.05 259.93 419.06C260.218 418.758 260.557 418.507 260.93 418.32C261.344 418.136 261.803 418.077 262.25 418.15C262.514 418.184 262.769 418.271 262.999 418.405C263.229 418.539 263.43 418.717 263.59 418.93C263.71 419.16 263.53 419.34 263.27 419.36C263.004 419.39 262.736 419.39 262.47 419.36C262.013 419.307 261.562 419.217 261.12 419.09C260.5 418.88 260.05 418.67 260 418.7Z" fill="#263238"/>
<path d="M260.31 418.91C260.31 418.91 260.63 418.72 260.84 418.16C260.948 417.838 260.979 417.496 260.93 417.16C260.917 416.939 260.848 416.724 260.729 416.537C260.61 416.349 260.445 416.196 260.25 416.09C260.185 416.074 260.117 416.07 260.051 416.08C259.985 416.089 259.921 416.112 259.863 416.147C259.806 416.181 259.755 416.226 259.715 416.28C259.675 416.334 259.646 416.395 259.63 416.46C259.562 416.659 259.541 416.872 259.57 417.08C259.593 417.422 259.664 417.758 259.78 418.08C259.97 418.62 260.19 418.9 260.22 418.88C260.25 418.86 260.09 418.56 259.94 418.03C259.857 417.723 259.81 417.408 259.8 417.09C259.8 416.77 259.86 416.27 260.18 416.36C260.5 416.45 260.64 416.91 260.71 417.23C260.777 417.533 260.777 417.847 260.71 418.15C260.596 418.413 260.463 418.667 260.31 418.91Z" fill="#263238"/>
<path d="M241.2 408.09C241.2 408.09 241.75 408.29 242.52 408.79C243.529 409.439 244.342 410.352 244.87 411.43C245.376 412.515 245.574 413.72 245.44 414.91C245.34 415.83 245.11 416.37 245.15 416.38C245.19 416.39 245.24 416.26 245.33 416.01C245.465 415.665 245.559 415.306 245.61 414.94C245.808 413.709 245.628 412.448 245.092 411.322C244.556 410.197 243.69 409.262 242.61 408.64C242.292 408.455 241.957 408.301 241.61 408.18C241.35 408.1 241.2 408.07 241.2 408.09Z" fill="#263238"/>
<path d="M246.78 401.43C246.037 402.607 245.369 403.829 244.78 405.09C244.117 406.313 243.529 407.576 243.02 408.87C243.755 407.686 244.423 406.46 245.02 405.2C245.679 403.979 246.267 402.72 246.78 401.43Z" fill="#263238"/>
<path d="M248.28 415.84C249.873 417.033 251.668 417.928 253.58 418.48C253.58 418.41 252.38 417.91 250.92 417.18C249.46 416.45 248.32 415.78 248.28 415.84Z" fill="#263238"/>
<path d="M244.72 414.1C244.65 414.1 244.72 414.4 244.72 414.73C244.72 415.06 244.66 415.33 244.72 415.36C244.78 415.39 244.96 415.12 244.97 414.74C244.98 414.36 244.78 414.07 244.72 414.1Z" fill="#263238"/>
<path d="M244.19 411.77C244.12 411.77 244.19 412.04 244.24 412.32C244.29 412.6 244.47 412.81 244.53 412.79C244.59 412.77 244.53 412.52 244.48 412.24C244.43 411.96 244.25 411.75 244.19 411.77Z" fill="#263238"/>
<path d="M242.64 410.07C242.64 410.14 242.86 410.25 243.08 410.48C243.3 410.71 243.43 410.94 243.5 410.92C243.57 410.9 243.5 410.57 243.26 410.3C243.02 410.03 242.65 410 242.64 410.07Z" fill="#263238"/>
<path d="M241.44 409C241.39 409 241.44 409.19 241.57 409.32C241.7 409.45 241.84 409.52 241.89 409.48C241.94 409.44 241.89 409.29 241.75 409.16C241.61 409.03 241.49 409 241.44 409Z" fill="#263238"/>
<path d="M259.51 428L265.37 418.91L248.37 407.83L239.66 421.03L240.66 421.79C245.16 425.11 263.8 438.34 267.55 439.43C271.79 440.69 259.51 428 259.51 428Z" fill="#16A34A"/>
<g opacity="0.3">
<path d="M245.94 425C246.62 423.415 246.692 421.634 246.14 420C245.625 418.349 244.503 416.956 243 416.1L239.9 420.83L245.94 425Z" fill="white"/>
</g>
<path opacity="0.3" d="M265.35 434.46C265.35 434.46 269.44 439.22 268.27 439.64C267.1 440.06 247.75 427.4 239.71 421.06L239.98 420.7L262.42 435.7C262.42 435.7 264.33 433.86 265.35 434.46Z" fill="white"/>
<path d="M239.72 420.52L239.99 420.74L240.8 421.34L243.8 423.49C246.34 425.28 249.88 427.72 253.85 430.32C257.82 432.92 261.47 435.2 264.12 436.81L267.29 438.7L268.16 439.2C268.257 439.265 268.361 439.318 268.47 439.36C268.38 439.284 268.283 439.217 268.18 439.16L267.34 438.62L264.22 436.67C261.58 435.02 257.95 432.72 253.98 430.12C250.01 427.52 246.46 425.12 243.9 423.34L240.9 421.26L240.07 420.7C239.965 420.62 239.846 420.559 239.72 420.52Z" fill="#263238"/>
<path d="M262.24 435.93C262.708 435.504 263.225 435.135 263.78 434.83C264.367 434.602 264.978 434.438 265.6 434.34C264.945 434.192 264.259 434.288 263.67 434.61C263.046 434.857 262.536 435.328 262.24 435.93Z" fill="#263238"/>
<path d="M258.9 430.12C259.252 430.099 259.594 429.996 259.9 429.82C260.41 429.59 260.79 429.35 260.76 429.29C260.408 429.311 260.065 429.414 259.76 429.59C259.26 429.82 258.88 430.06 258.9 430.12Z" fill="#263238"/>
<path d="M258 428.49C258 428.56 258.39 428.56 258.85 428.49C259.31 428.42 259.69 428.3 259.68 428.24C259.67 428.18 259.28 428.17 258.82 428.24C258.36 428.31 258 428.43 258 428.49Z" fill="#263238"/>
<path d="M258.19 426.33C258.19 426.38 258.51 426.69 259 427.02C259.277 427.245 259.597 427.412 259.94 427.51C259.94 427.45 259.62 427.14 259.13 426.81C258.64 426.48 258.22 426.27 258.19 426.33Z" fill="#263238"/>
<path d="M258.63 425C258.57 425 258.88 425.52 259.43 425.94C259.732 426.227 260.117 426.412 260.53 426.47C260.53 426.4 260.09 426.14 259.58 425.74C259.282 425.47 258.965 425.223 258.63 425Z" fill="#263238"/>
<path d="M260.45 429C260.769 429.296 261.138 429.533 261.54 429.7C261.966 429.91 262.411 430.078 262.87 430.2C263.142 430.291 263.424 430.348 263.71 430.37C263.888 430.374 264.062 430.313 264.2 430.2C264.269 430.131 264.316 430.043 264.338 429.947C264.359 429.852 264.353 429.752 264.32 429.66C264.034 429.189 263.594 428.832 263.074 428.65C262.554 428.468 261.987 428.471 261.47 428.66C261.16 428.76 260.877 428.927 260.64 429.15C260.47 429.31 260.4 429.42 260.42 429.43C260.75 429.166 261.121 428.96 261.52 428.82C261.954 428.695 262.415 428.695 262.85 428.82C263.107 428.887 263.348 429.005 263.56 429.166C263.771 429.328 263.948 429.53 264.08 429.76C264.17 430 263.97 430.16 263.71 430.15C263.443 430.124 263.179 430.077 262.92 430.01C262.472 429.895 262.034 429.745 261.61 429.56C260.88 429.25 260.47 429 260.45 429Z" fill="#263238"/>
<path d="M260.69 429.25C260.69 429.25 261.04 429.1 261.31 428.58C261.464 428.269 261.542 427.927 261.54 427.58C261.552 427.358 261.508 427.136 261.412 426.935C261.316 426.734 261.171 426.56 260.99 426.43C260.864 426.384 260.725 426.388 260.602 426.442C260.478 426.496 260.381 426.596 260.33 426.72C260.237 426.906 260.192 427.112 260.2 427.32C260.183 427.655 260.209 427.992 260.28 428.32C260.323 428.625 260.436 428.916 260.61 429.17C260.61 429.17 260.52 428.83 260.45 428.29C260.414 427.974 260.414 427.656 260.45 427.34C260.45 427.01 260.62 426.53 260.93 426.66C261.24 426.79 261.32 427.26 261.34 427.59C261.357 427.901 261.306 428.211 261.19 428.5C261.051 428.767 260.883 429.019 260.69 429.25Z" fill="#263238"/>
<path d="M243.1 416.11C243.1 416.11 243.62 416.38 244.33 416.97C245.25 417.743 245.942 418.753 246.33 419.89C246.697 421.029 246.742 422.247 246.46 423.41C246.24 424.31 245.95 424.81 245.99 424.83C246.084 424.731 246.158 424.616 246.21 424.49C246.383 424.171 246.523 423.836 246.63 423.49C246.971 422.294 246.947 421.023 246.56 419.84C246.177 418.649 245.441 417.603 244.45 416.84C244.156 416.61 243.837 416.412 243.5 416.25C243.375 416.182 243.24 416.134 243.1 416.11Z" fill="#263238"/>
<path d="M249.48 410.21C248.601 411.286 247.79 412.414 247.05 413.59C246.244 414.72 245.503 415.895 244.83 417.11C245.706 416.035 246.514 414.906 247.25 413.73C248.06 412.6 248.804 411.425 249.48 410.21Z" fill="#263238"/>
<path d="M249.15 424.69C249.842 425.408 250.621 426.037 251.47 426.56C252.271 427.145 253.145 427.622 254.07 427.98C254.07 427.92 252.96 427.26 251.6 426.35C250.24 425.44 249.2 424.64 249.15 424.69Z" fill="#263238"/>
<path d="M245.84 422.51C245.77 422.51 245.77 422.81 245.72 423.14C245.67 423.47 245.58 423.73 245.64 423.76C245.7 423.79 245.91 423.55 245.96 423.17C246.01 422.79 245.9 422.5 245.84 422.51Z" fill="#263238"/>
<path d="M245.6 420.14C245.54 420.14 245.53 420.4 245.6 420.69C245.67 420.98 245.76 421.21 245.83 421.2C245.9 421.19 245.9 420.93 245.83 420.64C245.76 420.35 245.67 420.12 245.6 420.14Z" fill="#263238"/>
<path d="M244.28 418.25C244.28 418.32 244.48 418.46 244.67 418.71C244.86 418.96 244.96 419.22 245.03 419.21C245.1 419.2 245.11 418.87 244.87 418.56C244.63 418.25 244.3 418.19 244.28 418.25Z" fill="#263238"/>
<path d="M243.23 417.08C243.17 417.08 243.23 417.27 243.32 417.42C243.41 417.57 243.55 417.65 243.61 417.61C243.67 417.57 243.61 417.42 243.52 417.28C243.43 417.14 243.28 417 243.23 417.08Z" fill="#263238"/>
<path opacity="0.2" d="M243.89 414.73L260.98 425.74L262.02 424.13L244.93 412.79L243.89 414.73Z" fill="black"/>
<path d="M261.42 339.51L241.43 405.19L259.16 412.07L284.83 353.1L261.42 339.51Z" fill="#263238"/>
<path d="M219.92 355.69C219.92 355.69 289.3 338.41 291.19 337.57C291.19 337.57 298.93 315.16 282.7 306.68C267.25 298.6 215.91 325.93 215.91 325.93L219.92 355.69Z" fill="#263238"/>
<path d="M197.9 351.23C205.82 352.44 214.74 355.23 219.9 355.69C233.9 356.97 240.57 351.24 252.21 354.36C252.27 345.86 251.64 330.11 251.64 330.11L186.87 321.52C186.87 321.52 188.07 344.09 197.9 351.23Z" fill="#263238"/>
<path d="M315.86 350.15C317.73 346.67 319.12 342.53 318.34 338.58C316.79 330.73 307.39 329.87 297.58 328.69C275.53 326.03 246.91 322.26 246.91 322.26L252.27 354.37L278.38 356.26L242.69 411.33L268.14 428.4L314.52 352.4C314.8 351.96 315.08 351.49 315.36 351.02L315.86 350.15Z" fill="#263238"/>
<path d="M295.54 328.44C294.946 328.46 294.351 328.44 293.76 328.38C292.61 328.31 290.95 328.18 288.91 327.98C284.82 327.6 279.18 326.92 272.97 326.1C266.76 325.28 261.13 324.55 257.05 324.1L252.22 323.54C251.627 323.505 251.038 323.418 250.46 323.28C251.054 323.26 251.649 323.28 252.24 323.34C253.39 323.41 255.05 323.54 257.09 323.74C261.18 324.12 266.82 324.8 273.03 325.62C279.24 326.44 284.87 327.17 288.95 327.62L293.78 328.18C294.373 328.215 294.962 328.302 295.54 328.44Z" fill="#455A64"/>
<path d="M279.24 325.34C279.31 325.47 279.1 325.73 278.82 326C278.54 326.27 278.26 326.47 278.14 326.39C278.02 326.31 278.14 325.94 278.46 325.62C278.78 325.3 279.17 325.22 279.24 325.34Z" fill="#455A64"/>
<path d="M279.56 353.37C279.474 353.573 279.363 353.764 279.23 353.94L278.18 355.53L274.28 361.31C270.99 366.2 266.49 372.98 261.66 380.56C256.83 388.14 252.56 395.07 249.51 400.11C248.01 402.59 246.79 404.61 245.91 406.11L244.91 407.72C244.807 407.919 244.679 408.104 244.53 408.27C244.612 408.064 244.709 407.863 244.82 407.67C245.05 407.24 245.36 406.67 245.73 406.01C246.53 404.57 247.73 402.5 249.2 399.95C252.2 394.86 256.38 387.89 261.2 380.3C266.02 372.71 270.59 365.97 273.96 361.14C275.64 358.72 277.02 356.77 277.96 355.44L279.09 353.91C279.229 353.716 279.386 353.535 279.56 353.37Z" fill="#455A64"/>
<path d="M277.58 356.2C276.421 356.283 275.258 356.283 274.1 356.2C271.95 356.13 268.99 356.03 265.71 355.84C262.43 355.65 259.47 355.36 257.34 355.08C256.27 354.94 255.41 354.81 254.82 354.7C254.504 354.672 254.194 354.598 253.9 354.48C255.064 354.481 256.226 354.558 257.38 354.71C259.52 354.9 262.47 355.13 265.74 355.32C269.01 355.51 271.98 355.67 274.12 355.83C275.281 355.865 276.438 355.989 277.58 356.2Z" fill="#455A64"/>
<path d="M297.41 229C297.41 229 298.57 227.46 299.9 228.45C301.23 229.44 307.09 234.18 307.09 234.18L311.09 245.02L305.4 255.41L295.58 251.2C296.101 248.773 296.816 246.392 297.72 244.08C297.72 244.08 291.13 238.98 293.18 236.97C293.18 236.97 293.72 235.97 296.52 238.29L299.31 240.61C299.31 240.61 294.41 233.77 294.72 232.21C294.742 231.929 294.827 231.655 294.967 231.41C295.107 231.165 295.299 230.953 295.53 230.791C295.761 230.629 296.026 230.519 296.304 230.471C296.582 230.422 296.868 230.436 297.14 230.51L297.41 229Z" fill="#FFBE9D"/>
<path d="M291.24 231.68L295.29 232.68L312.89 248.23C313.197 248.498 313.386 248.877 313.414 249.284C313.442 249.691 313.307 250.092 313.04 250.4C312.908 250.557 312.747 250.685 312.565 250.779C312.383 250.872 312.185 250.928 311.981 250.944C311.777 250.96 311.572 250.935 311.378 250.871C311.184 250.807 311.004 250.704 310.85 250.57L293.31 235.44L291.24 231.68Z" fill="#16A34A"/>
<path opacity="0.4" d="M310.54 250.29L312.48 247.85L313.14 248.5C313.41 248.772 313.568 249.135 313.585 249.518C313.602 249.9 313.475 250.276 313.23 250.57C313.098 250.729 312.934 250.86 312.75 250.954C312.565 251.049 312.364 251.104 312.157 251.118C311.95 251.132 311.743 251.104 311.548 251.036C311.352 250.967 311.173 250.86 311.02 250.72L310.54 250.29Z" fill="white"/>
<path opacity="0.4" d="M291.91 232.8L292.59 232L295.35 232.71C295.432 232.851 295.475 233.012 295.475 233.175C295.475 233.338 295.432 233.499 295.35 233.64C295.08 233.99 294.56 233.7 294.56 233.7C294.639 233.855 294.68 234.026 294.68 234.2C294.68 234.374 294.639 234.545 294.56 234.7C294.31 235.06 293.69 234.91 293.69 234.91C293.743 234.963 293.783 235.027 293.809 235.097C293.834 235.167 293.844 235.242 293.837 235.316C293.831 235.391 293.808 235.463 293.77 235.527C293.733 235.592 293.681 235.647 293.62 235.69L293.37 235.47L291.91 232.8Z" fill="white"/>
<path opacity="0.4" d="M294.51 233.7L312 248.37L311.08 249.52L293.63 234.91C293.79 234.956 293.961 234.952 294.119 234.901C294.278 234.849 294.417 234.751 294.52 234.62C294.599 234.479 294.64 234.32 294.638 234.159C294.637 233.997 294.592 233.839 294.51 233.7Z" fill="black"/>
<path d="M296.2 248.21C296.931 246.63 297.555 245.003 298.07 243.34C298.29 242.13 296.18 234.26 299.33 233.64L300.33 234.11L303 246.77L297.77 251.77L296.2 248.21Z" fill="#FFBE9D"/>
<path d="M303.64 239.14C303.55 239.14 303.38 238.41 302.83 237.31C302.155 235.876 301.156 234.619 299.91 233.64C299.139 233.155 298.431 232.577 297.8 231.92C297.529 231.635 297.32 231.296 297.186 230.926C297.051 230.557 296.995 230.163 297.02 229.77C297.048 229.504 297.133 229.248 297.267 229.017C297.401 228.786 297.583 228.586 297.8 228.43C298.12 228.22 298.34 228.24 298.34 228.26C298.34 228.28 298.16 228.36 297.93 228.59C297.601 228.909 297.407 229.342 297.39 229.8C297.404 230.48 297.68 231.128 298.16 231.61C298.793 232.212 299.483 232.751 300.22 233.22C301.536 234.248 302.554 235.608 303.17 237.16C303.471 237.777 303.631 238.454 303.64 239.14Z" fill="#EB996E"/>
<path d="M302.37 244.81C302.254 244.485 302.167 244.151 302.11 243.81C301.97 243.16 301.69 242.25 301.38 241.1C301.213 240.465 301.086 239.821 301 239.17C300.91 238.47 300.87 237.72 300.75 236.96C300.693 236.577 300.606 236.199 300.49 235.83C300.372 235.456 300.225 235.091 300.05 234.74C300.017 234.683 299.969 234.636 299.91 234.606C299.852 234.576 299.786 234.563 299.72 234.57C299.538 234.603 299.363 234.664 299.2 234.75C298.849 234.945 298.561 235.237 298.37 235.59C297.971 236.329 297.778 237.161 297.81 238C297.827 238.805 297.928 239.606 298.11 240.39C298.285 241.131 298.369 241.889 298.36 242.65C298.318 243.325 298.141 243.985 297.84 244.59C297.378 245.39 297.066 246.268 296.92 247.18C296.91 247.514 296.927 247.849 296.97 248.18C296.772 247.886 296.683 247.533 296.72 247.18C296.791 246.226 297.056 245.297 297.5 244.45C297.754 243.882 297.9 243.272 297.93 242.65C297.916 241.925 297.819 241.203 297.64 240.5C297.435 239.685 297.321 238.85 297.3 238.01C297.255 237.075 297.473 236.147 297.93 235.33C298.053 235.122 298.197 234.928 298.36 234.75C298.529 234.558 298.737 234.405 298.97 234.3C299.192 234.176 299.437 234.098 299.69 234.07C299.841 234.058 299.992 234.087 300.127 234.154C300.263 234.221 300.378 234.323 300.46 234.45C300.673 234.843 300.841 235.259 300.96 235.69C301.083 236.085 301.17 236.49 301.22 236.9C301.33 237.7 301.36 238.45 301.43 239.13C301.494 239.766 301.598 240.397 301.74 241.02C302 242.17 302.23 243.12 302.31 243.78C302.382 244.118 302.402 244.466 302.37 244.81Z" fill="#EB996E"/>
<path d="M204.94 235.28L231.92 209.16L245.7 219.5L217.57 252.98L204.94 235.28Z" fill="#16A34A"/>
<path opacity="0.4" d="M204.94 235.28L231.92 209.16L245.7 219.5L217.57 252.98L204.94 235.28Z" fill="black"/>
<path d="M248.19 206.48L260.41 204.87C259.52 204.12 256.61 202.15 249.41 200.87C240.31 199.29 232.61 209.63 232.61 209.63L243.79 218.09L247.96 213.93C247.96 213.93 254.42 212.99 257.96 212.18C258.389 212.068 258.79 211.865 259.135 211.586C259.48 211.307 259.761 210.957 259.96 210.56H259.78C254.51 210.19 249.81 208.78 248.19 206.48Z" fill="#FFBE9D"/>
<path d="M253.11 209.46C251.893 209.188 250.75 208.656 249.759 207.9C248.768 207.144 247.953 206.182 247.37 205.08C247.49 204.99 248.49 206.29 250.07 207.48C251.65 208.67 253.16 209.32 253.11 209.46Z" fill="#EB996E"/>
<path d="M204.06 179.93L203.91 227.64L224.38 228.64L225 217C225 217 232.28 218.45 234.15 211.69C235.35 207.38 235.05 174.04 235.05 174.04L204.06 179.93Z" fill="#FFBE9D"/>
<path d="M233.85 166.66C227.62 168.66 226.12 169.35 223.32 169.57C220.52 169.79 201.57 169.8 199.84 180.49L199.71 181.8V181.75C199.71 181.8 195.62 180.1 196.71 187.5C197.27 191.36 198.85 194.92 200.32 199.16C201.32 205.44 197.75 207.01 194.8 209.08C194.07 209.6 193.19 210.24 193.31 211.08C193.43 211.92 194.31 212.3 195.12 212.43C196.849 212.705 198.617 212.296 200.05 211.29C199.631 212.208 199.164 213.102 198.65 213.97C198.25 214.9 198.29 216.19 199.18 216.67C199.695 216.897 200.275 216.925 200.81 216.75C202.47 216.354 203.968 215.457 205.1 214.18C204.91 214.584 204.876 215.044 205.003 215.471C205.131 215.899 205.41 216.265 205.79 216.5C206.566 216.944 207.46 217.136 208.35 217.05C212.35 216.99 217.28 217.05 221.01 212.91C224.46 209.07 225.28 206.61 225.65 201.3C225.65 201.3 221.58 200.63 222.05 197.36C222.71 192.84 226.17 192.72 228.74 194.74L231.74 186.79C231.74 186.79 239.25 181.86 239.68 178.72C240.11 175.58 240.07 164.64 233.85 166.66Z" fill="#263238"/>
<path d="M258.6 288C252.44 280.46 246.73 273.7 246.73 273.7C246.99 283.56 248.01 292.1 248.01 292.1L250.94 322.61C251.136 324.758 250.554 326.904 249.3 328.658C248.047 330.413 246.205 331.659 244.11 332.17C224.98 336.79 202.59 338.1 190.05 329.49C188.439 328.368 187.125 326.872 186.219 325.13C185.313 323.389 184.844 321.453 184.85 319.49V293.49L181.56 258.55C181.253 253.047 181.755 247.528 183.05 242.17C184.388 237.681 187.079 233.713 190.754 230.808C194.43 227.904 198.913 226.204 203.59 225.94C210.51 225.55 218.26 224.94 225.2 224.85C233.37 224.715 241.349 227.324 247.86 232.26C258.08 240.02 265.8 257.84 273.02 269.19L292.79 245.34L309.14 255.78L286.8 288.78C285.001 290.767 282.793 292.341 280.328 293.394C277.863 294.447 275.2 294.954 272.52 294.88C269.841 294.805 267.21 294.152 264.807 292.965C262.404 291.777 260.286 290.084 258.6 288Z" fill="#16A34A"/>
<path d="M196.37 248.88C196.689 247.313 197.182 245.787 197.84 244.33C198.35 242.81 199.02 241.348 199.84 239.97C199.51 241.534 199.017 243.059 198.37 244.52C197.86 246.04 197.19 247.502 196.37 248.88Z" fill="#263238"/>
<path d="M219.12 260.28C217.332 258.571 215.793 256.618 214.55 254.48C216.338 256.189 217.876 258.142 219.12 260.28Z" fill="#263238"/>
<path d="M232.43 241.67C230.547 242.632 228.521 243.284 226.43 243.6C227.338 243.038 228.331 242.626 229.37 242.38C230.345 241.979 231.378 241.739 232.43 241.67Z" fill="#263238"/>
<path d="M198.66 273.32C198.941 272.062 199.398 270.85 200.02 269.72C200.478 268.517 201.093 267.381 201.85 266.34C201.558 267.595 201.101 268.806 200.49 269.94C200.035 271.144 199.419 272.281 198.66 273.32Z" fill="#263238"/>
<path d="M197.38 292.89C196.408 291.924 195.561 290.838 194.86 289.66C194.014 288.582 193.311 287.399 192.77 286.14C193.738 287.11 194.585 288.195 195.29 289.37C196.135 290.449 196.837 291.632 197.38 292.89Z" fill="#263238"/>
<path d="M228.1 285.67C226.706 286.487 225.232 287.157 223.7 287.67C222.231 288.334 220.696 288.841 219.12 289.18C220.503 288.35 221.976 287.679 223.51 287.18C224.98 286.51 226.519 286.003 228.1 285.67Z" fill="#263238"/>
<path d="M210.45 281.51C209.757 279.478 209.757 277.272 210.45 275.24C210.54 276.285 210.54 277.335 210.45 278.38C210.54 279.421 210.54 280.469 210.45 281.51Z" fill="#263238"/>
<path d="M237.29 274.74C236.385 273.214 235.712 271.563 235.29 269.84C234.698 268.163 234.361 266.407 234.29 264.63C234.43 264.63 234.96 266.91 235.8 269.69C236.382 271.347 236.879 273.033 237.29 274.74Z" fill="#263238"/>
<path d="M256.09 257.85C254.871 257.644 253.666 257.367 252.48 257.02C251.259 256.846 250.05 256.596 248.86 256.27C250.107 256.08 251.38 256.166 252.59 256.52C253.839 256.706 255.033 257.16 256.09 257.85Z" fill="#263238"/>
<path d="M264.81 271C263.651 271.633 262.414 272.11 261.13 272.42C259.9 272.898 258.612 273.211 257.3 273.35C259.686 272.232 262.212 271.442 264.81 271Z" fill="#263238"/>
<path d="M273 287.31C272.312 284.329 272.539 281.21 273.65 278.36C273.79 278.36 273.34 280.36 273.17 282.82C273 285.28 273.17 287.29 273 287.31Z" fill="#263238"/>
<path d="M288.17 274.3C287.196 273.591 286.258 272.834 285.36 272.03C283.79 270.82 282.36 270.03 282.43 269.89C283.63 270.208 284.739 270.8 285.67 271.62C286.704 272.303 287.561 273.221 288.17 274.3Z" fill="#263238"/>
<path d="M297.88 257.86C295.492 259.617 292.9 261.077 290.16 262.21C291.307 261.27 292.559 260.465 293.89 259.81C295.143 259.012 296.481 258.358 297.88 257.86Z" fill="#263238"/>
<path d="M237.25 307.35C237.467 305.83 237.859 304.34 238.42 302.91C238.808 301.428 239.365 299.995 240.08 298.64C239.863 300.16 239.471 301.65 238.91 303.08C238.517 304.561 237.96 305.993 237.25 307.35Z" fill="#263238"/>
<path d="M213.09 311.54C212.03 310.487 211.091 309.32 210.29 308.06C209.34 306.72 208.55 305.52 208.17 304.86L207.68 304L208.36 304.68C208.65 304.97 208.79 305.14 208.76 305.18C208.73 305.22 208.53 305.11 208.19 304.88L208.38 304.71C208.89 305.28 209.76 306.42 210.71 307.71C211.654 308.887 212.453 310.173 213.09 311.54Z" fill="#263238"/>
<path d="M225.26 310.24C225.792 311.791 226.164 313.393 226.37 315.02C226.739 316.621 226.94 318.257 226.97 319.9C226.427 318.348 226.052 316.742 225.85 315.11C225.476 313.513 225.278 311.88 225.26 310.24Z" fill="#263238"/>
<path d="M199.36 320.13C197.346 318.53 195.56 316.663 194.05 314.58C195.112 315.315 196.071 316.189 196.9 317.18C197.85 318.047 198.678 319.04 199.36 320.13Z" fill="#263238"/>
<path d="M219.63 330.15C217.309 330.496 214.951 330.496 212.63 330.15C214.951 329.804 217.309 329.804 219.63 330.15Z" fill="#263238"/>
<path d="M244 319.6C243.075 320.699 242.02 321.683 240.86 322.53C239.811 323.509 238.645 324.355 237.39 325.05C238.318 323.954 239.372 322.971 240.53 322.12C241.581 321.144 242.746 320.298 244 319.6Z" fill="#263238"/>
<path d="M110.11 384.44C110.732 382.622 110.865 380.672 110.495 378.787C110.124 376.902 109.264 375.147 108 373.7C106.704 372.281 105.137 371.135 103.393 370.328C101.648 369.521 99.7608 369.069 97.84 369C96.07 368.9 94.11 369.15 92.92 370.46C92.398 371.107 92.0579 371.882 91.9349 372.705C91.8119 373.528 91.9103 374.368 92.22 375.14C92.8638 376.67 93.8983 378.005 95.22 379.01C99.59 382.64 104.49 385.35 110.1 384.45" fill="#16A34A"/>
<path d="M119.1 389.71C120.284 385.836 122.374 382.3 125.196 379.394C128.019 376.489 131.492 374.297 135.33 373C137.28 372.36 139.76 372.1 141.09 373.66C142.42 375.22 141.77 377.66 140.78 379.45C138.648 383.188 135.458 386.212 131.61 388.139C127.762 390.067 123.43 390.811 119.16 390.28" fill="#16A34A"/>
<path opacity="0.3" d="M119.1 389.71C120.284 385.836 122.374 382.3 125.196 379.394C128.019 376.489 131.492 374.297 135.33 373C137.28 372.36 139.76 372.1 141.09 373.66C142.42 375.22 141.77 377.66 140.78 379.45C138.648 383.188 135.458 386.212 131.61 388.139C127.762 390.067 123.43 390.811 119.16 390.28" fill="white"/>
<path d="M121.71 338.51C120.075 339.039 118.563 339.893 117.266 341.02C115.969 342.147 114.912 343.525 114.16 345.07C112.664 348.189 111.904 351.611 111.94 355.07C111.81 361.7 114.64 368.79 117.94 374.55C124.09 370.48 126.47 362.27 127.42 358.03C128.92 351.33 127.56 338.3 121.71 338.55" fill="#16A34A"/>
<path d="M114.77 404.05C114.879 402.944 114.922 401.832 114.9 400.72C114.592 396.536 113.724 392.413 112.32 388.46C110.875 384.47 108.372 380.948 105.08 378.27C104.074 377.469 102.972 376.797 101.8 376.27C101.383 376.053 100.934 375.905 100.47 375.83C101.967 376.659 103.398 377.602 104.75 378.65C107.848 381.371 110.214 384.827 111.63 388.7C112.999 392.583 113.922 396.609 114.38 400.7" fill="#263238"/>
<path d="M114.75 404.16C114.94 402.56 115.18 400.47 115.47 397.95C116.06 392.7 116.9 385.45 117.93 377.45C118.96 369.45 120 362.23 120.75 357L121.64 350.81C121.783 350.055 121.86 349.289 121.87 348.52C121.636 349.251 121.462 350 121.35 350.76C121.06 352.21 120.68 354.32 120.23 356.92C119.34 362.13 118.23 369.35 117.23 377.36C116.23 385.37 115.45 392.63 114.99 397.89C114.76 400.53 114.59 402.66 114.5 404.14" fill="#263238"/>
<path d="M133.65 379.1C133.206 379.147 132.772 379.258 132.36 379.43C131.857 379.573 131.366 379.754 130.89 379.97C130.248 380.229 129.62 380.523 129.01 380.85C127.405 381.698 125.887 382.703 124.48 383.85C121.043 386.67 118.305 390.247 116.48 394.3C115.735 395.95 115.162 397.673 114.77 399.44C114.603 400.098 114.479 400.766 114.4 401.44C114.314 401.956 114.264 402.477 114.25 403C114.25 403.86 114.44 404.11 114.49 404.12C114.674 402.574 114.938 401.039 115.28 399.52C115.737 397.803 116.346 396.129 117.1 394.52C118.049 392.574 119.181 390.722 120.48 388.99C121.813 387.287 123.31 385.72 124.95 384.31C126.305 383.169 127.757 382.149 129.29 381.26C131.89 379.81 133.7 379.24 133.65 379.1Z" fill="#263238"/>
<path opacity="0.2" d="M110.11 384.44C110.732 382.622 110.865 380.672 110.495 378.787C110.124 376.902 109.264 375.147 108 373.7C106.704 372.281 105.137 371.135 103.393 370.328C101.648 369.521 99.7608 369.069 97.84 369C96.07 368.9 94.11 369.15 92.92 370.46C92.398 371.107 92.0579 371.882 91.9349 372.705C91.8119 373.528 91.9103 374.368 92.22 375.14C92.8638 376.67 93.8983 378.005 95.22 379.01C99.59 382.64 104.49 385.35 110.1 384.45" fill="black"/>
<path d="M97.34 402.83H131.59V415.63C131.587 420.172 129.781 424.526 126.569 427.736C123.357 430.947 119.001 432.75 114.46 432.75C109.92 432.747 105.567 430.943 102.357 427.733C99.1472 424.523 97.3426 420.17 97.34 415.63V402.83Z" fill="#455A64"/>
<path d="M131.56 411.07C131.115 411.117 130.665 411.117 130.22 411.07L126.57 410.96C123.49 410.86 119.24 410.73 114.57 410.65C109.9 410.57 105.57 410.56 102.57 410.56H98.92C98.4721 410.585 98.0228 410.562 97.58 410.49C98.0183 410.405 98.4636 410.362 98.91 410.36C99.77 410.31 101.02 410.25 102.56 410.21C105.65 410.12 109.91 410.07 114.62 410.15C119.33 410.23 123.62 410.42 126.62 410.62C128.16 410.71 129.4 410.81 130.26 410.89C130.698 410.903 131.134 410.964 131.56 411.07Z" fill="#263238"/>
<path d="M131.55 413C131.101 413.041 130.649 413.041 130.2 413L126.56 412.89C123.48 412.79 119.22 412.66 114.56 412.58C109.9 412.5 105.56 412.49 102.56 412.49H98.91C98.4621 412.515 98.0128 412.491 97.5699 412.42C98.0117 412.336 98.4603 412.293 98.91 412.29C99.77 412.24 101.02 412.18 102.56 412.14C105.64 412.05 109.9 412 114.56 412.08C119.22 412.16 123.56 412.35 126.56 412.55C128.1 412.64 129.35 412.74 130.21 412.82C130.662 412.831 131.111 412.891 131.55 413Z" fill="#263238"/>
</svg>
