<svg width="500" height="500" viewBox="0 0 500 500" fill="none" xmlns="http://www.w3.org/2000/svg">
<path d="M261.16 219.33L198.61 165.85L199.26 165.1L261.01 217.89L335.82 122.21L365.26 143.52L425.37 64.29L426.17 64.89L365.46 144.9L336.01 123.59L261.16 219.33Z" fill="#EBEBEB"/>
<path d="M44.1699 305.25C44.1699 305.92 43.9711 306.576 43.5986 307.133C43.2261 307.691 42.6966 308.125 42.0772 308.382C41.4577 308.639 40.7761 308.706 40.1185 308.575C39.4609 308.444 38.8569 308.121 38.3828 307.647C37.9087 307.173 37.5858 306.569 37.455 305.911C37.3242 305.254 37.3914 304.572 37.6479 303.953C37.9045 303.333 38.339 302.804 38.8965 302.431C39.454 302.059 40.1094 301.86 40.7799 301.86C41.679 301.86 42.5412 302.217 43.177 302.853C43.8127 303.489 44.1699 304.351 44.1699 305.25Z" fill="#EBEBEB"/>
<path d="M198.93 172.17C202.625 172.17 205.62 169.175 205.62 165.48C205.62 161.785 202.625 158.79 198.93 158.79C195.235 158.79 192.24 161.785 192.24 165.48C192.24 169.175 195.235 172.17 198.93 172.17Z" fill="#EBEBEB"/>
<path d="M41.1499 305.58L40.4099 304.91L113.34 224.35L129.82 238.68L195.54 167.98L196.27 168.66L129.89 240.07L113.42 225.75L41.1499 305.58Z" fill="#EBEBEB"/>
<path d="M426.08 70.39C430.896 70.39 434.8 66.4859 434.8 61.67C434.8 56.8541 430.896 52.95 426.08 52.95C421.264 52.95 417.36 56.8541 417.36 61.67C417.36 66.4859 421.264 70.39 426.08 70.39Z" fill="#EBEBEB"/>
<path d="M430.34 58.69C429.21 60.3245 427.935 61.854 426.53 63.26L425.09 64.82L424.94 64.98L424.77 64.85C423.701 64.1384 422.712 63.3136 421.82 62.39C422.965 62.968 424.047 63.6616 425.05 64.46H424.73L426.14 62.88C427.418 61.3662 428.823 59.9645 430.34 58.69Z" fill="white"/>
<path d="M144.07 150.23C144.92 143.99 136.13 138.87 129.52 138.33C126.37 138.08 123.1 138.56 120.11 137.52C113.64 135.27 111.11 126.91 104.75 124.25C100.03 122.25 94.59 124.03 90.02 126.33C85.45 128.63 80.92 131.53 75.81 131.86C71.37 132.14 66.54 130.49 62.65 132.67C59.75 134.28 58.23 137.67 55.56 139.59C52.89 141.51 49.56 141.93 46.3 142.11C43.04 142.29 39.7 142.32 36.74 143.67C33.78 145.02 31.35 148.14 31.96 151.33L144.07 150.23Z" fill="#EBEBEB"/>
<path d="M379.56 45.81C380.09 41.92 374.61 38.72 370.49 38.39C368.49 38.23 366.49 38.53 364.62 37.88C360.62 36.48 358.97 31.27 355.03 29.6C352.09 28.36 348.7 29.47 345.85 30.9C343 32.33 340.17 34.15 336.99 34.35C334.21 34.53 331.2 33.5 328.77 34.86C326.97 35.86 326.02 37.95 324.35 39.18C322.616 40.252 320.608 40.7943 318.57 40.74C316.526 40.7012 314.491 41.0402 312.57 41.74C310.73 42.58 309.21 44.53 309.57 46.52L379.56 45.81Z" fill="#F5F5F5"/>
<path d="M453.3 133.77C453.59 131.68 450.64 129.97 448.42 129.77C447.359 129.809 446.298 129.715 445.26 129.49C443.09 128.74 442.26 125.93 440.11 125.04C438.53 124.37 436.7 124.97 435.17 125.74C433.64 126.51 432.12 127.48 430.4 127.59C428.91 127.69 427.29 127.14 425.99 127.87C424.99 128.41 424.51 129.53 423.61 130.19C422.677 130.767 421.596 131.059 420.5 131.03C419.409 131.003 418.324 131.183 417.3 131.56C416.791 131.757 416.36 132.114 416.071 132.578C415.783 133.041 415.652 133.586 415.7 134.13L453.3 133.77Z" fill="#F5F5F5"/>
<path d="M120.91 79.92C121.19 77.83 118.24 76.11 116.03 75.92C114.969 75.9587 113.908 75.8646 112.87 75.64C110.7 74.89 109.87 72.08 107.72 71.19C106.13 70.52 104.31 71.12 102.78 71.89C101.25 72.66 99.7801 73.63 98.0101 73.74C96.5201 73.84 94.9001 73.29 93.6001 74.01C92.6001 74.56 92.1201 75.68 91.2201 76.34C90.2866 76.9153 89.2062 77.2072 88.1101 77.18C87.0194 77.1524 85.9335 77.3322 84.9101 77.71C84.3975 77.9092 83.9634 78.2695 83.6731 78.7365C83.3828 79.2035 83.2519 79.7522 83.3001 80.3L120.91 79.92Z" fill="#FAFAFA"/>
<path d="M140.75 293.07L160.59 248.99L180.97 236.75L193.63 209.2L229.99 217.71L257.11 300.9L215.13 321.53L180.97 342.36L140.75 293.07Z" fill="#F5F5F5"/>
<path d="M487.71 420.82L451.82 349.18L435.21 324.32L415.63 233.77L392.05 214.16L368.36 247.16L336 255.22L306.16 283.76L366.22 347.49L401.62 384.82L429.27 436.46L482.34 486.63C481.8 486.14 487.71 420.82 487.71 420.82Z" fill="#EBEBEB"/>
<path d="M18.48 492.87L22.14 444.25L41.69 413.86L54.49 356.02L77.76 342.36L106.51 294.01L133.89 275.48L190.7 331.66L228.2 291.27L257.11 300.9L245.2 315.71L215.13 321.53L155.9 373.18L109.84 398.57L97.56 420.75L70.91 424.65L18.48 492.87Z" fill="#EBEBEB"/>
<path d="M155.48 338.87C153.87 341.16 150.74 340.4 149.29 339C147.84 337.6 147.23 335.57 146.67 333.63C145.4 329.2 144.11 324.56 145.06 320.05C145.287 318.68 145.889 317.399 146.8 316.35C147.258 315.834 147.844 315.448 148.499 315.23C149.153 315.012 149.854 314.971 150.53 315.11C152.11 315.53 153.09 317.11 153.8 318.54C155.883 322.876 156.976 327.62 157 332.43C157.145 334.68 156.615 336.922 155.48 338.87Z" fill="#16A34A"/>
<g opacity="0.2">
<path d="M155.48 338.87C153.87 341.16 150.74 340.4 149.29 339C147.84 337.6 147.23 335.57 146.67 333.63C145.4 329.2 144.11 324.56 145.06 320.05C145.287 318.68 145.889 317.399 146.8 316.35C147.258 315.834 147.844 315.448 148.499 315.23C149.153 315.012 149.854 314.971 150.53 315.11C152.11 315.53 153.09 317.11 153.8 318.54C155.883 322.876 156.976 327.62 157 332.43C157.145 334.68 156.615 336.922 155.48 338.87Z" fill="black"/>
</g>
<path d="M149.45 350.5C146.753 349.235 143.721 348.867 140.8 349.45C139.203 349.592 137.7 350.265 136.53 351.36C135.46 352.54 135.26 354.61 136.53 355.62C137.319 356.156 138.27 356.4 139.22 356.31C141.51 356.31 144.04 355.88 145.87 357.25C146.87 358.04 147.6 359.34 148.87 359.73C149.494 359.864 150.145 359.796 150.727 359.536C151.31 359.275 151.794 358.835 152.11 358.28C152.707 357.137 152.84 355.808 152.48 354.57C152.325 353.703 151.971 352.884 151.445 352.178C150.919 351.471 150.236 350.897 149.45 350.5Z" fill="#16A34A"/>
<path d="M159.89 342.16C159.067 341.079 158.519 339.815 158.292 338.475C158.066 337.136 158.168 335.761 158.59 334.47C159.476 331.891 161.054 329.604 163.15 327.86C165.531 325.741 168.303 324.107 171.31 323.05C172.473 322.578 173.726 322.366 174.98 322.43C175.606 322.465 176.214 322.653 176.751 322.977C177.288 323.301 177.738 323.752 178.06 324.29C178.91 325.93 178.06 327.91 177.2 329.53C175.633 332.388 173.841 335.117 171.84 337.69C170.24 339.76 168.4 341.81 165.95 342.74C163.5 343.67 160.95 343.57 159.66 341.87" fill="#16A34A"/>
<path d="M155.59 373.52C155.507 373.192 155.457 372.858 155.44 372.52C155.37 371.76 155.27 370.8 155.16 369.67C155.019 368.267 154.805 366.871 154.52 365.49C154.148 363.808 153.64 362.159 153 360.56C152.379 358.96 151.53 357.458 150.48 356.1C149.635 354.987 148.547 354.081 147.3 353.45C146.456 353.03 145.552 352.747 144.62 352.61C144.282 352.593 143.947 352.543 143.62 352.46C143.972 352.423 144.328 352.423 144.68 352.46C145.646 352.528 146.592 352.772 147.47 353.18C148.782 353.797 149.932 354.711 150.83 355.85C151.925 357.23 152.804 358.767 153.44 360.41C154.086 362.03 154.591 363.703 154.95 365.41C155.221 366.808 155.408 368.22 155.51 369.64C155.6 370.85 155.63 371.83 155.65 372.51C155.656 372.848 155.635 373.185 155.59 373.52Z" fill="#263238"/>
<path d="M155.39 371.33C155.364 371.168 155.364 371.002 155.39 370.84V369.46C155.39 368.26 155.39 366.52 155.33 364.37C155.23 360.07 154.86 354.14 154.14 347.62C153.42 341.1 152.47 335.24 151.6 331.03C151.39 330.03 151.19 329.03 150.99 328.2C150.79 327.37 150.65 326.64 150.49 326.06C150.33 325.48 150.26 325.06 150.17 324.72C150.119 324.565 150.092 324.403 150.09 324.24C150.159 324.384 150.212 324.535 150.25 324.69C150.36 325.04 150.49 325.48 150.66 326.02C150.83 326.56 151.02 327.31 151.23 328.14C151.44 328.97 151.67 329.91 151.9 330.97C153.088 336.455 153.979 341.999 154.57 347.58C155.29 354.11 155.57 360.06 155.64 364.36C155.64 366.52 155.64 368.26 155.56 369.46C155.56 370.03 155.5 370.46 155.48 370.85C155.462 371.012 155.432 371.172 155.39 371.33Z" fill="#263238"/>
<path d="M155.36 359.86C155.325 359.377 155.325 358.893 155.36 358.41C155.36 357.48 155.54 356.14 155.8 354.49C156.12 352.564 156.547 350.658 157.08 348.78C157.713 346.472 158.511 344.213 159.47 342.02C161.123 337.986 163.495 334.286 166.47 331.1C166.986 330.554 167.537 330.043 168.12 329.57C168.37 329.35 168.6 329.14 168.83 328.97L169.47 328.53C169.852 328.238 170.256 327.977 170.68 327.75C169.274 328.853 167.939 330.042 166.68 331.31C163.799 334.522 161.486 338.201 159.84 342.19C158.897 344.369 158.095 346.607 157.44 348.89C156.81 350.99 156.44 352.89 156.08 354.54C155.72 356.19 155.61 357.54 155.51 358.42C155.496 358.903 155.446 359.384 155.36 359.86Z" fill="#263238"/>
<path d="M443.86 402.68C442.933 402.693 442.018 402.895 441.171 403.271C440.324 403.647 439.561 404.191 438.93 404.87C437.674 406.236 436.747 407.871 436.22 409.65C435.11 413.05 435.46 417.16 436.22 420.65C440.03 419.52 442.55 415.65 443.71 413.65C445.53 410.43 446.88 403.5 443.83 402.71" fill="#16A34A"/>
<path d="M430.27 424.76C430.932 423.965 431.374 423.009 431.549 421.989C431.725 420.969 431.628 419.921 431.27 418.95C430.894 417.985 430.33 417.105 429.61 416.36C428.891 415.615 428.031 415.02 427.08 414.61C426.664 414.372 426.202 414.229 425.725 414.191C425.247 414.153 424.768 414.221 424.32 414.39C423.933 414.614 423.612 414.936 423.391 415.324C423.169 415.713 423.055 416.153 423.06 416.6C423.089 417.5 423.355 418.376 423.83 419.14C425.32 421.81 427.25 424.14 430.25 424.76" fill="#16A34A"/>
<path d="M429.5 435.94C429.613 435.717 429.69 435.477 429.73 435.23C429.85 434.76 430.01 434.08 430.19 433.23C430.688 431.023 430.89 428.76 430.79 426.5C430.669 424.217 429.933 422.009 428.66 420.11C428.264 419.546 427.8 419.032 427.28 418.58C427.103 418.395 426.893 418.246 426.66 418.14C427.303 418.802 427.891 419.514 428.42 420.27C429.603 422.155 430.291 424.308 430.42 426.53C430.514 428.758 430.353 430.989 429.94 433.18C429.737 434.09 429.59 435.012 429.5 435.94Z" fill="#263238"/>
<path d="M442.23 407.84C441.989 408.176 441.782 408.534 441.61 408.91C441.23 409.62 440.7 410.64 440.06 411.91C438.78 414.45 437.06 418 435.28 421.96C433.5 425.92 431.96 429.55 430.9 432.2C430.36 433.52 429.9 434.59 429.67 435.34C429.504 435.718 429.37 436.109 429.27 436.51C429.486 436.159 429.667 435.787 429.81 435.4L431.16 432.31C432.29 429.69 433.86 426.09 435.65 422.13C437.44 418.17 439.11 414.61 440.32 412.03L441.75 408.97C441.937 408.606 442.098 408.228 442.23 407.84Z" fill="#263238"/>
<path d="M434.5 428.79C435.686 426.954 437.292 425.428 439.186 424.337C441.08 423.247 443.207 422.624 445.39 422.52C446.49 422.52 447.82 422.71 448.28 423.71C448.74 424.71 448.04 425.88 447.28 426.71C445.621 428.332 443.52 429.427 441.241 429.858C438.962 430.288 436.606 430.035 434.47 429.13" fill="#16A34A"/>
<path d="M443.74 425.44C443.501 425.405 443.259 425.405 443.02 425.44C442.736 425.438 442.451 425.458 442.17 425.5C441.798 425.531 441.427 425.581 441.06 425.65C440.104 425.829 439.169 426.107 438.27 426.48C437.163 426.936 436.11 427.513 435.13 428.2C434.164 428.904 433.276 429.708 432.48 430.6C431.837 431.334 431.271 432.131 430.79 432.98C430.599 433.302 430.428 433.636 430.28 433.98C430.152 434.231 430.045 434.491 429.96 434.76C429.861 434.98 429.79 435.212 429.75 435.45C429.83 435.45 430.17 434.51 431.03 433.13C431.534 432.317 432.113 431.554 432.76 430.85C434.336 429.128 436.262 427.764 438.41 426.85C439.284 426.47 440.191 426.172 441.12 425.96C442.71 425.53 443.74 425.52 443.74 425.44Z" fill="#263238"/>
<path d="M357.55 447.22C357.357 447.237 357.163 447.237 356.97 447.22L355.3 447.27L349.09 447.35L328.09 447.43L328.29 447.34L324.61 451.82L308.71 471.06L303.84 476.85L302.5 478.41C302.353 478.601 302.185 478.775 302 478.93C302.124 478.722 302.264 478.525 302.42 478.34L303.69 476.72L308.42 470.83L324.21 451.49C325.47 449.96 326.71 448.49 327.89 447.01L327.97 446.92H328.09L349.09 447.01L355.3 447.09H356.97C357.168 447.111 357.362 447.155 357.55 447.22Z" fill="#263238"/>
<path d="M251.53 403L189.38 400.96L172.16 423.26L144.88 435.4L130.07 466.83L147.31 446.82L180.49 441.26L204.12 416.63L251.53 403Z" fill="#F5F5F5"/>
<path d="M18.48 492.87C18.48 492.87 18.77 492.46 19.37 491.67L22.03 488.17L32.34 474.67C41.34 462.92 54.43 445.85 70.77 424.55V424.49H70.84L97.49 420.57L97.35 420.66C101.2 413.66 105.35 406.23 109.61 398.47H109.67L155.67 373.06L215 321.34H215.05H215.12L245.18 315.52L245.03 315.61L260.35 296.54L274.85 278.54L274.95 278.42H275.11L307.84 285.7H307.92L307.97 285.76L401.78 384.76C412.18 404.24 421.43 421.54 429.38 436.42L468.38 473.42L478.74 483.27L481.4 485.82C482 486.39 482.29 486.69 482.29 486.69L481.37 485.85L478.68 483.34L468.26 473.54L429.1 436.64L401.42 385.01L307.55 286.11L307.68 286.19L275 278.87L275.26 278.78L260.76 296.78L245.4 315.87L245.34 315.95H245.25L215.18 321.76L215.3 321.7L156.05 373.34L109.98 398.7L110.07 398.62L97.77 420.8V420.88H97.67L71.01 424.77L71.12 424.7C54.74 445.97 41.61 463 32.57 474.7L22.11 488.23L19.41 491.7C18.8 492.48 18.48 492.87 18.48 492.87Z" fill="#263238"/>
<path d="M257.11 402.23L256.86 402.32L256.1 402.55L253.17 403.39L242.17 406.46L204.17 416.87L204.29 416.81C199.61 421.68 194.55 426.96 189.29 432.42L180.64 441.42L180.58 441.48H180.5L147.35 447L147.47 446.93L132.93 463.66L128.93 468.25L127.86 469.44C127.62 469.7 127.48 469.83 127.48 469.83C127.48 469.83 127.59 469.68 127.82 469.4C128.05 469.12 128.4 468.69 128.82 468.17C129.74 467.07 131.07 465.51 132.76 463.51L147.17 446.66L147.22 446.6H147.29L180.45 441L180.31 441.07C183.12 438.14 186.01 435.13 188.95 432.07L203.95 416.47H204H204.06L242.06 406.23L253.06 403.31L256.06 402.55L256.82 402.36L257.11 402.23Z" fill="#263238"/>
<path d="M332.18 381C332.18 381.14 318.66 381.26 301.98 381.26C285.3 381.26 271.77 381.14 271.77 381C271.77 380.86 285.29 380.74 301.98 380.74C318.67 380.74 332.18 380.89 332.18 381Z" fill="#263238"/>
<path d="M337.22 220C337.22 220 337.15 214.31 336.91 214.27L325.22 216.87C325.1 217.61 323.63 226.94 323.88 227.87L337 231.5C337 231.5 337.22 220.33 337.22 220Z" fill="#FFBE9D"/>
<path d="M337.23 230.63C337.23 230.63 337.23 230.53 337.29 230.38C337.43 229.1 337.29 223.54 336.67 223.31C336.05 223.08 334.01 223.47 333.87 224.21C333.73 224.95 334.19 231.21 334.19 231.21C334.19 231.21 334.32 232.21 335.98 232.43C337 232.57 337.23 230.63 337.23 230.63Z" fill="#FFBE9D"/>
<path d="M333.9 232.63C333.9 232.63 333.9 232.53 333.96 232.38C334.09 231.1 334.01 225.54 333.33 225.31C332.65 225.08 330.67 225.47 330.54 226.21C330.41 226.95 330.85 233.21 330.85 233.21C330.85 233.21 330.99 234.21 332.65 234.43C333.67 234.57 333.9 232.63 333.9 232.63Z" fill="#FFBE9D"/>
<path d="M330.64 233.63C330.64 233.63 330.64 233.53 330.69 233.37C330.83 232.1 330.75 226.54 330.07 226.3C329.39 226.06 327.41 226.47 327.28 227.2C327.15 227.93 327.59 234.2 327.59 234.2C327.59 234.2 327.73 235.2 329.38 235.43C330.41 235.57 330.64 233.63 330.64 233.63Z" fill="#FFBE9D"/>
<path d="M327.39 234.57C327.39 234.57 327.39 234.47 327.45 234.31C327.58 233.04 327.5 227.48 326.82 227.24C326.14 227 324.16 227.41 324.03 228.14C323.9 228.87 324.35 235.14 324.35 235.14C324.35 235.14 324.48 236.14 326.14 236.37C327.16 236.5 327.39 234.57 327.39 234.57Z" fill="#FFBE9D"/>
<path d="M333.85 225.83C334.044 226.72 334.131 227.629 334.11 228.54C334.2 229.433 334.17 230.335 334.02 231.22C333.826 230.33 333.739 229.42 333.76 228.51C333.669 227.617 333.699 226.715 333.85 225.83Z" fill="#EB996E"/>
<path d="M330.57 225.81C330.893 228.367 330.983 230.947 330.84 233.52C330.628 232.248 330.525 230.96 330.53 229.67C330.428 228.385 330.441 227.093 330.57 225.81Z" fill="#EB996E"/>
<g opacity="0.78">
<path d="M327.24 226.09C327.563 228.647 327.654 231.227 327.51 233.8C327.298 232.528 327.195 231.24 327.2 229.95C327.098 228.665 327.111 227.373 327.24 226.09Z" fill="#EB996E"/>
</g>
<path d="M325.15 217.18C325.15 217.18 320.52 227.69 321.2 228.34C322.073 228.99 323.011 229.546 324 230L325.15 217.18Z" fill="#FFBE9D"/>
<path d="M299.56 76.18L296.17 115.49L276.48 113.92C276.36 111.62 276.48 102.73 276.48 102.73C276.48 102.73 268.29 101.45 268.19 93.26C268.14 89.26 268.71 81.06 269.31 73.65C269.627 69.6993 271.48 66.0303 274.472 63.43C277.463 60.8296 281.354 59.5049 285.31 59.74C287.336 59.8529 289.319 60.3717 291.141 61.2655C292.962 62.1594 294.586 63.4101 295.915 64.9435C297.244 66.4769 298.252 68.2617 298.878 70.1919C299.504 72.1221 299.736 74.1584 299.56 76.18Z" fill="#FFBE9D"/>
<path d="M276.51 102.61C280.289 102.695 284.008 101.65 287.19 99.61C287.19 99.61 284.67 105.51 276.49 104.77L276.51 102.61Z" fill="#EB996E"/>
<path d="M272.52 79.39C272.52 79.6955 272.637 79.9894 272.847 80.2109C273.057 80.4325 273.345 80.5646 273.65 80.58C273.951 80.5992 274.247 80.4985 274.474 80.2998C274.701 80.1012 274.839 79.8208 274.86 79.52C274.863 79.2148 274.746 78.9205 274.535 78.7001C274.324 78.4796 274.035 78.3504 273.73 78.34C273.581 78.3277 273.432 78.3453 273.29 78.3918C273.148 78.4382 273.017 78.5125 272.904 78.6103C272.791 78.7081 272.699 78.8275 272.633 78.9614C272.567 79.0953 272.529 79.241 272.52 79.39Z" fill="#263238"/>
<path d="M271.1 77.78C271.24 77.94 272.1 77.28 273.39 77.28C274.68 77.28 275.57 77.92 275.71 77.76C275.85 77.6 275.63 77.42 275.22 77.13C274.684 76.7494 274.043 76.5449 273.385 76.5449C272.728 76.5449 272.086 76.7494 271.55 77.13C271.16 77.44 271 77.71 271.1 77.78Z" fill="#263238"/>
<path d="M284.61 79.4C284.61 79.7045 284.727 79.9973 284.938 80.2172C285.148 80.4371 285.436 80.5671 285.74 80.58C285.889 80.5908 286.038 80.5719 286.179 80.5242C286.321 80.4765 286.451 80.4011 286.563 80.3024C286.675 80.2036 286.766 80.0836 286.83 79.9492C286.895 79.8149 286.932 79.6689 286.94 79.52C286.945 79.2157 286.831 78.9215 286.621 78.7007C286.412 78.48 286.124 78.3504 285.82 78.34C285.67 78.3277 285.52 78.3457 285.377 78.3927C285.235 78.4397 285.103 78.5149 284.99 78.6138C284.878 78.7127 284.786 78.8332 284.72 78.9683C284.655 79.1033 284.617 79.2501 284.61 79.4Z" fill="#263238"/>
<path d="M283.47 78C283.62 78.15 284.47 77.49 285.76 77.5C287.05 77.51 287.94 78.13 288.08 77.98C288.22 77.83 288 77.63 287.6 77.34C287.052 76.9651 286.404 76.7663 285.74 76.77C285.085 76.7628 284.446 76.97 283.92 77.36C283.53 77.67 283.4 78 283.47 78Z" fill="#263238"/>
<path d="M278.9 87.35C278.25 87.1489 277.579 87.0247 276.9 86.98C276.58 86.98 276.27 86.89 276.22 86.67C276.181 86.3228 276.255 85.9722 276.43 85.67C276.74 84.89 277.05 84.07 277.43 83.22C278.31 81.1471 279.022 79.0069 279.56 76.82C278.51 78.8146 277.623 80.8915 276.91 83.03C276.6 83.89 276.29 84.71 276 85.49C275.799 85.8777 275.742 86.3243 275.84 86.75C275.884 86.8651 275.956 86.9678 276.048 87.0496C276.14 87.1314 276.251 87.1898 276.37 87.22C276.545 87.2731 276.727 87.3 276.91 87.3C277.569 87.3995 278.237 87.4163 278.9 87.35Z" fill="#263238"/>
<path d="M282.61 88.22C282.4 88.22 282.4 89.58 281.23 90.55C280.06 91.52 278.61 91.37 278.6 91.55C278.59 91.73 278.92 91.81 279.54 91.83C280.341 91.8414 281.121 91.5686 281.74 91.06C282.335 90.5779 282.716 89.8809 282.8 89.12C282.85 88.55 282.7 88.22 282.61 88.22Z" fill="#263238"/>
<path d="M283.15 73.08C283.27 73.43 284.53 73.26 286.01 73.44C287.49 73.62 288.68 74.02 288.87 73.72C289.06 73.42 288.75 73.25 288.27 72.92C287.632 72.5067 286.906 72.2497 286.15 72.17C285.393 72.085 284.627 72.1739 283.91 72.43C283.37 72.65 283.09 72.92 283.15 73.08Z" fill="#263238"/>
<path d="M271.56 74.14C271.78 74.43 272.65 74.14 273.69 74.14C274.73 74.14 275.62 74.33 275.82 74.03C276.02 73.73 275.77 73.6 275.39 73.33C274.87 73.0062 274.267 72.843 273.655 72.8608C273.043 72.8786 272.45 73.0766 271.95 73.43C271.59 73.71 271.46 74 271.56 74.14Z" fill="#263238"/>
<path d="M305.35 65.69C305.4 64.925 305.166 64.1684 304.691 63.5663C304.216 62.9642 303.536 62.5594 302.78 62.43C303.103 61.6952 303.184 60.8766 303.011 60.0928C302.838 59.309 302.419 58.6006 301.817 58.0704C301.214 57.5402 300.458 57.2155 299.659 57.1435C298.859 57.0715 298.058 57.2559 297.37 57.67C297.138 56.7797 296.662 55.9723 295.993 55.3399C295.325 54.7075 294.493 54.2755 293.592 54.0931C292.69 53.9107 291.755 53.9852 290.894 54.3082C290.033 54.6312 289.279 55.1897 288.72 55.92C288.143 55.236 287.399 54.7124 286.561 54.4C285.722 54.0876 284.817 53.9969 283.933 54.1367C283.049 54.2765 282.216 54.642 281.515 55.1979C280.814 55.7538 280.268 56.4813 279.93 57.31C279.315 56.7905 278.597 56.4068 277.824 56.1842C277.05 55.9616 276.238 55.9051 275.441 56.0185C274.644 56.1318 273.88 56.4123 273.199 56.8417C272.518 57.2711 271.936 57.8397 271.49 58.51C270.593 58.1875 269.643 58.0349 268.69 58.06C268.075 58.0757 267.476 58.2579 266.956 58.5872C266.437 58.9166 266.016 59.3806 265.74 59.93C265.562 60.4003 265.548 60.917 265.7 61.3963C265.853 61.8755 266.163 62.2891 266.58 62.57C266.222 62.4547 265.844 62.4148 265.47 62.453C265.095 62.4913 264.733 62.6067 264.406 62.792C264.079 62.9773 263.793 63.2285 263.568 63.5297C263.343 63.8309 263.182 64.1755 263.097 64.5419C263.011 64.9082 263.003 65.2883 263.072 65.658C263.141 66.0278 263.286 66.3792 263.498 66.6901C263.71 67.001 263.983 67.2646 264.302 67.4643C264.621 67.6639 264.978 67.7952 265.35 67.85C265.088 67.9839 264.869 68.1892 264.718 68.4422C264.568 68.6953 264.492 68.9857 264.5 69.28C264.611 69.7684 264.846 70.2199 265.183 70.5912C265.519 70.9625 265.945 71.241 266.42 71.4C268.841 72.2753 271.498 72.2326 273.89 71.28C276.31 70.47 278.55 69.2 280.95 68.28C283.35 67.36 287.36 65.83 289.77 66.68C290.124 66.8068 290.46 66.9782 290.77 67.19C292.065 68.2222 292.916 69.7105 293.15 71.35C293.155 71.4032 293.155 71.4568 293.15 71.51C293.47 73.85 293.42 76.22 293.76 78.51C293.982 80.8755 294.993 83.0978 296.63 84.82C297.34 85.48 298.63 85.94 299.18 85.16C299.383 84.8409 299.484 84.4678 299.47 84.09C299.79 80.02 300.67 76.28 301.14 72.3C301.742 71.2947 302.49 70.3847 303.36 69.6C304.467 68.5745 305.172 67.1884 305.35 65.69Z" fill="#263238"/>
<path d="M280.93 61.57C280.788 61.2252 280.75 60.8463 280.82 60.48C280.908 59.4519 281.375 58.4932 282.13 57.79C282.703 57.2729 283.406 56.9208 284.163 56.7712C284.92 56.6215 285.703 56.6798 286.43 56.94C286.872 57.0849 287.278 57.3209 287.622 57.6327C287.967 57.9445 288.242 58.3251 288.43 58.75C288.62 59.2322 288.641 59.7643 288.49 60.26C288.417 60.5252 288.283 60.7698 288.099 60.9746C287.915 61.1793 287.686 61.3386 287.43 61.44C287.171 61.5428 286.89 61.5802 286.613 61.5488C286.335 61.5174 286.07 61.4182 285.84 61.26C285.626 61.0893 285.46 60.8659 285.358 60.6117C285.257 60.3575 285.223 60.0812 285.26 59.81C285.309 59.3091 285.544 58.8448 285.92 58.51C286.266 58.2033 286.676 57.9778 287.12 57.85C287.853 57.6265 288.627 57.5743 289.383 57.6974C290.139 57.8205 290.856 58.1156 291.48 58.56C291.965 58.9105 292.334 59.398 292.54 59.96C292.685 60.3851 292.709 60.842 292.61 61.28C292.42 62 292.01 62.22 292.01 62.2C292.208 61.8962 292.344 61.5564 292.41 61.2C292.468 60.8012 292.419 60.3943 292.27 60.02C292.056 59.5338 291.71 59.1179 291.27 58.82C290.686 58.4365 290.025 58.1874 289.333 58.0905C288.641 57.9937 287.937 58.0516 287.27 58.26C286.897 58.3487 286.557 58.543 286.291 58.8196C286.025 59.0962 285.844 59.4435 285.77 59.82C285.741 60.0063 285.762 60.1968 285.831 60.3724C285.899 60.548 286.013 60.7024 286.16 60.82C286.319 60.9267 286.501 60.9926 286.691 61.0118C286.881 61.031 287.073 61.0029 287.25 60.93C287.604 60.753 287.876 60.4465 288.011 60.0741C288.145 59.7017 288.13 59.292 287.97 58.93C287.806 58.5684 287.57 58.2442 287.276 57.9776C286.982 57.7109 286.636 57.5076 286.26 57.38C285.608 57.1439 284.905 57.0815 284.221 57.1989C283.538 57.3164 282.896 57.6097 282.36 58.05C281.642 58.6884 281.162 59.5525 281 60.5C280.91 61.18 281 61.57 280.93 61.57Z" fill="#455A64"/>
<path d="M290.88 56.34C291.116 56.2497 291.367 56.2023 291.62 56.2C292.306 56.1339 292.998 56.1541 293.68 56.26C294.73 56.4077 295.701 56.9002 296.44 57.66C296.91 58.145 297.206 58.7714 297.284 59.4421C297.362 60.1128 297.216 60.7904 296.87 61.37C296.748 61.5597 296.6 61.7314 296.43 61.88L296.16 61.44C296.482 61.325 296.827 61.2887 297.166 61.3339C297.506 61.3791 297.829 61.5046 298.11 61.7C298.638 62.0345 299.015 62.5619 299.16 63.17C299.261 63.6617 299.256 64.1692 299.145 64.6588C299.035 65.1485 298.822 65.609 298.52 66.01C298.135 66.527 297.661 66.9707 297.12 67.32C296.74 67.57 296.52 67.67 296.5 67.64C296.48 67.61 296.67 67.46 297 67.17C297.471 66.7762 297.885 66.3184 298.23 65.81C298.474 65.4435 298.642 65.0312 298.723 64.5981C298.804 64.165 298.796 63.72 298.7 63.29C298.576 62.8029 298.268 62.3832 297.84 62.12C297.624 61.9732 297.377 61.8787 297.118 61.844C296.86 61.8093 296.597 61.8353 296.35 61.92L295.01 62.46L296.09 61.46C296.224 61.3428 296.342 61.2083 296.44 61.06C296.741 60.5662 296.858 59.9817 296.77 59.41C296.69 58.8684 296.45 58.3632 296.08 57.96C295.419 57.2598 294.555 56.7842 293.61 56.6C292 56.3 290.88 56.45 290.88 56.34Z" fill="#455A64"/>
<path d="M302.74 65C302.8 65 302.95 65.28 302.95 65.78C302.94 66.4543 302.687 67.1023 302.237 67.6042C301.786 68.1061 301.169 68.4279 300.5 68.51C300 68.51 299.7 68.45 299.71 68.38C300.504 68.1872 301.239 67.8026 301.85 67.26C302.331 66.5929 302.637 65.8159 302.74 65Z" fill="#455A64"/>
<path d="M267.75 60.74C267.957 60.4754 268.22 60.2602 268.52 60.11C269.524 59.5533 270.681 59.3345 271.819 59.4857C272.957 59.637 274.016 60.1504 274.84 60.95C275.152 61.2387 275.401 61.5881 275.573 61.9767C275.745 62.3654 275.836 62.785 275.84 63.21C275.812 63.7051 275.591 64.1695 275.224 64.504C274.858 64.8385 274.376 65.0165 273.88 65C273.623 64.9704 273.379 64.8721 273.173 64.7155C272.967 64.5589 272.807 64.3497 272.71 64.11C272.519 63.6782 272.487 63.193 272.62 62.74C272.748 62.3262 272.977 61.9507 273.286 61.6471C273.595 61.3434 273.974 61.1211 274.39 61C275.105 60.7492 275.885 60.7492 276.6 61C277.202 61.2211 277.753 61.5612 278.22 62C278.877 62.6241 279.425 63.3543 279.84 64.16C280.016 64.4379 280.147 64.7416 280.23 65.06C280.016 64.8114 279.825 64.5436 279.66 64.26C279.202 63.5139 278.636 62.8399 277.98 62.26C277.53 61.8354 276.977 61.5341 276.376 61.3852C275.776 61.2363 275.147 61.2448 274.55 61.41C274.216 61.5115 273.911 61.6916 273.66 61.9352C273.41 62.1787 273.221 62.4787 273.11 62.81C272.92 63.47 273.23 64.37 273.93 64.42C274.279 64.4134 274.614 64.2763 274.867 64.0358C275.121 63.7952 275.275 63.4686 275.3 63.12C275.297 62.767 275.224 62.418 275.085 62.0935C274.946 61.7691 274.744 61.4755 274.49 61.23C273.594 60.3298 272.389 59.8042 271.12 59.76C270.257 59.7196 269.397 59.884 268.61 60.24C268.333 60.4235 268.046 60.5904 267.75 60.74Z" fill="#455A64"/>
<path d="M296.8 79.88C296.94 79.82 302.43 78.22 302.25 83.82C302.07 89.42 296.49 88.08 296.48 87.92C296.47 87.76 296.8 79.88 296.8 79.88Z" fill="#FFBE9D"/>
<path d="M298.26 85.86C298.26 85.86 298.36 85.93 298.52 86.01C298.755 86.102 299.015 86.102 299.25 86.01C299.617 85.7909 299.92 85.4784 300.127 85.1042C300.335 84.7301 300.439 84.3076 300.43 83.88C300.458 83.3997 300.383 82.919 300.21 82.47C300.161 82.2946 300.071 82.1333 299.948 81.9995C299.824 81.8656 299.671 81.763 299.5 81.7C299.388 81.6639 299.267 81.6693 299.159 81.7152C299.05 81.7611 298.962 81.8444 298.91 81.95C298.83 82.1 298.86 82.21 298.83 82.22C298.8 82.23 298.72 82.13 298.77 81.9C298.806 81.7612 298.887 81.6381 299 81.55C299.158 81.4427 299.351 81.3997 299.54 81.43C299.77 81.4822 299.982 81.5923 300.157 81.7499C300.332 81.9074 300.464 82.1071 300.54 82.33C300.759 82.823 300.855 83.3617 300.82 83.9C300.833 84.3992 300.697 84.891 300.43 85.313C300.163 85.7349 299.777 86.068 299.32 86.27C299.17 86.3077 299.013 86.312 298.861 86.2826C298.709 86.2532 298.565 86.1909 298.44 86.1C298.27 86 298.24 85.87 298.26 85.86Z" fill="#EB996E"/>
<path d="M262.07 352.08L265.71 368.84C265.71 368.84 249.9 378.16 250.27 381.32L283 375.44L278.4 349.1L262.07 352.08Z" fill="#263238"/>
<path d="M283 375.44L282.43 372.8L251.25 379.43C251.25 379.43 249.91 380.33 250.25 381.32L283 375.44Z" fill="#455A64"/>
<path d="M299.31 353.92L299.85 371.06C299.85 371.06 282.61 377.37 282.4 380.54L315.67 380.69L315.92 353.95L299.31 353.92Z" fill="#263238"/>
<g opacity="0.6">
<path d="M315.67 380.69L315.59 377.99L283.72 378.86C283.72 378.86 282.24 379.5 282.4 380.54L315.67 380.69Z" fill="#455A64"/>
</g>
<path d="M260.27 366.45C260.27 366.45 243.27 282.8 243.21 281.12L273.67 265L285.47 363.17L260.27 366.45Z" fill="#263238"/>
<path d="M298.64 369.26L275.08 224.26V193L307.26 196C307.67 197.22 318.2 369.47 318.2 369.47L314.88 369.28H298.64" fill="#263238"/>
<path d="M256.56 190.78L243.21 281.12L273.06 273.88L285.23 193.72L256.56 190.78Z" fill="#263238"/>
<path d="M284.18 198.44C284.18 198.44 284.18 198.59 284.18 198.88L284.32 200.18C284.45 201.33 284.64 203.01 284.89 205.18C285.4 209.5 286.17 215.75 287.17 223.47C289.17 238.9 292.17 260.18 295.43 283.7C297.05 295.47 298.54 306.7 299.81 316.89C300.14 319.44 300.4 321.94 300.81 324.35C301.22 326.76 301.54 329.1 301.88 331.35C302.57 335.87 303.21 340.09 303.79 343.93C304.95 351.63 305.86 357.86 306.46 362.17C306.76 364.32 306.98 365.99 307.11 367.17C307.18 367.74 307.22 368.17 307.24 368.47C307.25 368.58 307.25 368.69 307.24 368.8C307.24 368.89 307.19 368.8 307.19 368.8C307.19 368.8 307.26 368.8 307.25 368.8C307.262 368.687 307.262 368.573 307.25 368.46C307.25 368.17 307.25 367.73 307.16 367.16C307.06 366.02 306.86 364.34 306.59 362.16C306.04 357.85 305.17 351.61 304.05 343.91C303.48 340.06 302.86 335.84 302.19 331.32C301.85 329.06 301.497 326.727 301.13 324.32C300.78 321.91 300.53 319.41 300.2 316.86C298.96 306.65 297.48 295.43 295.86 283.67C292.61 260.15 289.54 238.87 287.48 223.45C286.48 215.75 285.64 209.51 285.07 205.18L284.42 200.18C284.35 199.62 284.29 199.18 284.25 198.89C284.21 198.6 284.18 198.44 284.18 198.44Z" fill="#455A64"/>
<path d="M266.22 365.68C266.22 365.68 266.22 365.53 266.17 365.25L266 364C265.81 362.89 265.54 361.27 265.18 359.19C264.45 355 263.39 348.96 262.08 341.51L251.7 283.19C251.393 281.802 251.309 280.374 251.45 278.96C251.63 277.56 251.86 276.15 252.07 274.76C252.503 271.98 252.927 269.24 253.34 266.54C254.19 261.15 255.02 255.96 255.85 251.02C257.49 241.13 259.08 232.25 260.5 224.8C261.92 217.35 263.16 211.35 264.11 207.22C264.56 205.15 264.97 203.55 265.22 202.47C265.34 201.94 265.43 201.47 265.5 201.23C265.57 200.99 265.59 200.81 265.59 200.81C265.59 200.81 265.54 200.94 265.46 201.22C265.38 201.5 265.28 201.92 265.14 202.45C264.86 203.53 264.43 205.12 263.96 207.18C262.96 211.31 261.67 217.31 260.21 224.75C258.75 232.19 257.14 241.07 255.48 250.95C254.64 255.9 253.8 261.09 252.94 266.48C252.52 269.17 252.1 271.92 251.66 274.7C251.46 276.1 251.23 277.48 251.04 278.92C250.902 280.375 250.989 281.842 251.3 283.27C255.4 306.02 259.11 326.63 261.8 341.56C263.16 349 264.26 355.03 265.02 359.22L265.92 364.02C266.03 364.55 266.11 364.97 266.17 365.26C266.23 365.55 266.22 365.68 266.22 365.68Z" fill="#455A64"/>
<path d="M275.08 223.24C274.97 223.24 276.36 232.63 278.19 244.16C280.02 255.69 281.59 265 281.7 265C281.81 265 280.42 255.61 278.59 244.08C276.76 232.55 275.19 223.22 275.08 223.24Z" fill="#455A64"/>
<path d="M298.35 369C298.602 369.07 298.86 369.113 299.12 369.13C299.62 369.19 300.35 369.26 301.24 369.33C303.03 369.47 305.51 369.6 308.24 369.65C310.97 369.7 313.46 369.65 315.24 369.56C316.14 369.56 316.87 369.48 317.37 369.43C317.631 369.433 317.891 369.396 318.14 369.32C317.176 369.239 316.207 369.223 315.24 369.27C313.44 369.27 310.97 369.27 308.24 369.27C305.51 369.27 303.03 369.13 301.24 369.07C300.279 368.981 299.314 368.957 298.35 369Z" fill="#455A64"/>
<path d="M260.27 366.45C260.604 366.471 260.94 366.454 261.27 366.4L263.98 366.12C266.27 365.85 269.42 365.47 272.9 365.01C276.38 364.55 279.52 364.13 281.79 363.8L284.49 363.39C284.83 363.361 285.165 363.294 285.49 363.19C285.158 363.155 284.822 363.155 284.49 363.19L281.78 363.47C279.49 363.73 276.34 364.12 272.86 364.57C269.38 365.02 266.24 365.45 263.96 365.79L261.27 366.2C260.929 366.248 260.594 366.331 260.27 366.45Z" fill="#455A64"/>
<path d="M109 50.42C109 50.42 122.22 45.26 131.25 47.84C140.28 50.42 143 56 149.77 55.55C155.15 55.17 158.96 52.84 160.9 47.12C162.84 41.4 162.84 34.26 181.21 34.94C195.27 35.46 196.69 37.52 196.69 37.52L198.2 74.93C190.2 73.67 182.1 72.76 173.37 73.99C171.238 74.4512 169.303 75.5662 167.835 77.1795C166.367 78.7928 165.439 80.8241 165.18 82.99C164.18 90.99 155.95 94.09 151.03 94.09C144.03 94.09 140.43 89.33 134.46 87.95C125.09 85.78 109 92.34 109 92.34V50.42Z" fill="#16A34A"/>
<path d="M203.92 128.63L195.84 128.06L196.05 140.74L204.72 147.07L205.6 146.75L206.1 132.33L203.92 128.63Z" fill="#EB996E"/>
<path d="M159.51 79.25C159.37 79.25 159.13 73.05 158.98 65.4C158.83 57.75 158.83 51.54 158.98 51.54C159.13 51.54 159.36 57.73 159.51 65.39C159.66 73.05 159.65 79.24 159.51 79.25Z" fill="#263238"/>
<path d="M144.71 63C144.86 63 144.97 69.41 144.97 77.3C144.97 85.19 144.86 91.61 144.71 91.61C144.56 91.61 144.45 85.2 144.45 77.3C144.45 69.4 144.57 63 144.71 63Z" fill="#263238"/>
<g opacity="0.2">
<path d="M144.71 85.3C144.61 88.17 144.71 91.98 144.71 91.98C146.81 93.38 151.14 94.23 153.55 93.48H153.62C155.214 92.9698 156.649 92.0576 157.787 90.8316C158.926 89.6055 159.729 88.1068 160.12 86.48C160.416 85.3959 160.544 84.2729 160.5 83.15C159.7 73.64 158.67 61.79 158.97 52.25C156.978 53.9338 154.603 55.1019 152.054 55.6512C149.504 56.2006 146.858 56.1143 144.35 55.4L144.71 85.3Z" fill="black"/>
</g>
<g opacity="0.6">
<path d="M143.39 56.72C142.958 56.528 142.546 56.2935 142.16 56.02L138.89 54.02C135.361 51.7196 131.45 50.067 127.34 49.14C123.198 48.3786 118.933 48.6325 114.91 49.88C113.261 50.464 111.642 51.1315 110.06 51.88C110.437 51.5916 110.838 51.3372 111.26 51.12C112.395 50.5024 113.579 49.9806 114.8 49.56C118.867 48.1821 123.219 47.8722 127.44 48.66C131.611 49.5909 135.566 51.3119 139.09 53.73C140.46 54.61 141.53 55.37 142.27 55.9C142.669 56.1369 143.044 56.4115 143.39 56.72Z" fill="white"/>
</g>
<g opacity="0.6">
<path d="M175.88 37.62C175.88 37.71 174.88 37.62 173.32 37.78C171.288 38.0186 169.345 38.7548 167.666 39.9235C165.986 41.0923 164.62 42.6573 163.69 44.48C162.97 45.88 162.75 46.85 162.69 46.82C162.747 45.9471 162.985 45.0956 163.39 44.32C164.264 42.3767 165.649 40.7073 167.398 39.4902C169.147 38.2731 171.194 37.5541 173.32 37.41C174.179 37.3049 175.05 37.3763 175.88 37.62Z" fill="white"/>
</g>
<path d="M197.4 33.68L208.07 330.12L206.23 330.56L195.27 33.82L197.4 33.68Z" fill="#263238"/>
<path d="M217.13 145.41L213.13 131.02L198.91 121.02C198.91 121.02 197.25 122.02 199.79 125.77L202.98 130.17C202.98 130.17 202.88 135.9 205.61 139.26L204.73 147.02L217.13 145.41Z" fill="#FFBE9D"/>
<path d="M195.81 130.68C197.357 131.685 198.711 132.958 199.81 134.44C200.023 134.861 200.126 135.329 200.11 135.8C200.121 136.003 200.074 136.204 199.975 136.381C199.876 136.558 199.728 136.704 199.55 136.8C199.401 136.86 199.239 136.883 199.079 136.868C198.919 136.852 198.765 136.798 198.63 136.71C198.353 136.543 198.103 136.334 197.89 136.09L195.15 133.26C194.687 132.845 194.356 132.302 194.2 131.7C194.196 131.513 194.241 131.328 194.329 131.164C194.417 130.999 194.546 130.86 194.704 130.759C194.862 130.659 195.043 130.601 195.229 130.59C195.416 130.58 195.602 130.618 195.77 130.7" fill="#FFBE9D"/>
<path d="M195.79 134.35C197.332 135.36 198.686 136.633 199.79 138.11C200.001 138.532 200.104 138.999 200.09 139.47C200.101 139.673 200.054 139.874 199.955 140.051C199.856 140.228 199.709 140.374 199.53 140.47C199.378 140.524 199.216 140.544 199.055 140.529C198.894 140.513 198.739 140.462 198.6 140.38C198.326 140.213 198.079 140.003 197.87 139.76L195.16 137C194.703 136.582 194.376 136.04 194.22 135.44C194.219 135.254 194.265 135.071 194.354 134.908C194.443 134.745 194.572 134.607 194.729 134.507C194.886 134.407 195.065 134.348 195.251 134.337C195.436 134.325 195.622 134.361 195.79 134.44" fill="#FFBE9D"/>
<path d="M196.38 138.35C197.927 139.355 199.281 140.628 200.38 142.11C200.598 142.529 200.701 142.998 200.68 143.47C200.691 143.671 200.645 143.872 200.548 144.049C200.451 144.225 200.306 144.371 200.13 144.47C199.978 144.527 199.816 144.549 199.655 144.533C199.493 144.517 199.338 144.465 199.2 144.38C198.925 144.21 198.675 144.001 198.46 143.76L195.72 140.93C195.263 140.509 194.934 139.969 194.77 139.37C194.766 139.183 194.811 138.998 194.899 138.834C194.987 138.669 195.117 138.53 195.274 138.429C195.432 138.329 195.613 138.271 195.799 138.26C195.986 138.25 196.172 138.288 196.34 138.37" fill="#FFBE9D"/>
<path d="M196.46 128.15C197.086 128.433 197.651 128.838 198.12 129.34C198.36 129.607 198.519 129.937 198.579 130.291C198.639 130.645 198.598 131.009 198.46 131.34C198.403 131.469 198.314 131.581 198.203 131.667C198.091 131.752 197.959 131.809 197.82 131.83C197.624 131.839 197.429 131.791 197.26 131.69C196.871 131.511 196.505 131.286 196.17 131.02C195.839 130.712 195.535 130.378 195.26 130.02C195.07 129.873 194.94 129.663 194.892 129.428C194.844 129.193 194.883 128.949 195 128.74C195.21 128.26 195.42 127.98 196.46 128.1" fill="#FFBE9D"/>
<path d="M216.3 138.22L237.89 157.61L230.87 173.09L206.1 146.66L216.3 138.22Z" fill="#FFBE9D"/>
<path d="M215.44 137.38L234.65 152C234.65 152 252.52 121.52 254.1 119.63C255.68 117.74 259.69 115.71 259.69 115.71L257.47 154.78C257.47 154.78 247.81 179.45 234.54 178.11C224.38 177.11 206.83 150.29 206.83 150.29L215.44 137.38Z" fill="#16A34A"/>
<g opacity="0.2">
<path d="M234.29 151.52C232.973 153.574 232.118 155.89 231.783 158.307C231.448 160.724 231.642 163.185 232.35 165.52C232.449 166.015 232.727 166.456 233.13 166.76C233.473 166.91 233.858 166.928 234.213 166.809C234.568 166.691 234.866 166.445 235.05 166.12C235.393 165.453 235.565 164.71 235.55 163.96C235.867 164.683 236.35 165.32 236.96 165.82C237.277 166.056 237.664 166.177 238.059 166.163C238.454 166.148 238.832 165.999 239.13 165.74C239.77 165.04 239.41 163.93 239.03 163.06C237.39 159.353 235.753 155.647 234.12 151.94" fill="black"/>
</g>
<path d="M220.27 141.75C218.954 144.293 217.484 146.755 215.87 149.12C214.403 151.577 212.79 153.945 211.04 156.21C212.352 153.664 213.821 151.203 215.44 148.84C216.906 146.382 218.519 144.014 220.27 141.75Z" fill="#263238"/>
<path d="M215.38 141.22C215.38 141.17 215.58 140.92 216.02 141.08C216.148 141.13 216.262 141.211 216.351 141.316C216.44 141.42 216.501 141.546 216.53 141.68C216.553 141.858 216.522 142.039 216.439 142.199C216.356 142.359 216.227 142.489 216.068 142.573C215.909 142.657 215.728 142.69 215.55 142.668C215.371 142.646 215.204 142.57 215.07 142.45C214.976 142.35 214.909 142.228 214.874 142.095C214.839 141.963 214.838 141.823 214.87 141.69C214.98 141.23 215.33 141.17 215.34 141.24C215.35 141.31 215.22 141.45 215.24 141.73C215.26 142.01 215.48 142.29 215.82 142.11C215.885 142.078 215.94 142.028 215.979 141.966C216.017 141.904 216.038 141.833 216.038 141.76C216.038 141.687 216.017 141.616 215.979 141.554C215.94 141.492 215.885 141.442 215.82 141.41C215.63 141.24 215.42 141.28 215.38 141.22Z" fill="#263238"/>
<path d="M234.67 161.24C233.558 158.269 233.508 155.004 234.53 152C234.68 152 234.27 154.08 234.32 156.63C234.37 159.18 234.82 161.2 234.67 161.24Z" fill="#263238"/>
<path d="M238.39 161.11C236.431 158.414 235.095 155.316 234.48 152.04C235.2 153.523 235.844 155.041 236.41 156.59C237.48 159.08 238.52 161 238.39 161.11Z" fill="#263238"/>
<path d="M299.88 112L297 106.23H276L272.7 112.75L259.7 115.69L254.11 199.37C254.082 200.418 254.338 201.455 254.85 202.37L305.85 204.37L307.92 205.22C309.75 204.09 308.61 199.43 308.63 197.22L309.29 155.78L319.38 122.66L299.88 112Z" fill="#16A34A"/>
<g opacity="0.2">
<path d="M278.11 114.87L281.82 111.16L286 121.22C290.799 118.4 295.367 115.203 299.66 111.66L285.53 116.19C284.33 113.03 283.137 109.863 281.95 106.69C281.105 109.569 279.909 112.333 278.39 114.92" fill="black"/>
</g>
<path d="M337.31 216.9L323.56 217.61V178.15L309.34 155.79L319.43 122.67C321.51 123.49 337.18 162.83 341.17 173.52C341.749 175.058 342.001 176.699 341.91 178.34L337.31 216.9Z" fill="#16A34A"/>
<path d="M259.69 133C259.84 133 259.15 141.11 258.17 151.07C257.19 161.03 256.27 169.07 256.17 169.07C256.07 169.07 256.71 160.96 257.69 150.99C258.67 141.02 259.55 132.94 259.69 133Z" fill="#263238"/>
<path d="M281.93 106.71C281.258 109.01 280.423 111.259 279.43 113.44L279.15 114.12C279.056 114.384 278.898 114.621 278.69 114.81C278.562 114.91 278.407 114.97 278.244 114.98C278.082 114.991 277.92 114.952 277.78 114.87C277.54 114.75 277.37 114.62 277.19 114.51L275.3 113.23C274.695 112.871 274.138 112.437 273.64 111.94C274.297 112.199 274.922 112.535 275.5 112.94L277.45 114.12C277.82 114.36 278.2 114.63 278.37 114.43C278.626 114.074 278.822 113.679 278.95 113.26C279.78 111.006 280.776 108.817 281.93 106.71Z" fill="#263238"/>
<path d="M298.63 111.84C297.596 112.354 296.522 112.786 295.42 113.13C293.42 113.87 290.64 114.85 287.56 115.9L285.88 116.47L285.65 116.55L285.56 116.33C284.48 113.71 283.56 111.39 282.89 109.71C282.496 108.832 282.178 107.922 281.94 106.99C282.429 107.82 282.853 108.685 283.21 109.58C283.94 111.22 284.93 113.52 286.04 116.13L285.71 115.99L287.39 115.41C290.47 114.41 293.27 113.41 295.3 112.78C296.385 112.385 297.498 112.07 298.63 111.84Z" fill="#263238"/>
<path d="M317.24 123.86C317.24 124.01 314.33 124.86 310.9 126.34C307.47 127.82 304.9 129.52 304.8 129.34C305.268 128.854 305.808 128.443 306.4 128.12C309.143 126.378 312.129 125.05 315.26 124.18C315.9 123.972 316.567 123.864 317.24 123.86Z" fill="#263238"/>
<path d="M281.93 106.71C281.942 106.793 281.942 106.877 281.93 106.96C281.93 107.16 281.93 107.4 281.93 107.7C281.93 108.35 281.99 109.3 282 110.53C282 112.98 282 116.53 281.84 120.92C281.53 129.7 280.43 141.8 278.68 155.07C277.83 161.72 276.89 168.07 276.26 173.79C275.657 178.887 275.377 184.017 275.42 189.15C275.462 192.608 275.736 196.059 276.24 199.48C276.39 200.7 276.58 201.63 276.68 202.27C276.68 202.56 276.76 202.8 276.79 203C276.801 203.083 276.801 203.167 276.79 203.25C276.757 203.173 276.733 203.093 276.72 203.01C276.67 202.81 276.62 202.58 276.55 202.29C276.43 201.66 276.2 200.73 276.02 199.51C275.431 196.086 275.096 192.623 275.02 189.15C274.916 184.003 275.157 178.855 275.74 173.74C276.35 167.96 277.27 161.65 278.12 155.01C279.87 141.74 281.02 129.67 281.43 120.91C281.65 116.53 281.72 112.98 281.76 110.53C281.76 109.33 281.76 108.39 281.76 107.7C281.76 107.4 281.76 107.16 281.76 106.97C281.801 106.874 281.859 106.786 281.93 106.71Z" fill="#263238"/>
<path d="M338.06 210.86C335.631 210.998 333.195 210.965 330.77 210.76C328.339 210.73 325.912 210.526 323.51 210.15C325.936 210.005 328.369 210.035 330.79 210.24C333.225 210.277 335.654 210.484 338.06 210.86Z" fill="#263238"/>
<path d="M325.86 212.4C325.86 212.4 325.86 212.59 325.86 212.77C325.86 212.95 326.08 213.06 326.26 212.91C326.44 212.76 326.38 212.61 326.21 212.49C326.04 212.37 325.9 212.42 325.85 212.37C325.8 212.32 325.94 212.08 326.32 212.14C326.43 212.157 326.533 212.202 326.621 212.27C326.708 212.338 326.777 212.428 326.82 212.53C326.867 212.669 326.871 212.82 326.83 212.961C326.789 213.103 326.706 213.228 326.591 213.321C326.477 213.413 326.337 213.469 326.19 213.479C326.043 213.49 325.897 213.455 325.77 213.38C325.68 213.313 325.608 213.225 325.559 213.124C325.511 213.023 325.487 212.912 325.49 212.8C325.56 212.42 325.83 212.33 325.86 212.4Z" fill="#263238"/>
<g opacity="0.2">
<path d="M309.51 155.68C308.01 152.98 306.517 150.28 305.03 147.58C303.26 161.87 304.279 176.368 308.03 190.27C308.497 178.797 308.96 167.327 309.42 155.86" fill="black"/>
</g>
<g opacity="0.2">
<path d="M246.92 131.24C248.271 133.165 250.218 134.593 252.461 135.301C254.704 136.01 257.118 135.96 259.33 135.16C259.656 135.661 260.101 136.074 260.624 136.363C261.146 136.652 261.732 136.809 262.33 136.82C263.514 136.837 264.688 136.609 265.78 136.15C269.97 134.555 273.695 131.939 276.616 128.538C279.538 125.138 281.564 121.062 282.51 116.68C276.04 118.95 271.68 125.22 265.33 127.82C262.833 128.863 260.114 129.264 257.423 128.986C254.731 128.709 252.151 127.761 249.92 126.23L246.92 131.24Z" fill="black"/>
</g>
<path d="M286.75 140.81C287.017 140.762 287.289 140.742 287.56 140.75L289.95 140.69C292.03 140.69 295.02 140.6 298.63 140.58H298.87V140.82C298.63 143.98 298.37 147.64 298.08 151.54V151.68L297.95 151.75L297.42 152.03L291.61 155.09L291.46 155.16L291.33 155.06L285.94 150.65L285.86 150.58V150.47C286.12 147.57 286.33 145.16 286.48 143.37C286.56 142.6 286.62 141.96 286.68 141.45C286.686 141.234 286.716 141.019 286.77 140.81C286.789 141.053 286.789 141.297 286.77 141.54C286.77 142.06 286.71 142.72 286.68 143.54C286.58 145.3 286.45 147.68 286.29 150.54L286.21 150.36L291.65 154.71H291.38L297.17 151.64L297.71 151.36L297.57 151.57L298.42 140.86L298.65 141.1C295.14 141.1 292.2 141.03 290.11 140.99L287.67 140.93C287.361 140.91 287.054 140.87 286.75 140.81Z" fill="#263238"/>
<path d="M298.31 145.61C294.348 145.883 290.369 145.81 286.42 145.39C288.395 145.164 290.386 145.114 292.37 145.24C294.357 145.191 296.344 145.315 298.31 145.61Z" fill="#FAFAFA"/>
<path d="M298.22 147.67C296.229 147.899 294.22 147.949 292.22 147.82C290.23 147.874 288.238 147.75 286.27 147.45C288.262 147.228 290.269 147.178 292.27 147.3C294.26 147.252 296.251 147.376 298.22 147.67Z" fill="#FAFAFA"/>
<path d="M261.52 202.82C261.52 202.96 260.45 202.82 259.76 201.73C259.07 200.64 259.28 199.64 259.42 199.73C259.56 199.82 259.6 200.63 260.19 201.48C260.78 202.33 261.57 202.68 261.52 202.82Z" fill="#263238"/>
<path d="M262.85 202.26C262.077 201.695 261.559 200.846 261.41 199.9C261.25 199.452 261.18 198.976 261.206 198.5C261.232 198.024 261.352 197.559 261.56 197.13C261.71 197.13 261.56 198.36 261.92 199.77C262.28 201.18 263 202.17 262.85 202.26Z" fill="#263238"/>
<path d="M301.36 196.51C301.459 197.959 301.186 199.409 300.569 200.723C299.951 202.037 299.008 203.172 297.83 204.02C298.672 202.904 299.43 201.727 300.1 200.5C300.617 199.203 301.038 197.869 301.36 196.51Z" fill="#263238"/>
<path d="M280.39 110.98H283.15L284.33 113.03L283.17 116.23L280.42 115.92L279.34 113.61L280.39 110.98Z" fill="#455A64"/>
<path d="M280.42 115.92C280.42 115.92 263.82 126.61 255.34 122.34C246.86 118.07 236.34 112.84 226.87 114.09C221.33 114.766 215.963 116.461 211.04 119.09L208.04 126.3L215.71 129.06C215.71 129.06 226.89 123.66 235.02 125.11C240.7 126.11 251.61 131.91 258.96 131.36C266.31 130.81 276.46 125.58 283.14 116.19L280.42 115.92Z" fill="#455A64"/>
<path d="M282.43 117.11C282.045 117.01 281.679 116.844 281.35 116.62C280.981 116.451 280.643 116.221 280.35 115.94C280.74 116.04 281.11 116.209 281.44 116.44C281.807 116.603 282.142 116.83 282.43 117.11Z" fill="#263238"/>
<path d="M284.07 112.67C283.505 113.278 282.89 113.837 282.23 114.34C281.607 114.899 280.938 115.404 280.23 115.85C280.794 115.242 281.41 114.683 282.07 114.18C282.693 113.621 283.362 113.116 284.07 112.67Z" fill="#263238"/>
<path d="M282.9 113.72C281.81 113.025 280.908 112.074 280.27 110.95C280.32 110.95 280.84 111.59 281.56 112.35C282.28 113.11 282.93 113.67 282.9 113.72Z" fill="#263238"/>
<path d="M269.19 128.18C269.031 127.91 268.907 127.621 268.82 127.32C268.61 126.78 268.34 126.03 268.06 125.2C267.78 124.37 267.53 123.61 267.36 123.06C267.258 122.764 267.181 122.459 267.13 122.15C267.286 122.422 267.41 122.71 267.5 123.01C267.71 123.55 267.98 124.3 268.26 125.13C268.54 125.96 268.79 126.72 268.95 127.27C269.058 127.565 269.138 127.87 269.19 128.18Z" fill="#FAFAFA"/>
<path d="M273.34 125.69C272.774 124.968 272.266 124.202 271.82 123.4C271.316 122.633 270.868 121.831 270.48 121C271.552 122.488 272.508 124.056 273.34 125.69Z" fill="#FAFAFA"/>
<path d="M277.1 122.77C276.485 122.317 275.915 121.804 275.4 121.24C274.833 120.728 274.317 120.162 273.86 119.55C275.031 120.528 276.115 121.605 277.1 122.77Z" fill="#FAFAFA"/>
<path d="M280.21 119.71C279.748 119.449 279.318 119.133 278.93 118.77C278.503 118.452 278.117 118.082 277.78 117.67C278.25 117.92 278.681 118.237 279.06 118.61C279.495 118.919 279.882 119.289 280.21 119.71Z" fill="#FAFAFA"/>
<path d="M263.28 130.75C263.117 129.55 263.02 128.341 262.99 127.13C262.888 125.923 262.857 124.711 262.9 123.5C263.07 124.7 263.17 125.909 263.2 127.12C263.297 128.327 263.323 129.539 263.28 130.75Z" fill="#FAFAFA"/>
<path d="M257.59 131.64C257.59 131.64 257.74 129.78 258.05 127.5C258.36 125.22 258.66 123.37 258.71 123.38C258.634 124.767 258.483 126.149 258.26 127.52C258.11 128.904 257.886 130.279 257.59 131.64Z" fill="#FAFAFA"/>
<path d="M254.23 121.69C254.28 121.69 253.75 123.69 253.03 126.15C252.31 128.61 251.7 130.56 251.64 130.55C251.58 130.54 252.12 128.55 252.83 126.09C253.54 123.63 254.17 121.68 254.23 121.69Z" fill="#FAFAFA"/>
<path d="M250.36 119.87C250.42 119.87 249.78 121.94 248.95 124.44C248.12 126.94 247.39 128.97 247.33 128.95C247.27 128.93 247.91 126.89 248.75 124.38C249.59 121.87 250.31 119.85 250.36 119.87Z" fill="#FAFAFA"/>
<path d="M244.77 117.25C244.77 117.25 244.26 119.49 243.52 122.25C242.78 125.01 242.13 127.17 242.08 127.16C242.03 127.15 242.58 124.92 243.32 122.16C244.06 119.4 244.71 117.24 244.77 117.25Z" fill="#FAFAFA"/>
<path d="M238.78 115.62C238.84 115.62 238.4 117.83 237.78 120.53C237.16 123.23 236.66 125.41 236.6 125.39C236.54 125.37 236.98 123.18 237.6 120.49C238.22 117.8 238.73 115.61 238.78 115.62Z" fill="#FAFAFA"/>
<path d="M232.74 114.58C232.8 114.58 232.87 116.91 232.89 119.79C232.91 122.67 232.89 125.02 232.83 125.02C232.77 125.02 232.71 122.68 232.69 119.8C232.67 116.92 232.69 114.58 232.74 114.58Z" fill="#FAFAFA"/>
<path d="M227.89 125.22C227.84 125.083 227.8 124.943 227.77 124.8C227.69 124.41 227.61 124.02 227.52 123.62C227.32 122.62 227.08 121.25 226.86 119.72C226.64 118.19 226.47 116.8 226.38 115.79C226.38 115.39 226.31 115 226.28 114.6C226.254 114.454 226.254 114.306 226.28 114.16C226.321 114.3 226.347 114.444 226.36 114.59C226.36 114.98 226.47 115.38 226.52 115.78C226.7 117.03 226.87 118.3 227.06 119.69C227.25 121.08 227.47 122.35 227.67 123.6L227.85 124.78C227.886 124.924 227.899 125.072 227.89 125.22Z" fill="#FAFAFA"/>
<path d="M222.52 126.33C222.47 126.33 221.65 124.02 220.69 121.15C219.73 118.28 219.01 115.92 219.06 115.9C219.11 115.88 219.94 118.2 220.89 121.08C221.84 123.96 222.58 126.31 222.52 126.33Z" fill="#FAFAFA"/>
<path d="M217.65 128.05C217.6 128.05 216.53 125.93 215.26 123.25C213.99 120.57 213 118.39 213.05 118.36C213.1 118.33 214.18 120.49 215.45 123.16C216.72 125.83 217.7 128 217.65 128.05Z" fill="#FAFAFA"/>
<path d="M211.33 127.49C210.839 126.938 210.44 126.31 210.15 125.63C209.792 124.984 209.551 124.28 209.44 123.55C209.5 123.55 209.81 124.46 210.33 125.55C210.85 126.64 211.38 127.45 211.33 127.49Z" fill="#FAFAFA"/>
</svg>
