<svg width="500" height="500" viewBox="0 0 500 500" fill="none" xmlns="http://www.w3.org/2000/svg">
<path d="M500 381.402H0V381.667H500V381.402Z" fill="#EBEBEB"/>
<path d="M449.9 398.475H396.83V398.74H449.9V398.475Z" fill="#EBEBEB"/>
<path d="M331.22 395.154H272.56V395.419H331.22V395.154Z" fill="#EBEBEB"/>
<path d="M399.39 393.626H380.2V393.891H399.39V393.626Z" fill="#EBEBEB"/>
<path d="M143.66 390.41H100.47V390.676H143.66V390.41Z" fill="#EBEBEB"/>
<path d="M94.9 390.41H79.46V390.676H94.9V390.41Z" fill="#EBEBEB"/>
<path d="M185.67 394.888H131.47V395.153H185.67V394.888Z" fill="#EBEBEB"/>
<path d="M237 334.077H43.91C42.3973 334.074 40.9475 333.435 39.8788 332.299C38.8102 331.163 38.21 329.623 38.21 328.018V40.0058C38.2231 38.4099 38.8292 36.884 39.8964 35.7595C40.9637 34.635 42.4059 34.0027 43.91 34H237C238.514 34 239.967 34.6383 241.038 35.7746C242.108 36.9108 242.71 38.4519 242.71 40.0588V328.018C242.71 329.625 242.108 331.166 241.038 332.302C239.967 333.439 238.514 334.077 237 334.077ZM43.91 34.2122C42.4636 34.215 41.0774 34.8267 40.0556 35.9129C39.0338 36.9991 38.46 38.4711 38.46 40.0058V328.018C38.46 329.553 39.0338 331.025 40.0556 332.111C41.0774 333.197 42.4636 333.809 43.91 333.812H237C238.447 333.809 239.834 333.198 240.858 332.112C241.881 331.026 242.457 329.554 242.46 328.018V40.0058C242.457 38.4701 241.881 36.9981 240.858 35.9122C239.834 34.8263 238.447 34.215 237 34.2122H43.91Z" fill="#EBEBEB"/>
<path d="M453.31 334.077H260.21C258.696 334.074 257.246 333.435 256.175 332.299C255.105 331.164 254.503 329.624 254.5 328.018V40.0058C254.516 38.409 255.124 36.8831 256.193 35.7589C257.262 34.6346 258.705 34.0027 260.21 34H453.31C454.812 34.0055 456.252 34.639 457.317 35.7632C458.382 36.8875 458.987 38.4118 459 40.0058V328.018C459 329.621 458.401 331.159 457.335 332.295C456.268 333.431 454.821 334.071 453.31 334.077ZM260.21 34.2122C258.763 34.215 257.375 34.8263 256.352 35.9122C255.329 36.9981 254.753 38.4701 254.75 40.0058V328.018C254.753 329.554 255.329 331.026 256.352 332.112C257.375 333.198 258.763 333.809 260.21 333.812H453.31C454.757 333.809 456.145 333.198 457.168 332.112C458.191 331.026 458.767 329.554 458.77 328.018V40.0058C458.767 38.4701 458.191 36.9981 457.168 35.9122C456.145 34.8263 454.757 34.215 453.31 34.2122H260.21Z" fill="#EBEBEB"/>
<path d="M117.46 304.345H56.73C53.9023 304.345 51.61 306.778 51.61 309.778V312.123C51.61 315.123 53.9023 317.556 56.73 317.556H117.46C120.288 317.556 122.58 315.123 122.58 312.123V309.778C122.58 306.778 120.288 304.345 117.46 304.345Z" fill="#EBEBEB"/>
<path d="M71.3 317.556H61.31L49.95 381.402H59.9399L71.3 317.556Z" fill="#E0E0E0"/>
<path d="M91.24 317.556H81.25L75.66 381.402H85.65L91.24 317.556Z" fill="#E0E0E0"/>
<path d="M102.89 317.556H112.88L124.25 381.402H114.26L102.89 317.556Z" fill="#E0E0E0"/>
<path d="M430.81 50.6061H197.16V266.592H430.81V50.6061Z" fill="#E6E6E6"/>
<path d="M437.82 50.6061H200.43V266.592H437.82V50.6061Z" fill="#F0F0F0"/>
<path d="M430.81 266.602H197.16V270.783H430.81V266.602Z" fill="#E6E6E6"/>
<path d="M441.56 266.602H204.17V270.783H441.56V266.602Z" fill="#F0F0F0"/>
<path d="M428 259.885V57.3228L210.24 57.3228V259.885H428Z" fill="#FAFAFA"/>
<path d="M279.86 259.885L320.91 57.3228H348.1L307.05 259.885H279.86Z" fill="white"/>
<path d="M248.12 259.885L289.17 57.3228H316.36L275.31 259.885H248.12Z" fill="white"/>
<path d="M215.37 57.8746V247.152C215.37 247.46 215.73 247.704 216.17 247.704H217.23C217.67 247.704 218.03 247.46 218.03 247.152V57.8746C218.03 57.5669 217.67 57.3228 217.23 57.3228H216.17C215.73 57.344 215.37 57.5669 215.37 57.8746Z" fill="#F0F0F0"/>
<path d="M349.78 259.885L390.83 57.3228H401.43L360.38 259.885H349.78Z" fill="white"/>
<path d="M428 259.885V57.3228H426.75V259.885H428Z" fill="#E6E6E6"/>
<path opacity="0.5" d="M440.14 65.7267H206.49L205.58 59.9331H439.24L440.14 65.7267Z" fill="#E0E0E0"/>
<path opacity="0.5" d="M440.14 85.6116H206.49L205.58 79.8074H439.24L440.14 85.6116Z" fill="#E0E0E0"/>
<path opacity="0.5" d="M440.14 105.486H206.49L205.58 99.6923H439.24L440.14 105.486Z" fill="#E0E0E0"/>
<path opacity="0.5" d="M440.14 125.371H206.49L205.58 119.577H439.24L440.14 125.371Z" fill="#E0E0E0"/>
<path opacity="0.5" d="M440.14 145.245H206.49L205.58 139.451H439.24L440.14 145.245Z" fill="#E0E0E0"/>
<path opacity="0.5" d="M440.14 165.13H206.49L205.58 159.336H439.24L440.14 165.13Z" fill="#E0E0E0"/>
<path opacity="0.5" d="M440.14 75.6691H206.49L205.58 69.8755H439.24L440.14 75.6691Z" fill="#E0E0E0"/>
<path opacity="0.5" d="M440.14 95.5433H206.49L205.58 89.7498H439.24L440.14 95.5433Z" fill="#E0E0E0"/>
<path opacity="0.5" d="M440.14 115.428H206.49L205.58 109.635H439.24L440.14 115.428Z" fill="#E0E0E0"/>
<path opacity="0.5" d="M440.14 135.303H206.49L205.58 129.509H439.24L440.14 135.303Z" fill="#E0E0E0"/>
<path opacity="0.5" d="M440.14 155.187H206.49L205.58 149.394H439.24L440.14 155.187Z" fill="#E0E0E0"/>
<path opacity="0.5" d="M440.14 175.072H206.49L205.58 169.279H439.24L440.14 175.072Z" fill="#E0E0E0"/>
<path d="M430.81 282.975H399.87V381.402H430.81V282.975Z" fill="#E6E6E6"/>
<path d="M411.96 381.402H430.81V370.101H392.2L411.96 381.402Z" fill="#EBEBEB"/>
<path d="M338.07 282.975H307.13V381.402H338.07V282.975Z" fill="#E6E6E6"/>
<path d="M430.81 282.975H321.63V379.057H430.81V282.975Z" fill="#EBEBEB"/>
<path d="M340.48 381.402H321.63V370.101H360.24L340.48 381.402Z" fill="#EBEBEB"/>
<path d="M416.19 294.053H336.25V343.553H416.19V294.053Z" fill="#FAFAFA"/>
<path d="M416.19 348.593H336.25V372.149H416.19V348.593Z" fill="#FAFAFA"/>
<path d="M383.67 296.578H368.77C367.631 296.575 366.54 296.093 365.736 295.238C364.932 294.383 364.48 293.224 364.48 292.015H388C388 292.617 387.888 293.213 387.67 293.769C387.452 294.324 387.132 294.829 386.73 295.253C386.327 295.677 385.85 296.012 385.325 296.24C384.8 296.467 384.237 296.582 383.67 296.578Z" fill="#EBEBEB"/>
<path d="M383.67 351.108H368.77C367.632 351.108 366.541 350.628 365.736 349.774C364.932 348.921 364.48 347.763 364.48 346.555H388C388 347.157 387.888 347.752 387.67 348.307C387.452 348.862 387.132 349.366 386.729 349.789C386.327 350.213 385.849 350.547 385.324 350.773C384.799 351 384.237 351.113 383.67 351.108Z" fill="#EBEBEB"/>
<path d="M313.26 282.975H282.32V381.402H313.26V282.975Z" fill="#E6E6E6"/>
<path d="M294.42 381.402H313.26V370.101H274.66L294.42 381.402Z" fill="#EBEBEB"/>
<path d="M220.53 282.975H189.59V381.402H220.53V282.975Z" fill="#E6E6E6"/>
<path d="M313.27 282.975H204.09V379.057H313.27V282.975Z" fill="#EBEBEB"/>
<path d="M222.93 381.402H204.09V370.101H242.69L222.93 381.402Z" fill="#EBEBEB"/>
<path d="M298.65 294.053H218.71V343.553H298.65V294.053Z" fill="#FAFAFA"/>
<path d="M298.65 348.593H218.71V372.149H298.65V348.593Z" fill="#FAFAFA"/>
<path d="M266.12 296.578H251.23C250.09 296.575 248.998 296.094 248.192 295.239C247.386 294.383 246.933 293.225 246.93 292.015H270.42C270.42 293.225 269.967 294.386 269.16 295.242C268.354 296.097 267.26 296.578 266.12 296.578Z" fill="#EBEBEB"/>
<path d="M266.12 351.108H251.23C250.091 351.108 248.999 350.628 248.193 349.775C247.387 348.921 246.933 347.764 246.93 346.555H270.42C270.42 347.154 270.309 347.747 270.092 348.3C269.876 348.853 269.559 349.355 269.16 349.778C268.76 350.201 268.286 350.536 267.765 350.764C267.243 350.992 266.684 351.109 266.12 351.108Z" fill="#EBEBEB"/>
<path d="M204.41 282.975L430.81 282.975V278.847L204.41 278.847V282.975Z" fill="#F0F0F0"/>
<path d="M204.41 278.837H189.59V282.964H204.41V278.837Z" fill="#E0E0E0"/>
<path d="M84.39 288.535C82.98 249.975 81.48 211.638 84.56 192.294L89.56 188.538C89.56 188.538 88.46 192.135 87.88 251.216C87.3 310.298 86.59 279.76 87.2 288.535H84.39Z" fill="#E6E6E6"/>
<path d="M92.47 151.781C100.2 130.411 118.21 109.773 137.77 101.326C145.45 98.0157 134.39 170.902 106.54 175.603C92.94 177.895 88.7 214.863 86.41 232.583C85.63 197.674 84.74 173.152 92.47 151.781Z" fill="#E6E6E6"/>
<path d="M90.82 206.035C96.26 196.888 105.15 184.07 118.14 184.06C132.86 184.06 119.98 209.781 102.67 218.015C94.22 222.026 87.17 234.759 85.34 242.738C85.5 226.556 85.38 215.182 90.82 206.035Z" fill="#E6E6E6"/>
<path d="M77.58 178.383C68.12 160.599 47.04 142.709 24.58 134.57C15.77 131.387 14.9 184.06 62.4 196.666C77.75 200.74 83.9 229.559 87.08 244.054C86.83 215.903 87 196.167 77.58 178.383Z" fill="#E6E6E6"/>
<path d="M82.76 220.551C76.76 209.218 60.34 203.679 45.6 204.74C39.82 205.154 39.18 228.413 71.37 237.401C81.13 240.128 85.07 258.368 87.1 267.6C86.93 249.667 88.78 231.894 82.76 220.551Z" fill="#E6E6E6"/>
<path d="M83.3801 160.673C78.6901 144.821 64.8801 130.613 52.2101 124.745C47.2101 122.442 45.7001 148.725 72.9101 174.457C81.1601 182.267 83.7601 205.006 85.1101 216.529C85.7201 195.955 88.0701 176.526 83.3801 160.673Z" fill="#E6E6E6"/>
<path d="M85.8599 304.345C75.9599 304.345 67.7799 303.581 67.2199 289.373L65.5699 270.73H106.16L104.51 289.373C103.94 303.581 95.7599 304.345 85.8599 304.345Z" fill="#F0F0F0"/>
<path d="M106.31 278.412H65.42L64.25 269.679H107.48L106.31 278.412Z" fill="#F0F0F0"/>
<path d="M248.5 466C364.756 466 459 452.327 459 435.46C459 418.593 364.756 404.92 248.5 404.92C132.244 404.92 38 418.593 38 435.46C38 452.327 132.244 466 248.5 466Z" fill="#F5F5F5"/>
<path d="M72.5465 97.6295L71.5477 97.6782L72.5276 117.784L73.5264 117.736L72.5465 97.6295Z" fill="#16A34A"/>
<path d="M73.8446 124.536L72.8458 124.585L73.3272 134.463L74.326 134.414L73.8446 124.536Z" fill="#16A34A"/>
<path d="M386.74 301.72H86.67C86.2099 301.718 85.7685 301.537 85.4385 301.217C85.1085 300.896 84.9155 300.46 84.9 300L74.14 79C74.1292 78.7609 74.167 78.5221 74.2511 78.2981C74.3351 78.074 74.4638 77.8693 74.6293 77.6964C74.7947 77.5235 74.9935 77.3859 75.2136 77.292C75.4338 77.1981 75.6707 77.1498 75.91 77.15H376C376.455 77.1493 376.893 77.3231 377.225 77.6355C377.556 77.948 377.754 78.3755 377.78 78.83L388.54 299.91C388.544 300.148 388.5 300.384 388.411 300.605C388.322 300.826 388.19 301.027 388.022 301.195C387.855 301.364 387.655 301.497 387.434 301.588C387.214 301.678 386.978 301.723 386.74 301.72Z" fill="#16A34A"/>
<path opacity="0.8" d="M88.3499 296.4L77.9399 82.58C77.9291 82.3405 77.9669 82.1012 78.0508 81.8766C78.1348 81.652 78.2633 81.4467 78.4286 81.2729C78.594 81.0992 78.7927 80.9607 79.0128 80.8657C79.233 80.7707 79.4701 80.7211 79.7099 80.72H372.52C372.976 80.7196 373.414 80.895 373.744 81.2099C374.074 81.5247 374.269 81.9546 374.29 82.41L384.7 296.23C384.712 296.47 384.675 296.71 384.592 296.935C384.508 297.16 384.38 297.366 384.214 297.54C384.049 297.714 383.85 297.853 383.629 297.947C383.408 298.042 383.17 298.09 382.93 298.09H90.1199C89.6647 298.088 89.2276 297.912 88.8984 297.597C88.5692 297.283 88.3729 296.855 88.3499 296.4Z" fill="white"/>
<path d="M161.9 286.14C161.668 286.138 161.445 286.048 161.276 285.889C161.107 285.729 161.005 285.512 160.99 285.28L151.66 93.62C151.642 93.4944 151.651 93.3666 151.686 93.2446C151.721 93.1227 151.78 93.0093 151.861 92.9118C151.942 92.8143 152.043 92.7348 152.157 92.6785C152.27 92.6221 152.394 92.5901 152.521 92.5845C152.648 92.5789 152.774 92.5998 152.892 92.646C153.01 92.6921 153.117 92.7624 153.207 92.8524C153.296 92.9423 153.366 93.05 153.411 93.1684C153.456 93.2868 153.476 93.4134 153.47 93.54L162.81 285.19C162.815 285.31 162.797 285.429 162.756 285.541C162.715 285.654 162.653 285.757 162.572 285.845C162.491 285.934 162.394 286.005 162.285 286.056C162.177 286.106 162.059 286.135 161.94 286.14H161.9Z" fill="white"/>
<path d="M310.08 286.14C309.848 286.138 309.625 286.048 309.456 285.889C309.287 285.729 309.185 285.512 309.17 285.28L299.84 93.62C299.822 93.4944 299.831 93.3666 299.866 93.2446C299.901 93.1227 299.96 93.0093 300.041 92.9118C300.123 92.8143 300.223 92.7348 300.337 92.6785C300.45 92.6221 300.574 92.5901 300.701 92.5845C300.828 92.5789 300.954 92.5998 301.072 92.646C301.19 92.6921 301.297 92.7624 301.387 92.8524C301.476 92.9423 301.546 93.05 301.591 93.1684C301.636 93.2868 301.656 93.4134 301.65 93.54L311 285.19C311.005 285.31 310.987 285.429 310.946 285.541C310.905 285.654 310.843 285.757 310.762 285.845C310.681 285.934 310.584 286.005 310.475 286.056C310.367 286.106 310.25 286.135 310.13 286.14H310.08Z" fill="white"/>
<path d="M236 286.14C235.768 286.138 235.545 286.048 235.376 285.889C235.207 285.729 235.105 285.512 235.09 285.28L225.75 93.62C225.732 93.4944 225.741 93.3666 225.776 93.2446C225.811 93.1227 225.87 93.0093 225.951 92.9118C226.032 92.8143 226.133 92.7348 226.247 92.6785C226.36 92.6221 226.484 92.5901 226.611 92.5845C226.738 92.5789 226.864 92.5998 226.982 92.646C227.1 92.6921 227.207 92.7624 227.297 92.8524C227.386 92.9423 227.456 93.05 227.501 93.1684C227.546 93.2868 227.566 93.4134 227.56 93.54L236.89 285.19C236.897 285.309 236.88 285.428 236.84 285.541C236.8 285.653 236.739 285.756 236.659 285.845C236.579 285.933 236.482 286.005 236.374 286.056C236.266 286.106 236.149 286.135 236.03 286.14H236Z" fill="white"/>
<path d="M366.64 113.37H88.5099C88.3831 113.383 88.2548 113.37 88.1335 113.331C88.0122 113.291 87.9006 113.227 87.8058 113.141C87.711 113.056 87.6352 112.952 87.5833 112.835C87.5314 112.719 87.5046 112.593 87.5046 112.465C87.5046 112.338 87.5314 112.211 87.5833 112.095C87.6352 111.978 87.711 111.874 87.8058 111.789C87.9006 111.703 88.0122 111.639 88.1335 111.6C88.2548 111.56 88.3831 111.547 88.5099 111.56H366.64C366.767 111.547 366.895 111.56 367.016 111.6C367.138 111.639 367.249 111.703 367.344 111.789C367.439 111.874 367.515 111.978 367.566 112.095C367.618 112.211 367.645 112.338 367.645 112.465C367.645 112.593 367.618 112.719 367.566 112.835C367.515 112.952 367.439 113.056 367.344 113.141C367.249 113.227 367.138 113.291 367.016 113.331C366.895 113.37 366.767 113.383 366.64 113.37Z" fill="white"/>
<path d="M96.89 102.17C97.5371 101.911 98.2358 101.807 98.9303 101.866C99.6248 101.925 100.296 102.145 100.89 102.51C101.89 103.15 102.5 104.51 103.76 104.81C105.19 105.1 105.63 103.93 106.64 103.26C107.92 102.41 109.87 102.79 111.3 102.9C115.093 103.18 118.883 103.513 122.67 103.9C126.41 104.26 130.19 104.9 133.92 104.17C135.21 103.92 134.66 101.95 133.38 102.17C129.56 102.92 125.51 102.1 121.68 101.73C117.85 101.36 113.99 101.01 110.13 100.73C108.812 100.567 107.474 100.711 106.22 101.15C105.629 101.412 105.098 101.794 104.66 102.27C104.5 102.43 104.34 102.76 104.08 102.72C103.82 102.68 103.53 102.09 103.43 101.97C102.56 100.988 101.415 100.29 100.144 99.9675C98.8721 99.6448 97.5329 99.7118 96.3 100.16C95.09 100.64 95.61 102.61 96.84 102.16L96.89 102.17Z" fill="white"/>
<path d="M164.41 105.17C165.93 104.03 168.22 102.51 169.47 104.79C170.1 105.93 170.71 107.3 172.28 107.06C173.85 106.82 174.89 104.87 175.99 103.95C177.63 102.56 179.29 102.15 181.21 103.27C182.705 104.351 184.407 105.11 186.21 105.5C187.939 105.715 189.694 105.434 191.27 104.69C192.175 104.175 193.169 103.836 194.2 103.69C195.294 103.774 196.382 103.918 197.46 104.12C199.792 104.21 202.126 103.988 204.4 103.46C205.69 103.22 205.14 101.25 203.85 101.46C201.382 102.047 198.829 102.192 196.31 101.89C195.396 101.678 194.455 101.611 193.52 101.69C192.639 101.847 191.784 102.126 190.98 102.52C188.89 103.43 186.87 103.87 184.68 102.9C182.98 102.15 181.68 100.76 179.76 100.48C178.165 100.319 176.571 100.789 175.32 101.79C174.608 102.344 173.939 102.953 173.32 103.61C173.048 103.965 172.751 104.299 172.43 104.61C171.93 104.98 171.89 104.94 171.59 104.39C170.86 103.02 170.16 101.9 168.52 101.57C166.57 101.18 164.89 102.24 163.4 103.36C162.4 104.14 163.4 105.91 164.4 105.12L164.41 105.17Z" fill="white"/>
<path d="M241 104.61C242.19 104.05 243.4 103.54 244.64 103.1C245.849 102.567 247.135 102.23 248.45 102.1C249.6 102.1 250.61 102.76 251.71 103C252.556 103.189 253.44 103.097 254.23 102.74C254.95 102.41 255.69 101.6 256.47 101.47C257.25 101.34 258.11 102.37 258.88 102.72C259.66 103.046 260.516 103.146 261.35 103.01C262.12 102.92 263.25 102.52 263.97 103.01C264.69 103.5 264.84 104.37 265.56 104.8C265.869 104.987 266.219 105.092 266.58 105.106C266.94 105.12 267.298 105.042 267.62 104.88C268.34 104.53 268.73 103.88 269.33 103.36C270.21 102.62 271.23 103.03 272.24 103.27C273.145 103.531 274.092 103.619 275.03 103.53C276.08 103.39 277.3 102.72 278.36 102.93C280.12 103.28 281.03 105.14 282.99 104.18C284.17 103.6 283.14 101.84 281.99 102.42C281.49 102.66 280.04 101.42 279.56 101.18C278.699 100.847 277.755 100.791 276.86 101.02C275.797 101.373 274.678 101.525 273.56 101.47C272.624 101.228 271.676 101.034 270.72 100.89C269.873 100.818 269.029 101.052 268.34 101.55C267.95 101.84 267.11 103.13 266.6 103.02C266.37 103.02 266 102.21 265.86 102.02C265.632 101.713 265.351 101.449 265.03 101.24C264.328 100.847 263.517 100.693 262.72 100.8C261.831 101.022 260.911 101.086 260 100.99C259.14 100.74 258.57 99.9 257.71 99.6C255.77 98.93 254.84 100.52 253.18 101.01C252.11 101.32 251.01 100.56 250 100.29C248.954 100.015 247.856 100.015 246.81 100.29C244.462 100.927 242.181 101.792 240 102.87C238.82 103.43 239.85 105.19 241 104.63V104.61Z" fill="white"/>
<path d="M309.15 104.06L314.6 102.51C315.46 102.26 316.33 101.96 317.2 101.77C318.054 101.64 318.926 101.798 319.68 102.22C321.158 102.673 322.708 102.849 324.25 102.74C326.07 102.74 327.88 102.74 329.7 102.67L352 102.4C352.265 102.4 352.52 102.295 352.707 102.107C352.895 101.92 353 101.665 353 101.4C353 101.135 352.895 100.88 352.707 100.693C352.52 100.505 352.265 100.4 352 100.4L329.23 100.68C327.44 100.68 325.65 100.74 323.86 100.75C322.976 100.783 322.092 100.726 321.22 100.58C320.4 100.4 319.71 99.94 318.92 99.72C317.43 99.31 315.73 100.11 314.32 100.52L308.64 102.14C308.509 102.175 308.386 102.236 308.278 102.319C308.17 102.402 308.08 102.506 308.012 102.624C307.944 102.742 307.9 102.872 307.883 103.007C307.865 103.142 307.875 103.279 307.91 103.41C307.945 103.541 308.006 103.664 308.089 103.772C308.172 103.88 308.276 103.97 308.394 104.038C308.512 104.106 308.642 104.15 308.777 104.167C308.912 104.185 309.049 104.175 309.18 104.14L309.15 104.06Z" fill="white"/>
<path opacity="0.3" d="M163.55 183.4L115.26 186C112.646 169.728 111.359 153.271 111.41 136.79L158.59 135C159.34 151.213 160.995 167.372 163.55 183.4Z" fill="#16A34A"/>
<path d="M164.65 181.19L116.36 183.79C113.596 167.782 111.925 151.605 111.36 135.37L159.65 132.76C160.413 148.984 162.082 165.153 164.65 181.19Z" fill="#16A34A"/>
<path opacity="0.3" d="M224.37 201.15L175.82 198.22V150.1L224.37 153.03V201.15Z" fill="#16A34A"/>
<path d="M223.73 200.07L175.19 197.14L175.76 148.74L224.3 151.66L223.73 200.07Z" fill="white"/>
<path opacity="0.3" d="M270.65 191.72L319.18 190.13C320.38 178.96 315.1 150.89 312.18 140.91L265.11 143.91C269.14 161.61 270.87 178.27 270.65 191.72Z" fill="#16A34A"/>
<path d="M271.48 190.13L318.48 187.71C319.68 176.55 316.57 158.26 313.06 139.32L264.82 142.38C268.8 160.1 271.7 176.68 271.48 190.13Z" fill="#16A34A"/>
<path opacity="0.3" d="M137.56 266.11L187.1 261.11C186.97 249.81 181.16 223.57 177.72 213.74L131 219.26C136 236.78 136.18 252.66 137.56 266.11Z" fill="#16A34A"/>
<path d="M138.73 265.42L186.49 260.23C187.08 248.99 182.98 230.84 178.49 212.08L130.61 217.77C134.46 235.33 138.21 252 138.73 265.42Z" fill="#16A34A"/>
<path opacity="0.3" d="M258 212.21L306.22 221.21C309.84 210.69 310.77 182.44 310.07 172.21L263 164.84C263.05 182.82 261.11 199.28 258 212.21Z" fill="#16A34A"/>
<path d="M259.13 210.86L305.98 218.76C309.61 208.24 310.53 189.91 311.21 170.87L262.94 163.31C263 181.29 262.28 197.93 259.13 210.86Z" fill="white"/>
<path d="M372.64 167.28C373.64 168.28 374.4 169.18 375.23 170.16C376.06 171.14 376.86 172.09 377.64 173.08C379.22 175.08 380.72 177.08 382.15 179.18C383.58 181.28 384.94 183.43 386.15 185.71C387.443 187.999 388.576 190.374 389.54 192.82L389.91 193.75L390 193.98L390.12 194.33L390.34 195.01C390.45 195.45 390.55 195.87 390.64 196.29C390.73 196.71 390.78 197.09 390.83 197.48C390.987 198.908 391.037 200.345 390.98 201.78C390.866 204.377 390.575 206.963 390.11 209.52C389.217 214.442 387.93 219.285 386.26 224L381 222.78C381.39 218.08 381.75 213.28 381.88 208.66C381.96 206.42 381.923 204.177 381.77 201.94C381.701 200.957 381.557 199.981 381.34 199.02L381.19 198.43L381 198L380.43 196.85C378.375 192.86 375.983 189.053 373.28 185.47C371.92 183.62 370.49 181.81 369.05 180.01C368.33 179.1 367.59 178.21 366.85 177.33L364.65 174.78L372.64 167.28Z" fill="#B65B52"/>
<path d="M381.64 220.81L378 224.72L385.12 228.92C385.12 228.92 387.58 225.65 386.62 222.3L381.64 220.81Z" fill="#B55B52"/>
<path d="M373.26 230.5L380.19 232.93L385.11 228.92L377.99 224.72L373.26 230.5Z" fill="#B55B52"/>
<path d="M393.22 246.52L347.45 236.52C349.734 221.053 353.075 205.76 357.45 190.75L403.23 200.75C399.035 215.806 395.693 231.087 393.22 246.52Z" fill="#16A34A"/>
<path d="M400.437 202.951L355.534 189.583L342.166 234.485L387.068 247.854L400.437 202.951Z" fill="white"/>
<path d="M346.7 137.28C346.7 137.86 346.34 138.28 345.96 138.28C345.58 138.28 345.3 137.79 345.33 137.21C345.36 136.63 345.69 136.21 346.07 136.21C346.45 136.21 346.73 136.7 346.7 137.28Z" fill="#263238"/>
<path d="M346.39 138.32C345.615 140.066 344.606 141.697 343.39 143.17C343.773 143.47 344.216 143.681 344.69 143.79C345.163 143.899 345.655 143.903 346.13 143.8L346.39 138.32Z" fill="#A02724"/>
<path d="M349 134.15C349.083 134.133 349.158 134.087 349.21 134.02C349.274 133.956 349.309 133.87 349.309 133.78C349.309 133.69 349.274 133.604 349.21 133.54C348.797 133.202 348.31 132.967 347.788 132.854C347.267 132.741 346.726 132.753 346.21 132.89C346.167 132.904 346.128 132.926 346.093 132.955C346.059 132.984 346.031 133.019 346.01 133.059C345.99 133.099 345.978 133.143 345.974 133.188C345.971 133.232 345.976 133.277 345.99 133.32C346.004 133.363 346.026 133.402 346.055 133.437C346.084 133.471 346.119 133.499 346.159 133.52C346.199 133.54 346.243 133.552 346.288 133.556C346.332 133.559 346.377 133.554 346.42 133.54C346.833 133.431 347.265 133.423 347.681 133.517C348.097 133.611 348.485 133.804 348.81 134.08C348.866 134.12 348.932 134.144 349 134.15Z" fill="#263238"/>
<path d="M364.1 145.6C363 150.87 362.29 158.16 365.92 161.67C365.92 161.67 364.42 167.01 354.63 167.01C343.88 167.01 349.52 162.33 349.52 162.33C354.01 160.94 354.04 155.85 353.07 151.76L364.1 145.6Z" fill="#B55B52"/>
<path d="M341.33 409.26C340.41 409.26 339.52 409.13 339.22 408.72C339.143 408.61 339.101 408.479 339.101 408.345C339.101 408.211 339.143 408.08 339.22 407.97C339.278 407.87 339.355 407.782 339.448 407.714C339.541 407.645 339.647 407.596 339.76 407.57C340.96 407.25 343.46 408.68 343.56 408.74C343.592 408.756 343.618 408.783 343.635 408.815C343.651 408.848 343.656 408.884 343.65 408.92C343.641 408.953 343.623 408.984 343.599 409.009C343.574 409.033 343.544 409.051 343.51 409.06C342.79 409.188 342.061 409.255 341.33 409.26ZM340.21 407.86C340.1 407.848 339.99 407.848 339.88 407.86C339.74 407.892 339.618 407.979 339.54 408.1C339.42 408.31 339.46 408.42 339.54 408.48C339.87 408.94 341.69 408.95 343.03 408.76C342.158 408.279 341.2 407.973 340.21 407.86Z" fill="#16A34A"/>
<path d="M343.51 409.06H343.44C342.57 408.67 340.87 407.11 341.01 406.3C341.01 406.11 341.19 405.87 341.65 405.82C341.828 405.792 342.009 405.804 342.182 405.854C342.355 405.904 342.515 405.991 342.65 406.11C343.55 406.86 343.72 408.8 343.73 408.88C343.728 408.94 343.703 408.997 343.66 409.04C343.638 409.053 343.613 409.062 343.587 409.066C343.561 409.069 343.535 409.067 343.51 409.06ZM341.79 406.14H341.68C341.38 406.14 341.36 406.29 341.35 406.33C341.26 406.82 342.42 408.04 343.3 408.57C343.226 407.757 342.905 406.985 342.38 406.36C342.216 406.219 342.007 406.141 341.79 406.14Z" fill="#16A34A"/>
<path d="M351.72 408.89H344.52L344.02 392.23H351.22L351.72 408.89Z" fill="#B55B52"/>
<path d="M344.28 408.06H352.14C352.283 408.059 352.421 408.107 352.532 408.197C352.643 408.286 352.72 408.411 352.75 408.55L354.09 414.94C354.123 415.096 354.121 415.258 354.083 415.413C354.044 415.569 353.972 415.713 353.87 415.836C353.768 415.959 353.639 416.058 353.494 416.124C353.348 416.191 353.19 416.224 353.03 416.22C350.2 416.22 346.11 416.01 342.54 416.01C338.38 416.01 335.75 416.24 330.86 416.24C327.91 416.24 327.13 413.24 328.37 412.98C334.01 411.75 337.64 411.62 342.54 408.62C343.056 408.274 343.659 408.08 344.28 408.06Z" fill="#263238"/>
<path d="M368.81 162.53C375.71 162.61 385.36 180.11 385.36 180.11L374.66 191C369.944 188.486 366.132 184.559 363.76 179.77C359.68 171.45 361.76 162.46 368.81 162.53Z" fill="#16A34A"/>
<path opacity="0.3" d="M368.81 162.53C375.71 162.61 385.36 180.11 385.36 180.11L374.66 191C369.944 188.486 366.132 184.559 363.76 179.77C359.68 171.45 361.76 162.46 368.81 162.53Z" fill="black"/>
<path d="M336.08 170.51C334.51 178.28 333.38 194.25 337.25 225.86H375.73C376.03 220.74 373.55 198.39 376.84 174.39C377.047 172.858 376.934 171.299 376.509 169.812C376.084 168.325 375.356 166.942 374.371 165.751C373.385 164.559 372.164 163.584 370.784 162.887C369.404 162.189 367.894 161.785 366.35 161.7H365.92C360.471 161.39 355.009 161.39 349.56 161.7C347.76 161.87 345.98 162.13 344.4 162.41C342.361 162.771 340.478 163.736 338.994 165.18C337.511 166.625 336.495 168.482 336.08 170.51Z" fill="#16A34A"/>
<path opacity="0.2" d="M336.08 170.51C334.51 178.28 333.38 194.25 337.25 225.86H375.73C376.03 220.74 373.55 198.39 376.84 174.39C377.047 172.858 376.934 171.299 376.509 169.812C376.084 168.325 375.356 166.942 374.371 165.751C373.385 164.559 372.164 163.584 370.784 162.887C369.404 162.189 367.894 161.785 366.35 161.7H365.92C360.471 161.39 355.009 161.39 349.56 161.7C347.76 161.87 345.98 162.13 344.4 162.41C342.361 162.771 340.478 163.736 338.994 165.18C337.511 166.625 336.495 168.482 336.08 170.51Z" fill="black"/>
<path opacity="0.2" d="M344.93 186.52L339.75 183C334.75 184.63 334.49 189.49 334.75 196.51C339.05 195.43 344 191.35 344.93 186.52Z" fill="black"/>
<path opacity="0.2" d="M344.02 392.23L344.28 400.82H351.48L351.22 392.23H344.02Z" fill="black"/>
<path d="M366.1 136.84C365.28 143.94 365.16 148.14 361.37 151.65C355.67 156.92 347.06 153.31 345.74 146.13C344.55 139.67 346.09 129.13 353.21 126.58C354.764 126.003 356.44 125.837 358.077 126.098C359.714 126.359 361.255 127.039 362.552 128.071C363.848 129.103 364.857 130.453 365.478 131.989C366.1 133.526 366.314 135.196 366.1 136.84Z" fill="#B55B52"/>
<path d="M350.94 139.88C348.73 140.38 347.73 135.17 349.94 133.17C347.94 132.17 345.05 130.72 344.09 128.54C342.98 126.04 345.98 123.04 348.57 123.17C347.73 121.5 349.57 117.04 354.85 118.72C360.13 120.4 362.61 123 362.61 123C362.61 123 364.35 117.22 368.02 121.89C371.27 126.03 370.02 129.58 370.02 129.58C370.02 129.58 374.86 134.17 373.61 137.58C372.912 139.575 371.482 141.23 369.61 142.21C369.61 142.21 370.34 150.21 364.46 152.21C358.58 154.21 354.87 150.21 355.37 147.87C351.57 148 347.69 143 350.94 139.88Z" fill="#263238"/>
<path d="M353.5 139.35C353.234 141.111 352.406 142.738 351.14 143.99C349.45 145.62 347.89 144.45 347.76 142.34C347.64 140.44 348.38 137.34 350.36 136.46C352.34 135.58 353.77 137.23 353.5 139.35Z" fill="#B55B52"/>
<path d="M412.8 399.81L406.4 402.11L400.04 385.64L406.44 383.35L412.8 399.81Z" fill="#B55B52"/>
<path d="M403.56 403.15C402.84 403.72 402.06 404.15 401.56 404.03C401.434 403.987 401.324 403.906 401.246 403.799C401.167 403.692 401.123 403.563 401.12 403.43C401.105 403.315 401.114 403.198 401.144 403.087C401.175 402.975 401.228 402.871 401.3 402.78C402.05 401.78 404.89 401.36 405.01 401.35C405.045 401.344 405.08 401.349 405.112 401.363C405.144 401.377 405.171 401.401 405.19 401.43C405.208 401.46 405.217 401.495 405.217 401.53C405.217 401.565 405.208 401.6 405.19 401.63C404.69 402.181 404.145 402.69 403.56 403.15ZM401.82 402.75C401.726 402.814 401.644 402.896 401.58 402.99C401.494 403.101 401.455 403.241 401.47 403.38C401.47 403.62 401.6 403.68 401.67 403.7C402.21 403.86 403.67 402.75 404.59 401.77C403.611 401.912 402.67 402.245 401.82 402.75Z" fill="#16A34A"/>
<path d="M405.15 401.65C405.131 401.657 405.109 401.657 405.09 401.65C404.17 401.88 401.87 401.71 401.48 400.98C401.39 400.81 401.35 400.54 401.69 400.21C401.811 400.092 401.956 400 402.114 399.94C402.272 399.88 402.441 399.852 402.61 399.86C403.78 399.86 405.11 401.31 405.17 401.37C405.184 401.394 405.191 401.422 405.191 401.45C405.191 401.478 405.184 401.506 405.17 401.53C405.175 401.55 405.176 401.571 405.173 401.592C405.169 401.613 405.162 401.633 405.15 401.65ZM402 400.42C401.969 400.438 401.942 400.462 401.92 400.49C401.7 400.7 401.76 400.81 401.78 400.85C402.01 401.28 403.67 401.53 404.69 401.41C404.136 400.805 403.404 400.392 402.6 400.23C402.383 400.217 402.17 400.285 402 400.42Z" fill="#16A34A"/>
<path d="M405.18 400.35L411.36 395.49C411.475 395.402 411.616 395.355 411.76 395.355C411.905 395.355 412.045 395.402 412.16 395.49L417.47 399.49C417.596 399.583 417.699 399.704 417.769 399.844C417.84 399.984 417.877 400.138 417.877 400.295C417.877 400.452 417.84 400.606 417.769 400.746C417.699 400.886 417.596 401.007 417.47 401.1C415.21 402.81 410.85 406.33 408.19 408.69C405.08 411.46 407.5 409.61 403.85 412.86C401.64 414.86 398.94 413.22 399.68 412.21C403.02 407.59 403.73 404.84 404.17 401.89C404.293 401.264 404.655 400.712 405.18 400.35Z" fill="#263238"/>
<path d="M300.07 188.37L297.26 182.32L289.61 187.05C289.61 187.05 292.13 192.2 297.35 191.64L300.07 188.37Z" fill="#B55B52"/>
<path d="M290.07 180.68L288.36 182.15C288.098 182.375 287.887 182.653 287.739 182.965C287.591 183.277 287.511 183.617 287.504 183.962C287.496 184.307 287.561 184.65 287.695 184.969C287.829 185.287 288.028 185.574 288.28 185.81L289.61 187.05L297.26 182.32L292.67 180.32C292.247 180.13 291.778 180.062 291.318 180.126C290.858 180.19 290.426 180.382 290.07 180.68Z" fill="#B55B52"/>
<path opacity="0.2" d="M400.04 385.64L403.32 394.13L409.72 391.84L406.44 383.35L400.04 385.64Z" fill="black"/>
<path d="M350.9 225.86C350.9 225.86 362.9 281.13 367.5 301.65C372.5 324.11 398.99 392.42 398.99 392.42L410.61 386.12C410.61 386.12 398.18 332.53 389.1 303.3C385.8 279.14 375.73 225.86 375.73 225.86H350.9Z" fill="#263238"/>
<path d="M395.72 389C395.66 389 398.1 393.51 398.1 393.51L412.48 388.11L411.34 383.72L395.72 389Z" fill="#16A34A"/>
<path opacity="0.3" d="M358 251.48C367.06 252.69 368.08 284.6 367.91 303.33C367.79 302.74 367.65 302.18 367.54 301.65C365.03 290.44 360.32 268.86 356.54 251.58C357.013 251.438 357.512 251.404 358 251.48Z" fill="black"/>
<path d="M337.25 225.86C337.25 225.86 334.19 279.66 334.69 301.6C335.21 324.43 341.62 399.16 341.62 399.16H353.81C353.81 399.16 355.81 325.76 356.63 303.35C357.54 278.91 362.55 225.86 362.55 225.86H337.25Z" fill="#263238"/>
<path d="M339.34 394.3C339.28 394.3 339.96 399.36 339.96 399.36H354.79L355.25 394.85L339.34 394.3Z" fill="#16A34A"/>
<path d="M347.62 174.23C345.957 177.19 344.103 180.04 342.07 182.76C340.054 185.444 337.887 188.011 335.58 190.45C333.3 192.88 330.89 195.18 328.42 197.36C325.95 199.54 323.37 201.62 321.05 203.53L320.23 204.21L319.55 204.45C317.895 205.04 316.124 205.236 314.38 205.02C312.949 204.862 311.544 204.519 310.2 204C307.948 203.048 305.833 201.8 303.91 200.29C302.133 198.91 300.462 197.399 298.91 195.77C298.15 194.98 297.43 194.15 296.72 193.32C296.01 192.49 295.35 191.65 294.66 190.7L298.61 187.01C300.14 188.15 301.79 189.39 303.44 190.45C305.032 191.538 306.681 192.539 308.38 193.45C309.888 194.282 311.489 194.934 313.15 195.39C313.766 195.557 314.402 195.634 315.04 195.62C315.375 195.623 315.704 195.533 315.99 195.36L314.5 196.28C316.94 194 319.15 191.96 321.35 189.81C323.55 187.66 325.62 185.48 327.61 183.23C329.6 180.98 331.5 178.66 333.25 176.23C335 173.8 336.62 171.36 338.15 168.86L347.62 174.23Z" fill="#B65B52"/>
<path d="M352.74 172.72C352.05 183.07 340.18 191.72 340.18 191.72L324.78 183.27C324.78 183.27 330.45 171.08 338.09 165.32C347.54 158.25 353.26 164.84 352.74 172.72Z" fill="#16A34A"/>
<path opacity="0.2" d="M352.74 172.72C352.05 183.07 340.18 191.72 340.18 191.72L324.78 183.27C324.78 183.27 330.45 171.08 338.09 165.32C347.54 158.25 353.26 164.84 352.74 172.72Z" fill="black"/>
</svg>
